<?xml version="1.0" standalone="no"?>
<!DOCTYPE svg PUBLIC "-//W3C//DTD SVG 20010904//EN"
 "http://www.w3.org/TR/2001/REC-SVG-20010904/DTD/svg10.dtd">
<svg version="1.0" xmlns="http://www.w3.org/2000/svg"
 width="700.000000pt" height="700.000000pt" viewBox="0 0 700.000000 700.000000"
 preserveAspectRatio="xMidYMid meet">
<metadata>
Created by potrace 1.11, written by Peter Selinger 2001-2013
</metadata>
<g transform="translate(0.000000,700.000000) scale(0.100000,-0.100000)"
fill="#000000" stroke="none">
<path d="M3298 6515 c-1 -1 -39 -5 -83 -9 -44 -4 -89 -9 -100 -11 -11 -2 -40
-6 -65 -9 -141 -16 -497 -107 -605 -155 -11 -5 -51 -21 -90 -36 -451 -179
-933 -543 -1225 -925 -19 -25 -41 -51 -48 -59 -18 -19 -173 -255 -207 -316
-60 -107 -134 -262 -178 -370 -54 -132 -135 -399 -153 -505 -3 -14 -9 -50 -15
-80 -6 -30 -12 -71 -15 -90 -3 -19 -7 -46 -9 -59 -27 -150 -26 -666 1 -786 2
-11 6 -36 8 -55 3 -19 8 -55 11 -80 9 -57 83 -359 95 -385 5 -11 18 -47 29
-80 62 -193 190 -453 319 -650 423 -646 1060 -1100 1800 -1285 65 -16 144 -34
177 -39 33 -6 71 -12 85 -15 171 -30 530 -42 735 -24 591 51 1156 278 1625
654 160 127 392 359 459 457 8 12 18 24 21 27 24 18 172 235 243 355 122 206
280 591 311 760 1 6 5 19 9 30 3 11 8 31 11 45 10 54 26 136 31 160 8 39 25
167 33 250 14 152 6 571 -13 665 -2 11 -6 38 -9 60 -3 22 -8 51 -11 65 -3 14
-8 41 -11 60 -3 19 -13 62 -21 95 -8 33 -16 67 -18 75 -27 136 -127 404 -221
592 -397 795 -1115 1373 -1969 1587 -66 16 -136 32 -155 35 -19 3 -46 8 -60
11 -43 9 -73 13 -140 21 -36 4 -76 9 -90 11 -29 5 -487 13 -492 8z"/>
</g>
</svg>
