<svg id="Layer_1" data-name="Layer 1" xmlns="http://www.w3.org/2000/svg" viewBox="0 0 273 175"><defs><style>.cls-1,.cls-2{fill:#fff;}.cls-1,.cls-3{stroke:#000;stroke-miterlimit:10;stroke-width:0.5px;}.cls-3{fill:none;}</style></defs><title>space-diagram</title><polygon class="cls-1" points="9.5 125.5 57.5 170.5 103.5 148.5 130.5 161.5 163.5 141.5 153.5 136.5 196.5 112.5 215.5 120.5 268.5 87.5 250.5 82.5 267.5 72.5 251.5 67.5 259.5 63.5 214.5 51.5 165.5 72.5 151.5 67.5 140.5 72.5 126.5 67.5 88.5 82.5 101.5 88.5 87.5 93.5 74.5 87.5 9.5 111.5 20.5 120.5 9.5 125.5"/><polygon class="cls-2" points="144.5 86.5 177.5 100.5 204.5 86.5 171.5 73.5 144.5 86.5"/><polygon class="cls-3" points="144.5 86.5 177.5 100.5 204.5 86.5 171.5 73.5 144.5 86.5"/><polygon class="cls-2" points="144.5 80.5 177.5 94.5 204.5 80.5 171.5 67.5 144.5 80.5"/><polygon class="cls-3" points="144.5 80.5 177.5 94.5 204.5 80.5 171.5 67.5 144.5 80.5"/><polygon class="cls-2" points="144.5 74.5 177.5 88.5 204.5 74.5 171.5 61.5 144.5 74.5"/><polygon class="cls-3" points="144.5 74.5 177.5 88.5 204.5 74.5 171.5 61.5 144.5 74.5"/><polygon class="cls-2" points="144.5 68.5 177.5 82.5 204.5 68.5 171.5 55.5 144.5 68.5"/><polygon class="cls-3" points="144.5 68.5 177.5 82.5 204.5 68.5 171.5 55.5 144.5 68.5"/><polygon class="cls-2" points="144.5 62.5 177.5 76.5 204.5 62.5 171.5 49.5 144.5 62.5"/><polygon class="cls-3" points="144.5 62.5 177.5 76.5 204.5 62.5 171.5 49.5 144.5 62.5"/><polygon class="cls-2" points="144.5 56.5 177.5 70.5 204.5 56.5 171.5 43.5 144.5 56.5"/><polygon class="cls-3" points="144.5 56.5 177.5 70.5 204.5 56.5 171.5 43.5 144.5 56.5"/><polygon class="cls-2" points="144.5 50.5 177.5 64.5 204.5 50.5 171.5 37.5 144.5 50.5"/><polygon class="cls-3" points="144.5 50.5 177.5 64.5 204.5 50.5 171.5 37.5 144.5 50.5"/><polygon class="cls-2" points="144.5 44.5 177.5 58.5 204.5 44.5 171.5 31.5 144.5 44.5"/><polygon class="cls-3" points="144.5 44.5 177.5 58.5 204.5 44.5 171.5 31.5 144.5 44.5"/><path d="M20.4751,55.1377,23.749,63.833H22.43L21.7461,61.95H17.7524l-.6713,1.8828H15.8335L19.06,55.1377Zm.8872,5.7686L19.7314,56.373,18.124,60.9063Z"/><path class="cls-3" d="M27,60s18.8563-3.73,26.5,8.5c4.12,6.5919,4.1661,11.8259,4.0547,13.4642"/><polygon points="55.532 80.232 55.91 79.904 57.525 81.766 59.265 80.019 59.619 80.373 57.5 82.5 55.532 80.232"/><path d="M210.9951,5.1377c1.6192,0,3.0586.42,3.0586,2.1465a2.1779,2.1779,0,0,1-.96,1.9189,2.0431,2.0431,0,0,1,1.3193,2.0635c0,1.8467-1.3789,2.5664-3.1182,2.5664h-3.43V5.1377Zm.1924,3.7178c.9951,0,1.6309-.3838,1.6309-1.4034,0-.8867-.66-1.2832-1.6309-1.2832h-2.1V8.8555Zm.1191,3.9463c1.2364,0,1.8477-.54,1.8477-1.5235,0-1.0195-.6113-1.4512-1.92-1.4512h-2.1465v2.9747Z"/><path class="cls-3" d="M204.5,10.5s-8-1-14,3c-4.7635,3.1757-7.9515,9.6713-8.7837,11.507"/><polygon points="180.598 22.636 181.075 22.485 181.815 24.837 184.107 23.927 184.291 24.393 181.5 25.5 180.598 22.636"/></svg>