<svg xmlns="http://www.w3.org/2000/svg" width="859.4767" height="567.0254" viewBox="0 0 859.4767 567.0254">
  <defs>
    <style>
      .cls-1 {
        fill: #000007;
      }
    </style>
  </defs>
  <g id="Layer_1" data-name="Layer 1">
    <path class="cls-1" d="M752.4719,66.5489h84.0736V12.308H728.0636V42.14c0,24.4085,0,24.4085-24.4084,24.4085H643.99c-24.4084,0-24.4084,0-24.4084-24.4085V12.308H565.3409V42.14c0,24.4085,0,24.4085-24.4086,24.4085H481.2674c-24.4087,0-24.4087,0-24.4087-24.4085V12.308H402.6179V42.14c0,24.4085,0,24.4085-24.4083,24.4085H318.5444c-24.4084,0-24.4084,0-24.4084-24.4085V12.308H77.1723V42.14c0,24.4085,0,24.4085-24.4084,24.4085H22.9312V120.79H52.7639c24.4084,0,24.4084,0,24.4084,24.4083v29.8326h29.8324c24.4087,0,24.4087,0,24.4087,24.4085v5.4241c0,24.4084,0,24.4084-24.4087,24.4084H22.9312V500.4765H52.7639c24.4084,0,24.4084,0,24.4084,24.4085v29.8324H239.8949V470.6439c0-24.4084,0-24.4084,24.4087-24.4084h5.4241c24.4083,0,24.4083,0,24.4083,24.4084v84.0735H402.6179V470.6439c0-24.4084,0-24.4084,24.4084-24.4084h29.8324V416.4031c0-24.4085,0-24.4085,24.4087-24.4085h59.6649c24.4086,0,24.4086,0,24.4086,24.4085v29.8324h29.8325c24.4083,0,24.4083,0,24.4083,24.4084v5.4241c0,24.4085,0,24.4085-24.4083,24.4085H511.1v54.2409H619.5817V524.885c0-24.4085,0-24.4085,24.4084-24.4085h59.6651c24.4084,0,24.4084,0,24.4084,24.4085v29.8324H836.5455V500.4765H752.4719c-24.4083,0-24.4083,0-24.4083-24.4085v-5.4241c0-24.4084,0-24.4084,24.4083-24.4084h84.0736V391.9946H752.4719c-24.4083,0-24.4083,0-24.4083-24.4085V362.162c0-24.4084,0-24.4084,24.4083-24.4084h84.0736V229.2718H752.4719c-24.4083,0-24.4083,0-24.4083-24.4084v-5.4241c0-24.4085,0-24.4085,24.4083-24.4085h84.0736V120.79H752.4719c-24.4083,0-24.4083,0-24.4083-24.4084V90.9574C728.0636,66.5489,728.0636,66.5489,752.4719,66.5489ZM728.0636,253.68v59.6652c0,24.4083,0,24.4083-24.4084,24.4083h-5.424c-24.4087,0-24.4087,0-24.4087-24.4083V283.5127H643.99c-24.4084,0-24.4084,0-24.4084-24.4085V253.68c0-24.4083,0-24.4083,24.4084-24.4083h59.6651C728.0636,229.2718,728.0636,229.2718,728.0636,253.68Zm-271.2049,5.4241c0,24.4085,0,24.4085-24.4083,24.4085h-5.4241c-24.4084,0-24.4084,0-24.4084-24.4085V199.4393c0-24.4085,0-24.4085,24.4084-24.4085H432.45c24.4083,0,24.4083,0,24.4083,24.4085v59.6649ZM595.1734,66.5489c24.4083,0,24.4083,0,24.4083,24.4085V120.79h29.8324c24.4084,0,24.4084,0,24.4084,24.4083v5.4241c0,24.4085,0,24.4085-24.4084,24.4085H619.5817v29.8326c0,24.4084,0,24.4084-24.4083,24.4084h-5.4241c-24.4084,0-24.4084,0-24.4084-24.4084V90.9574c0-24.4085,0-24.4085,24.4084-24.4085Zm-162.723,0c24.4083,0,24.4083,0,24.4083,24.4085v5.4241c0,24.4084,0,24.4084-24.4083,24.4084h-5.4241c-24.4084,0-24.4084,0-24.4084-24.4084V90.9574c0-24.4085,0-24.4085,24.4084-24.4085ZM323.9685,120.79c24.4087,0,24.4087,0,24.4087,24.4083V313.3453c0,24.4083,0,24.4083-24.4087,24.4083h-5.4241c-24.4084,0-24.4084,0-24.4084-24.4083V283.5127H264.3036c-24.4087,0-24.4087,0-24.4087-24.4085V199.4393c0-24.4085,0-24.4085,24.4087-24.4085H294.136V145.1982c0-24.4083,0-24.4083,24.4084-24.4083Zm-54.2408-54.241c24.4083,0,24.4083,0,24.4083,24.4085v5.4241c0,24.4084,0,24.4084-24.4083,24.4084h-5.4241c-24.4087,0-24.4087,0-24.4087-24.4084V90.9574c0-24.4085,0-24.4085,24.4087-24.4085ZM101.5806,120.79c-24.4083,0-24.4083,0-24.4083-24.4084V90.9574c0-24.4085,0-24.4085,24.4083-24.4085h59.6652c24.4084,0,24.4084,0,24.4084,24.4085v59.6649c0,24.4085,0,24.4085-24.4084,24.4085h-5.4241c-24.4083,0-24.4083,0-24.4083-24.4085V120.79Zm29.8328,379.6866H101.5806c-24.4083,0-24.4083,0-24.4083-24.4085V307.9212c0-24.4085,0-24.4085,24.4083-24.4085h29.8328V253.68c0-24.4083,0-24.4083,24.4083-24.4083h5.4241c24.4084,0,24.4084,0,24.4084,24.4083v29.8326h29.8324c24.4083,0,24.4083,0,24.4083,24.4085v5.4241c0,24.4083,0,24.4083-24.4083,24.4083H185.6542V476.068c0,24.4085,0,24.4085-24.4084,24.4085Zm132.89-108.4819c-24.4087,0-24.4087,0-24.4087-24.4085V362.162c0-24.4084,0-24.4084,24.4087-24.4084h5.4241c24.4083,0,24.4083,0,24.4083,24.4084v5.4241c0,24.4085,0,24.4085-24.4083,24.4085Zm162.7227,0c-24.4084,0-24.4084,0-24.4084-24.4085V362.162c0-24.4084,0-24.4084,24.4084-24.4084H432.45c24.4083,0,24.4083,0,24.4083,24.4084v5.4241c0,24.4085,0,24.4085-24.4083,24.4085ZM511.1,337.7536H481.2674c-24.4087,0-24.4087,0-24.4087-24.4083v-5.4241c0-24.4085,0-24.4085,24.4087-24.4085H511.1V253.68c0-24.4083,0-24.4083,24.4084-24.4083h5.4241c24.4086,0,24.4086,0,24.4086,24.4083v59.6652c0,24.4083,0,24.4083-24.4086,24.4083ZM643.99,446.2355c-24.4084,0-24.4084,0-24.4084-24.4083V391.9946H589.7493c-24.4084,0-24.4084,0-24.4084-24.4085V362.162c0-24.4084,0-24.4084,24.4084-24.4084h59.6648c24.4084,0,24.4084,0,24.4084,24.4084v59.6652c0,24.4083,0,24.4083-24.4084,24.4083Z"/>
  </g>
</svg>
