<svg id="Layer_1" data-name="Layer 1" xmlns="http://www.w3.org/2000/svg" viewBox="0 0 841.8898 595.2756"><defs><style>.cls-1{fill:#1d1d1b;}.cls-2{fill:none;stroke:#1d1d1b;stroke-miterlimit:10;stroke-width:0.5px;}</style></defs><title>grid</title><path class="cls-1" d="M445.6624,27.0531a2.9716,2.9716,0,0,1-2.54-1.2l.66-.59a2.803,2.803,0,0,0,.8652.7349,2.2658,2.2658,0,0,0,1.0547.2348,1.6275,1.6275,0,0,0,1.0957-.3247,1.1582,1.1582,0,0,0,.375-.9253,1.0029,1.0029,0,0,0-.2754-.75,1.7745,1.7745,0,0,0-.9551-.38l-.77-.13a2.6847,2.6847,0,0,1-.8555-.2652,1.8084,1.8084,0,0,1-.5547-.44,1.569,1.569,0,0,1-.3007-.565,2.3332,2.3332,0,0,1-.09-.65,1.7579,1.7579,0,0,1,.6358-1.47,2.7322,2.7322,0,0,1,1.7343-.5,3.276,3.276,0,0,1,1.41.2749,2.3629,2.3629,0,0,1,.93.7652l-.64.6a2.3154,2.3154,0,0,0-.69-.5952,2.063,2.063,0,0,0-1.0195-.2247,1.6294,1.6294,0,0,0-1.0254.28,1.005,1.005,0,0,0-.3545.84.9905.9905,0,0,0,.2695.7251,1.79,1.79,0,0,0,.9707.395l.75.13a3.0856,3.0856,0,0,1,.835.2651,1.8684,1.8684,0,0,1,.5644.4248,1.51,1.51,0,0,1,.3155.5654,2.288,2.288,0,0,1,.0947.6646,1.9492,1.9492,0,0,1-.6445,1.5454A2.7191,2.7191,0,0,1,445.6624,27.0531Z"/><path class="cls-1" d="M451.7024,27.0531a2.5058,2.5058,0,0,1-1-.19,2.1085,2.1085,0,0,1-.75-.54,2.3944,2.3944,0,0,1-.4746-.85,3.8825,3.8825,0,0,1,0-2.24,2.3964,2.3964,0,0,1,.4746-.85,2.1037,2.1037,0,0,1,.75-.54,2.7137,2.7137,0,0,1,1.9951,0,2.08,2.08,0,0,1,.7549.54,2.4,2.4,0,0,1,.4756.85,3.8847,3.8847,0,0,1,0,2.24,2.3977,2.3977,0,0,1-.4756.85,2.0852,2.0852,0,0,1-.7549.54A2.5122,2.5122,0,0,1,451.7024,27.0531Zm0-.77a1.37,1.37,0,0,0,1.02-.3852,1.5982,1.5982,0,0,0,.38-1.1651v-.76a1.599,1.599,0,0,0-.38-1.1651,1.5446,1.5446,0,0,0-2.04,0,1.5947,1.5947,0,0,0-.38,1.1651v.76a1.5939,1.5939,0,0,0,.38,1.1651A1.366,1.366,0,0,0,451.7024,26.2831Z"/><path class="cls-1" d="M458.8528,26.0732h-.04a1.8145,1.8145,0,0,1-.205.375,1.4762,1.4762,0,0,1-.3.31,1.4015,1.4015,0,0,1-.4151.2149,1.7783,1.7783,0,0,1-.5605.08,1.6881,1.6881,0,0,1-1.2842-.51,2.0177,2.0177,0,0,1-.4854-1.45v-3.32h.93v3.16q0,1.33,1.15,1.33a1.7782,1.7782,0,0,0,.4444-.0552,1.157,1.157,0,0,0,.3857-.1748.9377.9377,0,0,0,.2744-.3.8138.8138,0,0,0,.1055-.42v-3.54h.93v5.16h-.93Z"/><path class="cls-1" d="M461.4622,26.163h1.45v-3.62h-1.45v-.77h2.3808v1.33h.06a1.8512,1.8512,0,0,1,.5947-.98,1.7129,1.7129,0,0,1,1.125-.35h.6807v.91h-1a1.4622,1.4622,0,0,0-1.0655.3848,1.328,1.328,0,0,0-.3945.9951v2.1h1.9492v.77h-4.33Z"/><path class="cls-1" d="M469.8928,27.0531a2.5707,2.5707,0,0,1-1.0156-.19,2.033,2.033,0,0,1-.75-.5454,2.5032,2.5032,0,0,1-.47-.85,3.8311,3.8311,0,0,1,0-2.2251,2.502,2.502,0,0,1,.47-.855,2.0273,2.0273,0,0,1,.75-.5449,2.5333,2.5333,0,0,1,1.0059-.19,2.1187,2.1187,0,0,1,1.2441.334,2.0032,2.0032,0,0,1,.7051.876l-.7295.4a1.2591,1.2591,0,0,0-.4453-.6,1.2925,1.2925,0,0,0-.7744-.22,1.3076,1.3076,0,0,0-1.0352.4131,1.5371,1.5371,0,0,0-.3652,1.06v.875a1.5353,1.5353,0,0,0,.3652,1.06,1.3325,1.3325,0,0,0,1.0547.4131,1.3518,1.3518,0,0,0,.82-.2349,1.7289,1.7289,0,0,0,.5195-.6352l.67.44a2.0263,2.0263,0,0,1-.7295.8755A2.2268,2.2268,0,0,1,469.8928,27.0531Z"/><path class="cls-1" d="M475.803,27.0531a2.68,2.68,0,0,1-1.03-.19,2.1134,2.1134,0,0,1-.7754-.54,2.4222,2.4222,0,0,1-.4844-.8452,3.4241,3.4241,0,0,1-.17-1.1148,3.3616,3.3616,0,0,1,.1748-1.12,2.5232,2.5232,0,0,1,.49-.855,2.11,2.11,0,0,1,.7548-.5449,2.5789,2.5789,0,0,1,1.93-.0054,2.0934,2.0934,0,0,1,.7354.5254,2.3893,2.3893,0,0,1,.47.8047,3.0376,3.0376,0,0,1,.165,1.0249v.39h-3.76v.209a1.4572,1.4572,0,0,0,.3994,1.0586,1.4749,1.4749,0,0,0,1.11.4126,1.6715,1.6715,0,0,0,.88-.2236,1.5634,1.5634,0,0,0,.58-.6216l.63.4917a1.9954,1.9954,0,0,1-.7852.8223A2.51,2.51,0,0,1,475.803,27.0531Zm-.0606-4.66a1.4783,1.4783,0,0,0-.58.11,1.43,1.43,0,0,0-.4551.3051,1.3376,1.3376,0,0,0-.3.4649,1.61,1.61,0,0,0-.1045.59v.08h2.79v-.11a1.47,1.47,0,0,0-.37-1.0449A1.2808,1.2808,0,0,0,475.7424,22.393Z"/><path class="cls-1" d="M146.8176,111.3383l1.6826-1.6831a2.0166,2.0166,0,0,1,1.3682-.6753,1.7389,1.7389,0,0,1,1.2979.5693,1.4761,1.4761,0,0,1,.48.9058,1.6694,1.6694,0,0,1-.1972.9331l.0214.021a1.9216,1.9216,0,0,1,1.0645-.3144,1.5527,1.5527,0,0,1,1.0566.5263,2.18,2.18,0,0,1,.4551.6543,1.8825,1.8825,0,0,1,.17.7285,1.7666,1.7666,0,0,1-.1338.7281,1.9709,1.9709,0,0,1-.4423.6543l-1.8877,1.8876Zm3.7119.5591a1.318,1.318,0,0,0,.4219-.7393.84.84,0,0,0-.2939-.7036l-.2618-.2617a.8362.8362,0,0,0-.7041-.2935,1.31,1.31,0,0,0-.7382.4209l-.8985.898,1.5772,1.5771Zm2.3477,2.1348a1.4081,1.4081,0,0,0,.4531-.7989.9209.9209,0,0,0-.3262-.77l-.2753-.2759a.9112.9112,0,0,0-.76-.3144,1.3969,1.3969,0,0,0-.8027.4487l-1.0039,1.0044,1.7109,1.7109Z"/><path class="cls-1" d="M157.6643,110.5322a2.6769,2.6769,0,0,1-.8623.5942,2.1129,2.1129,0,0,1-.93.166,2.4072,2.4072,0,0,1-.94-.2544,3.7147,3.7147,0,0,1-1.5772-1.5835,2.524,2.524,0,0,1-.2578-.9512,2.1246,2.1246,0,0,1,.1485-.92,2.5813,2.5813,0,0,1,1.3613-1.3681,2.093,2.093,0,0,1,.8906-.1485,2.3933,2.3933,0,0,1,.9014.2373,3.0456,3.0456,0,0,1,.8418.6079l.2754.2759-2.6582,2.6587.1474.148a1.4556,1.4556,0,0,0,1.0323.4653,1.4751,1.4751,0,0,0,1.0761-.4932,1.6726,1.6726,0,0,0,.4639-.7807,1.5449,1.5449,0,0,0-.03-.8492l.794-.0981a2.0006,2.0006,0,0,1,.0263,1.1367A2.5143,2.5143,0,0,1,157.6643,110.5322Zm-3.3369-3.2525a1.4788,1.4788,0,0,0-.333.4878,1.4268,1.4268,0,0,0-.1055.5376,1.3426,1.3426,0,0,0,.1162.541,1.6286,1.6286,0,0,0,.3428.4917l.0566.0562,1.9727-1.9732-.0772-.0776a1.467,1.467,0,0,0-1.0009-.4771A1.281,1.281,0,0,0,154.3274,107.28Z"/><path class="cls-1" d="M160.2805,107.7465l-3.6484-3.6484.6572-.6577.6094.6084.0273-.0284a2.0123,2.0123,0,0,1-.1162-.4067,1.3645,1.3645,0,0,1,.1309-.8809,1.7766,1.7766,0,0,1,.3388-.4526,1.69,1.69,0,0,1,1.27-.5474,2.0213,2.0213,0,0,1,1.3691.6822l2.3467,2.3471-.6572.6577-2.2344-2.2343q-.9405-.94-1.7539-.1275a1.7776,1.7776,0,0,0-.2754.354,1.1376,1.1376,0,0,0-.1484.396.938.938,0,0,0,.0175.4068.8168.8168,0,0,0,.2227.3711l2.5019,2.5029Z"/><path class="cls-1" d="M165.45,104.3173l1.6972-1.6973-3.9736-3.9741L161.4192,100.4l-.544-.5444,2.4112-2.4116,4.1865,4.186a1.33,1.33,0,0,1,.4238.8413,1.1537,1.1537,0,0,1-.41.8985l-1.4922,1.4921Zm-3.2305-7.291a.7266.7266,0,0,1-.4854.2651.53.53,0,0,1-.3779-.166l-.1348-.1343a.5581.5581,0,0,1-.17-.3818.9486.9486,0,0,1,.7461-.7461.5431.5431,0,0,1,.3858.1665l.1337.1343a.5192.5192,0,0,1,.1631.3813A.7268.7268,0,0,1,162.219,97.0263Z"/><path class="cls-1" d="M171.6018,96.4252a.873.873,0,0,1-.6436.3115,1.0953,1.0953,0,0,1-.622-.248l-.0352.0356a1.4635,1.4635,0,0,1,.1123.8912,1.7624,1.7624,0,0,1-.53.8984,1.8674,1.8674,0,0,1-1.1954.6079,1.4376,1.4376,0,0,1-1.1445-.4736,1.3072,1.3072,0,0,1-.418-1.1807,2.934,2.934,0,0,1,.9268-1.478l.7432-.7427-.3262-.3252a1.0646,1.0646,0,0,0-.7949-.3716,1.2489,1.2489,0,0,0-.8106.4214,1.605,1.605,0,0,0-.4521.728,1.4769,1.4769,0,0,0,.0146.7569l-.75.0849a1.5471,1.5471,0,0,1-.0742-.4707,2.0276,2.0276,0,0,1,.07-.5371,2.3007,2.3007,0,0,1,.2481-.5727,2.9117,2.9117,0,0,1,.456-.5767,2.2158,2.2158,0,0,1,1.38-.7212,1.6346,1.6346,0,0,1,1.3145.5444l1.93,1.93.4883-.4878.5449.5445Zm-2.0791,1.2168a1.6085,1.6085,0,0,0,.4873-.8559.77.77,0,0,0-.1973-.7212l-.5654-.5655-.7353.7354a1.9479,1.9479,0,0,0-.5557.8242.6056.6056,0,0,0,.166.6113l.1484.1485a.6538.6538,0,0,0,.5948.2124A1.2689,1.2689,0,0,0,169.5227,97.642Z"/><path class="cls-1" d="M172.7053,95.3222l-3.6484-3.6484.5859-.5865.4453.4453.0352-.0356a1.5186,1.5186,0,0,1-.1338-.6148.8626.8626,0,0,1,.2969-.6084.9243.9243,0,0,1,.63-.311.9743.9743,0,0,1,.622.2193l.0283-.0284a1.5676,1.5676,0,0,1-.1347-.6933,1.0192,1.0192,0,0,1,.34-.6719.8677.8677,0,0,1,.8985-.29,2.7124,2.7124,0,0,1,1.0459.7212l2.5459,2.5454-.5879.587-2.4532-2.4537a1.8311,1.8311,0,0,0-.6855-.4951.492.492,0,0,0-.4951.1631.6443.6443,0,0,0-.2022.4771.7937.7937,0,0,0,.2735.541l2.665,2.6655-.5869.5874-2.4541-2.4536a1.814,1.814,0,0,0-.6856-.4951.48.48,0,0,0-.4873.1557.6519.6519,0,0,0-.2089.4844.7907.7907,0,0,0,.2714.541l2.6661,2.6656Z"/><path class="cls-1" d="M174.5569,84.6874a.7217.7217,0,0,1-.4844.2652.53.53,0,0,1-.3779-.1661l-.1338-.1342a.5414.5414,0,0,1-.17-.3819.9572.9572,0,0,1,.749-.7495.5472.5472,0,0,1,.3818.1695l.1348.1342a.5306.5306,0,0,1,.166.3784A.7238.7238,0,0,1,174.5569,84.6874Zm2.2344,5.459,1.28-1.28-2.5595-2.5595-1.2793,1.28-.545-.5444,1.9375-1.9375,3.1036,3.104,1.2031-1.2021.5439.5444-3.14,3.14Z"/><path class="cls-1" d="M181.4944,86.5331l-3.6485-3.6484.6573-.6577.6084.6084.0283-.0283a2.0068,2.0068,0,0,1-.1162-.4068,1.379,1.379,0,0,1-.0117-.435,1.4191,1.4191,0,0,1,.1416-.4454,1.7766,1.7766,0,0,1,.3388-.4526,1.69,1.69,0,0,1,1.27-.5478,2.0231,2.0231,0,0,1,1.3691.6821l2.3477,2.3472-.6582.6577-2.2344-2.2344q-.94-.94-1.7539-.127a1.7867,1.7867,0,0,0-.2754.3536,1.1448,1.1448,0,0,0-.1485.3964.9529.9529,0,0,0,.0176.4063.8137.8137,0,0,0,.2227.3711l2.5029,2.5029Z"/><path class="cls-1" d="M52.5139,148.48h2.38a2.0152,2.0152,0,0,1,1.4448.49,1.7379,1.7379,0,0,1,.5151,1.32,1.4833,1.4833,0,0,1-.3.98,1.6785,1.6785,0,0,1-.8.52v.03a1.9242,1.9242,0,0,1,.9751.53,1.5516,1.5516,0,0,1,.375,1.12,2.1735,2.1735,0,0,1-.14.7852,1.91,1.91,0,0,1-.395.6352,1.7892,1.7892,0,0,1-.61.42,1.97,1.97,0,0,1-.7754.15h-2.67Zm2.23,3.02a1.3129,1.3129,0,0,0,.82-.2251.836.836,0,0,0,.29-.7051v-.37a.836.836,0,0,0-.29-.7051,1.31,1.31,0,0,0-.82-.2251h-1.27v2.23Zm.15,3.17a1.409,1.409,0,0,0,.8847-.2451.92.92,0,0,0,.315-.7749v-.39a.9107.9107,0,0,0-.315-.76,1.3913,1.3913,0,0,0-.8847-.25h-1.42v2.42Z"/><path class="cls-1" d="M60.7541,155.5805a2.68,2.68,0,0,1-1.03-.19,2.11,2.11,0,0,1-.7749-.54,2.4207,2.4207,0,0,1-.4849-.8452,3.4214,3.4214,0,0,1-.17-1.1148,3.3748,3.3748,0,0,1,.1748-1.12,2.5325,2.5325,0,0,1,.49-.8549,2.1149,2.1149,0,0,1,.7549-.545,2.5808,2.5808,0,0,1,1.93-.0053,2.0885,2.0885,0,0,1,.7348.5253,2.3823,2.3823,0,0,1,.47.8047,3.04,3.04,0,0,1,.165,1.0249v.39h-3.76v.209a1.4578,1.4578,0,0,0,.4,1.0586,1.4749,1.4749,0,0,0,1.11.4126,1.6726,1.6726,0,0,0,.88-.2237,1.5616,1.5616,0,0,0,.58-.6216l.63.4917a1.9951,1.9951,0,0,1-.7851.8223A2.5107,2.5107,0,0,1,60.7541,155.5805Zm-.06-4.66a1.4774,1.4774,0,0,0-.58.11,1.4259,1.4259,0,0,0-.4551.3052,1.3315,1.3315,0,0,0-.3.4648,1.6105,1.6105,0,0,0-.105.59v.08h2.79v-.11a1.4677,1.4677,0,0,0-.37-1.0449A1.28,1.28,0,0,0,60.6941,150.92Z"/><path class="cls-1" d="M64.574,155.46V150.3h.93v.86h.04a2.0047,2.0047,0,0,1,.2051-.37,1.3672,1.3672,0,0,1,.7148-.53,1.7784,1.7784,0,0,1,.56-.08,1.69,1.69,0,0,1,1.2846.51,2.02,2.02,0,0,1,.4854,1.45v3.32h-.93V152.3q0-1.3293-1.15-1.33a1.7889,1.7889,0,0,0-.4448.0552,1.1549,1.1549,0,0,0-.3853.1753.94.94,0,0,0-.2749.3.8151.8151,0,0,0-.105.42v3.54Z"/><path class="cls-1" d="M70.654,156.69h2.4v-5.62h-2.48v-.77h3.41v5.92a1.331,1.331,0,0,1-.2949.8951,1.1536,1.1536,0,0,1-.9253.3452h-2.11Zm2.87-7.44a.7238.7238,0,0,1-.53-.1553.5322.5322,0,0,1-.15-.3847v-.19a.5516.5516,0,0,1,.15-.39.9489.9489,0,0,1,1.0552,0,.5414.5414,0,0,1,.1548.39v.19a.5227.5227,0,0,1-.1548.3847A.7257.7257,0,0,1,73.5242,149.25Z"/><path class="cls-1" d="M80.5842,155.46a.8736.8736,0,0,1-.6753-.2349,1.0949,1.0949,0,0,1-.2646-.6152h-.05a1.4635,1.4635,0,0,1-.55.71,1.7593,1.7593,0,0,1-1.01.26,1.8683,1.8683,0,0,1-1.2749-.415,1.4406,1.4406,0,0,1-.4751-1.1451,1.3077,1.3077,0,0,1,.54-1.13,2.9337,2.9337,0,0,1,1.7-.39h1.05v-.46a1.0663,1.0663,0,0,0-.3-.8252,1.2463,1.2463,0,0,0-.87-.2749,1.6045,1.6045,0,0,0-.8349.1948,1.475,1.475,0,0,0-.5249.5454l-.59-.47a1.5457,1.5457,0,0,1,.28-.3848,1.9841,1.9841,0,0,1,.43-.33,2.3,2.3,0,0,1,.58-.23,2.93,2.93,0,0,1,.73-.0849,2.2146,2.2146,0,0,1,1.4853.4648,1.6347,1.6347,0,0,1,.5449,1.315v2.73h.69v.77Zm-2.33-.61a1.6156,1.6156,0,0,0,.95-.26.7719.7719,0,0,0,.37-.65v-.8h-1.04a1.9456,1.9456,0,0,0-.9751.19.6059.6059,0,0,0-.3149.55v.21a.6525.6525,0,0,0,.27.57A1.27,1.27,0,0,0,78.2541,154.8505Z"/><path class="cls-1" d="M82.1443,155.46V150.3h.83v.63h.05a1.5162,1.5162,0,0,1,.34-.53.8672.8672,0,0,1,.64-.22.9239.9239,0,0,1,.6651.2246.979.979,0,0,1,.2847.5952h.04a1.58,1.58,0,0,1,.395-.5849,1.0152,1.0152,0,0,1,.7153-.2349.8667.8667,0,0,1,.84.43,2.7118,2.7118,0,0,1,.23,1.25v3.6h-.83v-3.47a1.8211,1.8211,0,0,0-.1348-.835.4927.4927,0,0,0-.4653-.2349.6418.6418,0,0,0-.48.1949.7937.7937,0,0,0-.19.5752v3.77h-.83v-3.47a1.8211,1.8211,0,0,0-.1348-.835.4825.4825,0,0,0-.4551-.2349.6552.6552,0,0,0-.49.1949.7941.7941,0,0,0-.19.5752v3.77Z"/><path class="cls-1" d="M88.6941,154.69h1.81v-3.62h-1.81v-.77h2.74v4.39h1.7v.77h-4.44Zm2.28-5.44a.7226.7226,0,0,1-.53-.1553.53.53,0,0,1-.15-.3847v-.19a.5494.5494,0,0,1,.15-.39.9568.9568,0,0,1,1.06,0,.5494.5494,0,0,1,.15.39v.19a.53.53,0,0,1-.15.3847A.7237.7237,0,0,1,90.9739,149.25Z"/><path class="cls-1" d="M94.574,155.46V150.3h.93v.86h.04a2.0047,2.0047,0,0,1,.2051-.37,1.3672,1.3672,0,0,1,.7148-.53,1.7784,1.7784,0,0,1,.56-.08,1.69,1.69,0,0,1,1.2846.51,2.02,2.02,0,0,1,.4854,1.45v3.32h-.93V152.3q0-1.3293-1.15-1.33a1.7889,1.7889,0,0,0-.4448.0552,1.1549,1.1549,0,0,0-.3853.1753.94.94,0,0,0-.2749.3.8151.8151,0,0,0-.105.42v3.54Z"/><path class="cls-1" d="M208.2922,113.1137l-.0429.0425a2.6605,2.6605,0,0,1,.1328.437,1.41,1.41,0,0,1,.0195.458,1.4885,1.4885,0,0,1-.1465.4824,1.8687,1.8687,0,0,1-.3672.4956,1.8157,1.8157,0,0,1-1.8359.5269,5.2028,5.2028,0,0,1-2.252-1.4746,4.9375,4.9375,0,0,1-1.4912-2.3687,2.1245,2.1245,0,0,1,.6856-2.001,2.5186,2.5186,0,0,1,.7109-.5195,2.0563,2.0563,0,0,1,.7041-.1948,1.9574,1.9574,0,0,1,.6748.06,3.6774,3.6774,0,0,1,.626.23l-.3672.834c-.1514-.0659-.3008-.1221-.4463-.1694a1.3941,1.3941,0,0,0-.4385-.07,1.1115,1.1115,0,0,0-.4384.0918,1.3578,1.3578,0,0,0-.4307.3042,1.4,1.4,0,0,0-.3691.5864,1.2788,1.2788,0,0,0-.0176.6465,2.1134,2.1134,0,0,0,.3.6884,4.23,4.23,0,0,0,.5781.7061l.77.77a5.2838,5.2838,0,0,0,.71.6031,2.1584,2.1584,0,0,0,.6846.3315,1.2322,1.2322,0,0,0,1.2607-.3579,1.2945,1.2945,0,0,0,.4375-.9854,1.4183,1.4183,0,0,0-.4531-.9546l-.4785-.4785-1.0039,1.0044-.5235-.5234,1.626-1.6265,2.4756,2.4751-.623.6221Z"/><path class="cls-1" d="M212.4348,109.0966l-.0283.0283a1.8256,1.8256,0,0,1,.12.41,1.484,1.484,0,0,1,.0068.4316,1.3679,1.3679,0,0,1-.1416.4453,1.7784,1.7784,0,0,1-.34.4527,1.6867,1.6867,0,0,1-1.2686.5473,2.0181,2.0181,0,0,1-1.3681-.6816l-2.3477-2.3482.6573-.6577,2.2353,2.2349q.9405.94,1.7529.1274a1.8175,1.8175,0,0,0,.2764-.354,1.1755,1.1755,0,0,0,.1484-.3955.9555.9555,0,0,0-.0175-.4072.8188.8188,0,0,0-.2227-.3711l-2.5039-2.5034.6582-.6577,3.6484,3.6489-.6582.6577Z"/><path class="cls-1" d="M216.6692,106.0776a1.1665,1.1665,0,0,1-.9.413,1.3116,1.3116,0,0,1-.8457-.42l-2.2275-2.2275-1.167,1.1665-.544-.5444.8486-.8487a.55.55,0,0,0,.1944-.35.5246.5246,0,0,0-.1944-.3574l-.9335-.9331.623-.6221,1.2861,1.2866,1.62-1.62.5439.5445-1.62,1.62,2.56,2.56,1.6192-1.62.5449.5444Z"/><path class="cls-1" d="M220.87,102.0468a2.6785,2.6785,0,0,1-.8633.5942,2.11,2.11,0,0,1-.93.1661,2.4172,2.4172,0,0,1-.94-.2549,3.715,3.715,0,0,1-1.5781-1.584,2.5607,2.5607,0,0,1-.2578-.9512,2.1321,2.1321,0,0,1,.1484-.9189,2.5848,2.5848,0,0,1,1.3614-1.3687,2.0813,2.0813,0,0,1,.8906-.1479,2.3722,2.3722,0,0,1,.9023.2363,3.059,3.059,0,0,1,.8418.6084l.2754.2759-2.6582,2.6587.1465.1474a1.457,1.457,0,0,0,1.0313.4658,1.4765,1.4765,0,0,0,1.0771-.4926,1.658,1.658,0,0,0,.4639-.7808,1.5563,1.5563,0,0,0-.0293-.85l.7929-.0977a1.9907,1.9907,0,0,1,.0274,1.1368A2.5242,2.5242,0,0,1,220.87,102.0468Zm-3.3379-3.2529a1.4736,1.4736,0,0,0-.3321.4878,1.43,1.43,0,0,0-.1064.5376,1.3389,1.3389,0,0,0,.1162.5405,1.6274,1.6274,0,0,0,.3438.4917l.0566.0566,1.9726-1.9726-.0781-.0782a1.4691,1.4691,0,0,0-1-.477A1.2787,1.2787,0,0,0,217.5325,98.7939Z"/><path class="cls-1" d="M223.4866,99.2607l-3.6494-3.649.6582-.6577.6084.6084.0283-.0283a1.998,1.998,0,0,1-.1172-.4067,1.41,1.41,0,0,1-.01-.4346,1.3732,1.3732,0,0,1,.1406-.4458,1.8034,1.8034,0,0,1,.34-.4522,1.69,1.69,0,0,1,1.2685-.5478,2.0171,2.0171,0,0,1,1.3682.6821l2.3477,2.3477-.6573.6577L223.5774,94.7q-.939-.94-1.7529-.1274a1.789,1.789,0,0,0-.2754.3535,1.1657,1.1657,0,0,0-.1485.3965.9217.9217,0,0,0,.0176.4062.8132.8132,0,0,0,.2227.3711l2.5029,2.5035Z"/><path class="cls-1" d="M222.468,89.8139l.6582-.6577,2.1914,2.1919.0352-.0352a1.8165,1.8165,0,0,1,1.9551-2.3511,4.0039,4.0039,0,0,1,2.8281,2.8287,1.7614,1.7614,0,0,1-2.35,1.955l-.0352.0352.6074.6079-.6582.6577Zm6.3008,3.2173a1.3084,1.3084,0,0,0,.4375-1.0113,1.5434,1.5434,0,0,0-.502-1.0185l-.6074-.6079a1.5488,1.5488,0,0,0-1.0185-.502,1.308,1.308,0,0,0-1.0108.438,1.6709,1.6709,0,0,0-.29.3823,1.2556,1.2556,0,0,0-.1455.42.95.95,0,0,0,.0293.417.8927.8927,0,0,0,.2363.3785l1.2734,1.2729a.9156.9156,0,0,0,.3809.24.8914.8914,0,0,0,.418.0289,1.3279,1.3279,0,0,0,.417-.1485A1.6975,1.6975,0,0,0,228.7688,93.0312Z"/><path class="cls-1" d="M233.5989,89.3188a2.6908,2.6908,0,0,1-.8633.5942,2.1115,2.1115,0,0,1-.93.166,2.42,2.42,0,0,1-.94-.2549,3.4318,3.4318,0,0,1-.9092-.6684,3.3828,3.3828,0,0,1-.668-.9155,2.5418,2.5418,0,0,1-.2578-.9512,2.1047,2.1047,0,0,1,.1485-.919,2.5754,2.5754,0,0,1,1.3613-1.3686,2.0876,2.0876,0,0,1,.8906-.148,2.3786,2.3786,0,0,1,.9.2369,3.0224,3.0224,0,0,1,.8418.6084l.2764.2758-2.6582,2.6582.1474.1475a1.4571,1.4571,0,0,0,1.0313.4658,1.4724,1.4724,0,0,0,1.0761-.4927,1.6669,1.6669,0,0,0,.4649-.7807,1.5727,1.5727,0,0,0-.0293-.8491l.793-.0982a2,2,0,0,1,.0263,1.1367A2.5126,2.5126,0,0,1,233.5989,89.3188Zm-3.3379-3.253a1.4788,1.4788,0,0,0-.333.4878,1.43,1.43,0,0,0-.1065.5376,1.3241,1.3241,0,0,0,.1172.5406,1.61,1.61,0,0,0,.3438.4917l.0566.0566,1.9727-1.9727-.0782-.0781a1.4712,1.4712,0,0,0-1.0009-.477A1.2777,1.2777,0,0,0,230.261,86.0658Z"/><path class="cls-1" d="M235.5569,86.1015l1.0254-1.0254-2.56-2.56-1.0254,1.0254-.5449-.5444,1.6836-1.6831.9394.94.043-.0425a1.8516,1.8516,0,0,1-.2725-1.1132,1.7126,1.7126,0,0,1,.5479-1.043l.4805-.481.6445.6436-.707.707A1.46,1.46,0,0,0,235.33,81.95a1.33,1.33,0,0,0,.4248.9834l1.4844,1.4849,1.3789-1.3784.5449.5444-3.0625,3.0615Z"/><path class="cls-1" d="M244.2122,79.3559a1.2524,1.2524,0,0,1,.36,1.2866,4.1365,4.1365,0,0,1-1.1455,1.6758,6.0773,6.0773,0,0,1-.8379.7178,2.2771,2.2771,0,0,1-.6934.3393,1.085,1.085,0,0,1-.5683.0108,1.0494,1.0494,0,0,1-.4668-.2832.9045.9045,0,0,1-.3047-.6216,1.3491,1.3491,0,0,1,.2129-.7007l-.0781-.0777a.8868.8868,0,0,1-.459.0708.7071.7071,0,0,1-.4111-.2192.6965.6965,0,0,1-.2364-.6045,1.8136,1.8136,0,0,1,.2647-.6821l-.0352-.0357a1.6325,1.6325,0,0,1-.959.0884,1.7469,1.7469,0,0,1-.8652-.499,1.83,1.83,0,0,1-.418-.6221,1.527,1.527,0,0,1-.1054-.6928,2.0005,2.0005,0,0,1,.2011-.71,2.5583,2.5583,0,0,1,.4991-.6821,2.36,2.36,0,0,1,.8408-.5728l-.0918-.0923a.81.81,0,0,1-.2481-.4682.5923.5923,0,0,1,.2129-.5005l.6641-.6646.5586.5586-.834.8345.2129.2124a1.5265,1.5265,0,0,1,.7422.07,1.9066,1.9066,0,0,1,1.082,1.0606,1.624,1.624,0,0,1,.1.6933,1.9882,1.9882,0,0,1-.206.7144,2.5835,2.5835,0,0,1-.502.6855c-.0654.0659-.1338.13-.2041.1909a1.83,1.83,0,0,1-.22.1626c-.0381.0665-.0733.1348-.1065.2051a.8815.8815,0,0,0-.07.2266.5885.5885,0,0,0,0,.2261.3629.3629,0,0,0,.1055.1909.2962.2962,0,0,0,.3828.0561,2.0592,2.0592,0,0,0,.4668-.3672l.8057-.8061a2.2906,2.2906,0,0,1,1.3115-.7739A1.2632,1.2632,0,0,1,244.2122,79.3559Zm-3.9961-.1914a1.1536,1.1536,0,0,0,.4062-.7813.9383.9383,0,0,0-.3066-.6894l-.1983-.1978a.9424.9424,0,0,0-.6894-.3076,1.158,1.158,0,0,0-.7813.4063,1.1248,1.1248,0,0,0-.3994.7744.9623.9623,0,0,0,.3145.6821l.1982.1977a.9621.9621,0,0,0,.6826.315A1.12,1.12,0,0,0,240.2161,79.1645Zm3.416.8418a.544.544,0,0,0-.4883-.1558,1.4378,1.4378,0,0,0-.707.46l-1.2578,1.2588a.6677.6677,0,0,0,.1269.7778.7138.7138,0,0,0,.5684.2085,1.29,1.29,0,0,0,.7754-.4492l.5644-.5654a2.1131,2.1131,0,0,0,.58-.8624A.6372.6372,0,0,0,243.6321,80.0063Z"/><path class="cls-1" d="M56.0339,190.8759h-.06a2.5968,2.5968,0,0,1-.2149.4033,1.41,1.41,0,0,1-.31.3379,1.5256,1.5256,0,0,1-.4449.2368,1.85,1.85,0,0,1-.61.0908,1.8147,1.8147,0,0,1-1.67-.9252,5.1952,5.1952,0,0,1-.55-2.6348,4.936,4.936,0,0,1,.62-2.73,2.1247,2.1247,0,0,1,1.9-.93,2.5335,2.5335,0,0,1,.87.1353,2.0593,2.0593,0,0,1,.6348.36,1.9609,1.9609,0,0,1,.435.52,3.66,3.66,0,0,1,.28.605l-.85.33a4.7078,4.7078,0,0,0-.1953-.435,1.4141,1.4141,0,0,0-.26-.36,1.1269,1.1269,0,0,0-.375-.2451,1.3689,1.3689,0,0,0-.52-.09,1.3979,1.3979,0,0,0-.6753.1543,1.2778,1.2778,0,0,0-.47.4444,2.1409,2.1409,0,0,0-.2749.6987,4.2324,4.2324,0,0,0-.09.9087v1.0879a5.3058,5.3058,0,0,0,.0751.9282,2.1724,2.1724,0,0,0,.25.7188,1.4078,1.4078,0,0,0,2.15.2509,1.4174,1.4174,0,0,0,.3549-.9956v-.6762h-1.42v-.74h2.3v3.5h-.88Z"/><path class="cls-1" d="M61.804,190.9648h-.04a1.7691,1.7691,0,0,1-.2051.375,1.4639,1.4639,0,0,1-.3.31,1.396,1.396,0,0,1-.415.2149,1.7779,1.7779,0,0,1-.56.08,1.6889,1.6889,0,0,1-1.2846-.51,2.0193,2.0193,0,0,1-.4854-1.45v-3.32h.93v3.16q0,1.33,1.15,1.33a1.7843,1.7843,0,0,0,.4448-.0552,1.154,1.154,0,0,0,.3853-.1748.9451.9451,0,0,0,.2749-.3.8136.8136,0,0,0,.105-.42v-3.54h.93v5.16h-.93Z"/><path class="cls-1" d="M66.9338,191.8246a1.1674,1.1674,0,0,1-.93-.3452,1.3135,1.3135,0,0,1-.3-.895v-3.15h-1.65v-.77h1.2a.5478.5478,0,0,0,.3848-.11.5286.5286,0,0,0,.1152-.39v-1.32h.88v1.82h2.29v.77h-2.29v3.62h2.29v.77Z"/><path class="cls-1" d="M72.7541,191.9447a2.68,2.68,0,0,1-1.03-.19,2.11,2.11,0,0,1-.7749-.54,2.4216,2.4216,0,0,1-.4849-.8452,3.4214,3.4214,0,0,1-.17-1.1148,3.3744,3.3744,0,0,1,.1748-1.12,2.533,2.533,0,0,1,.49-.855,2.1159,2.1159,0,0,1,.7549-.5449,2.58,2.58,0,0,1,1.93-.0054,2.0888,2.0888,0,0,1,.7348.5254,2.3813,2.3813,0,0,1,.47.8047,3.04,3.04,0,0,1,.165,1.0249v.39h-3.76v.209a1.4576,1.4576,0,0,0,.4,1.0586,1.4749,1.4749,0,0,0,1.11.4126,1.6726,1.6726,0,0,0,.88-.2236,1.5622,1.5622,0,0,0,.58-.6216l.63.4917a1.9951,1.9951,0,0,1-.7851.8223A2.5116,2.5116,0,0,1,72.7541,191.9447Zm-.06-4.66a1.4756,1.4756,0,0,0-.58.11,1.4257,1.4257,0,0,0-.4551.3051,1.332,1.332,0,0,0-.3.4649,1.61,1.61,0,0,0-.105.59v.08h2.79v-.11a1.4678,1.4678,0,0,0-.37-1.0449A1.28,1.28,0,0,0,72.6941,187.2846Z"/><path class="cls-1" d="M76.574,191.8246v-5.16h.93v.86h.04a2.0079,2.0079,0,0,1,.2051-.37,1.3685,1.3685,0,0,1,.7148-.53,1.7784,1.7784,0,0,1,.56-.08,1.69,1.69,0,0,1,1.2846.51,2.02,2.02,0,0,1,.4854,1.45v3.32h-.93v-3.16q0-1.3295-1.15-1.33a1.7889,1.7889,0,0,0-.4448.0552,1.1549,1.1549,0,0,0-.3853.1753.94.94,0,0,0-.2749.3.8148.8148,0,0,0-.105.42v3.54Z"/><path class="cls-1" d="M82.5339,184.4247h.93v3.1h.05a1.7242,1.7242,0,0,1,.62-.73,1.9131,1.9131,0,0,1,2.4248.45,4.0045,4.0045,0,0,1,0,4,1.7624,1.7624,0,0,1-3.0449-.28h-.05v.86h-.93Zm2.18,6.73a1.3086,1.3086,0,0,0,1.0249-.4053,1.5446,1.5446,0,0,0,.3652-1.0747v-.86a1.5459,1.5459,0,0,0-.3652-1.0752,1.3089,1.3089,0,0,0-1.0249-.4053,1.6994,1.6994,0,0,0-.4751.0654,1.25,1.25,0,0,0-.4.1949.9555.9555,0,0,0-.2749.3149.9.9,0,0,0-.1.4351v1.8a.9268.9268,0,0,0,.1.44.8908.8908,0,0,0,.2749.3154,1.3175,1.3175,0,0,0,.4.19A1.6994,1.6994,0,0,0,84.7141,191.1547Z"/><path class="cls-1" d="M90.7541,191.9447a2.68,2.68,0,0,1-1.03-.19,2.11,2.11,0,0,1-.7749-.54,2.4216,2.4216,0,0,1-.4849-.8452,3.4214,3.4214,0,0,1-.17-1.1148,3.3744,3.3744,0,0,1,.1748-1.12,2.533,2.533,0,0,1,.49-.855,2.1159,2.1159,0,0,1,.7549-.5449,2.58,2.58,0,0,1,1.93-.0054,2.0888,2.0888,0,0,1,.7348.5254,2.3813,2.3813,0,0,1,.47.8047,3.04,3.04,0,0,1,.165,1.0249v.39h-3.76v.209a1.4576,1.4576,0,0,0,.4,1.0586,1.4749,1.4749,0,0,0,1.11.4126,1.6726,1.6726,0,0,0,.88-.2236,1.5622,1.5622,0,0,0,.58-.6216l.63.4917a1.9951,1.9951,0,0,1-.7851.8223A2.5116,2.5116,0,0,1,90.7541,191.9447Zm-.06-4.66a1.4756,1.4756,0,0,0-.58.11,1.4257,1.4257,0,0,0-.4551.3051,1.332,1.332,0,0,0-.3.4649,1.61,1.61,0,0,0-.105.59v.08h2.79v-.11a1.4678,1.4678,0,0,0-.37-1.0449A1.28,1.28,0,0,0,90.6941,187.2846Z"/><path class="cls-1" d="M94.4138,191.0546h1.45v-3.62h-1.45v-.77h2.38v1.33h.06a1.8514,1.8514,0,0,1,.5948-.98,1.7129,1.7129,0,0,1,1.125-.35h.68v.91h-1a1.4609,1.4609,0,0,0-1.0649.3848,1.328,1.328,0,0,0-.395.9951v2.1h1.95v.77h-4.33Z"/><path class="cls-1" d="M105.304,192.4047a1.25,1.25,0,0,1-.6548,1.165,4.1365,4.1365,0,0,1-1.9952.375,6.05,6.05,0,0,1-1.1-.0849,2.2785,2.2785,0,0,1-.73-.25,1.0959,1.0959,0,0,1-.41-.395,1.0631,1.0631,0,0,1-.13-.53.9082.9082,0,0,1,.2251-.6548,1.3447,1.3447,0,0,1,.645-.3452v-.11a.8919.8919,0,0,1-.375-.2749.709.709,0,0,1-.1347-.4453.6956.6956,0,0,1,.26-.5947,1.8248,1.8248,0,0,1,.67-.2949v-.05a1.6266,1.6266,0,0,1-.74-.6148,1.7445,1.7445,0,0,1-.26-.9653,1.8329,1.8329,0,0,1,.145-.7349,1.5292,1.5292,0,0,1,.415-.5649,1.985,1.985,0,0,1,.645-.36,2.5443,2.5443,0,0,1,.835-.13,2.3627,2.3627,0,0,1,1,.19v-.13a.8115.8115,0,0,1,.1553-.5068.5947.5947,0,0,1,.5049-.2031h.94v.79h-1.18v.3a1.5241,1.5241,0,0,1,.4751.5747,1.9018,1.9018,0,0,1,.0152,1.5151,1.593,1.593,0,0,1-.42.56,1.9758,1.9758,0,0,1-.65.36,2.5757,2.5757,0,0,1-.84.13c-.0933,0-.1865-.0029-.28-.01a1.76,1.76,0,0,1-.27-.04q-.1106.03-.22.07a.8968.8968,0,0,0-.21.11.5988.5988,0,0,0-.16.16.37.37,0,0,0-.06.21.296.296,0,0,0,.2305.31,2.0554,2.0554,0,0,0,.59.07h1.14a2.2941,2.2941,0,0,1,1.4746.38A1.2612,1.2612,0,0,1,105.304,192.4047Zm-.87.05a.5424.5424,0,0,0-.2348-.4551,1.4356,1.4356,0,0,0-.8247-.1748h-1.78a.668.668,0,0,0-.46.64.7158.7158,0,0,0,.2549.55,1.2873,1.2873,0,0,0,.8652.23h.8a2.1277,2.1277,0,0,0,1.02-.2A.6385.6385,0,0,0,104.4338,192.4545Zm-1.82-3.01a1.1583,1.1583,0,0,0,.84-.2651.9428.9428,0,0,0,.27-.7051v-.28a.9427.9427,0,0,0-.27-.705,1.1584,1.1584,0,0,0-.84-.2652,1.1227,1.1227,0,0,0-.83.2652.963.963,0,0,0-.26.705v.28a.9631.9631,0,0,0,.26.7051A1.1227,1.1227,0,0,0,102.614,189.4447Z"/><path class="cls-1" d="M52.5442,221.2084h2.01a2.2347,2.2347,0,0,1,1.9453.8848,5.664,5.664,0,0,1,0,5.21,2.2347,2.2347,0,0,1-1.9453.8848h-2.01Zm1.96,6.16a1.401,1.401,0,0,0,1.2051-.55,2.5928,2.5928,0,0,0,.4048-1.56v-1.12a2.5951,2.5951,0,0,0-.4048-1.56,1.401,1.401,0,0,0-1.2051-.55h-1v5.34Z"/><path class="cls-1" d="M62.5842,228.1884a.8732.8732,0,0,1-.6753-.2349,1.0949,1.0949,0,0,1-.2646-.6152h-.05a1.4643,1.4643,0,0,1-.55.71,1.76,1.76,0,0,1-1.01.26,1.8683,1.8683,0,0,1-1.2749-.415,1.44,1.44,0,0,1-.4751-1.145,1.3075,1.3075,0,0,1,.54-1.13,2.9328,2.9328,0,0,1,1.7-.39h1.05v-.46a1.0664,1.0664,0,0,0-.3-.8252,1.2463,1.2463,0,0,0-.87-.2749,1.6045,1.6045,0,0,0-.8349.1948,1.4758,1.4758,0,0,0-.5249.5454l-.59-.47a1.5457,1.5457,0,0,1,.28-.3848,1.9806,1.9806,0,0,1,.43-.33,2.2961,2.2961,0,0,1,.58-.23,2.9255,2.9255,0,0,1,.73-.085,2.2141,2.2141,0,0,1,1.4853.4649,1.6344,1.6344,0,0,1,.5449,1.3149v2.73h.69v.77Zm-2.33-.61a1.6156,1.6156,0,0,0,.95-.26.7719.7719,0,0,0,.37-.65v-.8h-1.04a1.9469,1.9469,0,0,0-.9751.19.606.606,0,0,0-.3149.55v.21a.6525.6525,0,0,0,.27.57A1.269,1.269,0,0,0,60.2541,227.5785Z"/><path class="cls-1" d="M64.4138,227.4184h1.45v-3.62h-1.45v-.77h2.38v1.33h.06a1.8518,1.8518,0,0,1,.5948-.98,1.7129,1.7129,0,0,1,1.125-.35h.68v.91h-1a1.4609,1.4609,0,0,0-1.0649.3848,1.3278,1.3278,0,0,0-.395.9951v2.1h1.95v.77h-4.33Z"/><path class="cls-1" d="M69.9138,223.0282h.81l.54,4.41h.1l.82-4.41h.96l.83,4.41h.09l.55-4.41h.78l-.75,5.16h-1.18l-.76-4.17h-.08l-.78,4.17h-1.18Z"/><path class="cls-1" d="M76.6941,227.4184h1.81v-3.62h-1.81v-.77h2.74v4.39h1.7v.77h-4.44Zm2.28-5.44a.723.723,0,0,1-.53-.1552.5306.5306,0,0,1-.15-.3848v-.19a.55.55,0,0,1,.15-.39.9573.9573,0,0,1,1.06,0,.55.55,0,0,1,.15.39v.19a.5306.5306,0,0,1-.15.3848A.7241.7241,0,0,1,78.9739,221.9784Z"/><path class="cls-1" d="M82.574,228.1884v-5.16h.93v.86h.04a2.0047,2.0047,0,0,1,.2051-.37,1.3672,1.3672,0,0,1,.7148-.53,1.7784,1.7784,0,0,1,.56-.08,1.69,1.69,0,0,1,1.2846.51,2.02,2.02,0,0,1,.4854,1.45v3.32h-.93v-3.16q0-1.3293-1.15-1.33a1.7889,1.7889,0,0,0-.4448.0551,1.1589,1.1589,0,0,0-.3853.1753.94.94,0,0,0-.2749.3.8155.8155,0,0,0-.105.42v3.54Z"/><path class="cls-1" d="M256.2815,111.3173l1.4219-1.4209a2.2327,2.2327,0,0,1,2-.75,5.67,5.67,0,0,1,3.6855,3.6846,2.2362,2.2362,0,0,1-.75,2.001l-1.4219,1.4209Zm5.7422,2.97a1.4014,1.4014,0,0,0,.4629-1.2412,2.5939,2.5939,0,0,0-.8164-1.3891l-.792-.7916a2.5954,2.5954,0,0,0-1.39-.8173,1.4009,1.4009,0,0,0-1.2412.4629l-.707.707,3.7763,3.7764Z"/><path class="cls-1" d="M268.3166,109.1537a.8733.8733,0,0,1-.6435.3116,1.0965,1.0965,0,0,1-.6221-.2481l-.0351.0357a1.4706,1.4706,0,0,1,.1132.8906,1.7622,1.7622,0,0,1-.5312.8984,1.867,1.867,0,0,1-1.1943.6079,1.4393,1.4393,0,0,1-1.1455-.4736,1.3061,1.3061,0,0,1-.417-1.1807,2.9338,2.9338,0,0,1,.9267-1.478l.7422-.7422-.3262-.3252a1.0646,1.0646,0,0,0-.7949-.3716,1.246,1.246,0,0,0-.81.4209,1.5992,1.5992,0,0,0-.4521.7281,1.4763,1.4763,0,0,0,.0137.7568l-.75.085a1.5789,1.5789,0,0,1-.0743-.4707,2.0239,2.0239,0,0,1,.07-.5372,2.3379,2.3379,0,0,1,.248-.5727,2.91,2.91,0,0,1,.4561-.5762,2.2161,2.2161,0,0,1,1.38-.7212,1.6344,1.6344,0,0,1,1.3145.5445l1.93,1.93.4883-.4878.5449.5445Zm-2.0781,1.2163a1.61,1.61,0,0,0,.4864-.8554.77.77,0,0,0-.1973-.7212l-.5654-.5654-.7354.7353a1.9415,1.9415,0,0,0-.5547.8237.6038.6038,0,0,0,.166.6114l.1485.1484a.6517.6517,0,0,0,.5937.2124A1.2746,1.2746,0,0,0,266.2385,110.37Z"/><path class="cls-1" d="M269.0666,107.3154l1.0254-1.0254-2.56-2.56-1.0254,1.0254-.5439-.5445,1.6826-1.6831.9414.9405.042-.0425a1.8521,1.8521,0,0,1-.2725-1.1133,1.7128,1.7128,0,0,1,.5479-1.043l.4814-.4809.6426.6435-.707.7071a1.4622,1.4622,0,0,0-.4805,1.0249,1.3274,1.3274,0,0,0,.4238.9829l1.4854,1.4848,1.3779-1.3784.5449.5445-3.0615,3.0615Z"/><path class="cls-1" d="M269.8518,100.3222l.5723-.5728,3.5,2.7364.07-.0708-2.5381-3.6978.6787-.6792L275.84,100.57l.0644-.0639-2.73-3.5069.5527-.5517,3.1172,4.1787-.834.8345L272.5237,99.05l-.0557.0562,2.3965,3.5-.835.8345Z"/><path class="cls-1" d="M275.5149,93.1733a.7218.7218,0,0,1-.4844.2646.53.53,0,0,1-.3779-.166l-.1348-.1343a.5581.5581,0,0,1-.17-.3818.9581.9581,0,0,1,.75-.7495.55.55,0,0,1,.3818.17l.1338.1343a.5253.5253,0,0,1,.166.3779A.7229.7229,0,0,1,275.5149,93.1733Zm2.2344,5.4589,1.28-1.28-2.5595-2.56-1.28,1.28-.5449-.5445,1.9375-1.9375,3.1045,3.104,1.2021-1.2021.5449.5444-3.1406,3.14Z"/><path class="cls-1" d="M282.4514,95.019l-3.6484-3.6485.6582-.6577.6074.6084.0293-.0283a1.9688,1.9688,0,0,1-.1172-.4067,1.4451,1.4451,0,0,1-.0107-.4356,1.3687,1.3687,0,0,1,.1416-.4453,1.7764,1.7764,0,0,1,.34-.4526,1.6864,1.6864,0,0,1,1.2686-.5474,2.0171,2.0171,0,0,1,1.3681.6821l2.3477,2.3472-.6582.6577-2.2344-2.2344q-.939-.94-1.7529-.1274a1.789,1.789,0,0,0-.2754.3535,1.1634,1.1634,0,0,0-.1484.3965.92.92,0,0,0,.0175.4062.8128.8128,0,0,0,.2217.3716l2.5039,2.503Z"/><path class="cls-1" d="M53.3542,258.9018h-.08v5.65h-.86v-6.98h1.3l2.24,5.65h.08v-5.65h.86v6.98h-1.3Z"/><path class="cls-1" d="M60.1741,264.5517v-2.69l-2.37-4.29h1.09l.95,1.78.79,1.55h.05l.81-1.55.95-1.78h1.06l-2.37,4.29v2.69Z"/><path class="cls-1" d="M67.134,258.3915v6.16h-.96v-6.16h-2.27v-.82h5.5v.82Z"/><path class="cls-1" d="M76.5339,264.5517v-6.98h4.44v.82h-3.47v2.21h3.17v.82h-3.17v3.13Z"/><path class="cls-1" d="M82.4138,263.7817h1.45v-3.62h-1.45v-.77h2.38v1.33h.06a1.8518,1.8518,0,0,1,.5948-.98,1.7129,1.7129,0,0,1,1.125-.35h.68v.91h-1a1.4612,1.4612,0,0,0-1.0649.3847,1.3282,1.3282,0,0,0-.395.9952v2.1h1.95v.77h-4.33Z"/><path class="cls-1" d="M90.654,264.6718a2.5048,2.5048,0,0,1-1-.19,2.103,2.103,0,0,1-.75-.54,2.3951,2.3951,0,0,1-.475-.85,3.8821,3.8821,0,0,1,0-2.24,2.3972,2.3972,0,0,1,.475-.85,2.0969,2.0969,0,0,1,.75-.54,2.7153,2.7153,0,0,1,1.9952,0,2.088,2.088,0,0,1,.7548.54,2.3958,2.3958,0,0,1,.4751.85,3.8821,3.8821,0,0,1,0,2.24,2.3938,2.3938,0,0,1-.4751.85,2.094,2.094,0,0,1-.7548.54A2.5162,2.5162,0,0,1,90.654,264.6718Zm0-.77a1.3678,1.3678,0,0,0,1.02-.3853,1.5958,1.5958,0,0,0,.38-1.165v-.76a1.5966,1.5966,0,0,0-.38-1.165,1.5444,1.5444,0,0,0-2.04,0,1.5966,1.5966,0,0,0-.38,1.165v.76a1.5958,1.5958,0,0,0,.38,1.165A1.3677,1.3677,0,0,0,90.654,263.9018Z"/><path class="cls-1" d="M94.574,264.5517v-5.16h.93v.86h.04a2.0047,2.0047,0,0,1,.2051-.37,1.3672,1.3672,0,0,1,.7148-.53,1.7784,1.7784,0,0,1,.56-.08,1.69,1.69,0,0,1,1.2846.51,2.02,2.02,0,0,1,.4854,1.45v3.32h-.93v-3.16q0-1.3293-1.15-1.33a1.7889,1.7889,0,0,0-.4448.0552,1.1549,1.1549,0,0,0-.3853.1753.94.94,0,0,0-.2749.3.8151.8151,0,0,0-.105.42v3.54Z"/><path class="cls-1" d="M102.9338,264.5517a1.1677,1.1677,0,0,1-.93-.3452,1.3137,1.3137,0,0,1-.3-.8951v-3.15h-1.65v-.77h1.2a.5483.5483,0,0,0,.3848-.11.5291.5291,0,0,0,.1152-.39v-1.32h.88v1.82h2.29v.77h-2.29v3.62h2.29v.77Z"/><path class="cls-1" d="M112.5242,264.5517v-6.98h2.57a1.9836,1.9836,0,0,1,1.5049.54,2.471,2.471,0,0,1,0,3.02,1.9836,1.9836,0,0,1-1.5049.54h-1.6v2.88Zm.97-3.7h1.51a1.1647,1.1647,0,0,0,.81-.2549.944.944,0,0,0,.28-.7349v-.48a.9432.9432,0,0,0-.28-.7349,1.1624,1.1624,0,0,0-.81-.2554h-1.51Z"/><path class="cls-1" d="M122.5842,264.5517a.8732.8732,0,0,1-.6753-.2349,1.0949,1.0949,0,0,1-.2646-.6152h-.05a1.4635,1.4635,0,0,1-.55.71,1.7593,1.7593,0,0,1-1.01.26,1.8683,1.8683,0,0,1-1.2749-.415,1.44,1.44,0,0,1-.4751-1.1451,1.3074,1.3074,0,0,1,.54-1.13,2.9328,2.9328,0,0,1,1.7-.39h1.05v-.46a1.0664,1.0664,0,0,0-.3-.8252,1.2463,1.2463,0,0,0-.87-.2749,1.6045,1.6045,0,0,0-.8349.1948,1.4758,1.4758,0,0,0-.5249.5454l-.59-.47a1.5457,1.5457,0,0,1,.28-.3848,1.9841,1.9841,0,0,1,.43-.33,2.3,2.3,0,0,1,.58-.23,2.9255,2.9255,0,0,1,.73-.085,2.2146,2.2146,0,0,1,1.4853.4648,1.6347,1.6347,0,0,1,.5449,1.315v2.73h.69v.77Zm-2.33-.61a1.6156,1.6156,0,0,0,.95-.26.7719.7719,0,0,0,.37-.65v-.8h-1.04a1.9458,1.9458,0,0,0-.9751.19.606.606,0,0,0-.3149.55v.21a.6525.6525,0,0,0,.27.57A1.27,1.27,0,0,0,120.2541,263.9418Z"/><path class="cls-1" d="M129.304,265.1318a1.25,1.25,0,0,1-.6548,1.165,4.1365,4.1365,0,0,1-1.9952.375,6.04,6.04,0,0,1-1.1-.085,2.2761,2.2761,0,0,1-.73-.25,1.0952,1.0952,0,0,1-.41-.395,1.0631,1.0631,0,0,1-.13-.53.908.908,0,0,1,.2251-.6547,1.3448,1.3448,0,0,1,.645-.3453v-.11a.8919.8919,0,0,1-.375-.2749.7092.7092,0,0,1-.1347-.4453.6958.6958,0,0,1,.26-.5948,1.8264,1.8264,0,0,1,.67-.2949v-.05a1.6258,1.6258,0,0,1-.74-.6147,1.7446,1.7446,0,0,1-.26-.9654,1.832,1.832,0,0,1,.145-.7348,1.53,1.53,0,0,1,.415-.565,1.9829,1.9829,0,0,1,.645-.36,2.5443,2.5443,0,0,1,.835-.13,2.3643,2.3643,0,0,1,1,.19v-.13a.8118.8118,0,0,1,.1553-.5069.5949.5949,0,0,1,.5049-.2031h.94v.79h-1.18v.3a1.5256,1.5256,0,0,1,.4751.5747,1.902,1.902,0,0,1,.0152,1.5152,1.5926,1.5926,0,0,1-.42.56,1.9722,1.9722,0,0,1-.65.36,2.5757,2.5757,0,0,1-.84.13c-.0933,0-.1865-.0029-.28-.01a1.76,1.76,0,0,1-.27-.04q-.1106.03-.22.07a.901.901,0,0,0-.21.11.5985.5985,0,0,0-.16.16.37.37,0,0,0-.06.21.2959.2959,0,0,0,.2305.31,2.055,2.055,0,0,0,.59.07h1.14a2.2941,2.2941,0,0,1,1.4746.38A1.2614,1.2614,0,0,1,129.304,265.1318Zm-.87.05a.5423.5423,0,0,0-.2348-.4551,1.4356,1.4356,0,0,0-.8247-.1748h-1.78a.668.668,0,0,0-.46.64.7157.7157,0,0,0,.2549.55,1.2873,1.2873,0,0,0,.8652.23h.8a2.1278,2.1278,0,0,0,1.02-.2A.6387.6387,0,0,0,128.4338,265.1816Zm-1.82-3.01a1.1588,1.1588,0,0,0,.84-.2651.9431.9431,0,0,0,.27-.7051v-.28a.9429.9429,0,0,0-.27-.7051,1.1588,1.1588,0,0,0-.84-.2651,1.1231,1.1231,0,0,0-.83.2651.9633.9633,0,0,0-.26.7051v.28a.9634.9634,0,0,0,.26.7051A1.1231,1.1231,0,0,0,126.614,262.1718Z"/><path class="cls-1" d="M132.7541,264.6718a2.6814,2.6814,0,0,1-1.03-.19,2.1112,2.1112,0,0,1-.7749-.54,2.4207,2.4207,0,0,1-.4849-.8452,3.4212,3.4212,0,0,1-.17-1.1147,3.375,3.375,0,0,1,.1748-1.12,2.5325,2.5325,0,0,1,.49-.8549,2.1149,2.1149,0,0,1,.7549-.545,2.5808,2.5808,0,0,1,1.93-.0053,2.0875,2.0875,0,0,1,.7348.5254,2.3809,2.3809,0,0,1,.47.8046,3.04,3.04,0,0,1,.165,1.0249v.39h-3.76v.209a1.4578,1.4578,0,0,0,.4,1.0586,1.4749,1.4749,0,0,0,1.11.4126,1.6717,1.6717,0,0,0,.88-.2237,1.5616,1.5616,0,0,0,.58-.6216l.63.4917a1.9951,1.9951,0,0,1-.7851.8223A2.5107,2.5107,0,0,1,132.7541,264.6718Zm-.06-4.66a1.4774,1.4774,0,0,0-.58.11,1.4259,1.4259,0,0,0-.4551.3052,1.3315,1.3315,0,0,0-.3.4648,1.6107,1.6107,0,0,0-.105.59v.0795h2.79v-.11a1.4677,1.4677,0,0,0-.37-1.0449A1.28,1.28,0,0,0,132.6941,260.0116Z"/><path class="cls-1" d="M312.5168,111.6845l-.0566.0566,3.9951,3.9952-.6084.6084-4.9355-4.9356.92-.9194,5.5781,2.4111.0567-.0566-3.9952-3.9947.6084-.6084,4.9356,4.9356-.92.9194Z"/><path class="cls-1" d="M321.3342,110.8573l-1.9023-1.9023-4.709-1.3574.7705-.771,1.93.5869,1.6553.5376.0351-.0352-.5234-1.6689-.5869-1.93.75-.7495,1.3574,4.709,1.9023,1.9023Z"/><path class="cls-1" d="M321.9,101.58l4.3554,4.356-.6777.6787-4.3565-4.356-1.6044,1.605-.58-.58,3.8886-3.8887.58.58Z"/><path class="cls-1" d="M332.9026,99.289l-4.9356-4.9356,3.14-3.1391.5791.58-2.4531,2.4531,1.5625,1.5625,2.2412-2.2412.58.58L331.3752,96.39l2.2139,2.2134Z"/><path class="cls-1" d="M336.5149,94.5863,337.54,93.561l-2.5586-2.56-1.0254,1.0254-.5449-.5445,1.6836-1.6831.9394.9405.043-.0425a1.8521,1.8521,0,0,1-.2725-1.1133,1.7128,1.7128,0,0,1,.5479-1.043l.48-.4809.6446.6435-.7071.7071a1.46,1.46,0,0,0-.4814,1.0249,1.3285,1.3285,0,0,0,.4248.9829l1.4844,1.4848,1.3789-1.3784.5449.5449L337.06,95.1313Z"/><path class="cls-1" d="M342.9719,89.39a2.4849,2.4849,0,0,1-.8418.5722,2.0946,2.0946,0,0,1-.9121.149,2.3964,2.3964,0,0,1-.9375-.2652,3.8912,3.8912,0,0,1-1.584-1.584,2.38,2.38,0,0,1-.2646-.9365,2.0889,2.0889,0,0,1,.1494-.9126,2.7115,2.7115,0,0,1,1.41-1.4106,2.0887,2.0887,0,0,1,.916-.1519,2.3949,2.3949,0,0,1,.9355.2647,3.8753,3.8753,0,0,1,1.584,1.584,2.4032,2.4032,0,0,1,.2656.937,2.0655,2.0655,0,0,1-.1523.9155A2.482,2.482,0,0,1,342.9719,89.39Zm-.5449-.5449a1.37,1.37,0,0,0,.4492-.9932,1.5941,1.5941,0,0,0-.5556-1.0928l-.5372-.5371a1.5974,1.5974,0,0,0-1.0927-.5552,1.5446,1.5446,0,0,0-1.4414,1.4424,1.5922,1.5922,0,0,0,.5547,1.0928l.5371.5371a1.5974,1.5974,0,0,0,1.0927.5552A1.3684,1.3684,0,0,0,342.427,88.8447Z"/><path class="cls-1" d="M345.6584,86.5331l-3.6494-3.6489.6582-.6577.6084.6084.0284-.0283a1.9926,1.9926,0,0,1-.1172-.4068,1.3831,1.3831,0,0,1,.1308-.8808,1.8123,1.8123,0,0,1,.34-.4522,1.6919,1.6919,0,0,1,1.2695-.5478,2.0191,2.0191,0,0,1,1.3682.6821l2.3476,2.3477-.6572.6577L345.75,81.9716q-.9389-.94-1.7529-.1274a1.744,1.744,0,0,0-.2764.354,1.18,1.18,0,0,0-.1484.3965.9218.9218,0,0,0,.0176.4062.8248.8248,0,0,0,.2226.3711l2.503,2.5034Z"/><path class="cls-1" d="M351.57,80.6215a1.1691,1.1691,0,0,1-.9014.4136,1.3127,1.3127,0,0,1-.8447-.42l-2.2285-2.2276-1.166,1.1665-.545-.5444.85-.8486a.5442.5442,0,0,0,.1934-.35.5269.5269,0,0,0-.1934-.3575L345.8,76.52l.6231-.6225,1.2861,1.2866,1.6192-1.6191.5439.5444-1.6191,1.6191,2.56,2.56,1.6192-1.6191.5449.5449Z"/><path class="cls-1" d="M358.3508,73.84l-4.9355-4.9356,1.8174-1.8169a1.9811,1.9811,0,0,1,1.4463-.6826,2.4689,2.4689,0,0,1,2.1347,2.1353,1.9832,1.9832,0,0,1-.6816,1.4462L357,71.1181l2.0362,2.0366ZM356.42,70.538l1.0673-1.0679a1.1626,1.1626,0,0,0,.3926-.7529.9408.9408,0,0,0-.32-.7178l-.34-.3393a.94.94,0,0,0-.7178-.3213,1.1574,1.1574,0,0,0-.7529.3921l-1.0684,1.0679Z"/><path class="cls-1" d="M365.4641,66.727a.8712.8712,0,0,1-.6426.31,1.0953,1.0953,0,0,1-.623-.247l-.0352.0356a1.4625,1.4625,0,0,1,.1133.8906,1.76,1.76,0,0,1-.53.8985,1.8722,1.8722,0,0,1-1.1943.6079,1.4418,1.4418,0,0,1-1.1465-.4742,1.3062,1.3062,0,0,1-.417-1.1806,2.9333,2.9333,0,0,1,.9268-1.478l.7422-.7422-.3262-.3252a1.0628,1.0628,0,0,0-.7949-.3716,1.2455,1.2455,0,0,0-.81.4209,1.5989,1.5989,0,0,0-.4521.728,1.4755,1.4755,0,0,0,.0136.7569l-.75.0849a1.5468,1.5468,0,0,1-.0732-.47,1.9451,1.9451,0,0,1,.07-.5371,2.2964,2.2964,0,0,1,.2471-.5728,2.9129,2.9129,0,0,1,.457-.5761,2.212,2.212,0,0,1,1.3789-.7217,1.6338,1.6338,0,0,1,1.3145.5439l1.9306,1.93.4873-.4878.5449.5449Zm-2.0781,1.2158a1.6177,1.6177,0,0,0,.4873-.855.7737.7737,0,0,0-.1983-.7217l-.5654-.5654-.7353.7354a1.94,1.94,0,0,0-.5547.8237.6035.6035,0,0,0,.166.6113l.1484.1485a.6507.6507,0,0,0,.5938.2124A1.275,1.275,0,0,0,363.386,67.9428Z"/><path class="cls-1" d="M370.6262,62.3852a1.249,1.249,0,0,1,.3613,1.2871,4.1376,4.1376,0,0,1-1.1464,1.6758,6.0223,6.0223,0,0,1-.8379.7177,2.2734,2.2734,0,0,1-.6924.3394,1.0981,1.0981,0,0,1-.5693.0107,1.0635,1.0635,0,0,1-.4668-.2832.9118.9118,0,0,1-.3038-.622,1.3361,1.3361,0,0,1,.212-.7l-.0782-.0777a.8911.8911,0,0,1-.459.07.7078.7078,0,0,1-.41-.2192.6971.6971,0,0,1-.2373-.6045,1.815,1.815,0,0,1,.2646-.6821l-.0351-.0357a1.623,1.623,0,0,1-.9571.0884,1.74,1.74,0,0,1-.8671-.4985,1.84,1.84,0,0,1-.417-.6221,1.542,1.542,0,0,1-.1065-.6929,1.9846,1.9846,0,0,1,.2022-.71,2.5579,2.5579,0,0,1,.499-.6821,2.35,2.35,0,0,1,.8408-.5728l-.0928-.0923a.8161.8161,0,0,1-.248-.4682.5949.5949,0,0,1,.2129-.5005l.666-.6651.5586.5586-.835.8345.2119.2124a1.53,1.53,0,0,1,.7422.07A1.8974,1.8974,0,0,1,367.72,60.582a1.5945,1.5945,0,0,1,.1.6928,1.9861,1.9861,0,0,1-.2061.7144,2.5809,2.5809,0,0,1-.5019.6855c-.0655.0659-.1338.13-.2041.1909a1.831,1.831,0,0,1-.22.1626c-.038.0665-.0732.1348-.1064.2051a.8815.8815,0,0,0-.07.2266.5846.5846,0,0,0,0,.2261.3661.3661,0,0,0,.1055.1914.2973.2973,0,0,0,.3828.0561,2.08,2.08,0,0,0,.4668-.3677l.8056-.8061a2.301,2.301,0,0,1,1.3115-.7744A1.26,1.26,0,0,1,370.6262,62.3852Zm-3.9951-.1909a1.158,1.158,0,0,0,.4063-.7813.9422.9422,0,0,0-.3077-.6894l-.1972-.1978a.9437.9437,0,0,0-.69-.3076,1.1557,1.1557,0,0,0-.7812.4062,1.1221,1.1221,0,0,0-.4.7744.9635.9635,0,0,0,.3154.6822l.1982.1977a.96.96,0,0,0,.6817.315A1.1222,1.1222,0,0,0,366.6311,62.1943Zm3.415.8413a.5425.5425,0,0,0-.4873-.1558,1.4393,1.4393,0,0,0-.707.46l-1.2588,1.2588a.6677.6677,0,0,0,.127.7778.717.717,0,0,0,.5693.2085,1.2859,1.2859,0,0,0,.7744-.4492l.5654-.5655a2.1214,2.1214,0,0,0,.58-.8623A.6384.6384,0,0,0,370.0461,63.0356Z"/><path class="cls-1" d="M372.7415,59.6205a2.6814,2.6814,0,0,1-.8633.5938,2.1085,2.1085,0,0,1-.93.166,2.4255,2.4255,0,0,1-.9414-.2549,3.4515,3.4515,0,0,1-.9082-.668,3.38,3.38,0,0,1-.668-.9155,2.5408,2.5408,0,0,1-.2578-.9512,2.1057,2.1057,0,0,1,.1484-.9189,2.5767,2.5767,0,0,1,1.3614-1.3687,2.0814,2.0814,0,0,1,.8906-.1479,2.3823,2.3823,0,0,1,.9014.2363,3.0533,3.0533,0,0,1,.8408.6079l.2763.2759-2.6591,2.6587.1484.148a1.4577,1.4577,0,0,0,1.0312.4658,1.4736,1.4736,0,0,0,1.0762-.4932,1.6849,1.6849,0,0,0,.4649-.78,1.5764,1.5764,0,0,0-.0293-.85l.7929-.0971a1.9807,1.9807,0,0,1,.0254,1.1362A2.5006,2.5006,0,0,1,372.7415,59.6205Zm-3.3379-3.2529a1.4773,1.4773,0,0,0-.333.4878,1.4279,1.4279,0,0,0-.1065.5376,1.3237,1.3237,0,0,0,.1172.5405,1.61,1.61,0,0,0,.3437.4917l.0557.0562,1.9727-1.9727-.0772-.0776a1.4709,1.4709,0,0,0-1.001-.4771A1.278,1.278,0,0,0,369.4036,56.3676Z"/><path class="cls-1" d="M52.5139,293.9355h2.38a2.0147,2.0147,0,0,1,1.4448.49,1.7378,1.7378,0,0,1,.5151,1.32,1.4834,1.4834,0,0,1-.3.98,1.6776,1.6776,0,0,1-.8.52v.03a1.9235,1.9235,0,0,1,.9751.53,1.5516,1.5516,0,0,1,.375,1.12,2.1735,2.1735,0,0,1-.14.7852,1.8977,1.8977,0,0,1-.395.6347,1.7822,1.7822,0,0,1-.61.42,1.9636,1.9636,0,0,1-.7754.15h-2.67Zm2.23,3.02a1.3129,1.3129,0,0,0,.82-.2251.836.836,0,0,0,.29-.7051v-.37a.836.836,0,0,0-.29-.7051,1.31,1.31,0,0,0-.82-.2251h-1.27v2.23Zm.15,3.17a1.4059,1.4059,0,0,0,.8847-.2451.921.921,0,0,0,.315-.7754v-.39a.9107.9107,0,0,0-.315-.76,1.3913,1.3913,0,0,0-.8847-.25h-1.42v2.42Z"/><path class="cls-1" d="M62.5842,300.9155a.8753.8753,0,0,1-.6753-.2344,1.0983,1.0983,0,0,1-.2646-.6153h-.05a1.4612,1.4612,0,0,1-.55.709,1.7555,1.7555,0,0,1-1.01.2608,1.8653,1.8653,0,0,1-1.2749-.4151,1.4406,1.4406,0,0,1-.4751-1.1445,1.3074,1.3074,0,0,1,.54-1.13,2.9337,2.9337,0,0,1,1.7-.39h1.05v-.46a1.0664,1.0664,0,0,0-.3-.8252,1.2463,1.2463,0,0,0-.87-.2749,1.6045,1.6045,0,0,0-.8349.1949,1.475,1.475,0,0,0-.5249.5454l-.59-.47a1.5439,1.5439,0,0,1,.28-.3848,1.9841,1.9841,0,0,1,.43-.33,2.3,2.3,0,0,1,.58-.23,2.93,2.93,0,0,1,.73-.0849,2.2146,2.2146,0,0,1,1.4853.4648,1.6346,1.6346,0,0,1,.5449,1.315v2.73h.69v.77Zm-2.33-.6094a1.6186,1.6186,0,0,0,.95-.2608.7708.7708,0,0,0,.37-.6494v-.8h-1.04a1.9456,1.9456,0,0,0-.9751.19.6047.6047,0,0,0-.3149.55v.21a.6529.6529,0,0,0,.27.57A1.2726,1.2726,0,0,0,60.2541,300.3061Z"/><path class="cls-1" d="M64.4138,300.1459h1.45v-3.6206h-1.45v-.77h2.38v1.33h.06a1.8518,1.8518,0,0,1,.5948-.98,1.7129,1.7129,0,0,1,1.125-.35h.68v.91h-1a1.4612,1.4612,0,0,0-1.0649.3847,1.3281,1.3281,0,0,0-.395.9951v2.1006h1.95v.77h-4.33Z"/><path class="cls-1" d="M72.9338,300.9155a1.1659,1.1659,0,0,1-.93-.3458,1.3111,1.3111,0,0,1-.3-.8945v-3.15h-1.65v-.77h1.2a.5478.5478,0,0,0,.3848-.11.5286.5286,0,0,0,.1152-.39v-1.32h.88v1.82h2.29v.77h-2.29v3.6206h2.29v.77Z"/><path class="cls-1" d="M76.574,293.5155h.93v3.1h.04a2.0079,2.0079,0,0,1,.2051-.37,1.3677,1.3677,0,0,1,.7148-.53,1.7755,1.7755,0,0,1,.56-.08,1.69,1.69,0,0,1,1.2846.51,2.02,2.02,0,0,1,.4854,1.45v3.32h-.93v-3.16q0-1.3293-1.15-1.33a1.7889,1.7889,0,0,0-.4448.0552,1.1549,1.1549,0,0,0-.3853.1753.94.94,0,0,0-.2749.3.8151.8151,0,0,0-.105.42v3.54h-.93Z"/><path class="cls-1" d="M84.7541,301.0356a2.67,2.67,0,0,1-1.03-.19,2.1194,2.1194,0,0,1-.7749-.539,2.4321,2.4321,0,0,1-.4849-.8457,3.4193,3.4193,0,0,1-.17-1.1148,3.3748,3.3748,0,0,1,.1748-1.12,2.533,2.533,0,0,1,.49-.855,2.1159,2.1159,0,0,1,.7549-.5449,2.5815,2.5815,0,0,1,1.93-.0054,2.09,2.09,0,0,1,.7348.5254,2.3823,2.3823,0,0,1,.47.8047,3.04,3.04,0,0,1,.165,1.0249v.39h-3.76v.2094a1.46,1.46,0,0,0,.4,1.0586,1.4765,1.4765,0,0,0,1.11.4121,1.668,1.668,0,0,0,.88-.2236,1.563,1.563,0,0,0,.58-.6221l.63.4922a1.9981,1.9981,0,0,1-.7851.8223A2.5069,2.5069,0,0,1,84.7541,301.0356Zm-.06-4.66a1.4756,1.4756,0,0,0-.58.11,1.4259,1.4259,0,0,0-.4551.3052,1.3306,1.3306,0,0,0-.3.4648,1.61,1.61,0,0,0-.105.59v.08h2.79v-.11a1.4679,1.4679,0,0,0-.37-1.045A1.28,1.28,0,0,0,84.6941,296.3754Z"/><path class="cls-1" d="M90.6941,301.0356a3.4421,3.4421,0,0,1-1.42-.27,2.6583,2.6583,0,0,1-.98-.73l.59-.53a2.4891,2.4891,0,0,0,.79.585,2.4426,2.4426,0,0,0,1.04.205,1.8693,1.8693,0,0,0,.9248-.2.67.67,0,0,0,.355-.63.6162.6162,0,0,0-.07-.3047.5577.5577,0,0,0-.19-.2,1.0069,1.0069,0,0,0-.2749-.1153q-.1552-.0394-.3252-.07l-.81-.1191q-.29-.04-.6-.1152a1.8966,1.8966,0,0,1-.565-.2349,1.3318,1.3318,0,0,1-.42-.42,1.234,1.234,0,0,1-.165-.67,1.4477,1.4477,0,0,1,.1552-.6846,1.3849,1.3849,0,0,1,.44-.4951,2.0506,2.0506,0,0,1,.68-.3,3.5365,3.5365,0,0,1,.8652-.1,3.1466,3.1466,0,0,1,1.23.22,2.5793,2.5793,0,0,1,.88.6l-.57.56a1.6568,1.6568,0,0,0-.23-.225,1.6049,1.6049,0,0,0-.33-.2051,2.2655,2.2655,0,0,0-.44-.15,2.4962,2.4962,0,0,0-.58-.06,1.63,1.63,0,0,0-.875.1948.6312.6312,0,0,0-.3052.5655.5606.5606,0,0,0,.26.51.8971.8971,0,0,0,.2749.12c.1036.0269.2115.05.3252.07l.81.12a5.3564,5.3564,0,0,1,.6.12,2.0736,2.0736,0,0,1,.565.2349,1.2806,1.2806,0,0,1,.42.4155,1.2317,1.2317,0,0,1,.1645.67,1.4044,1.4044,0,0,1-.5947,1.209A2.723,2.723,0,0,1,90.6941,301.0356Z"/><path class="cls-1" d="M365.7034,111.3388l1.6836-1.6831a2.0122,2.0122,0,0,1,1.3671-.6753,1.7388,1.7388,0,0,1,1.2989.5693,1.49,1.49,0,0,1,.48.9053,1.6858,1.6858,0,0,1-.1982.9331l.0205.021a1.9258,1.9258,0,0,1,1.0645-.3144,1.549,1.549,0,0,1,1.0566.5263,2.1689,2.1689,0,0,1,.457.6543,1.9382,1.9382,0,0,1,.17.7285,1.7858,1.7858,0,0,1-.1348.7285,1.9862,1.9862,0,0,1-.4414.6543l-1.8887,1.8877Zm3.7129.5586a1.3082,1.3082,0,0,0,.42-.7393.834.834,0,0,0-.293-.7036l-.2617-.2612a.8355.8355,0,0,0-.7031-.2935,1.3089,1.3089,0,0,0-.7393.4209l-.8975.898,1.5762,1.5766Zm2.3476,2.1348a1.4176,1.4176,0,0,0,.4522-.7984.923.923,0,0,0-.3252-.771l-.2764-.2759a.91.91,0,0,0-.76-.3144,1.3862,1.3862,0,0,0-.8017.4487l-1.0049,1.0044,1.7109,1.7109Z"/><path class="cls-1" d="M377.76,109.1537a.8731.8731,0,0,1-.6445.3111,1.0929,1.0929,0,0,1-.6211-.2476l-.0352.0357a1.4769,1.4769,0,0,1,.1133.8906,1.7629,1.7629,0,0,1-.5312.8984,1.8694,1.8694,0,0,1-1.1944.6079,1.44,1.44,0,0,1-1.1455-.4741,1.3071,1.3071,0,0,1-.418-1.1807,2.9348,2.9348,0,0,1,.9268-1.478l.7422-.7422-.3252-.3252a1.068,1.068,0,0,0-.7949-.3716,1.2507,1.2507,0,0,0-.8106.4209,1.6078,1.6078,0,0,0-.4521.7281,1.4765,1.4765,0,0,0,.0146.7568l-.75.085a1.55,1.55,0,0,1-.0742-.47,2.0252,2.0252,0,0,1,.07-.5372,2.3384,2.3384,0,0,1,.2481-.5727,2.9094,2.9094,0,0,1,.456-.5762,2.2152,2.2152,0,0,1,1.3789-.7217,1.6363,1.6363,0,0,1,1.3155.5445l1.93,1.93.4883-.4878.5449.5449Zm-2.0791,1.2159a1.6108,1.6108,0,0,0,.4873-.855.7711.7711,0,0,0-.1973-.7217l-.5664-.5654-.7343.7353a1.9445,1.9445,0,0,0-.5557.8237.6058.6058,0,0,0,.166.6114l.1485.1484a.6523.6523,0,0,0,.5947.2124A1.2693,1.2693,0,0,0,375.6809,110.37Z"/><path class="cls-1" d="M378.509,107.3149l1.0254-1.0254-2.56-2.56-1.0254,1.0254-.545-.5444,1.6836-1.6831.94.94.042-.0425a1.85,1.85,0,0,1-.2715-1.1133,1.71,1.71,0,0,1,.5468-1.0429l.4815-.481.6435.6436-.707.707a1.4549,1.4549,0,0,0-.4805,1.0249,1.324,1.324,0,0,0,.4239.9829l1.4843,1.4849,1.379-1.3785.5449.545L379.054,107.86Z"/><path class="cls-1" d="M385.0784,101.8354a1.1674,1.1674,0,0,1-.9014.4131,1.3124,1.3124,0,0,1-.8447-.4205l-2.2285-2.2275-1.1661,1.1665-.5449-.5444.85-.8487a.5437.5437,0,0,0,.1934-.35.5267.5267,0,0,0-.1934-.3574l-.9336-.9331.6221-.6221,1.2861,1.2867,1.6192-1.6192.5449.5445-1.6191,1.6191,2.56,2.56,1.6192-1.6192.5449.5449Z"/><path class="cls-1" d="M382.42,94.0282l.6572-.6577,2.1924,2.1924.0283-.0283a1.9967,1.9967,0,0,1-.1162-.4067,1.3769,1.3769,0,0,1-.0117-.4346,1.42,1.42,0,0,1,.1416-.4458,1.7558,1.7558,0,0,1,.34-.4522,1.6905,1.6905,0,0,1,1.2686-.5478,2.0214,2.0214,0,0,1,1.3691.6821l2.3477,2.3477-.6582.6577L387.7444,94.7q-.94-.94-1.7539-.1274a1.7861,1.7861,0,0,0-.2754.3535,1.1453,1.1453,0,0,0-.1485.3965.9524.9524,0,0,0,.0176.4062.8137.8137,0,0,0,.2227.3711l2.5039,2.5034-.6582.6578Z"/><path class="cls-1" d="M393.5217,93.5619a2.6686,2.6686,0,0,1-.8633.5938,2.1056,2.1056,0,0,1-.93.166,2.4159,2.4159,0,0,1-.9414-.2544,3.4535,3.4535,0,0,1-.9083-.668,3.3814,3.3814,0,0,1-.6679-.9155,2.5408,2.5408,0,0,1-.2578-.9512,2.12,2.12,0,0,1,.1484-.9194,2.5854,2.5854,0,0,1,1.3613-1.3686,2.0905,2.0905,0,0,1,.8907-.148,2.3784,2.3784,0,0,1,.9013.2368,3.0255,3.0255,0,0,1,.8408.6079l.2764.2759-2.6592,2.6587.1485.1479a1.4548,1.4548,0,0,0,1.0312.4654,1.4738,1.4738,0,0,0,1.0762-.4932,1.668,1.668,0,0,0,.4648-.78,1.5736,1.5736,0,0,0-.0293-.85l.793-.0976a1.99,1.99,0,0,1,.0264,1.1362A2.511,2.511,0,0,1,393.5217,93.5619Zm-3.3379-3.2529a1.4753,1.4753,0,0,0-.332.4878,1.43,1.43,0,0,0-.1064.5376,1.3409,1.3409,0,0,0,.1162.541,1.6161,1.6161,0,0,0,.3437.4917l.0557.0562,1.9736-1.9732-.0781-.0776a1.469,1.469,0,0,0-1-.4771A1.2789,1.2789,0,0,0,390.1838,90.309Z"/><path class="cls-1" d="M397.7219,89.3617a3.4478,3.4478,0,0,1-1.1953.8135,2.665,2.665,0,0,1-1.21.1763l.043-.792a2.5244,2.5244,0,0,0,.9727-.1445,2.4538,2.4538,0,0,0,.8808-.5909,1.8824,1.8824,0,0,0,.5118-.7954.6717.6717,0,0,0-.1954-.6967.6143.6143,0,0,0-.2636-.1661.5535.5535,0,0,0-.2764-.0073.97.97,0,0,0-.2754.1133c-.0928.0542-.1855.1143-.28.18l-.6562.4883q-.2344.1764-.5059.3427a1.9151,1.9151,0,0,1-.5664.2339,1.3324,1.3324,0,0,1-.5937,0,1.2349,1.2349,0,0,1-.5909-.3574,1.4469,1.4469,0,0,1-.374-.5938,1.3825,1.3825,0,0,1-.039-.6611,2.0552,2.0552,0,0,1,.2685-.6934,3.529,3.529,0,0,1,.542-.6821,3.1414,3.1414,0,0,1,1.0244-.7143,2.5774,2.5774,0,0,1,1.0459-.1978l-.0058.7988a1.669,1.669,0,0,0-.3223.0035,1.629,1.629,0,0,0-.3789.0883,2.2751,2.2751,0,0,0-.416.2051,2.5175,2.5175,0,0,0-.4531.3677,1.62,1.62,0,0,0-.4805.7563.63.63,0,0,0,.1836.6158.6174.6174,0,0,0,.2676.1694.6055.6055,0,0,0,.2763.0073.9082.9082,0,0,0,.28-.11c.0918-.0538.1836-.1143.2783-.18l.6572-.4878a5.4687,5.4687,0,0,1,.51-.3394,2.0705,2.0705,0,0,1,.5654-.2334,1.2858,1.2858,0,0,1,.5909-.0039,1.2328,1.2328,0,0,1,.59.3574,1.4072,1.4072,0,0,1,.4355,1.2764A2.7257,2.7257,0,0,1,397.7219,89.3617Z"/><path class="cls-1" d="M56.154,333.849l.02-2.16h-.08l-1.44,3.59-1.44-3.59h-.08l.02,2.16v3.43h-.88v-6.98h1.22l1.16,2.94h.06l1.16-2.94h1.16v6.98h-.88Z"/><path class="cls-1" d="M60.7541,337.3988a2.6889,2.6889,0,0,1-1.03-.1894,2.111,2.111,0,0,1-.7749-.54,2.4239,2.4239,0,0,1-.4849-.8457,3.4183,3.4183,0,0,1-.17-1.1143,3.37,3.37,0,0,1,.1748-1.12,2.5354,2.5354,0,0,1,.49-.8555,2.1268,2.1268,0,0,1,.7549-.5449,2.5834,2.5834,0,0,1,1.93-.0049,2.0825,2.0825,0,0,1,.7348.5254,2.3765,2.3765,0,0,1,.47.8047,3.0354,3.0354,0,0,1,.165,1.0244v.3906h-3.76v.209a1.4584,1.4584,0,0,0,.4,1.0586,1.4765,1.4765,0,0,0,1.11.4121,1.668,1.668,0,0,0,.88-.2236,1.5615,1.5615,0,0,0,.58-.6211l.63.4912a1.9922,1.9922,0,0,1-.7851.8223A2.5069,2.5069,0,0,1,60.7541,337.3988Zm-.06-4.66a1.4775,1.4775,0,0,0-.58.11,1.418,1.418,0,0,0-.4551.3047,1.332,1.332,0,0,0-.3.4649,1.6124,1.6124,0,0,0-.105.5908v.0791h2.79v-.1094a1.467,1.467,0,0,0-.37-1.0449A1.2785,1.2785,0,0,0,60.6941,332.7387Z"/><path class="cls-1" d="M64.4338,336.5092h1.75v-5.86h-1.75v-.7695h2.68v6.63h1.76v.7695h-4.44Z"/><path class="cls-1" d="M72.074,337.2787l-1.85-5.16h.95l.73,2.17.74,2.2109h.05l.74-2.2109.72-2.17h.93l-1.85,5.16Z"/><path class="cls-1" d="M76.6941,336.5092h1.81v-3.62h-1.81v-.77h2.74v4.3906h1.7v.7695h-4.44Zm2.28-5.44a.723.723,0,0,1-.53-.1553.53.53,0,0,1-.15-.3848v-.1894a.5514.5514,0,0,1,.15-.3906.9568.9568,0,0,1,1.06,0,.5514.5514,0,0,1,.15.3906v.1894a.53.53,0,0,1-.15.3848A.7241.7241,0,0,1,78.9739,331.0688Z"/><path class="cls-1" d="M82.4338,336.5092h1.75v-5.86h-1.75v-.7695h2.68v6.63h1.76v.7695h-4.44Z"/><path class="cls-1" d="M88.4338,336.5092h1.75v-5.86h-1.75v-.7695h2.68v6.63h1.76v.7695h-4.44Z"/><path class="cls-1" d="M96.7541,337.3988a2.6889,2.6889,0,0,1-1.03-.1894,2.111,2.111,0,0,1-.7749-.54,2.4239,2.4239,0,0,1-.4849-.8457,3.4183,3.4183,0,0,1-.17-1.1143,3.37,3.37,0,0,1,.1748-1.12,2.5354,2.5354,0,0,1,.49-.8555,2.1268,2.1268,0,0,1,.7549-.5449,2.5834,2.5834,0,0,1,1.93-.0049,2.0825,2.0825,0,0,1,.7348.5254,2.3765,2.3765,0,0,1,.47.8047,3.0354,3.0354,0,0,1,.165,1.0244v.3906h-3.76v.209a1.4584,1.4584,0,0,0,.4,1.0586,1.4765,1.4765,0,0,0,1.11.4121,1.668,1.668,0,0,0,.88-.2236,1.5615,1.5615,0,0,0,.58-.6211l.63.4912a1.9922,1.9922,0,0,1-.7851.8223A2.5069,2.5069,0,0,1,96.7541,337.3988Zm-.06-4.66a1.4775,1.4775,0,0,0-.58.11,1.418,1.418,0,0,0-.4551.3047,1.332,1.332,0,0,0-.3.4649,1.6124,1.6124,0,0,0-.105.5908v.0791h2.79v-.1094a1.467,1.467,0,0,0-.37-1.0449A1.2785,1.2785,0,0,0,96.6941,332.7387Z"/><path class="cls-1" d="M54.8743,373.7631a2.1884,2.1884,0,0,1-1.9453-.9355,5.9527,5.9527,0,0,1,0-5.35,2.19,2.19,0,0,1,1.9453-.9356,2.4,2.4,0,0,1,.85.1357,2.0281,2.0281,0,0,1,.62.3594,2.2541,2.2541,0,0,1,.44.5156,3.4657,3.4657,0,0,1,.3.6094l-.85.33a4.0141,4.0141,0,0,0-.2-.4346,1.5331,1.5331,0,0,0-.2646-.36,1.1347,1.1347,0,0,0-.375-.2451,1.5851,1.5851,0,0,0-1.2105.0654,1.3125,1.3125,0,0,0-.48.4443,2.1615,2.1615,0,0,0-.2847.7,4.0315,4.0315,0,0,0-.0952.91v1.16a4.0308,4.0308,0,0,0,.0952.91,2.1523,2.1523,0,0,0,.2847.7,1.3049,1.3049,0,0,0,.48.4443,1.5858,1.5858,0,0,0,1.2105.0655,1.1365,1.1365,0,0,0,.375-.2452,1.5331,1.5331,0,0,0,.2646-.36,4.0141,4.0141,0,0,0,.2-.4346l.85.33a3.4657,3.4657,0,0,1-.3.6094,2.2541,2.2541,0,0,1-.44.5156,2.0281,2.0281,0,0,1-.62.3594A2.4,2.4,0,0,1,54.8743,373.7631Z"/><path class="cls-1" d="M58.6941,372.8725h1.81v-3.62h-1.81v-.77h2.74v4.39h1.7v.77h-4.44Zm2.28-5.44a.723.723,0,0,1-.53-.1552.5314.5314,0,0,1-.15-.3848v-.19a.5476.5476,0,0,1,.15-.39.9573.9573,0,0,1,1.06,0,.5476.5476,0,0,1,.15.39v.19a.5314.5314,0,0,1-.15.3848A.7241.7241,0,0,1,60.9739,367.433Z"/><path class="cls-1" d="M64.1941,373.643l1.92-2.62-1.86-2.54h1.1l.74,1.04.58.82h.05l.57-.82.72-1.04h1.05l-1.88,2.52,1.9405,2.6406h-1.1l-.83-1.16-.56-.8h-.05l-.54.8-.81,1.16Z"/><path class="cls-1" d="M70.6941,372.8725h1.81v-3.62h-1.81v-.77h2.74v4.39h1.7v.77h-4.44Zm2.28-5.44a.723.723,0,0,1-.53-.1552.5314.5314,0,0,1-.15-.3848v-.19a.5476.5476,0,0,1,.15-.39.9573.9573,0,0,1,1.06,0,.5476.5476,0,0,1,.15.39v.19a.5314.5314,0,0,1-.15.3848A.7241.7241,0,0,1,72.9739,367.433Z"/><path class="cls-1" d="M76.574,373.643v-5.16h.93v.86h.04a2.0047,2.0047,0,0,1,.2051-.37,1.36,1.36,0,0,1,.7148-.53,1.7634,1.7634,0,0,1,.56-.08,1.69,1.69,0,0,1,1.2846.51,2.02,2.02,0,0,1,.4854,1.45v3.32h-.93v-3.16q0-1.33-1.15-1.33a1.8124,1.8124,0,0,0-.4448.0546,1.1678,1.1678,0,0,0-.3853.1758.935.935,0,0,0-.2749.3.8152.8152,0,0,0-.105.42v3.54Z"/><path class="cls-1" d="M52.804,410.0063v-6.98h.97v6.16h3.25v.8194Z"/><path class="cls-1" d="M60.7541,410.1264a2.6889,2.6889,0,0,1-1.03-.19,2.11,2.11,0,0,1-.7749-.54,2.423,2.423,0,0,1-.4849-.8457,3.4183,3.4183,0,0,1-.17-1.1143,3.3706,3.3706,0,0,1,.1748-1.12,2.5364,2.5364,0,0,1,.49-.8555,2.128,2.128,0,0,1,.7549-.5449,2.5847,2.5847,0,0,1,1.93-.0049,2.0838,2.0838,0,0,1,.7348.5254,2.3775,2.3775,0,0,1,.47.8047,3.0354,3.0354,0,0,1,.165,1.0244v.3907h-3.76v.2089a1.4584,1.4584,0,0,0,.4,1.0586,1.4761,1.4761,0,0,0,1.11.4121,1.668,1.668,0,0,0,.88-.2236,1.56,1.56,0,0,0,.58-.6211l.63.4912a1.9922,1.9922,0,0,1-.7851.8223A2.5069,2.5069,0,0,1,60.7541,410.1264Zm-.06-4.66a1.4757,1.4757,0,0,0-.58.11,1.4164,1.4164,0,0,0-.4551.3047,1.3315,1.3315,0,0,0-.3.4648,1.6132,1.6132,0,0,0-.105.5908v.0791h2.79v-.1093a1.4673,1.4673,0,0,0-.37-1.045A1.2788,1.2788,0,0,0,60.6941,405.4662Z"/><path class="cls-1" d="M64.1443,410.0063v-5.16h.83v.6309h.05a1.5071,1.5071,0,0,1,.34-.53.8672.8672,0,0,1,.64-.22.9217.9217,0,0,1,.6651.2246.9789.9789,0,0,1,.2847.5947h.04a1.585,1.585,0,0,1,.395-.585,1.0177,1.0177,0,0,1,.7153-.2343.8658.8658,0,0,1,.84.43,2.7089,2.7089,0,0,1,.23,1.25v3.6h-.83v-3.47a1.818,1.818,0,0,0-.1348-.8349.493.493,0,0,0-.4653-.2354.6425.6425,0,0,0-.48.1953.7924.7924,0,0,0-.19.5752v3.77h-.83v-3.47a1.818,1.818,0,0,0-.1348-.8349.4829.4829,0,0,0-.4551-.2354.6559.6559,0,0,0-.49.1953.7928.7928,0,0,0-.19.5752v3.77Z"/><path class="cls-1" d="M55.134,440.2094v6.16h-.96v-6.16h-2.27V439.39h5.5v.8193Z"/><path class="cls-1" d="M60.654,446.49a2.5117,2.5117,0,0,1-1-.19,2.1015,2.1015,0,0,1-.75-.54,2.3931,2.3931,0,0,1-.475-.8506,3.8821,3.8821,0,0,1,0-2.24,2.3967,2.3967,0,0,1,.475-.85,2.1027,2.1027,0,0,1,.75-.54,2.7219,2.7219,0,0,1,1.9952,0,2.0937,2.0937,0,0,1,.7548.54,2.3954,2.3954,0,0,1,.4751.85,3.8821,3.8821,0,0,1,0,2.24,2.3917,2.3917,0,0,1-.4751.8506,2.0925,2.0925,0,0,1-.7548.54A2.5232,2.5232,0,0,1,60.654,446.49Zm0-.77a1.3685,1.3685,0,0,0,1.02-.3857,1.5943,1.5943,0,0,0,.38-1.165v-.76a1.5974,1.5974,0,0,0-.38-1.165,1.5444,1.5444,0,0,0-2.04,0,1.5974,1.5974,0,0,0-.38,1.165v.76a1.5943,1.5943,0,0,0,.38,1.165A1.3684,1.3684,0,0,0,60.654,445.72Z"/><path class="cls-1" d="M64.4338,445.6h1.75v-5.86h-1.75v-.77h2.68v6.63h1.76v.77h-4.44Z"/><path class="cls-1" d="M70.6243,438.97h.93v4.58h.05l.86-.8408,1.6-1.5h1.11l-2.11,2.02,2.36,3.14h-1.14l-1.91-2.6-.82.75v1.85h-.93Z"/><path class="cls-1" d="M76.6941,445.6h1.81v-3.62h-1.81v-.77h2.74V445.6h1.7v.77h-4.44Zm2.28-5.44a.723.723,0,0,1-.53-.1553.5294.5294,0,0,1-.15-.3847v-.19a.5514.5514,0,0,1,.15-.3906.9568.9568,0,0,1,1.06,0,.5514.5514,0,0,1,.15.3906v.19a.5294.5294,0,0,1-.15.3847A.7241.7241,0,0,1,78.9739,440.16Z"/><path class="cls-1" d="M84.7541,446.49a2.6889,2.6889,0,0,1-1.03-.19,2.11,2.11,0,0,1-.7749-.54,2.423,2.423,0,0,1-.4849-.8457,3.4183,3.4183,0,0,1-.17-1.1143,3.3706,3.3706,0,0,1,.1748-1.12,2.5354,2.5354,0,0,1,.49-.8555,2.128,2.128,0,0,1,.7549-.5449,2.5847,2.5847,0,0,1,1.93-.0049,2.0838,2.0838,0,0,1,.7348.5254,2.3775,2.3775,0,0,1,.47.8047,3.0354,3.0354,0,0,1,.165,1.0244v.3906h-3.76v.209a1.4584,1.4584,0,0,0,.4,1.0586,1.4765,1.4765,0,0,0,1.11.4121,1.668,1.668,0,0,0,.88-.2236,1.56,1.56,0,0,0,.58-.6211l.63.4912a1.9922,1.9922,0,0,1-.7851.8223A2.5069,2.5069,0,0,1,84.7541,446.49Zm-.06-4.66a1.4757,1.4757,0,0,0-.58.11,1.4164,1.4164,0,0,0-.4551.3047,1.3306,1.3306,0,0,0-.3.4648,1.6128,1.6128,0,0,0-.105.5908v.0791h2.79V443.27a1.467,1.467,0,0,0-.37-1.0449A1.2785,1.2785,0,0,0,84.6941,441.83Z"/><path class="cls-1" d="M88.574,446.37v-5.16h.93v.86h.04a2.0079,2.0079,0,0,1,.2051-.37,1.3747,1.3747,0,0,1,.7148-.53,1.7908,1.7908,0,0,1,.56-.0791,1.69,1.69,0,0,1,1.2846.51,2.02,2.02,0,0,1,.4854,1.45V446.37h-.93v-3.16q0-1.3286-1.15-1.33a1.766,1.766,0,0,0-.4448.0557,1.1442,1.1442,0,0,0-.3853.1748.9455.9455,0,0,0-.2749.3.8151.8151,0,0,0-.105.42v3.54Z"/><path class="cls-1" d="M52.4841,482.7338l-.53-6.98h.86l.26,3.95.14,2.04h.08l.86-4.2305h1.02l.86,4.2305h.08l.14-2.04.27-3.95h.83l-.53,6.98h-1.34l-.79-4.11h-.08l-.79,4.11Z"/><path class="cls-1" d="M60.654,482.8539a2.4944,2.4944,0,0,1-1-.19,2.1027,2.1027,0,0,1-.75-.54,2.3967,2.3967,0,0,1-.475-.85,3.8821,3.8821,0,0,1,0-2.24,2.3972,2.3972,0,0,1,.475-.85,2.09,2.09,0,0,1,.75-.54,2.7073,2.7073,0,0,1,1.9952,0,2.0807,2.0807,0,0,1,.7548.54,2.3958,2.3958,0,0,1,.4751.85,3.8821,3.8821,0,0,1,0,2.24,2.3954,2.3954,0,0,1-.4751.85,2.0937,2.0937,0,0,1-.7548.54A2.5057,2.5057,0,0,1,60.654,482.8539Zm0-.7705a1.3678,1.3678,0,0,0,1.02-.3847,1.5978,1.5978,0,0,0,.38-1.1651v-.76a1.5958,1.5958,0,0,0-.38-1.165,1.5444,1.5444,0,0,0-2.04,0,1.5958,1.5958,0,0,0-.38,1.165v.76a1.5978,1.5978,0,0,0,.38,1.1651A1.3678,1.3678,0,0,0,60.654,482.0834Z"/><path class="cls-1" d="M64.4338,481.9633h1.75v-5.8594h-1.75v-.7705h2.68v6.63h1.76v.77h-4.44Z"/><path class="cls-1" d="M70.4641,481.9633h1.69v-3.62h-1.79v-.77h1.79v-1a1.3189,1.3189,0,0,1,.3-.8956,1.1705,1.1705,0,0,1,.93-.3447h1.73v.7705h-2.03v1.47h2.03v.77h-2.03v3.62h1.8v.77h-4.42Z"/><path class="cls-1" d="M78.7541,482.8539a2.67,2.67,0,0,1-1.03-.19,2.111,2.111,0,0,1-.7749-.54,2.4189,2.4189,0,0,1-.4849-.8448,3.4235,3.4235,0,0,1-.17-1.1152,3.3786,3.3786,0,0,1,.1748-1.12,2.5306,2.5306,0,0,1,.49-.8545,2.1026,2.1026,0,0,1,.7549-.5449,2.577,2.577,0,0,1,1.93-.0059,2.0938,2.0938,0,0,1,.7348.5254,2.3862,2.3862,0,0,1,.47.8047,3.0447,3.0447,0,0,1,.165,1.0254v.39h-3.76v.209a1.4568,1.4568,0,0,0,.4,1.0586,1.4732,1.4732,0,0,0,1.11.4131,1.6773,1.6773,0,0,0,.88-.2236,1.5643,1.5643,0,0,0,.58-.6221l.63.4922a1.9973,1.9973,0,0,1-.7851.8222A2.5154,2.5154,0,0,1,78.7541,482.8539Zm-.06-4.66a1.4773,1.4773,0,0,0-.58.1093,1.4372,1.4372,0,0,0-.4551.3057,1.332,1.332,0,0,0-.3.4649,1.6071,1.6071,0,0,0-.105.59v.08h2.79v-.11a1.4687,1.4687,0,0,0-.37-1.0449A1.2813,1.2813,0,0,0,78.6941,478.1938Z"/><path class="cls-1" d="M52.804,519.0971v-6.9795h.97v6.16h3.25v.8193Z"/><path class="cls-1" d="M58.6941,518.3276h1.81v-3.62h-1.81v-.77h2.74v4.3907h1.7v.7695h-4.44Zm2.28-5.44a.723.723,0,0,1-.53-.1552.53.53,0,0,1-.15-.3848v-.1895a.5514.5514,0,0,1,.15-.3906.9573.9573,0,0,1,1.06,0,.5514.5514,0,0,1,.15.3906v.1895a.53.53,0,0,1-.15.3848A.7241.7241,0,0,1,60.9739,512.8871Z"/><path class="cls-1" d="M67.844,518.2377h-.05a1.8159,1.8159,0,0,1-3.0449.2793,4.0045,4.0045,0,0,1,0-4,1.9137,1.9137,0,0,1,2.4248-.4492,1.7232,1.7232,0,0,1,.62.7295h.05v-3.1h.93v7.3994h-.93Zm-1.25.1895a1.7167,1.7167,0,0,0,.4751-.0645,1.3277,1.3277,0,0,0,.4-.19.8865.8865,0,0,0,.2749-.3154.9235.9235,0,0,0,.1-.4395v-1.8a.9017.9017,0,0,0-.1-.4355.9542.9542,0,0,0-.2749-.3145,1.25,1.25,0,0,0-.4-.1953,1.7169,1.7169,0,0,0-.4751-.0654,1.31,1.31,0,0,0-1.0249.4052,1.5452,1.5452,0,0,0-.3652,1.0752v.86a1.5409,1.5409,0,0,0,.3652,1.0742A1.3071,1.3071,0,0,0,66.594,518.4272Z"/><path class="cls-1" d="M70.4338,518.3276h1.75v-5.86h-1.75v-.77h2.68v6.63h1.76v.7695h-4.44Z"/><path class="cls-1" d="M83.4939,519.0971h-.97v-6.9795h2.57a1.9817,1.9817,0,0,1,1.5049.54,2.0992,2.0992,0,0,1,.5151,1.51,2.0463,2.0463,0,0,1-.42,1.335,1.7657,1.7657,0,0,1-1.2.6152l1.7,2.9795h-1.08l-1.59-2.91h-1.03Zm1.52-3.7a1.1449,1.1449,0,0,0,.8052-.2549.9531.9531,0,0,0,.2749-.7344v-.48a.9518.9518,0,0,0-.2749-.7344,1.14,1.14,0,0,0-.8052-.2559h-1.52v2.46Z"/><path class="cls-1" d="M90.7541,519.2172a2.6908,2.6908,0,0,1-1.03-.1894,2.1112,2.1112,0,0,1-.7749-.54,2.423,2.423,0,0,1-.4849-.8457,3.4181,3.4181,0,0,1-.17-1.1142,3.3708,3.3708,0,0,1,.1748-1.12,2.5359,2.5359,0,0,1,.49-.8554,2.1271,2.1271,0,0,1,.7549-.545,2.584,2.584,0,0,1,1.93-.0048,2.0813,2.0813,0,0,1,.7348.5254,2.376,2.376,0,0,1,.47.8046,3.0356,3.0356,0,0,1,.165,1.0245v.3906h-3.76v.209a1.4586,1.4586,0,0,0,.4,1.0586,1.4765,1.4765,0,0,0,1.11.4121,1.6671,1.6671,0,0,0,.88-.2237,1.56,1.56,0,0,0,.58-.6211l.63.4913a1.9919,1.9919,0,0,1-.7851.8222A2.506,2.506,0,0,1,90.7541,519.2172Zm-.06-4.66a1.4775,1.4775,0,0,0-.58.11,1.4164,1.4164,0,0,0-.4551.3047,1.3315,1.3315,0,0,0-.3.4648,1.6134,1.6134,0,0,0-.105.5909v.0791h2.79v-.1094a1.4669,1.4669,0,0,0-.37-1.0449A1.2785,1.2785,0,0,0,90.6941,514.5571Z"/><path class="cls-1" d="M96.844,519.2172a2.5785,2.5785,0,0,1-1.0151-.1894,2.0217,2.0217,0,0,1-.75-.5459,2.4963,2.4963,0,0,1-.47-.85,3.8316,3.8316,0,0,1,0-2.2246,2.4966,2.4966,0,0,1,.47-.8554,2.03,2.03,0,0,1,.75-.545,2.5338,2.5338,0,0,1,1.0053-.1894,2.1188,2.1188,0,0,1,1.2447.334,2.006,2.006,0,0,1,.705.876l-.73.3994a1.2523,1.2523,0,0,0-.4449-.6,1.2941,1.2941,0,0,0-.7749-.2207,1.3083,1.3083,0,0,0-1.0351.413,1.54,1.54,0,0,0-.3653,1.06v.875a1.5365,1.5365,0,0,0,.3653,1.06,1.3333,1.3333,0,0,0,1.0551.4131,1.3532,1.3532,0,0,0,.82-.2344,1.7368,1.7368,0,0,0,.52-.6357l.67.44a2.0221,2.0221,0,0,1-.73.875A2.2207,2.2207,0,0,1,96.844,519.2172Z"/><path class="cls-1" d="M102.7541,519.2172a2.6908,2.6908,0,0,1-1.03-.1894,2.1112,2.1112,0,0,1-.7749-.54,2.423,2.423,0,0,1-.4849-.8457,3.4181,3.4181,0,0,1-.17-1.1142,3.3708,3.3708,0,0,1,.1748-1.12,2.5359,2.5359,0,0,1,.49-.8554,2.1271,2.1271,0,0,1,.7549-.545,2.584,2.584,0,0,1,1.93-.0048,2.0813,2.0813,0,0,1,.7348.5254,2.376,2.376,0,0,1,.47.8046,3.0356,3.0356,0,0,1,.165,1.0245v.3906h-3.76v.209a1.4586,1.4586,0,0,0,.4,1.0586,1.4765,1.4765,0,0,0,1.11.4121,1.6671,1.6671,0,0,0,.88-.2237,1.56,1.56,0,0,0,.58-.6211l.63.4913a1.9919,1.9919,0,0,1-.7851.8222A2.506,2.506,0,0,1,102.7541,519.2172Zm-.06-4.66a1.4775,1.4775,0,0,0-.58.11,1.4164,1.4164,0,0,0-.4551.3047,1.3315,1.3315,0,0,0-.3.4648,1.6134,1.6134,0,0,0-.105.5909v.0791h2.79v-.1094a1.4669,1.4669,0,0,0-.37-1.0449A1.2785,1.2785,0,0,0,102.6941,514.5571Z"/><path class="cls-1" d="M106.6941,518.3276h1.81v-3.62h-1.81v-.77h2.74v4.3907h1.7v.7695h-4.44Zm2.28-5.44a.723.723,0,0,1-.53-.1552.53.53,0,0,1-.15-.3848v-.1895a.5514.5514,0,0,1,.15-.3906.9573.9573,0,0,1,1.06,0,.5514.5514,0,0,1,.15.3906v.1895a.53.53,0,0,1-.15.3848A.7241.7241,0,0,1,108.9739,512.8871Z"/><path class="cls-1" d="M112.5339,513.9369h.93v.86h.05a1.72,1.72,0,0,1,.62-.7295,1.9137,1.9137,0,0,1,2.4248.4492,4.0045,4.0045,0,0,1,0,4,1.9126,1.9126,0,0,1-2.4248.45,1.7252,1.7252,0,0,1-.62-.73h-.05v2.8594h-.93Zm2.18,4.49a1.3072,1.3072,0,0,0,1.0249-.4053,1.5433,1.5433,0,0,0,.3652-1.0742v-.86a1.5476,1.5476,0,0,0-.3652-1.0752,1.3105,1.3105,0,0,0-1.0249-.4052,1.7142,1.7142,0,0,0-.4751.0654,1.25,1.25,0,0,0-.4.1953.9542.9542,0,0,0-.2749.3145.9017.9017,0,0,0-.1.4355v1.8a.9235.9235,0,0,0,.1.4395.8865.8865,0,0,0,.2749.3154,1.3277,1.3277,0,0,0,.4.19A1.7142,1.7142,0,0,0,114.7141,518.4272Z"/><path class="cls-1" d="M120.9338,519.0971a1.1688,1.1688,0,0,1-.93-.3447,1.3158,1.3158,0,0,1-.3-.8955v-3.1495h-1.65v-.77h1.2a.5484.5484,0,0,0,.3848-.1093.53.53,0,0,0,.1152-.3907v-1.3193h.88v1.8193h2.29v.77h-2.29v3.62h2.29v.7695Z"/><path class="cls-1" d="M56.0339,554.5121h-.06a2.58,2.58,0,0,1-.2149.4034,1.4119,1.4119,0,0,1-.31.3378,1.5155,1.5155,0,0,1-.4449.2364,1.8514,1.8514,0,0,1-.61.0918,1.8143,1.8143,0,0,1-1.67-.9258,5.1937,5.1937,0,0,1-.55-2.6348,4.94,4.94,0,0,1,.62-2.73,2.1264,2.1264,0,0,1,1.9-.93,2.5462,2.5462,0,0,1,.87.1347,2.0745,2.0745,0,0,1,.6348.36,1.9475,1.9475,0,0,1,.435.52,3.6586,3.6586,0,0,1,.28.6045l-.85.33a4.6875,4.6875,0,0,0-.1953-.4346,1.41,1.41,0,0,0-.26-.36,1.1362,1.1362,0,0,0-.375-.2451,1.3612,1.3612,0,0,0-.52-.09,1.3922,1.3922,0,0,0-.6753.1543,1.2808,1.2808,0,0,0-.47.4443,2.143,2.143,0,0,0-.2749.6983,4.2389,4.2389,0,0,0-.09.9091v1.0879a5.315,5.315,0,0,0,.0751.9287,2.1805,2.1805,0,0,0,.25.7188,1.2371,1.2371,0,0,0,1.1451.6387,1.2938,1.2938,0,0,0,1.0049-.3887,1.4139,1.4139,0,0,0,.3549-.9951v-.6768h-1.42v-.74h2.3v3.5h-.88Z"/><path class="cls-1" d="M61.804,554.601h-.04a1.7938,1.7938,0,0,1-.2051.375,1.4662,1.4662,0,0,1-.3.3105,1.4054,1.4054,0,0,1-.415.2149,1.7923,1.7923,0,0,1-.56.08,1.6876,1.6876,0,0,1-1.2846-.5108,2.02,2.02,0,0,1-.4854-1.45V550.3h.93v3.16q0,1.33,1.15,1.33a1.7656,1.7656,0,0,0,.4448-.0547,1.166,1.166,0,0,0,.3853-.1748.9562.9562,0,0,0,.2749-.3.8155.8155,0,0,0,.105-.42V550.3h.93v5.16h-.93Z"/><path class="cls-1" d="M68.5842,555.46a.8753.8753,0,0,1-.6753-.2344,1.0922,1.0922,0,0,1-.2646-.6152h-.05a1.46,1.46,0,0,1-.55.71,1.7632,1.7632,0,0,1-1.01.2608,1.8662,1.8662,0,0,1-1.2749-.416,1.44,1.44,0,0,1-.4751-1.1446,1.3077,1.3077,0,0,1,.54-1.13,2.93,2.93,0,0,1,1.7-.39h1.05v-.4609a1.0649,1.0649,0,0,0-.3-.8243,1.244,1.244,0,0,0-.87-.2754,1.5948,1.5948,0,0,0-.8349.1954,1.47,1.47,0,0,0-.5249.5449l-.59-.4707a1.5548,1.5548,0,0,1,.28-.3848,2.0323,2.0323,0,0,1,.43-.33,2.3375,2.3375,0,0,1,.58-.23,2.93,2.93,0,0,1,.73-.0849,2.2119,2.2119,0,0,1,1.4853.4648,1.6344,1.6344,0,0,1,.5449,1.3145v2.73h.69v.77Zm-2.33-.6094a1.6184,1.6184,0,0,0,.95-.26.7737.7737,0,0,0,.37-.65v-.8h-1.04a1.94,1.94,0,0,0-.9751.1905.6042.6042,0,0,0-.3149.5488v.2109a.6529.6529,0,0,0,.27.57A1.2727,1.2727,0,0,0,66.2541,554.851Z"/><path class="cls-1" d="M70.4138,554.6908h1.45v-3.62h-1.45v-.77h2.38v1.33h.06a1.85,1.85,0,0,1,.5948-.98,1.7131,1.7131,0,0,1,1.125-.3506h.68v.91h-1a1.4633,1.4633,0,0,0-1.0649.3847,1.332,1.332,0,0,0-.395.9961v2.1h1.95v.77h-4.33Z"/><path class="cls-1" d="M79.844,554.601h-.05a1.7322,1.7322,0,0,1-.62.7305,1.9115,1.9115,0,0,1-2.4248-.4512,4.0045,4.0045,0,0,1,0-4,1.9137,1.9137,0,0,1,2.4248-.4492,1.7259,1.7259,0,0,1,.62.73h.05V548.061h.93V555.46h-.93Zm-1.25.1895a1.7167,1.7167,0,0,0,.4751-.0645,1.326,1.326,0,0,0,.4-.1895.8965.8965,0,0,0,.2749-.3164.9228.9228,0,0,0,.1-.4394v-1.8a.8956.8956,0,0,0-.1-.4346.9581.9581,0,0,0-.2749-.3154,1.23,1.23,0,0,0-.4-.1944,1.6839,1.6839,0,0,0-.4751-.0664,1.3077,1.3077,0,0,0-1.0249.4063,1.5409,1.5409,0,0,0-.3652,1.0742v.86a1.5456,1.5456,0,0,0,.3652,1.0752A1.31,1.31,0,0,0,78.594,554.7905Z"/><path class="cls-1" d="M82.6941,554.6908h1.81v-3.62h-1.81v-.77h2.74v4.3906h1.7v.77h-4.44Zm2.28-5.4394a.7224.7224,0,0,1-.53-.1563.5278.5278,0,0,1-.15-.3847v-.19a.5514.5514,0,0,1,.15-.3906.9568.9568,0,0,1,1.06,0,.5514.5514,0,0,1,.15.3906v.19a.5278.5278,0,0,1-.15.3847A.7235.7235,0,0,1,84.9739,549.2514Z"/><path class="cls-1" d="M92.5842,555.46a.8753.8753,0,0,1-.6753-.2344,1.0922,1.0922,0,0,1-.2646-.6152h-.05a1.46,1.46,0,0,1-.55.71,1.7632,1.7632,0,0,1-1.01.2608,1.8662,1.8662,0,0,1-1.2749-.416,1.44,1.44,0,0,1-.4751-1.1446,1.3077,1.3077,0,0,1,.54-1.13,2.93,2.93,0,0,1,1.7-.39h1.05v-.4609a1.0649,1.0649,0,0,0-.3-.8243,1.244,1.244,0,0,0-.87-.2754,1.5948,1.5948,0,0,0-.8349.1954,1.47,1.47,0,0,0-.5249.5449l-.59-.4707a1.5548,1.5548,0,0,1,.28-.3848,2.0323,2.0323,0,0,1,.43-.33,2.3375,2.3375,0,0,1,.58-.23,2.93,2.93,0,0,1,.73-.0849,2.2119,2.2119,0,0,1,1.4853.4648,1.6344,1.6344,0,0,1,.5449,1.3145v2.73h.69v.77Zm-2.33-.6094a1.6184,1.6184,0,0,0,.95-.26.7737.7737,0,0,0,.37-.65v-.8h-1.04a1.94,1.94,0,0,0-.9751.1905.6042.6042,0,0,0-.3149.5488v.2109a.6529.6529,0,0,0,.27.57A1.2727,1.2727,0,0,0,90.2541,554.851Z"/><path class="cls-1" d="M94.574,555.46V550.3h.93v.8613h.04a2.0444,2.0444,0,0,1,.2051-.371,1.4169,1.4169,0,0,1,.3-.3145,1.3843,1.3843,0,0,1,.415-.2148,1.7606,1.7606,0,0,1,.56-.08,1.69,1.69,0,0,1,1.2846.51,2.02,2.02,0,0,1,.4854,1.45V555.46h-.93V552.3q0-1.3286-1.15-1.33a1.8129,1.8129,0,0,0-.4448.0557,1.1442,1.1442,0,0,0-.3853.1748.9384.9384,0,0,0-.2749.3008.8126.8126,0,0,0-.105.42V555.46Z"/><path class="cls-1" d="M425.509,111.2748l-1.5127-1.5415-.0566.0567,1.52,3.5566-3.5566-1.52-.0567.0566,1.541,1.5132,2.4258,2.4253-.6221.6221-4.9355-4.9356.8623-.8623,2.8994,1.2588.042-.0425-1.2578-2.8994.82-.82,4.9356,4.9356-.6231.6225Z"/><path class="cls-1" d="M431.2727,110.5322a2.6806,2.6806,0,0,1-.8633.5942,2.11,2.11,0,0,1-.93.166,2.4168,2.4168,0,0,1-.9394-.2549,3.7132,3.7132,0,0,1-1.5772-1.5835,2.524,2.524,0,0,1-.2578-.9511,2.1368,2.1368,0,0,1,.1475-.9195,2.4484,2.4484,0,0,1,.5517-.82,2.4075,2.4075,0,0,1,.81-.5483,2.093,2.093,0,0,1,.8906-.1485,2.3933,2.3933,0,0,1,.9024.2373,3.0415,3.0415,0,0,1,.8408.6079l.2764.2759-2.6582,2.6582.1474.148a1.4578,1.4578,0,0,0,1.0313.4658,1.4751,1.4751,0,0,0,1.0761-.4932,1.6561,1.6561,0,0,0,.4639-.7807,1.5541,1.5541,0,0,0-.0293-.8492l.793-.0981a2,2,0,0,1,.0273,1.1367A2.5228,2.5228,0,0,1,431.2727,110.5322Zm-3.3379-3.2525a1.4753,1.4753,0,0,0-.332.4878,1.4268,1.4268,0,0,0-.1055.5376,1.3385,1.3385,0,0,0,.1162.5405,1.6068,1.6068,0,0,0,.3428.4917l.0566.0562,1.9727-1.9727-.0781-.0776a1.4653,1.4653,0,0,0-1-.4771A1.2816,1.2816,0,0,0,427.9348,107.28Z"/><path class="cls-1" d="M433.2454,107.3007l1.2373-1.2373-4.1436-4.1436-1.2373,1.2374-.5439-.5445,1.8945-1.895,4.6875,4.688,1.2451-1.2446.544.5444-3.1387,3.14Z"/><path class="cls-1" d="M439.1926,102.4428l-4.957-2.34.6719-.6719,2.0507,1.0181,2.086,1.04.0351-.0352-1.04-2.0859-1.0244-2.0434.6572-.6578,2.3408,4.9566Z"/><path class="cls-1" d="M439.68,93.1728a.7218.7218,0,0,1-.4843.2646.53.53,0,0,1-.378-.166l-.1347-.1343a.5578.5578,0,0,1-.17-.3818.9584.9584,0,0,1,.75-.75.55.55,0,0,1,.3819.17l.1338.1343a.5263.5263,0,0,1,.166.3779A.7233.7233,0,0,1,439.68,93.1728Zm2.2344,5.459,1.28-1.28-2.56-2.56-1.28,1.28-.5449-.5444,1.9375-1.9375,3.1045,3.104,1.2022-1.2022.5449.5444-3.1407,3.14Z"/><path class="cls-1" d="M445.9739,94.5727l1.2363-1.2373-4.1426-4.1436-1.2383,1.2373-.5439-.5444,1.8955-1.895,4.6875,4.688,1.2441-1.2447.545.5445-3.14,3.14Z"/><path class="cls-1" d="M450.2161,90.3305l1.2373-1.2378L447.31,84.9491l-1.2383,1.2378-.5439-.5444,1.8955-1.8955,4.6875,4.688,1.2451-1.2446.544.5444-3.14,3.14Z"/><path class="cls-1" d="M456.7288,85.0761a2.6792,2.6792,0,0,1-.8623.5942,2.1119,2.1119,0,0,1-.9307.1665,2.4207,2.4207,0,0,1-.94-.2548,3.4216,3.4216,0,0,1-.9082-.668,3.3408,3.3408,0,0,1-.668-.9155,2.5048,2.5048,0,0,1-.2578-.9512,2.1066,2.1066,0,0,1,.1474-.9194,2.4279,2.4279,0,0,1,.5518-.82,2.401,2.401,0,0,1,.8105-.5483,2.09,2.09,0,0,1,.8907-.1484,2.3885,2.3885,0,0,1,.9.2373,3.03,3.03,0,0,1,.8418.6079l.2753.2759-2.6582,2.6586.1485.148a1.4572,1.4572,0,0,0,1.0312.4658,1.4759,1.4759,0,0,0,1.0762-.4936,1.6842,1.6842,0,0,0,.4648-.7808,1.5634,1.5634,0,0,0-.03-.8491l.7939-.0982a1.9916,1.9916,0,0,1,.0254,1.1368A2.5047,2.5047,0,0,1,456.7288,85.0761Zm-3.337-3.2524a1.4789,1.4789,0,0,0-.333.4877,1.4094,1.4094,0,0,0-.1064.5376,1.3247,1.3247,0,0,0,.1172.5411,1.6122,1.6122,0,0,0,.3428.4917l.0556.0561,1.9736-1.9731-.0771-.0777a1.4712,1.4712,0,0,0-1.001-.477A1.2784,1.2784,0,0,0,453.3918,81.8237Z"/><path class="cls-1" d="M481.8362,114.69a2.19,2.19,0,0,1-2.0371.7143,5.9585,5.9585,0,0,1-3.7832-3.7832,2.193,2.193,0,0,1,.7148-2.0366,2.3992,2.3992,0,0,1,.6973-.5054,2.0086,2.0086,0,0,1,.6924-.1841,2.2328,2.2328,0,0,1,.6748.0533,3.4444,3.4444,0,0,1,.6445.2187l-.3682.8345a4.0921,4.0921,0,0,0-.4492-.166,1.5008,1.5008,0,0,0-.4424-.0669,1.1157,1.1157,0,0,0-.4375.0918,1.393,1.393,0,0,0-.4394.3115,1.42,1.42,0,0,0-.3711.59,1.3087,1.3087,0,0,0-.0244.6543,2.1717,2.1717,0,0,0,.2939.6963,4.0054,4.0054,0,0,0,.5762.7109l.82.82a4.0082,4.0082,0,0,0,.7109.5761,2.1462,2.1462,0,0,0,.6953.294,1.3085,1.3085,0,0,0,.6543-.0249,1.5968,1.5968,0,0,0,.9024-.81,1.14,1.14,0,0,0,.0918-.4385,1.5207,1.5207,0,0,0-.0674-.4418,4.1593,4.1593,0,0,0-.166-.4493l.8349-.3676a3.55,3.55,0,0,1,.2188.6435,2.2709,2.2709,0,0,1,.0527.6753,2.0368,2.0368,0,0,1-.1836.6929A2.4317,2.4317,0,0,1,481.8362,114.69Z"/><path class="cls-1" d="M481.6731,105.9013a.7218.7218,0,0,1-.4844.2646.53.53,0,0,1-.3779-.166l-.1348-.1343a.5581.5581,0,0,1-.17-.3818.9581.9581,0,0,1,.75-.7495.55.55,0,0,1,.3818.17l.1338.1343a.5255.5255,0,0,1,.166.3779A.7227.7227,0,0,1,481.6731,105.9013Zm2.2353,5.4585,1.2793-1.28-2.56-2.56-1.28,1.28-.5439-.5444,1.9375-1.9375,3.1044,3.104,1.2012-1.2022.5449.5445-3.14,3.14Z"/><path class="cls-1" d="M488.342,108.0151l-.4961-3.21-3.11-.481.7783-.7778,1.2578.2124.99.17.0351-.0351-.1767-.9834-.2256-1.2446.7422-.7427.4511,3.1118,3.2393.4946-.7783.7779-1.4063-.2334-.9619-.1695-.0352.0352.1836.9472.2471,1.3931Z"/><path class="cls-1" d="M490.1584,97.4159a.7222.7222,0,0,1-.4843.2647.53.53,0,0,1-.378-.166l-.1337-.1343a.5415.5415,0,0,1-.17-.3818.9557.9557,0,0,1,.7491-.75.55.55,0,0,1,.3818.17l.1348.1342a.534.534,0,0,1,.166.378A.7254.7254,0,0,1,490.1584,97.4159Zm2.2344,5.4585,1.28-1.28-2.56-2.56-1.2793,1.28-.5449-.5445,1.9375-1.937,3.1035,3.104,1.2031-1.2026.544.5444-3.14,3.14Z"/><path class="cls-1" d="M497.0959,99.2612l-3.6484-3.6485.6572-.6577.6084.6084.0284-.0283a2.007,2.007,0,0,1-.1163-.4068,1.3848,1.3848,0,0,1-.0117-.435,1.42,1.42,0,0,1,.1416-.4453,1.7758,1.7758,0,0,1,.3389-.4527,1.69,1.69,0,0,1,1.2695-.5473,2.0209,2.0209,0,0,1,1.3692.6821l2.3466,2.3472-.6572.6577-2.2344-2.2344q-.94-.94-1.7539-.1274a1.7861,1.7861,0,0,0-.2754.3535,1.1443,1.1443,0,0,0-.1484.3965.9509.9509,0,0,0,.0176.4062.8135.8135,0,0,0,.2226.3711l2.503,2.5029Z"/><path class="cls-1" d="M535.0081,116.0693l-4.9356-4.9356.6875-.686,4.3555,4.3554,2.2969-2.2978.58.58Z"/><path class="cls-1" d="M540.7151,110.5326a2.66,2.66,0,0,1-.8633.5938,2.1033,2.1033,0,0,1-.93.166,2.4168,2.4168,0,0,1-.9394-.2549,3.7228,3.7228,0,0,1-1.5782-1.5835,2.5616,2.5616,0,0,1-.2578-.9511,2.1477,2.1477,0,0,1,.1485-.919,2.5936,2.5936,0,0,1,1.3613-1.3686,2.0929,2.0929,0,0,1,.8906-.148,2.3832,2.3832,0,0,1,.9024.2368,3.0389,3.0389,0,0,1,.84.6079l.2773.2759-2.6582,2.6582.1465.148a1.4576,1.4576,0,0,0,1.0313.4658,1.4738,1.4738,0,0,0,1.0762-.4932,1.6532,1.6532,0,0,0,.4648-.78,1.5736,1.5736,0,0,0-.0293-.85l.793-.0976a1.9986,1.9986,0,0,1,.0273,1.1362A2.5217,2.5217,0,0,1,540.7151,110.5326Zm-3.3379-3.2529a1.4753,1.4753,0,0,0-.332.4878,1.4287,1.4287,0,0,0-.1055.5376,1.3541,1.3541,0,0,0,.1152.5405,1.6279,1.6279,0,0,0,.3438.4917l.0566.0562,1.9727-1.9727-.0781-.0776a1.4672,1.4672,0,0,0-1-.4771A1.2787,1.2787,0,0,0,537.3772,107.28Z"/><path class="cls-1" d="M543.0276,108.0507l-3.6485-3.6489.586-.5869.4453.4458.0371-.0357a1.5057,1.5057,0,0,1-.1348-.6152.8627.8627,0,0,1,.2969-.6079.9241.9241,0,0,1,.6289-.3115.9756.9756,0,0,1,.6211.22l.0293-.0283a1.5677,1.5677,0,0,1-.1348-.6929,1.02,1.02,0,0,1,.34-.6719.8671.8671,0,0,1,.8984-.29,2.7,2.7,0,0,1,1.045.7212l2.5468,2.5459-.5879.5869-2.4531-2.4541a1.83,1.83,0,0,0-.6855-.4951.4955.4955,0,0,0-.4961.163.6431.6431,0,0,0-.2012.4771.7983.7983,0,0,0,.2734.541l2.6661,2.666-.5879.5869-2.4532-2.4541a1.8311,1.8311,0,0,0-.6855-.4951.4833.4833,0,0,0-.4883.1558.6519.6519,0,0,0-.209.4844.7956.7956,0,0,0,.2715.541l2.666,2.666Z"/><path class="cls-1" d="M587.0217,110.0654l4.3565,4.3559-.68.6787-4.3555-4.3559-1.6055,1.6049-.5791-.58,3.89-3.8892.5791.58Z"/><path class="cls-1" d="M595.3665,110.603a2.5043,2.5043,0,0,1-.8418.5722,2.0946,2.0946,0,0,1-.9122.1485,2.3964,2.3964,0,0,1-.9375-.2652,3.89,3.89,0,0,1-1.5839-1.584,2.3825,2.3825,0,0,1-.2647-.9365,2.1006,2.1006,0,0,1,.1485-.9121,2.7174,2.7174,0,0,1,1.4111-1.4106,2.0831,2.0831,0,0,1,.915-.1519,2.3928,2.3928,0,0,1,.9365.2646,3.8912,3.8912,0,0,1,1.584,1.584,2.4061,2.4061,0,0,1,.2657.937,2.0961,2.0961,0,0,1-.1524.9156A2.511,2.511,0,0,1,595.3665,110.603Zm-.545-.545a1.3732,1.3732,0,0,0,.4492-.9931,1.6,1.6,0,0,0-.5566-1.0928l-.5371-.5371a1.5934,1.5934,0,0,0-1.0918-.5552,1.5445,1.5445,0,0,0-1.4424,1.4424,1.5972,1.5972,0,0,0,.5557,1.0923l.5371.5371a1.5958,1.5958,0,0,0,1.0918.5556A1.3714,1.3714,0,0,0,594.8215,110.058Z"/><path class="cls-1" d="M597.4094,107.3l1.2363-1.2373-4.1425-4.1431-1.2373,1.2374-.545-.545,1.8956-1.895,4.6875,4.688,1.2441-1.2446.5449.5449-3.1387,3.14Z"/><path class="cls-1" d="M597.0979,98.2353l.6572-.6577,3.2393,3.2387.0361-.0356.0137-1.2022.07-2.1919.7852-.7846-.0645,2.92,3.89.5522-.8057.8062-3.19-.4888-.05,1.11,1.3086,1.3086-.6572.6577Z"/><path class="cls-1" d="M603.844,93.1728a.7218.7218,0,0,1-.4844.2646.53.53,0,0,1-.3779-.166l-.1348-.1348a.5493.5493,0,0,1-.17-.3813.9581.9581,0,0,1,.75-.75.5432.5432,0,0,1,.3809.1694l.1347.1348a.5255.5255,0,0,1,.166.3779A.7227.7227,0,0,1,603.844,93.1728Zm2.2334,5.4585,1.2812-1.28-2.5605-2.56-1.2793,1.28-.5449-.5444,1.9375-1.9375,3.1035,3.104,1.2031-1.2022.5449.5449-3.1406,3.14Z"/><path class="cls-1" d="M612.4075,93.5614a2.6708,2.6708,0,0,1-.8633.5938,2.1061,2.1061,0,0,1-.93.166,2.4159,2.4159,0,0,1-.9414-.2544,3.4531,3.4531,0,0,1-.9082-.668,3.38,3.38,0,0,1-.668-.9155,2.5408,2.5408,0,0,1-.2578-.9511,2.1228,2.1228,0,0,1,.1484-.9195,2.5851,2.5851,0,0,1,1.3614-1.3686,2.09,2.09,0,0,1,.8906-.148,2.3784,2.3784,0,0,1,.9014.2368,3.0284,3.0284,0,0,1,.8408.6079l.2764.2759-2.6592,2.6587.1484.148a1.4552,1.4552,0,0,0,1.0313.4653,1.4732,1.4732,0,0,0,1.0761-.4932,1.6692,1.6692,0,0,0,.4649-.78,1.5749,1.5749,0,0,0-.0293-.85l.7929-.0976a1.9893,1.9893,0,0,1,.0264,1.1362A2.5107,2.5107,0,0,1,612.4075,93.5614ZM609.07,90.3085a1.4772,1.4772,0,0,0-.3321.4878,1.43,1.43,0,0,0-.1064.5376,1.3426,1.3426,0,0,0,.1162.541,1.6147,1.6147,0,0,0,.3438.4917l.0556.0562L611.12,90.45l-.0782-.0776a1.4692,1.4692,0,0,0-1-.4771A1.2787,1.2787,0,0,0,609.07,90.3085Z"/><path class="cls-1" d="M615.0227,90.7758l-3.6484-3.6489.6582-.6577.6074.6084.0293-.0284a1.9423,1.9423,0,0,1-.1172-.4067,1.4135,1.4135,0,0,1-.01-.4351,1.3718,1.3718,0,0,1,.1407-.4458,1.8018,1.8018,0,0,1,.34-.4521,1.69,1.69,0,0,1,1.2686-.5479,2.0173,2.0173,0,0,1,1.3681.6822l2.3477,2.3476-.6572.6577-2.2354-2.2348q-.939-.94-1.7529-.1275a1.82,1.82,0,0,0-.2764.354,1.1788,1.1788,0,0,0-.1475.396.94.94,0,0,0,.0166.4068.8251.8251,0,0,0,.2227.3711l2.5039,2.5034Z"/><path class="cls-1" d="M644.2249,116.2948l-5.3106-4.56.6094-.6084,2.9765,2.6094,1.5411,1.3432.0566-.0566-2.3828-3.5991.7207-.7212,3.6,2.3833.0566-.0567-1.3437-1.5415-2.6016-2.9838.586-.587,4.56,5.3106-.9473.9473-3.4648-2.3477-.0566.0566,2.3476,3.4649Z"/><path class="cls-1" d="M650.0881,110.603a2.5213,2.5213,0,0,1-.8418.5727,2.1,2.1,0,0,1-.9121.1484,2.4039,2.4039,0,0,1-.9375-.2651,3.8884,3.8884,0,0,1-1.584-1.5845,2.4,2.4,0,0,1-.2656-.9365,2.129,2.129,0,0,1,.1485-.9121,2.7239,2.7239,0,0,1,1.4121-1.4106,2.0811,2.0811,0,0,1,.914-.1519,2.3927,2.3927,0,0,1,.9375.2646,3.8964,3.8964,0,0,1,1.584,1.5845,2.4042,2.4042,0,0,1,.2656.937,2.0957,2.0957,0,0,1-.1523.9156A2.5432,2.5432,0,0,1,650.0881,110.603Zm-.5449-.5445a1.3734,1.3734,0,0,0,.4492-.9936,1.5916,1.5916,0,0,0-.5566-1.0923l-.5371-.5376a1.5934,1.5934,0,0,0-1.0918-.5552,1.5444,1.5444,0,0,0-1.4434,1.4424,1.5988,1.5988,0,0,0,.5567,1.0923l.5371.5376a1.5952,1.5952,0,0,0,1.0918.5551A1.3689,1.3689,0,0,0,649.5432,110.0585Z"/><path class="cls-1" d="M652.1311,107.3007l1.2363-1.2373-4.1425-4.1436-1.2383,1.2374-.543-.5445,1.8945-1.895,4.6875,4.688,1.2442-1.2446.5449.5444-3.1387,3.14Z"/><path class="cls-1" d="M656.3948,103.037l1.1953-1.1953-2.5606-2.56-1.2656,1.2656-.5449-.5444,1.2656-1.2657-.707-.707a1.3205,1.3205,0,0,1-.42-.8447,1.1676,1.1676,0,0,1,.414-.9014l1.2227-1.2231.5449.5444-1.4355,1.4351,1.039,1.039,1.4356-1.435.5449.5444-1.4356,1.435,2.5606,2.56,1.2715-1.2725.5449.5445-3.125,3.1255Z"/><path class="cls-1" d="M662.887,97.8041a2.6912,2.6912,0,0,1-.8633.5943,2.1156,2.1156,0,0,1-.93.166,2.4245,2.4245,0,0,1-.9414-.2544,3.4444,3.4444,0,0,1-.9082-.6685,3.3414,3.3414,0,0,1-.668-.9155,2.4885,2.4885,0,0,1-.2578-.9512,2.0934,2.0934,0,0,1,.1484-.9194,2.5767,2.5767,0,0,1,1.3614-1.3687,2.089,2.089,0,0,1,.8906-.1479,2.3832,2.3832,0,0,1,.9.2368,3.0355,3.0355,0,0,1,.8418.6084l.2754.2759-2.6582,2.6582.1484.1474a1.4575,1.4575,0,0,0,1.0313.4659,1.473,1.473,0,0,0,1.0761-.4927,1.6831,1.6831,0,0,0,.4649-.7808,1.5727,1.5727,0,0,0-.0293-.8491l.7929-.0981a2,2,0,0,1,.0254,1.1367A2.5022,2.5022,0,0,1,662.887,97.8041Zm-3.3379-3.2529a1.4822,1.4822,0,0,0-.334.4878,1.4287,1.4287,0,0,0-.1055.5376,1.3237,1.3237,0,0,0,.1172.54,1.5916,1.5916,0,0,0,.3438.4917l.0566.0567L661.6,94.6928l-.0782-.0781a1.4712,1.4712,0,0,0-1.0019-.4771A1.2775,1.2775,0,0,0,659.5491,94.5512Z"/><path class="cls-1" d="M699.1741,116.0683l-4.9356-4.9356.6865-.686,4.3555,4.3555,2.2969-2.2979.58.58Z"/><path class="cls-1" d="M700.56,105.9a.7224.7224,0,0,1-.4844.2647.53.53,0,0,1-.3779-.1661l-.1348-.1347a.5442.5442,0,0,1-.1689-.3814.9551.9551,0,0,1,.749-.7495.5509.5509,0,0,1,.3819.1695l.1347.1347a.5336.5336,0,0,1,.166.378A.7248.7248,0,0,1,700.56,105.9Zm2.2344,5.4585,1.2793-1.28-2.5586-2.5595-1.2813,1.28-.5439-.5444,1.9375-1.9375,3.1045,3.104,1.2012-1.2021.5449.5449-3.1387,3.14Z"/><path class="cls-1" d="M709.2,104.8251l-.0351.0352a1.8157,1.8157,0,0,1-1.9551,2.3515,4.0031,4.0031,0,0,1-2.8281-2.8286,1.7628,1.7628,0,0,1,2.3515-1.9551l.0352-.0351-2.1934-2.1924.6582-.6577,5.2325,5.2329-.6573.6577Zm-.75,1.0181a1.7168,1.7168,0,0,0,.2911-.3819,1.3274,1.3274,0,0,0,.1484-.4169.8869.8869,0,0,0-.0293-.417.9244.9244,0,0,0-.24-.3824l-1.2725-1.2724a.9008.9008,0,0,0-.3779-.2368.961.961,0,0,0-.418-.0284,1.2582,1.2582,0,0,0-.42.1451,1.71,1.71,0,0,0-.3828.2895,1.3078,1.3078,0,0,0-.4375,1.0117,1.5407,1.5407,0,0,0,.5019,1.0181l.6074.6079a1.55,1.55,0,0,0,1.0186.5025A1.3091,1.3091,0,0,0,708.45,105.8432Z"/><path class="cls-1" d="M711.095,103.0575l1.2382-1.2378-4.1435-4.143-1.2373,1.2378-.5449-.5449,1.8945-1.8956,4.6885,4.688,1.2451-1.2446.5449.5449-3.1406,3.14Z"/><path class="cls-1" d="M720.8743,94.3676l-.6856.6855-4.9355-4.9355L717.0715,88.3a1.9786,1.9786,0,0,1,1.4453-.6821,2.0994,2.0994,0,0,1,1.4317.7031,2.045,2.045,0,0,1,.6465,1.2407,1.762,1.762,0,0,1-.4131,1.2837l3.31.9053-.7637.7637-3.1826-.9336-.7286.7285Zm-1.5411-3.6919a1.1439,1.1439,0,0,0,.3887-.75.9524.9524,0,0,0-.3242-.7139l-.34-.3393a.9534.9534,0,0,0-.7139-.3252,1.1408,1.1408,0,0,0-.75.3886l-1.0752,1.0752,1.7393,1.7393Z"/><path class="cls-1" d="M726.093,89.3188a2.6588,2.6588,0,0,1-.8633.5937,2.1,2.1,0,0,1-.93.166,2.4166,2.4166,0,0,1-.9394-.2548,3.7147,3.7147,0,0,1-1.5772-1.5835,2.525,2.525,0,0,1-.2578-.9512,2.1194,2.1194,0,0,1,.1485-.919,2.5872,2.5872,0,0,1,1.36-1.3686,2.0943,2.0943,0,0,1,.8926-.1484,2.3832,2.3832,0,0,1,.9.2368,3.0436,3.0436,0,0,1,.8418.6079l.2754.2759-2.6582,2.6586.1474.148a1.4571,1.4571,0,0,0,1.0313.4658,1.4753,1.4753,0,0,0,1.0762-.4931,1.6708,1.6708,0,0,0,.4648-.78,1.5574,1.5574,0,0,0-.03-.85l.7949-.0977a1.9985,1.9985,0,0,1,.0254,1.1363A2.5058,2.5058,0,0,1,726.093,89.3188Zm-3.3379-3.253a1.4753,1.4753,0,0,0-.332.4878,1.4287,1.4287,0,0,0-.1055.5376,1.3393,1.3393,0,0,0,.1162.5406,1.608,1.608,0,0,0,.3428.4917l.0566.0561,1.9727-1.9726-.0781-.0777a1.4662,1.4662,0,0,0-1-.4775A1.2835,1.2835,0,0,0,722.7551,86.0658Z"/><path class="cls-1" d="M730.4,85.0126a2.5584,2.5584,0,0,1-.8526.583,2.0182,2.0182,0,0,1-.915.145,2.4992,2.4992,0,0,1-.9336-.269,3.8326,3.8326,0,0,1-1.5733-1.5732,2.4848,2.4848,0,0,1-.2724-.9366,2.0313,2.0313,0,0,1,.1445-.9155,2.5406,2.5406,0,0,1,.5772-.8452,2.1234,2.1234,0,0,1,1.1162-.6445,2.01,2.01,0,0,1,1.1181.1211l-.2334.7988a1.252,1.252,0,0,0-.7392-.1094,1.49,1.49,0,0,0-1.1436,1.416,1.5373,1.5373,0,0,0,.4912,1.0078l.6182.6187A1.5374,1.5374,0,0,0,728.81,84.9a1.5505,1.5505,0,0,0,1.4512-1.2,1.7258,1.7258,0,0,0-.08-.8174l.7842-.1626a2.0155,2.0155,0,0,1,.1025,1.1353A2.2153,2.2153,0,0,1,730.4,85.0126Z"/><path class="cls-1" d="M734.5793,80.8334a2.68,2.68,0,0,1-.8632.5938,2.1085,2.1085,0,0,1-.93.166,2.4255,2.4255,0,0,1-.9414-.2549,3.4515,3.4515,0,0,1-.9082-.668,3.38,3.38,0,0,1-.668-.9155,2.5413,2.5413,0,0,1-.2578-.9512,2.1057,2.1057,0,0,1,.1484-.9189,2.5769,2.5769,0,0,1,1.3613-1.3687,2.077,2.077,0,0,1,.8907-.1479,2.3674,2.3674,0,0,1,.9013.2363,3.0522,3.0522,0,0,1,.8409.6079l.2763.2759-2.6592,2.6587.1485.1479a1.4575,1.4575,0,0,0,1.0312.4659,1.4738,1.4738,0,0,0,1.0762-.4932,1.6858,1.6858,0,0,0,.4649-.78,1.5773,1.5773,0,0,0-.0293-.85l.7929-.0971a1.9807,1.9807,0,0,1,.0254,1.1362A2.503,2.503,0,0,1,734.5793,80.8334Zm-3.3378-3.2529a1.4791,1.4791,0,0,0-.3331.4878,1.43,1.43,0,0,0-.1064.5376,1.3237,1.3237,0,0,0,.1172.54,1.61,1.61,0,0,0,.3437.4917l.0557.0562,1.9727-1.9727-.0772-.0776a1.4709,1.4709,0,0,0-1.001-.4771A1.278,1.278,0,0,0,731.2415,77.5805Z"/><path class="cls-1" d="M734.5012,71.9594a.7238.7238,0,0,1-.4844.2646.5317.5317,0,0,1-.3789-.166l-.1347-.1347a.5524.5524,0,0,1-.169-.3814.9555.9555,0,0,1,.749-.7495.5471.5471,0,0,1,.3819.1694l.1348.1348a.53.53,0,0,1,.166.3779A.7233.7233,0,0,1,734.5012,71.9594Zm2.2344,5.458,1.2793-1.28-2.56-2.56-1.28,1.28-.5439-.5444,1.9365-1.937,3.1045,3.104,1.2022-1.2026.5449.5449-3.1387,3.14Z"/><path class="cls-1" d="M737.761,70.184l.6572-.6577.6084.6084.0352-.0352a1.728,1.728,0,0,1-.0782-.9546,1.9133,1.9133,0,0,1,2.0332-1.3964,4.0058,4.0058,0,0,1,2.8282,2.8286,1.7622,1.7622,0,0,1-2.3516,1.9546l-.0352.0351,2.0235,2.0225-.6582.6577Zm4.7158,1.6333a1.3048,1.3048,0,0,0,.4385-1.0107,1.5469,1.5469,0,0,0-.502-1.0186l-.6074-.6079a1.5489,1.5489,0,0,0-1.0195-.502,1.3093,1.3093,0,0,0-1.0108.438,1.7284,1.7284,0,0,0-.29.3824,1.2719,1.2719,0,0,0-.1445.42.9485.9485,0,0,0,.0283.417.8957.8957,0,0,0,.2373.3784l1.2715,1.2724a.94.94,0,0,0,.3828.2408.8949.8949,0,0,0,.417.0283,1.3069,1.3069,0,0,0,.417-.1485A1.6916,1.6916,0,0,0,742.4768,71.8173Z"/><path class="cls-1" d="M747.3489,67.8935a1.1671,1.1671,0,0,1-.9014.4131,1.3127,1.3127,0,0,1-.8447-.42l-2.2285-2.2276-1.1661,1.1665-.5449-.5444.85-.8486a.5441.5441,0,0,0,.1934-.35.5267.5267,0,0,0-.1934-.3574l-.9336-.9331.6221-.6221,1.2861,1.2867,1.6192-1.6192.5449.5445-1.6191,1.6191,2.5595,2.56,1.6192-1.6192.5449.545Z"/><path class="cls-1" d="M755.5071,113.1142l-.042.0425a2.6459,2.6459,0,0,1,.1328.437,1.4089,1.4089,0,0,1,.0195.458,1.5083,1.5083,0,0,1-.1465.4819,1.878,1.878,0,0,1-.3671.4961,1.818,1.818,0,0,1-1.836.5269,5.1964,5.1964,0,0,1-2.2519-1.4746,4.94,4.94,0,0,1-1.4922-2.3687,2.1277,2.1277,0,0,1,.6865-2.0015,2.5251,2.5251,0,0,1,.7109-.5195,2.055,2.055,0,0,1,.7032-.1943,1.951,1.951,0,0,1,.6748.06,3.68,3.68,0,0,1,.6259.23l-.3671.834a4.7142,4.7142,0,0,0-.4463-.1694,1.4078,1.4078,0,0,0-.4375-.0708,1.1257,1.1257,0,0,0-.4385.0918,1.3623,1.3623,0,0,0-.4307.3042,1.394,1.394,0,0,0-.3691.5864,1.2806,1.2806,0,0,0-.0176.647,2.136,2.136,0,0,0,.2988.6884,4.2362,4.2362,0,0,0,.5791.7056l.77.77a5.27,5.27,0,0,0,.709.6035,2.1806,2.1806,0,0,0,.6855.3311,1.2322,1.2322,0,0,0,1.2607-.3579,1.2917,1.2917,0,0,0,.4366-.9849,1.4171,1.4171,0,0,0-.4522-.9546l-.4785-.4785-1.0039,1.0039-.5234-.5234,1.625-1.626L756.8,113.163l-.622.6221Z"/><path class="cls-1" d="M759.6506,109.0971l-.0293.0283a1.7631,1.7631,0,0,1,.1211.41,1.48,1.48,0,0,1,.0069.4311,1.3728,1.3728,0,0,1-.1416.4453,1.7814,1.7814,0,0,1-.34.4527,1.6873,1.6873,0,0,1-1.2695.5478,2.0162,2.0162,0,0,1-1.3672-.6816l-2.3486-2.3482.6572-.6577,2.2353,2.2349q.9405.94,1.754.1269a1.7856,1.7856,0,0,0,.2753-.3535,1.1656,1.1656,0,0,0,.1495-.396.939.939,0,0,0-.0186-.4067.8076.8076,0,0,0-.2227-.3711l-2.5029-2.5034.6572-.6577,3.6495,3.6489-.6582.6577Z"/><path class="cls-1" d="M765.053,104.9106a.8751.8751,0,0,1-.6446.3115,1.0908,1.0908,0,0,1-.621-.2481l-.0362.0357a1.47,1.47,0,0,1,.1133.8906,1.76,1.76,0,0,1-.53.8985,1.8661,1.8661,0,0,1-1.1953.6084,1.44,1.44,0,0,1-1.1455-.4737,1.31,1.31,0,0,1-.417-1.1811,2.9308,2.9308,0,0,1,.9258-1.4781l.7422-.7426-.3242-.3252a1.07,1.07,0,0,0-.7959-.3716,1.2461,1.2461,0,0,0-.81.4214,1.6078,1.6078,0,0,0-.4531.728,1.4754,1.4754,0,0,0,.0146.7568l-.75.085a1.5437,1.5437,0,0,1-.0732-.47,1.9413,1.9413,0,0,1,.07-.5371,2.2585,2.2585,0,0,1,.2471-.5728,2.9835,2.9835,0,0,1,.456-.5766,2.2147,2.2147,0,0,1,1.3789-.7217,1.6347,1.6347,0,0,1,1.3154.5444l1.9307,1.9307.4883-.4878.5439.5444Zm-2.08,1.2168a1.6175,1.6175,0,0,0,.4883-.856.7726.7726,0,0,0-.1973-.7212l-.5664-.5659-.7353.7354a1.9479,1.9479,0,0,0-.5557.8242.6083.6083,0,0,0,.166.6118l.1484.1484a.6545.6545,0,0,0,.5948.2124A1.2656,1.2656,0,0,0,762.9729,106.1274Z"/><path class="cls-1" d="M765.801,103.0727l1.0254-1.0254-2.56-2.56-1.0253,1.0254-.544-.5444,1.6826-1.6831.9405.94.0429-.0425a1.8522,1.8522,0,0,1-.2724-1.1137,1.7119,1.7119,0,0,1,.5478-1.043l.4805-.481.6445.6436-.707.707a1.4649,1.4649,0,0,0-.4824,1.0254,1.3323,1.3323,0,0,0,.4257.9834l1.4844,1.4849,1.3789-1.3789.5449.5444-3.0625,3.062Z"/><path class="cls-1" d="M772.4065,96.3407l-.0352.0357a1.8159,1.8159,0,0,1-1.955,2.3506,4.0049,4.0049,0,0,1-2.8291-2.8286,1.9132,1.9132,0,0,1,1.3964-2.0323,1.7158,1.7158,0,0,1,.9541.0777l.0362-.0357-2.1924-2.1919.6582-.6577,5.2324,5.2324-.6582.6578Zm-.75,1.0186a1.6946,1.6946,0,0,0,.29-.3818,1.3422,1.3422,0,0,0,.1494-.4175.8886.8886,0,0,0-.0293-.4175.923.923,0,0,0-.24-.3818l-1.2734-1.273a.8944.8944,0,0,0-.378-.2368.9625.9625,0,0,0-.4169-.0283,1.2532,1.2532,0,0,0-.4209.1455,1.6714,1.6714,0,0,0-.3819.29,1.31,1.31,0,0,0-.4385,1.0113,1.5457,1.5457,0,0,0,.502,1.0185l.6084.6079a1.54,1.54,0,0,0,1.0176.502A1.3084,1.3084,0,0,0,771.6565,97.3593Z"/><path class="cls-1" d="M772.25,88.9306a.7216.7216,0,0,1-.4843.2646.53.53,0,0,1-.378-.166l-.1338-.1343a.5416.5416,0,0,1-.17-.3818.9555.9555,0,0,1,.749-.7495.55.55,0,0,1,.3819.17l.1348.1343a.534.534,0,0,1,.166.3779A.7254.7254,0,0,1,772.25,88.9306Zm2.2344,5.4585,1.28-1.28-2.56-2.56-1.28,1.28-.5439-.5444,1.9375-1.9375,3.1035,3.1045,1.2031-1.2022.544.5445-3.14,3.14Z"/><path class="cls-1" d="M782.0227,87.94a.8709.8709,0,0,1-.6436.311,1.0927,1.0927,0,0,1-.622-.2476l-.0362.0357a1.4549,1.4549,0,0,1,.1133.8906,1.7568,1.7568,0,0,1-.5293.8984,1.8667,1.8667,0,0,1-1.1953.6079,1.44,1.44,0,0,1-1.1455-.4736,1.31,1.31,0,0,1-.417-1.1811,2.9308,2.9308,0,0,1,.9258-1.4781l.7422-.7422-.3252-.3251a1.0662,1.0662,0,0,0-.7959-.3716,1.2435,1.2435,0,0,0-.8086.4209,1.6017,1.6017,0,0,0-.4531.728,1.4754,1.4754,0,0,0,.0146.7568l-.75.085a1.5437,1.5437,0,0,1-.0732-.47,1.9413,1.9413,0,0,1,.07-.5371,2.2585,2.2585,0,0,1,.2471-.5728,2.9465,2.9465,0,0,1,.456-.5762,2.2126,2.2126,0,0,1,1.3789-.7216,1.633,1.633,0,0,1,1.3145.5444l1.9316,1.9307.4883-.4883.5439.5444Zm-2.0791,1.2163a1.6211,1.6211,0,0,0,.4883-.8555.77.77,0,0,0-.1983-.7212l-.5654-.5659-.7363.7353a1.95,1.95,0,0,0-.5547.8238.6084.6084,0,0,0,.166.6118l.1484.1484a.6545.6545,0,0,0,.5948.2124A1.2656,1.2656,0,0,0,779.9436,89.1567Z"/><path class="cls-1" d="M783.43,86.5331l-3.6484-3.6489.6572-.6577.6084.6084.0283-.0283a2.004,2.004,0,0,1-.1162-.4068,1.3821,1.3821,0,0,1-.0117-.4345,1.42,1.42,0,0,1,.1416-.4458,1.7563,1.7563,0,0,1,.34-.4522,1.6923,1.6923,0,0,1,1.2685-.5483,2.0235,2.0235,0,0,1,1.3691.6826l2.3477,2.3476-.6582.6578-2.2344-2.2349q-.94-.94-1.7539-.1274a1.7832,1.7832,0,0,0-.2754.3535,1.1443,1.1443,0,0,0-.1484.3965.9509.9509,0,0,0,.0176.4062.8126.8126,0,0,0,.2226.3711l2.5039,2.5034Z"/><path class="cls-1" d="M19.9983,366.3119a2.8725,2.8725,0,0,1-.4019,1.5762,3.42,3.42,0,0,1-1.0381,1.041l-.708-.68a3.0514,3.0514,0,0,0,.8819-.8916,2.0673,2.0673,0,0,0,.2822-1.0869,1.3581,1.3581,0,0,0-1.5-1.5156,1.3249,1.3249,0,0,0-.9.2832,1.7,1.7,0,0,0-.4556.9844l-.1562.7939a2.5011,2.5011,0,0,1-.3179.8809,1.9574,1.9574,0,0,1-.5283.5722,2.0238,2.0238,0,0,1-.6777.31,3.2741,3.2741,0,0,1-.78.0918,2.274,2.274,0,0,1-1.7642-.6543,2.5439,2.5439,0,0,1-.6-1.7881,2.97,2.97,0,0,1,.33-1.4531,2.5562,2.5562,0,0,1,.918-.958l.72.6592a2.524,2.524,0,0,0-.7144.7119,1.8841,1.8841,0,0,0-.27,1.0508,1.5117,1.5117,0,0,0,.3359,1.0566,1.3016,1.3016,0,0,0,1.0084.3652,1.3049,1.3049,0,0,0,.87-.2783,1.72,1.72,0,0,0,.4736-.999l.1563-.7734a2.874,2.874,0,0,1,.3178-.86,1.9965,1.9965,0,0,1,.51-.583,1.9148,1.9148,0,0,1,.6777-.3242,3.2073,3.2073,0,0,1,.7979-.0977,2.33,2.33,0,0,1,2.5322,2.5664Z"/><path class="cls-1" d="M19.9983,359.9838a2.4186,2.4186,0,0,1-.228,1.0615,2.209,2.209,0,0,1-.648.7989,3.05,3.05,0,0,1-1.0141.499,5.1482,5.1482,0,0,1-2.6822-.0039,3.204,3.204,0,0,1-1.0259-.5059,2.241,2.241,0,0,1-.6538-.7773,2.1941,2.1941,0,0,1,.6241-2.7471,2.984,2.984,0,0,1,.9658-.4844,4.2093,4.2093,0,0,1,1.23-.17h.4682v3.875h.25a1.9217,1.9217,0,0,0,1.27-.4121,1.4078,1.4078,0,0,0,.4946-1.1436,1.54,1.54,0,0,0-.268-.9082,1.7964,1.7964,0,0,0-.7456-.5976l.59-.6485a2.2814,2.2814,0,0,1,.9868.8086A2.3068,2.3068,0,0,1,19.9983,359.9838Zm-5.5923.0615a1.3433,1.3433,0,0,0,.1323.5987,1.4891,1.4891,0,0,0,.3657.4687,1.6723,1.6723,0,0,0,.5582.3086,2.22,2.22,0,0,0,.708.1084h.0962v-2.876H16.134a1.9384,1.9384,0,0,0-1.2539.3819A1.2328,1.2328,0,0,0,14.406,360.0453Z"/><path class="cls-1" d="M19.8542,353.6147a1.1209,1.1209,0,0,1-.414.959,1.7547,1.7547,0,0,1-1.0737.3085h-3.78v1.7012h-.9238v-1.2373a.5133.5133,0,0,0-.1324-.3974.71.71,0,0,0-.4677-.1182h-1.584v-.9072h2.1841v-2.3594h.9238v2.3594H18.93v-2.3594h.9238Z"/><path class="cls-1" d="M12.4021,341.2065a.6762.6762,0,0,1-.186.5459.7009.7009,0,0,1-.462.1552h-.228a.7263.7263,0,0,1-.4678-.1552.8742.8742,0,0,1,0-1.0928.7257.7257,0,0,1,.4678-.1543h.228a.7.7,0,0,1,.462.1543A.6783.6783,0,0,1,12.4021,341.2065Zm6.5283,2.35v-1.8653H14.5862v1.8653h-.9238v-2.8242H18.93V338.98h.9238v4.5762Z"/><path class="cls-1" d="M19.8542,337.4955H13.6624v-.958h1.0317v-.041a2.64,2.64,0,0,1-.4439-.2119,1.6178,1.6178,0,0,1-.3779-.3086,1.3891,1.3891,0,0,1-.2583-.4277,1.6028,1.6028,0,0,1-.0957-.5772,1.6246,1.6246,0,0,1,.6118-1.3242,2.6871,2.6871,0,0,1,1.74-.5h3.9838v.958H16.0623q-1.596,0-1.5962,1.1856a1.6027,1.6027,0,0,0,.0664.4589,1.1221,1.1221,0,0,0,.21.3965,1.0826,1.0826,0,0,0,.36.2832,1.1094,1.1094,0,0,0,.5039.1084h4.248Z"/><line class="cls-2" x1="137.5569" y1="571.8488" x2="783.8902" y2="571.8488"/><line class="cls-2" x1="137.5569" y1="534.9984" x2="783.8902" y2="534.9984"/><line class="cls-2" x1="137.5569" y1="498.148" x2="783.8902" y2="498.148"/><line class="cls-2" x1="137.5569" y1="461.2976" x2="783.8902" y2="461.2976"/><line class="cls-2" x1="137.5569" y1="424.4472" x2="783.8902" y2="424.4472"/><line class="cls-2" x1="137.5569" y1="387.5968" x2="783.8902" y2="387.5968"/><line class="cls-2" x1="137.5569" y1="350.7464" x2="783.8902" y2="350.7464"/><line class="cls-2" x1="137.5569" y1="313.8961" x2="783.8902" y2="313.8961"/><line class="cls-2" x1="137.5569" y1="277.0457" x2="783.8902" y2="277.0457"/><line class="cls-2" x1="137.5569" y1="240.1953" x2="783.8902" y2="240.1953"/><line class="cls-2" x1="137.5569" y1="203.3449" x2="783.8902" y2="203.3449"/><line class="cls-2" x1="137.5569" y1="166.4945" x2="783.8902" y2="166.4945"/><line class="cls-2" x1="137.5569" y1="129.6441" x2="783.8902" y2="129.6441"/><line class="cls-2" x1="783.8144" y1="129.6441" x2="783.8144" y2="571.9774"/><line class="cls-2" x1="729.9562" y1="129.6441" x2="729.9562" y2="571.9774"/><line class="cls-2" x1="676.0979" y1="129.6441" x2="676.0979" y2="571.9774"/><line class="cls-2" x1="622.2396" y1="129.6441" x2="622.2396" y2="571.9774"/><line class="cls-2" x1="568.3814" y1="129.6441" x2="568.3814" y2="571.9774"/><line class="cls-2" x1="514.5231" y1="129.6441" x2="514.5231" y2="571.9774"/><line class="cls-2" x1="460.6648" y1="129.6441" x2="460.6648" y2="571.9774"/><line class="cls-2" x1="406.8066" y1="129.6441" x2="406.8066" y2="571.9774"/><line class="cls-2" x1="352.9483" y1="129.6441" x2="352.9483" y2="571.9774"/><line class="cls-2" x1="299.09" y1="129.6441" x2="299.09" y2="571.9774"/><line class="cls-2" x1="245.2318" y1="129.6441" x2="245.2318" y2="571.9774"/><line class="cls-2" x1="191.3735" y1="129.6441" x2="191.3735" y2="571.9774"/><line class="cls-2" x1="137.5152" y1="129.6441" x2="137.5152" y2="571.9774"/><line class="cls-2" x1="729.9978" y1="571.8318" x2="783.8034" y2="534.9984"/><line class="cls-2" x1="783.8034" y1="571.8318" x2="729.9978" y2="534.9984"/><line class="cls-2" x1="676.1396" y1="534.9814" x2="729.9451" y2="498.148"/><line class="cls-2" x1="729.9451" y1="534.9814" x2="676.1396" y2="498.148"/><line class="cls-2" x1="622.2813" y1="498.131" x2="676.0868" y2="461.2976"/><line class="cls-2" x1="676.0868" y1="498.131" x2="622.2813" y2="461.2976"/><line class="cls-2" x1="568.423" y1="461.2806" x2="622.2286" y2="424.4472"/><line class="cls-2" x1="622.2286" y1="461.2806" x2="568.423" y2="424.4472"/><line class="cls-2" x1="514.5648" y1="424.4302" x2="568.3703" y2="387.5968"/><line class="cls-2" x1="568.3703" y1="424.4302" x2="514.5648" y2="387.5968"/><line class="cls-2" x1="460.7065" y1="387.5798" x2="514.512" y2="350.7464"/><line class="cls-2" x1="514.512" y1="387.5798" x2="460.7065" y2="350.7464"/><line class="cls-2" x1="406.8482" y1="350.7294" x2="460.6538" y2="313.8961"/><line class="cls-2" x1="460.6538" y1="350.7294" x2="406.8482" y2="313.8961"/><line class="cls-2" x1="352.99" y1="313.879" x2="406.7955" y2="277.0457"/><line class="cls-2" x1="406.7955" y1="313.879" x2="352.99" y2="277.0457"/><line class="cls-2" x1="299.1317" y1="277.0286" x2="352.9372" y2="240.1953"/><line class="cls-2" x1="352.9372" y1="277.0286" x2="299.1317" y2="240.1953"/><line class="cls-2" x1="245.2734" y1="240.1782" x2="299.079" y2="203.3449"/><line class="cls-2" x1="299.079" y1="240.1782" x2="245.2734" y2="203.3449"/><line class="cls-2" x1="191.4151" y1="203.3278" x2="245.2207" y2="166.4945"/><line class="cls-2" x1="245.2207" y1="203.3278" x2="191.4151" y2="166.4945"/><line class="cls-2" x1="137.5569" y1="166.4774" x2="191.3624" y2="129.6441"/><line class="cls-2" x1="191.3624" y1="166.4774" x2="137.5569" y2="129.6441"/><polyline class="cls-2" points="137.515 47.311 137.515 34.977 783.89 34.977 783.89 47.311"/><polyline class="cls-2" points="48.973 571.977 32.974 571.977 32.974 129.644 48.973 129.644"/></svg>