<svg id="Layer_1" data-name="Layer 1" xmlns="http://www.w3.org/2000/svg" viewBox="0 0 841.8898 595.2756"><defs><style>.cls-1{fill:#1d1d1b;}.cls-2{fill:none;stroke:#1d1d1b;stroke-miterlimit:10;stroke-width:0.25px;}</style></defs><title>grid</title><path class="cls-1" d="M448.0081,27.0531a3.003,3.003,0,0,1-1.45-.3251,3.0756,3.0756,0,0,1-1.0205-.8951l.62-.52a2.7239,2.7239,0,0,0,.82.7451,2.1134,2.1134,0,0,0,1.06.2549,1.6464,1.6464,0,0,0,1.1455-.36,1.2378,1.2378,0,0,0,.3945-.96.9816.9816,0,0,0-.3-.77,2.2613,2.2613,0,0,0-.99-.43l-.5694-.13a3.3091,3.3091,0,0,1-1.4658-.665,1.5863,1.5863,0,0,1-.5049-1.2549,1.8982,1.8982,0,0,1,.17-.82,1.6444,1.6444,0,0,1,.4756-.6,2.1414,2.1414,0,0,1,.7295-.3653,3.3207,3.3207,0,0,1,.9356-.125,2.9316,2.9316,0,0,1,1.3545.29,2.602,2.602,0,0,1,.955.85l-.63.46a2.172,2.172,0,0,0-.7-.63,2.0613,2.0613,0,0,0-1.02-.23,1.7357,1.7357,0,0,0-1.0547.2846.9962.9962,0,0,0-.3857.855.9014.9014,0,0,0,.3252.7554,2.5175,2.5175,0,0,0,.9853.4048l.5694.13a2.9656,2.9656,0,0,1,1.49.7,1.7106,1.7106,0,0,1,.46,1.25,2.2071,2.2071,0,0,1-.1651.87,1.78,1.78,0,0,1-.4746.66,2.2167,2.2167,0,0,1-.7549.42A3.1462,3.1462,0,0,1,448.0081,27.0531Z"/><path class="cls-1" d="M453.7278,27.0531a2.33,2.33,0,0,1-.95-.19,2.0513,2.0513,0,0,1-.7344-.5454,2.5484,2.5484,0,0,1-.4756-.85,3.7276,3.7276,0,0,1,0-2.2251,2.5465,2.5465,0,0,1,.4756-.855,2.0453,2.0453,0,0,1,.7344-.5449,2.3217,2.3217,0,0,1,.95-.19,2.2888,2.2888,0,0,1,.9453.19,2.0974,2.0974,0,0,1,.7344.5449,2.5046,2.5046,0,0,1,.48.855,3.7255,3.7255,0,0,1,0,2.2251,2.5064,2.5064,0,0,1-.48.85,2.1037,2.1037,0,0,1-.7344.5454A2.2968,2.2968,0,0,1,453.7278,27.0531Zm0-.71a1.4514,1.4514,0,0,0,1.06-.4,1.6328,1.6328,0,0,0,.41-1.22v-.74a1.6342,1.6342,0,0,0-.41-1.22,1.6037,1.6037,0,0,0-2.1192,0,1.6342,1.6342,0,0,0-.41,1.22v.74a1.6328,1.6328,0,0,0,.41,1.22A1.45,1.45,0,0,0,453.7278,26.3432Z"/><path class="cls-1" d="M460.5579,26.1025h-.04a2.4059,2.4059,0,0,1-.1953.3515,1.3091,1.3091,0,0,1-.2851.3072,1.3518,1.3518,0,0,1-.4092.2128,1.7918,1.7918,0,0,1-.5606.0791,1.6341,1.6341,0,0,1-1.27-.5151,2.0805,2.0805,0,0,1-.4707-1.4551v-3.31h.8008V24.95q0,1.393,1.18,1.3931a1.7664,1.7664,0,0,0,.4648-.0606,1.28,1.28,0,0,0,.4-.18.9064.9064,0,0,0,.2793-.3057.8871.8871,0,0,0,.1055-.4458V21.7729h.8v5.16h-.8Z"/><path class="cls-1" d="M463.0579,26.933v-5.16h.8v.95h.0507a1.5534,1.5534,0,0,1,.5-.66,1.533,1.533,0,0,1,.9893-.29h.31v.8h-.4707a1.8083,1.8083,0,0,0-1.0146.2446.7237.7237,0,0,0-.3652.6152v3.5Z"/><path class="cls-1" d="M468.5979,27.0531a2.3774,2.3774,0,0,1-.97-.19,1.9753,1.9753,0,0,1-.7246-.54,2.3989,2.3989,0,0,1-.45-.85,4.1174,4.1174,0,0,1,0-2.24,2.4009,2.4009,0,0,1,.45-.85,1.9709,1.9709,0,0,1,.7246-.54,2.3692,2.3692,0,0,1,.97-.19,1.9221,1.9221,0,0,1,1.9307,1.21l-.6709.34a1.21,1.21,0,0,0-.46-.62,1.3786,1.3786,0,0,0-.8-.22,1.5951,1.5951,0,0,0-.63.1148,1.2324,1.2324,0,0,0-.45.32,1.3381,1.3381,0,0,0-.27.49,2.0486,2.0486,0,0,0-.09.625v.88a1.6759,1.6759,0,0,0,.3643,1.1152,1.3247,1.3247,0,0,0,1.0752.4351,1.4525,1.4525,0,0,0,1.4-.9l.58.39a2.0516,2.0516,0,0,1-.7452.89A2.1828,2.1828,0,0,1,468.5979,27.0531Z"/><path class="cls-1" d="M473.5881,27.0531a2.3169,2.3169,0,0,1-.955-.19,2.0627,2.0627,0,0,1-.7305-.5454,2.5032,2.5032,0,0,1-.47-.85,3.8311,3.8311,0,0,1,0-2.2251,2.502,2.502,0,0,1,.47-.855,2.0567,2.0567,0,0,1,.7305-.5449,2.3089,2.3089,0,0,1,.955-.19,2.1958,2.1958,0,0,1,.93.189,2.0615,2.0615,0,0,1,.7.5234,2.3385,2.3385,0,0,1,.4453.792,3.1476,3.1476,0,0,1,.1543,1.0069v.3784h-3.71v.24a1.7582,1.7582,0,0,0,.1054.6148,1.4558,1.4558,0,0,0,.3.4951,1.3735,1.3735,0,0,0,.4795.33,1.6517,1.6517,0,0,0,.6455.12,1.5689,1.5689,0,0,0,.8545-.23,1.5073,1.5073,0,0,0,.5655-.66l.57.4126a1.9926,1.9926,0,0,1-.78.86A2.3541,2.3541,0,0,1,473.5881,27.0531Zm0-4.73a1.5291,1.5291,0,0,0-.6006.1142,1.3545,1.3545,0,0,0-.4648.3228,1.5151,1.5151,0,0,0-.3047.4922,1.7053,1.7053,0,0,0-.11.6211v.0693h2.85v-.1094a1.5683,1.5683,0,0,0-.375-1.0976A1.2791,1.2791,0,0,0,473.5881,22.3232Z"/><path class="cls-1" d="M146.8674,111.289l2.0293-2.0293a1.8588,1.8588,0,0,1,1.3106-.6192,1.9964,1.9964,0,0,1,1.666,1.1216,1.37,1.37,0,0,1,.1172.5122,1.1379,1.1379,0,0,1-.0781.4458,1.7764,1.7764,0,0,1-.1807.3428l.042.0425a1.4373,1.4373,0,0,1,.372-.23,1.3957,1.3957,0,0,1,.5167-.1128,1.6087,1.6087,0,0,1,.6035.1026,1.696,1.696,0,0,1,.623.417,2.3149,2.3149,0,0,1,.47.6606,1.99,1.99,0,0,1,.1875.7178,1.7513,1.7513,0,0,1-.1025.7041,1.67,1.67,0,0,1-.3994.6181l-2.2412,2.2417Zm2.73,1.5415,1.3643-1.3648a1.1252,1.1252,0,0,0,.375-.728.9171.9171,0,0,0-.3115-.707l-.2413-.2407a.914.914,0,0,0-.706-.3111,1.1278,1.1278,0,0,0-.7285.3741l-1.3643,1.3647Zm2.2764,2.2764,1.4629-1.4634a1.2318,1.2318,0,0,0,.4072-.7954,1.021,1.021,0,0,0-.35-.7881l-.2412-.2407a1.016,1.016,0,0,0-.7871-.35,1.2362,1.2362,0,0,0-.7969.4062l-1.4629,1.4634Z"/><path class="cls-1" d="M157.8206,110.3769a2.3176,2.3176,0,0,1-.8106.541,2.0581,2.0581,0,0,1-.9014.13,2.4858,2.4858,0,0,1-.9326-.2681,3.8277,3.8277,0,0,1-1.5742-1.5732,2.5054,2.5054,0,0,1-.2715-.9371,2.056,2.056,0,0,1,.1309-.9018,2.3109,2.3109,0,0,1,.541-.81,2.1933,2.1933,0,0,1,.791-.5239,2.0683,2.0683,0,0,1,.8652-.1245,2.3406,2.3406,0,0,1,.875.2451,3.12,3.12,0,0,1,.82.6025l.2675.2676-2.623,2.6231.17.17a1.7864,1.7864,0,0,0,.51.36,1.46,1.46,0,0,0,.5615.1382,1.3781,1.3781,0,0,0,.5732-.1059,1.6591,1.6591,0,0,0,.5411-.3711,1.5726,1.5726,0,0,0,.4414-.7671,1.5023,1.5023,0,0,0-.0674-.8662l.6953-.1114a1.99,1.99,0,0,1,.0557,1.16A2.3439,2.3439,0,0,1,157.8206,110.3769Zm-3.3448-3.3443a1.53,1.53,0,0,0-.3437.5049,1.3581,1.3581,0,0,0-.1006.5567,1.5188,1.5188,0,0,0,.1328.5639,1.7071,1.7071,0,0,0,.3613.5171l.0489.0488,2.0156-2.0151-.0781-.0771a1.5661,1.5661,0,0,0-1.0411-.5113A1.28,1.28,0,0,0,154.4758,107.0326Z"/><path class="cls-1" d="M160.2454,107.7817l-3.6485-3.6485.5655-.5654.5869.5869.0283-.0283a1.69,1.69,0,0,1-.1113-.8682,1.5094,1.5094,0,0,1,.4716-.8359,1.62,1.62,0,0,1,1.2588-.53,2.0969,2.0969,0,0,1,1.3574.7l2.34,2.34-.5645.5655-2.2461-2.2461q-.9858-.9852-1.8125-.1582a1.8073,1.8073,0,0,0-.2871.3716,1.3157,1.3157,0,0,0-.1582.4135.9021.9021,0,0,0,.0137.418.889.889,0,0,0,.2344.3823l2.5371,2.5371Z"/><path class="cls-1" d="M160.0393,98.9784a.4871.4871,0,0,1-.3535.1768.4615.4615,0,0,1-.3106-.1484l-.0918-.0923a.4629.4629,0,0,1-.1484-.3106.6249.6249,0,0,1,.53-.53.4584.4584,0,0,1,.3115.1479l.0918.0923a.4588.4588,0,0,1,.1484.311A.491.491,0,0,1,160.0393,98.9784Zm.5742,1.1387.5655-.5659,4.2138,4.2143a1.33,1.33,0,0,1,.4248.8062,1.0362,1.0362,0,0,1-.3681.835l-.3672.3676-.503-.5024.5948-.5942Z"/><path class="cls-1" d="M168.6809,99.3461a.783.783,0,0,1-.626.2861,1.1875,1.1875,0,0,1-.5976-.25l-.0352.0351a1.3351,1.3351,0,0,1,.1133.9048,1.7327,1.7327,0,0,1-.4883.8276,1.8071,1.8071,0,0,1-1.1972.6045,1.4793,1.4793,0,0,1-1.129-.4843,1.3023,1.3023,0,0,1-.413-1.17,2.8431,2.8431,0,0,1,.9013-1.4531l.7207-.7212-.3593-.36a1.1154,1.1154,0,0,0-.8067-.3814,1.2774,1.2774,0,0,0-.8555.4449,1.371,1.371,0,0,0-.4062.7041,1.7191,1.7191,0,0,0,.0244.767l-.6572.021a1.8225,1.8225,0,0,1-.0332-.98,2.4982,2.4982,0,0,1,1.9687-1.7363,1.616,1.616,0,0,1,1.2715.5352l2.0039,2.0039.417-.4175.502.502Zm-2.0225,1.23a2.07,2.07,0,0,0,.34-.4385,1.3626,1.3626,0,0,0,.1621-.4453.9917.9917,0,0,0-.0137-.41.7183.7183,0,0,0-.1914-.3325l-.6006-.6011-.749.75a1.922,1.922,0,0,0-.5693.852.6458.6458,0,0,0,.1865.6333l.1484.1484a.6994.6994,0,0,0,.6123.2222A1.194,1.194,0,0,0,166.6584,100.5766Z"/><path class="cls-1" d="M169.8049,98.2216l-3.6484-3.6484.5664-.5655.5859.587.0293-.0284a2.66,2.66,0,0,1-.1172-.4072,1.2664,1.2664,0,0,1-.0166-.4116,1.2916,1.2916,0,0,1,.13-.4155,1.62,1.62,0,0,1,.3145-.42,1.8787,1.8787,0,0,1,.8359-.4926,1.47,1.47,0,0,1,1.0176.1113l.0137-.0142a1.5875,1.5875,0,0,1-.1446-.8862,1.6141,1.6141,0,0,1,.52-.96,1.5435,1.5435,0,0,1,1.2363-.5087,2.1542,2.1542,0,0,1,1.3437.7138l2.3409,2.34-.5655.5659L172,91.5351a1.6916,1.6916,0,0,0-.9287-.5464,1.0169,1.0169,0,0,0-.8564.36,1.6708,1.6708,0,0,0-.2793.3643,1.2494,1.2494,0,0,0-.1445.3994.8711.8711,0,0,0,.0253.4072.8972.8972,0,0,0,.2374.3789l2.5371,2.5372-.5655.5654L169.78,93.7553a1.6958,1.6958,0,0,0-.9277-.5464.9944.9944,0,0,0-.8428.3462,1.7186,1.7186,0,0,0-.2822.3677,1.21,1.21,0,0,0-.1484.4033.941.941,0,0,0,.0215.4106.87.87,0,0,0,.2343.3824l2.5371,2.5371Z"/><path class="cls-1" d="M171.7561,87.2616a.4871.4871,0,0,1-.3535.1768.4588.4588,0,0,1-.3106-.1479L171,87.1982a.46.46,0,0,1-.1484-.3111.6249.6249,0,0,1,.53-.53.4624.4624,0,0,1,.3115.1479l.0918.0923a.4642.4642,0,0,1,.1484.311A.4914.4914,0,0,1,171.7561,87.2616ZM172.33,88.4l.5645-.5654,3.6484,3.6484-.5644.5655Z"/><path class="cls-1" d="M177.7463,90.2812l-3.6484-3.6485.5654-.5659.5869.5869.0284-.0283a1.67,1.67,0,0,1-.1114-.8682,1.516,1.516,0,0,1,.4717-.8359,1.62,1.62,0,0,1,1.2588-.53,2.0954,2.0954,0,0,1,1.3574.7l2.3408,2.34-.5664.5654-2.2461-2.2461q-.9843-.9851-1.8125-.1582a1.7989,1.7989,0,0,0-.2861.3716,1.3946,1.3946,0,0,0-.1592.4136.8884.8884,0,0,0,.0157.4179.858.858,0,0,0,.2334.3823l2.5371,2.5372Z"/><path class="cls-1" d="M52.5842,148.48h2.87a1.8583,1.8583,0,0,1,1.3652.49,1.9963,1.9963,0,0,1,.3848,1.97,1.3658,1.3658,0,0,1-.28.4448,1.135,1.135,0,0,1-.37.26,1.7188,1.7188,0,0,1-.37.1148v.06a1.4192,1.4192,0,0,1,.4253.1,1.3912,1.3912,0,0,1,.4449.2852,1.6157,1.6157,0,0,1,.3549.5,1.6984,1.6984,0,0,1,.1451.7349,2.32,2.32,0,0,1-.1348.8,1.97,1.97,0,0,1-.375.64,1.7512,1.7512,0,0,1-.57.4253,1.676,1.676,0,0,1-.72.1548h-3.17Zm.84,3.02h1.93a1.1308,1.1308,0,0,0,.78-.25.915.915,0,0,0,.28-.72v-.34a.9159.9159,0,0,0-.28-.72,1.1308,1.1308,0,0,0-.78-.25h-1.93Zm0,3.22h2.07a1.2339,1.2339,0,0,0,.85-.2749,1.02,1.02,0,0,0,.31-.8047v-.34a1.02,1.02,0,0,0-.31-.8047,1.2341,1.2341,0,0,0-.85-.2754h-2.07Z"/><path class="cls-1" d="M60.9739,155.5805a2.3174,2.3174,0,0,1-.9551-.19,2.06,2.06,0,0,1-.73-.5454,2.4973,2.4973,0,0,1-.47-.85,3.8422,3.8422,0,0,1,0-2.2251,2.4957,2.4957,0,0,1,.47-.8549,2.054,2.054,0,0,1,.73-.545,2.311,2.311,0,0,1,.9551-.19,2.1977,2.1977,0,0,1,.93.189,2.0632,2.0632,0,0,1,.7.5234,2.3383,2.3383,0,0,1,.4453.792,3.1353,3.1353,0,0,1,.1548,1.0068v.3784h-3.71v.24a1.7667,1.7667,0,0,0,.105.6147,1.46,1.46,0,0,0,.3.4951,1.3723,1.3723,0,0,0,.48.33,1.6467,1.6467,0,0,0,.645.12,1.569,1.569,0,0,0,.855-.23,1.507,1.507,0,0,0,.5649-.66l.57.4126a1.9912,1.9912,0,0,1-.78.86A2.3528,2.3528,0,0,1,60.9739,155.5805Zm0-4.73a1.5248,1.5248,0,0,0-.6.1143,1.3476,1.3476,0,0,0-.4649.3227,1.5154,1.5154,0,0,0-.3051.4922,1.7035,1.7035,0,0,0-.11.6211v.0693h2.85v-.1093a1.5684,1.5684,0,0,0-.375-1.0977A1.2791,1.2791,0,0,0,60.9739,150.8505Z"/><path class="cls-1" d="M64.5237,155.46V150.3h.8v.8306h.04a1.682,1.682,0,0,1,.5352-.6929,1.5123,1.5123,0,0,1,.9248-.2573,1.62,1.62,0,0,1,1.2651.5146,2.0967,2.0967,0,0,1,.4649,1.4551v3.31h-.8v-3.1768q0-1.3931-1.17-1.3931a1.8009,1.8009,0,0,0-.4653.06,1.3511,1.3511,0,0,0-.4048.18.8979.8979,0,0,0-.2851.3056.8717.8717,0,0,0-.105.4361V155.46Z"/><path class="cls-1" d="M70.2034,150.3h.8v5.96a1.3294,1.3294,0,0,1-.27.87,1.0342,1.0342,0,0,1-.85.33h-.52v-.71h.84Zm.4-1.21a.4881.4881,0,0,1-.375-.125.46.46,0,0,1-.1153-.3248v-.13a.4607.4607,0,0,1,.1153-.3247.625.625,0,0,1,.75,0,.4611.4611,0,0,1,.1152.3247v.13a.4607.4607,0,0,1-.1152.3248A.4884.4884,0,0,1,70.6033,149.09Z"/><path class="cls-1" d="M76.4534,155.46a.7843.7843,0,0,1-.6451-.24,1.1882,1.1882,0,0,1-.2451-.6h-.05a1.3368,1.3368,0,0,1-.56.72,1.7405,1.7405,0,0,1-.93.24,1.81,1.81,0,0,1-1.2749-.42,1.4768,1.4768,0,0,1-.4551-1.14,1.3014,1.3014,0,0,1,.5352-1.12,2.8463,2.8463,0,0,1,1.665-.39h1.02V152a1.1138,1.1138,0,0,0-.3-.84,1.2784,1.2784,0,0,0-.92-.29,1.3851,1.3851,0,0,0-.7851.21,1.7273,1.7273,0,0,0-.5249.56l-.48-.45a1.8255,1.8255,0,0,1,.67-.7149,2.1092,2.1092,0,0,1,1.16-.2949,2.1326,2.1326,0,0,1,1.46.459,1.6132,1.6132,0,0,1,.52,1.2768v2.834h.59v.71Zm-2.3-.56a2.05,2.05,0,0,0,.55-.07,1.3455,1.3455,0,0,0,.43-.2.9905.9905,0,0,0,.28-.3.72.72,0,0,0,.1-.37v-.85h-1.06a1.9339,1.9339,0,0,0-1.0049.2.6451.6451,0,0,0-.3154.58v.21a.6993.6993,0,0,0,.2753.59A1.1962,1.1962,0,0,0,74.1531,154.9Z"/><path class="cls-1" d="M78.0432,155.46V150.3h.8v.8306h.04a2.6829,2.6829,0,0,1,.205-.3711,1.28,1.28,0,0,1,.28-.3023,1.2978,1.2978,0,0,1,.3853-.2026,1.62,1.62,0,0,1,.52-.0742,1.8767,1.8767,0,0,1,.94.2427,1.4673,1.4673,0,0,1,.64.7978h.02a1.5821,1.5821,0,0,1,.5249-.7285,1.6117,1.6117,0,0,1,1.0449-.312,1.5454,1.5454,0,0,1,1.2349.5146,2.1579,2.1579,0,0,1,.4453,1.4551v3.31h-.8v-3.1768a1.6908,1.6908,0,0,0-.27-1.0425,1.0163,1.0163,0,0,0-.86-.3506,1.6871,1.6871,0,0,0-.4551.06,1.2323,1.2323,0,0,0-.3847.18.88.88,0,0,0-.27.3056.9042.9042,0,0,0-.1.4361V155.46h-.8v-3.1768a1.6941,1.6941,0,0,0-.27-1.0425.9936.9936,0,0,0-.84-.3506,1.7414,1.7414,0,0,0-.46.06,1.2318,1.2318,0,0,0-.39.18.9388.9388,0,0,0-.2749.3056.8727.8727,0,0,0-.105.4361V155.46Z"/><path class="cls-1" d="M87.1731,149.09a.4884.4884,0,0,1-.375-.125.46.46,0,0,1-.1152-.3248v-.13a.4607.4607,0,0,1,.1152-.3247.625.625,0,0,1,.75,0,.4607.4607,0,0,1,.1152.3247v.13a.46.46,0,0,1-.1152.3248A.4884.4884,0,0,1,87.1731,149.09Zm-.4,1.21h.8v5.16h-.8Z"/><path class="cls-1" d="M89.2732,155.46V150.3h.8v.8306h.04a1.682,1.682,0,0,1,.5352-.6929,1.5123,1.5123,0,0,1,.9248-.2573,1.62,1.62,0,0,1,1.2651.5146,2.0967,2.0967,0,0,1,.4649,1.4551v3.31h-.8v-3.1768q0-1.3931-1.17-1.3931a1.8009,1.8009,0,0,0-.4653.06,1.3511,1.3511,0,0,0-.4048.18.8979.8979,0,0,0-.2851.3056.8727.8727,0,0,0-.105.4361V155.46Z"/><path class="cls-1" d="M209.0051,112.3129l-.0215.0215a1.3808,1.3808,0,0,1,.1231,1.02,2.4012,2.4012,0,0,1-.6953,1.1514,2.8943,2.8943,0,0,1-.9981.664,2.4524,2.4524,0,0,1-1.1347.1592,3.3042,3.3042,0,0,1-1.2188-.3779,5.1018,5.1018,0,0,1-1.2519-.9483,5.1979,5.1979,0,0,1-.9444-1.2407,3.1455,3.1455,0,0,1-.374-1.2231,2.5675,2.5675,0,0,1,.1729-1.1558,3.0145,3.0145,0,0,1,.6923-1.0327,2.8,2.8,0,0,1,1.4043-.8169,2.7575,2.7575,0,0,1,1.4668.0957l-.1914.7847a1.9649,1.9649,0,0,0-1.1269-.1167,1.9873,1.9873,0,0,0-1.0293.5766,2.0871,2.0871,0,0,0-.4766.7115,1.8914,1.8914,0,0,0-.1328.7924,2.1033,2.1033,0,0,0,.209.8116,2.824,2.824,0,0,0,.5615.7729l.8018.8023a2.8352,2.8352,0,0,0,.7773.5644,2.0877,2.0877,0,0,0,.8145.2139,1.8648,1.8648,0,0,0,.8066-.1475,2.3163,2.3163,0,0,0,.7539-.5195,2.444,2.444,0,0,0,.418-.5518,1.73,1.73,0,0,0,.2-.6049,1.34,1.34,0,0,0-.0655-.61,1.5177,1.5177,0,0,0-.38-.5786l-.49-.49-1.0888,1.0894-.5235-.5234,1.668-1.669,2.539,2.5386-.5507.5513Z"/><path class="cls-1" d="M213.0422,108.5307l-.0283.0278a2.5243,2.5243,0,0,1,.11.3867,1.3071,1.3071,0,0,1,.0156.419,1.3779,1.3779,0,0,1-.1387.44,1.8028,1.8028,0,0,1-.34.4522,1.6387,1.6387,0,0,1-1.2637.5342,2.0809,2.0809,0,0,1-1.3613-.6963l-2.34-2.3409.5655-.5659,2.247,2.2466q.9845.9851,1.8194.1509a1.7678,1.7678,0,0,0,.2861-.3721,1.285,1.285,0,0,0,.1553-.41.9008.9008,0,0,0-.0186-.4141.8814.8814,0,0,0-.24-.3892l-2.5313-2.53.5664-.566,3.6485,3.649-.5655.5659Z"/><path class="cls-1" d="M216.2024,106.5444a.8182.8182,0,0,1-.6152.2832.8726.8726,0,0,1-.585-.2818l-2.5479-2.5473-.6.601-.502-.5019.3389-.3394a.4724.4724,0,0,0,.1777-.3252.5452.5452,0,0,0-.1914-.3252l-.6777-.6787.5088-.5093,1.0107,1.0108.7988-.7988.502.5019-.7989.7988,2.6446,2.6451.7431-.7427.502.5019Z"/><path class="cls-1" d="M219.3069,103.61a2.3222,2.3222,0,0,1-.81.541,2.0642,2.0642,0,0,1-.9023.13,2.4951,2.4951,0,0,1-.9326-.2681,3.8377,3.8377,0,0,1-1.5733-1.5737,2.4892,2.4892,0,0,1-.2725-.937,2.053,2.053,0,0,1,.1309-.9014,2.3077,2.3077,0,0,1,.541-.81,2.19,2.19,0,0,1,.792-.5239,2.0527,2.0527,0,0,1,.8652-.125,2.3406,2.3406,0,0,1,.875.2451,3.1275,3.1275,0,0,1,.82.6025l.2675.2676-2.623,2.6236.17.1694a1.7608,1.7608,0,0,0,.5088.3608,1.46,1.46,0,0,0,.5615.1382,1.3759,1.3759,0,0,0,.5733-.1059,1.6494,1.6494,0,0,0,.541-.3711,1.5766,1.5766,0,0,0,.4424-.7676,1.5111,1.5111,0,0,0-.0674-.8662l.6943-.1118a1.9831,1.9831,0,0,1,.0567,1.16A2.3491,2.3491,0,0,1,219.3069,103.61Zm-3.3447-3.3448a1.5256,1.5256,0,0,0-.3438.5054,1.3427,1.3427,0,0,0-.1.5567,1.5021,1.5021,0,0,0,.1318.5639,1.694,1.694,0,0,0,.3614.5166l.05.0493,2.0146-2.0151-.0771-.0776a1.57,1.57,0,0,0-1.0411-.5108A1.2793,1.2793,0,0,0,215.9622,100.2655Z"/><path class="cls-1" d="M221.7317,101.0151l-3.6485-3.649.5655-.5654.5869.5874.0293-.0283a1.67,1.67,0,0,1-.1113-.8682,1.5052,1.5052,0,0,1,.4707-.8359,1.6211,1.6211,0,0,1,1.26-.5313,2.1,2.1,0,0,1,1.3575.7l2.34,2.3409-.5645.5654-2.247-2.2466q-.9845-.9844-1.8125-.1572a1.7994,1.7994,0,0,0-.2862.3716,1.34,1.34,0,0,0-.1591.4135.9008.9008,0,0,0,.0146.418.8632.8632,0,0,0,.2344.3823l2.5371,2.5371Z"/><path class="cls-1" d="M220.5168,91.766l.5645-.5654,2.1719,2.1709.0273-.0283a1.4506,1.4506,0,0,1-.0937-.9209,1.7584,1.7584,0,0,1,.49-.8189,1.956,1.956,0,0,1,.749-.48,1.8869,1.8869,0,0,1,.8526-.0889,2.4785,2.4785,0,0,1,.8974.3037,4.3986,4.3986,0,0,1,1.585,1.5845,2.4966,2.4966,0,0,1,.3037.8979,1.9016,1.9016,0,0,1-.0889.8526,1.95,1.95,0,0,1-.48.749,1.5627,1.5627,0,0,1-1.74.3955l-.0283.0283.5869.5874-.5644.5655Zm6.32,3.31a1.3777,1.3777,0,0,0,.455-1.0586,1.5939,1.5939,0,0,0-.5175-1.0683l-.625-.625a1.5918,1.5918,0,0,0-1.0684-.5166,1.3746,1.3746,0,0,0-1.0586.4541,1.7451,1.7451,0,0,0-.31.4174,1.435,1.435,0,0,0-.1543.4458,1.0043,1.0043,0,0,0,.0214.4258.8024.8024,0,0,0,.2071.3545l1.3642,1.3648a.9369.9369,0,0,0,.3907.2421,1.0063,1.0063,0,0,0,.4365.0328,1.294,1.294,0,0,0,.4453-.1543A1.84,1.84,0,0,0,226.8372,95.0756Z"/><path class="cls-1" d="M231.3059,91.6108a2.32,2.32,0,0,1-.8086.541,2.0684,2.0684,0,0,1-.9023.13,2.5051,2.5051,0,0,1-.9336-.2681,3.8535,3.8535,0,0,1-1.5733-1.5737,2.5055,2.5055,0,0,1-.2724-.9371,2.0659,2.0659,0,0,1,.1308-.9013,2.3214,2.3214,0,0,1,.541-.81,2.2072,2.2072,0,0,1,.792-.5239,2.0587,2.0587,0,0,1,.8643-.1245,2.3314,2.3314,0,0,1,.875.2451,3.1367,3.1367,0,0,1,.8223.6025l.2675.2676-2.623,2.623.1689.1695a1.7627,1.7627,0,0,0,.5088.3608,1.4607,1.4607,0,0,0,.5625.1382,1.3713,1.3713,0,0,0,.5723-.106,1.6363,1.6363,0,0,0,.541-.371,1.5666,1.5666,0,0,0,.4424-.7671,1.5118,1.5118,0,0,0-.0674-.8667l.6953-.1114a1.9989,1.9989,0,0,1,.0567,1.16A2.3571,2.3571,0,0,1,231.3059,91.6108Zm-3.3437-3.3448a1.5107,1.5107,0,0,0-.3438.5054,1.3276,1.3276,0,0,0-.1006.5566,1.52,1.52,0,0,0,.1319.564,1.7273,1.7273,0,0,0,.3613.5166l.05.0493,2.0146-2.0151-.0771-.0776a1.5672,1.5672,0,0,0-1.041-.5108A1.2758,1.2758,0,0,0,227.9622,88.266Z"/><path class="cls-1" d="M233.7317,89.0155l-3.6485-3.6489.5645-.5654.6719.6719.0361-.0357a1.5557,1.5557,0,0,1-.1133-.82,1.5334,1.5334,0,0,1,.4951-.9048l.2188-.2192.5664.5659-.333.3325a1.8105,1.8105,0,0,0-.544.89.7239.7239,0,0,0,.1758.6933l2.4756,2.4751Z"/><path class="cls-1" d="M239.6467,83.914a1.2646,1.2646,0,0,1,.3858,1.27,3.7424,3.7424,0,0,1-1.0606,1.59,3.452,3.452,0,0,1-1.4648.9981,1.0454,1.0454,0,0,1-1.0381-.29.9214.9214,0,0,1-.3076-.6176,1.2987,1.2987,0,0,1,.1806-.6685l-.0771-.0776a.7408.7408,0,0,1-.832-.1817.719.719,0,0,1-.2422-.5957,1.6357,1.6357,0,0,1,.2383-.667l-.0293-.0283a1.6646,1.6646,0,0,1-.9512.0586,1.7706,1.7706,0,0,1-.8555-.4932,1.8517,1.8517,0,0,1-.4111-.61,1.6265,1.6265,0,0,1-.1211-.68,1.8074,1.8074,0,0,1,.1728-.69,2.4972,2.4972,0,0,1,1.3038-1.2061l-.0635-.0635a.8522.8522,0,0,1-.2559-.4536.5237.5237,0,0,1,.1856-.4658l.5439-.5444L235.45,80l-.6924.6929.2344.2344a1.6835,1.6835,0,0,1,.7148.1,1.7958,1.7958,0,0,1,.6445.4257,1.8342,1.8342,0,0,1,.4121.6094,1.6125,1.6125,0,0,1,.1211.68,1.8016,1.8016,0,0,1-.1758.6943,2.3209,2.3209,0,0,1-.4726.6578,2.55,2.55,0,0,1-.39.3178,1.69,1.69,0,0,0-.1875.4776.4245.4245,0,0,0,.1163.4135.3049.3049,0,0,0,.375.064,1.6791,1.6791,0,0,0,.46-.3467l.7783-.7778a2.1571,2.1571,0,0,1,1.2432-.729A1.2348,1.2348,0,0,1,239.6467,83.914Zm-3.8642-.2725a1.2383,1.2383,0,0,0,.3984-.747.9222.9222,0,0,0-.3242-.7481l-.1992-.1987a.9225.9225,0,0,0-.7481-.3242,1.4543,1.4543,0,0,0-1.1445,1.1455.9207.9207,0,0,0,.3232.7485l.1983.1987a.9245.9245,0,0,0,.749.3238A1.2364,1.2364,0,0,0,235.7825,83.6415Zm3.373.8413a.6.6,0,0,0-.5176-.1836,1.4039,1.4039,0,0,0-.7207.46l-1.2158,1.2163a.73.73,0,0,0,.1553.834.7686.7686,0,0,0,.59.23,1.25,1.25,0,0,0,.7823-.4419l.5234-.5235a2.1364,2.1364,0,0,0,.5869-.8842A.6826.6826,0,0,0,239.1555,84.4828Z"/><path class="cls-1" d="M57.1042,190.8139h-.03a1.38,1.38,0,0,1-.6348.8086,2.3914,2.3914,0,0,1-1.3052.3222,2.8877,2.8877,0,0,1-1.1748-.2353,2.4615,2.4615,0,0,1-.915-.69,3.3051,3.3051,0,0,1-.5952-1.13,5.1169,5.1169,0,0,1-.2149-1.5552,5.2008,5.2008,0,0,1,.21-1.5449,3.1514,3.1514,0,0,1,.6-1.13,2.5773,2.5773,0,0,1,.94-.6948,3.0157,3.0157,0,0,1,1.22-.24,2.7979,2.7979,0,0,1,1.57.4151,2.757,2.757,0,0,1,.97,1.105l-.69.42a1.9139,1.9139,0,0,0-1.85-1.2,2.08,2.08,0,0,0-.84.1655,1.9107,1.9107,0,0,0-.6548.4663,2.1065,2.1065,0,0,0-.4253.7227,2.799,2.799,0,0,0-.15.9433v1.1343a2.842,2.842,0,0,0,.15.9482,2.0927,2.0927,0,0,0,.4253.7276,1.8643,1.8643,0,0,0,.6748.4663,2.3338,2.3338,0,0,0,.9.1655,2.4233,2.4233,0,0,0,.6851-.0952,1.6923,1.6923,0,0,0,.57-.2861,1.3439,1.3439,0,0,0,.3853-.4771,1.5323,1.5323,0,0,0,.14-.6782v-.6934h-1.54v-.74h2.36v3.59h-.78Z"/><path class="cls-1" d="M62.6335,190.9941H62.594a2.4634,2.4634,0,0,1-.1953.3515,1.3181,1.3181,0,0,1-.2852.3072,1.3494,1.3494,0,0,1-.41.2128,1.7908,1.7908,0,0,1-.56.0791,1.6345,1.6345,0,0,1-1.27-.5151,2.08,2.08,0,0,1-.47-1.4551v-3.31h.8v3.1772q0,1.393,1.18,1.3931a1.7731,1.7731,0,0,0,.4654-.0606,1.2769,1.2769,0,0,0,.4-.18.9089.9089,0,0,0,.28-.3057.887.887,0,0,0,.1049-.4458v-3.5781h.8v5.16h-.8Z"/><path class="cls-1" d="M66.2742,191.8246a.8192.8192,0,0,1-.6353-.2343.8717.8717,0,0,1-.2148-.6138v-3.6021h-.85v-.71h.48a.4688.4688,0,0,0,.3549-.105.543.543,0,0,0,.0952-.3648v-.96h.72v1.43h1.13v.71h-1.13v3.74h1.05v.71Z"/><path class="cls-1" d="M70.5437,191.9447a2.3174,2.3174,0,0,1-.9551-.19,2.0618,2.0618,0,0,1-.73-.5454,2.4973,2.4973,0,0,1-.47-.85,3.8444,3.8444,0,0,1,0-2.2251,2.4962,2.4962,0,0,1,.47-.855,2.0558,2.0558,0,0,1,.73-.5449,2.3094,2.3094,0,0,1,.9551-.19,2.1985,2.1985,0,0,1,.93.189,2.0664,2.0664,0,0,1,.7.5234,2.34,2.34,0,0,1,.4453.792,3.1364,3.1364,0,0,1,.1548,1.0069v.3784h-3.71v.24a1.77,1.77,0,0,0,.105.6148,1.4606,1.4606,0,0,0,.3.4951,1.3746,1.3746,0,0,0,.48.33,1.6489,1.6489,0,0,0,.645.12,1.57,1.57,0,0,0,.855-.23,1.507,1.507,0,0,0,.5649-.66l.57.4125a1.9923,1.9923,0,0,1-.78.86A2.3534,2.3534,0,0,1,70.5437,191.9447Zm0-4.73a1.5266,1.5266,0,0,0-.6.1142,1.3479,1.3479,0,0,0-.4648.3228,1.5146,1.5146,0,0,0-.3052.4922,1.7031,1.7031,0,0,0-.11.6211v.0693h2.85v-.1094a1.5683,1.5683,0,0,0-.375-1.0976A1.2791,1.2791,0,0,0,70.5437,187.2148Z"/><path class="cls-1" d="M74.0935,191.8246v-5.16h.8v.8305h.04a1.6823,1.6823,0,0,1,.5352-.6928,1.5123,1.5123,0,0,1,.9248-.2574,1.6192,1.6192,0,0,1,1.2651.5147,2.0966,2.0966,0,0,1,.4649,1.4551v3.31h-.8v-3.1767q0-1.393-1.17-1.3931a1.7968,1.7968,0,0,0-.4654.06,1.3545,1.3545,0,0,0-.4048.18.8991.8991,0,0,0-.2851.3057.8721.8721,0,0,0-.105.436v3.5879Z"/><path class="cls-1" d="M79.7737,184.4247h.8v3.07h.04a1.4505,1.4505,0,0,1,.585-.7177,1.7589,1.7589,0,0,1,.9253-.2325,1.9538,1.9538,0,0,1,.87.19,1.8826,1.8826,0,0,1,.665.54,2.4724,2.4724,0,0,1,.42.85,4.3992,4.3992,0,0,1,0,2.24,2.47,2.47,0,0,1-.42.85,1.887,1.887,0,0,1-.665.54,1.9605,1.9605,0,0,1-.87.19,1.5628,1.5628,0,0,1-1.51-.9506h-.04v.8305h-.8Zm2.13,6.81a1.3764,1.3764,0,0,0,1.07-.4273,1.596,1.596,0,0,0,.39-1.1206v-.8842a1.596,1.596,0,0,0-.39-1.1206,1.3747,1.3747,0,0,0-1.07-.4273,1.7415,1.7415,0,0,0-.5152.0752,1.4428,1.4428,0,0,0-.4248.2061.9989.9989,0,0,0-.2851.3164.7958.7958,0,0,0-.105.3969v1.93a.9363.9363,0,0,0,.105.4478,1.01,1.01,0,0,0,.2851.3315,1.2929,1.2929,0,0,0,.4248.2061A1.8626,1.8626,0,0,0,81.9036,191.2348Z"/><path class="cls-1" d="M87.5134,191.9447a2.3174,2.3174,0,0,1-.9551-.19,2.0606,2.0606,0,0,1-.73-.5454,2.4957,2.4957,0,0,1-.47-.85,3.8422,3.8422,0,0,1,0-2.2251,2.4945,2.4945,0,0,1,.47-.855,2.0545,2.0545,0,0,1,.73-.5449,2.3094,2.3094,0,0,1,.9551-.19,2.1982,2.1982,0,0,1,.93.189,2.0664,2.0664,0,0,1,.7.5234,2.3385,2.3385,0,0,1,.4453.792,3.1364,3.1364,0,0,1,.1548,1.0069v.3784h-3.71v.24a1.77,1.77,0,0,0,.105.6148,1.4606,1.4606,0,0,0,.3.4951,1.3755,1.3755,0,0,0,.48.33,1.6492,1.6492,0,0,0,.645.12,1.57,1.57,0,0,0,.855-.23,1.5066,1.5066,0,0,0,.565-.66l.57.4125a1.9926,1.9926,0,0,1-.78.86A2.3529,2.3529,0,0,1,87.5134,191.9447Zm0-4.73a1.5266,1.5266,0,0,0-.6.1142,1.35,1.35,0,0,0-.4648.3228,1.5146,1.5146,0,0,0-.3052.4922,1.7052,1.7052,0,0,0-.11.6211v.0693h2.85v-.1094a1.5683,1.5683,0,0,0-.375-1.0976A1.2791,1.2791,0,0,0,87.5134,187.2148Z"/><path class="cls-1" d="M91.0632,191.8246v-5.16h.8v.95h.05a1.5574,1.5574,0,0,1,.5-.66,1.5354,1.5354,0,0,1,.99-.29h.31v.8h-.47a1.8069,1.8069,0,0,0-1.0146.2446.7228.7228,0,0,0-.3653.6152v3.5Z"/><path class="cls-1" d="M98.8533,192.4a1.266,1.266,0,0,1-.625,1.1709,3.7319,3.7319,0,0,1-1.875.374,3.4454,3.4454,0,0,1-1.74-.33,1.0448,1.0448,0,0,1-.53-.939.92.92,0,0,1,.22-.6543,1.29,1.29,0,0,1,.6-.3447v-.11a.7415.7415,0,0,1-.46-.7168.72.72,0,0,1,.25-.5923,1.6349,1.6349,0,0,1,.64-.3037v-.04a1.6637,1.6637,0,0,1-.7153-.6319,1.7706,1.7706,0,0,1-.2549-.9526,1.8273,1.8273,0,0,1,.14-.7222,1.6165,1.6165,0,0,1,.395-.5664,1.7971,1.7971,0,0,1,.61-.3662,2.4965,2.4965,0,0,1,1.7749.0694v-.09a.8485.8485,0,0,1,.14-.5015.5234.5234,0,0,1,.46-.1987h.77v.71h-.98v.331a1.6913,1.6913,0,0,1,.4351.5767,1.7933,1.7933,0,0,1,.1547.7573,1.8373,1.8373,0,0,1-.14.7222,1.6327,1.6327,0,0,1-.395.5664,1.7942,1.7942,0,0,1-.6153.3662,2.3349,2.3349,0,0,1-.8.13,2.55,2.55,0,0,1-.5-.05,1.654,1.654,0,0,0-.47.2046.4235.4235,0,0,0-.21.375.304.304,0,0,0,.22.31,1.6855,1.6855,0,0,0,.57.08h1.1a2.163,2.163,0,0,1,1.395.3638A1.2351,1.2351,0,0,1,98.8533,192.4Zm-.75.0547a.5984.5984,0,0,0-.2354-.4951,1.3975,1.3975,0,0,0-.8349-.1846h-1.72a.73.73,0,0,0-.48.7.7683.7683,0,0,0,.2549.58,1.2465,1.2465,0,0,0,.8648.24h.74a2.1259,2.1259,0,0,0,1.04-.21A.68.68,0,0,0,98.1033,192.4545Zm-1.79-2.98a1.24,1.24,0,0,0,.81-.2461.9241.9241,0,0,0,.3-.7583v-.2812a.9249.9249,0,0,0-.3-.7583,1.4562,1.4562,0,0,0-1.62,0,.9236.9236,0,0,0-.3.7583v.2812a.9229.9229,0,0,0,.3.7583A1.2376,1.2376,0,0,0,96.3132,189.4745Z"/><path class="cls-1" d="M52.5842,221.2084h2.34a3.0478,3.0478,0,0,1,1.18.22,2.3864,2.3864,0,0,1,.9048.6548,2.984,2.984,0,0,1,.5752,1.09,5.9238,5.9238,0,0,1,0,3.05,2.9835,2.9835,0,0,1-.5752,1.09,2.3864,2.3864,0,0,1-.9048.6548,3.046,3.046,0,0,1-1.18.22h-2.34Zm2.34,6.24a2.0958,2.0958,0,0,0,.79-.1446,1.7043,1.7043,0,0,0,.62-.4253,1.9633,1.9633,0,0,0,.4048-.685,2.7331,2.7331,0,0,0,.145-.9248v-1.14a2.7339,2.7339,0,0,0-.145-.9248,1.9633,1.9633,0,0,0-.4048-.685,1.7191,1.7191,0,0,0-.62-.4253,2.1057,2.1057,0,0,0-.79-.145h-1.5v5.5Z"/><path class="cls-1" d="M62.9641,228.1884a.7843.7843,0,0,1-.645-.24,1.188,1.188,0,0,1-.2451-.6h-.05a1.3371,1.3371,0,0,1-.56.72,1.74,1.74,0,0,1-.93.24,1.81,1.81,0,0,1-1.2749-.42,1.4767,1.4767,0,0,1-.455-1.14,1.3017,1.3017,0,0,1,.5351-1.12,2.8473,2.8473,0,0,1,1.665-.39h1.02v-.51a1.114,1.114,0,0,0-.3-.84,1.2785,1.2785,0,0,0-.92-.29,1.3854,1.3854,0,0,0-.7852.21,1.7277,1.7277,0,0,0-.5249.56l-.48-.45a1.8255,1.8255,0,0,1,.67-.7149,2.11,2.11,0,0,1,1.16-.2949,2.1326,2.1326,0,0,1,1.46.459,1.6137,1.6137,0,0,1,.52,1.2769v2.8339h.59v.71Zm-2.3-.56a2.05,2.05,0,0,0,.55-.07,1.3444,1.3444,0,0,0,.43-.2.9909.9909,0,0,0,.28-.3.72.72,0,0,0,.1-.37v-.85h-1.06a1.9341,1.9341,0,0,0-1.0049.2.6454.6454,0,0,0-.3154.58v.21a.699.699,0,0,0,.2754.59A1.1959,1.1959,0,0,0,60.6638,227.6283Z"/><path class="cls-1" d="M64.554,228.1884v-5.16h.8v.95h.05a1.5572,1.5572,0,0,1,.5-.66,1.5349,1.5349,0,0,1,.99-.29h.31v.8h-.47a1.8071,1.8071,0,0,0-1.0146.2447.7225.7225,0,0,0-.3652.6152v3.5Z"/><path class="cls-1" d="M67.7336,223.0282h.78l.55,2.23.55,2.26h.02l.63-2.26.65-2.23h.71l.67,2.23.64,2.26h.02l.53-2.26.56-2.23h.75l-1.37,5.16h-.99l-.72-2.48-.45-1.57h-.02l-.44,1.57-.72,2.48h-.97Z"/><path class="cls-1" d="M76.3533,221.8183a.4881.4881,0,0,1-.375-.125.46.46,0,0,1-.1153-.3247v-.13a.4607.4607,0,0,1,.1153-.3247.625.625,0,0,1,.75,0,.4611.4611,0,0,1,.1152.3247v.13a.46.46,0,0,1-.1152.3247A.4884.4884,0,0,1,76.3533,221.8183Zm-.4,1.21h.8v5.16h-.8Z"/><path class="cls-1" d="M78.4534,228.1884v-5.16h.8v.8306h.04a1.6827,1.6827,0,0,1,.5352-.6929,1.5127,1.5127,0,0,1,.9248-.2573,1.6194,1.6194,0,0,1,1.2651.5147,2.0965,2.0965,0,0,1,.4649,1.455v3.31h-.8v-3.1768q0-1.393-1.17-1.393a1.8009,1.8009,0,0,0-.4653.06,1.3536,1.3536,0,0,0-.4048.18.8982.8982,0,0,0-.2851.3057.871.871,0,0,0-.105.436v3.5879Z"/><path class="cls-1" d="M256.3108,111.289l1.6543-1.6543a3.0334,3.0334,0,0,1,.99-.6787,2.3829,2.3829,0,0,1,1.1016-.1768,2.9567,2.9567,0,0,1,1.1777.3643,5.8933,5.8933,0,0,1,2.1572,2.1567,2.982,2.982,0,0,1,.3643,1.1773,2.3927,2.3927,0,0,1-.1777,1.1025,3.0408,3.0408,0,0,1-.6778.99l-1.6543,1.6543Zm6.0664,2.7578a2.1028,2.1028,0,0,0,.456-.6606,1.7091,1.7091,0,0,0,.1377-.7393,1.9785,1.9785,0,0,0-.1982-.77,2.7074,2.7074,0,0,0-.5518-.7564l-.8056-.8061a2.7308,2.7308,0,0,0-.7569-.5518,1.9642,1.9642,0,0,0-.77-.1982,1.7177,1.7177,0,0,0-.7392.1377,2.1,2.1,0,0,0-.6612.456l-1.06,1.0606,3.89,3.8891Z"/><path class="cls-1" d="M268.5852,108.8852a.783.783,0,0,1-.626.2861,1.1882,1.1882,0,0,1-.5976-.2505l-.0352.0352a1.335,1.335,0,0,1,.1133.9048,1.7331,1.7331,0,0,1-.4883.8276,1.8075,1.8075,0,0,1-1.1973.6045,1.479,1.479,0,0,1-1.1289-.4844,1.3021,1.3021,0,0,1-.413-1.17,2.8431,2.8431,0,0,1,.9013-1.4531l.7207-.7212-.3593-.36a1.1157,1.1157,0,0,0-.8067-.3813,1.2772,1.2772,0,0,0-.8555.4448,1.3718,1.3718,0,0,0-.4062.7041,1.72,1.72,0,0,0,.0244.7671l-.6572.021a1.8226,1.8226,0,0,1-.0332-.98,2.4982,2.4982,0,0,1,1.9687-1.7363,1.6163,1.6163,0,0,1,1.2715.5351l2.0039,2.0039.417-.4174.502.5019Zm-2.0225,1.23a2.0756,2.0756,0,0,0,.34-.4384,1.3626,1.3626,0,0,0,.1621-.4453.9917.9917,0,0,0-.0137-.41.7173.7173,0,0,0-.1914-.3325l-.6006-.6011-.749.75a1.9222,1.9222,0,0,0-.5693.8521.6458.6458,0,0,0,.1865.6333l.1484.1484a.7.7,0,0,0,.6123.2222A1.1942,1.1942,0,0,0,266.5627,110.1156Z"/><path class="cls-1" d="M269.7092,107.7607l-3.6484-3.6485.5664-.5654.6719.6719.0351-.0357a1.5557,1.5557,0,0,1-.1133-.82,1.536,1.536,0,0,1,.4942-.9048l.22-.2192.5654.5659-.332.3325a1.8056,1.8056,0,0,0-.5449.89.7218.7218,0,0,0,.1777.6933l2.4746,2.4746Z"/><path class="cls-1" d="M268.3088,101.8642l.5528-.5518,1.9648,1.1875,1.9873,1.21.0147-.0142-1.1534-2.0434-1.1162-2.0366.502-.502,2.05,1.103,2.05,1.146.0146-.0141-1.2236-1.9732-1.18-1.9726.5293-.53,2.68,4.6172-.6992.7-2.2627-1.2447-1.4287-.7915-.0137.0142.7988,1.4209,1.2442,2.2622-.6856.686Z"/><path class="cls-1" d="M273.5491,94.913a.4889.4889,0,0,1-.3535.1768.4608.4608,0,0,1-.3116-.148l-.0927-.0923a.4619.4619,0,0,1-.1475-.311.6252.6252,0,0,1,.53-.53.4583.4583,0,0,1,.31.148l.0928.0923a.4551.4551,0,0,1,.1475.311A.485.485,0,0,1,273.5491,94.913Zm.5722,1.1387.5664-.5654,3.6485,3.6484L277.77,99.7Z"/><path class="cls-1" d="M279.5374,97.9325l-3.6485-3.6484.5664-.5654.586.5869.0293-.0283a1.68,1.68,0,0,1-.1114-.8682,1.5107,1.5107,0,0,1,.4717-.8364,1.62,1.62,0,0,1,1.2588-.53,2.0964,2.0964,0,0,1,1.3574.7l2.34,2.34-.5645.5655-2.2461-2.2461q-.9858-.9852-1.8135-.1577a1.827,1.827,0,0,0-.2861.371,1.3449,1.3449,0,0,0-.1592.4141.9021.9021,0,0,0,.0147.418.8708.8708,0,0,0,.2343.3823l2.5372,2.5371Z"/><path class="cls-1" d="M54.2742,260.2919l-.84-1.55h-.03v5.81h-.82v-6.98h.97l2.55,4.26.84,1.55h.03v-5.81h.82v6.98h-.97Z"/><path class="cls-1" d="M61.2537,264.5517v-2.76l-2.4-4.22h.96l1.86,3.36h.03l1.86-3.36h.96l-2.43,4.19v2.79Z"/><path class="cls-1" d="M67.9832,258.3114v6.24h-.84v-6.24h-2.22v-.74h5.28v.74Z"/><path class="cls-1" d="M73.7131,264.5517v-6.98h4.16v.74h-3.32v2.34h3.03v.74h-3.03v3.16Z"/><path class="cls-1" d="M79.0232,264.5517v-5.16h.8v.95h.05a1.5558,1.5558,0,0,1,.5-.66,1.5344,1.5344,0,0,1,.99-.29h.31v.8h-.47a1.8083,1.8083,0,0,0-1.0147.2446.723.723,0,0,0-.3652.6153v3.5Z"/><path class="cls-1" d="M84.593,264.6718a2.3274,2.3274,0,0,1-.95-.19,2.05,2.05,0,0,1-.7349-.5455,2.5562,2.5562,0,0,1-.4751-.85,3.7276,3.7276,0,0,1,0-2.2251,2.5537,2.5537,0,0,1,.4751-.8549,2.0427,2.0427,0,0,1,.7349-.545,2.3193,2.3193,0,0,1,.95-.19,2.2887,2.2887,0,0,1,.9453.19,2.1028,2.1028,0,0,1,.7349.545,2.5134,2.5134,0,0,1,.48.8549,3.7276,3.7276,0,0,1,0,2.2251,2.5157,2.5157,0,0,1-.48.85,2.11,2.11,0,0,1-.7349.5455A2.2967,2.2967,0,0,1,84.593,264.6718Zm0-.71a1.4526,1.4526,0,0,0,1.06-.4,1.6327,1.6327,0,0,0,.41-1.22v-.74a1.6342,1.6342,0,0,0-.41-1.22,1.6044,1.6044,0,0,0-2.12,0,1.6342,1.6342,0,0,0-.41,1.22v.74a1.6327,1.6327,0,0,0,.41,1.22A1.4514,1.4514,0,0,0,84.593,263.9618Z"/><path class="cls-1" d="M88.2434,264.5517v-5.16h.8v.8306h.04a1.6827,1.6827,0,0,1,.5352-.6929,1.5123,1.5123,0,0,1,.9248-.2573,1.62,1.62,0,0,1,1.2651.5146,2.0969,2.0969,0,0,1,.4649,1.4551v3.31h-.8v-3.1768q0-1.3931-1.17-1.393a1.8011,1.8011,0,0,0-.4654.06,1.3547,1.3547,0,0,0-.4048.18.8982.8982,0,0,0-.2851.3057.8721.8721,0,0,0-.105.436v3.5879Z"/><path class="cls-1" d="M95.0637,264.5517a.8185.8185,0,0,1-.6352-.2344.871.871,0,0,1-.2149-.6138v-3.602h-.85v-.71h.48a.4688.4688,0,0,0,.355-.105.5429.5429,0,0,0,.0952-.3647v-.96h.72v1.43h1.13v.71h-1.13v3.74h1.05v.71Z"/><path class="cls-1" d="M99.8733,264.5517v-6.98h2.78a1.89,1.89,0,0,1,1.4448.5352,2.3754,2.3754,0,0,1,0,2.93,1.89,1.89,0,0,1-1.4448.5352h-1.94v2.98Zm.84-3.72h1.94a1.0832,1.0832,0,0,0,.7749-.26.9684.9684,0,0,0,.2749-.74v-.52a.968.968,0,0,0-.2749-.74,1.0834,1.0834,0,0,0-.7749-.26h-1.94Z"/><path class="cls-1" d="M109.5032,264.5517a.7839.7839,0,0,1-.645-.24,1.1874,1.1874,0,0,1-.2452-.6h-.05a1.3368,1.3368,0,0,1-.56.72,1.7405,1.7405,0,0,1-.93.24,1.81,1.81,0,0,1-1.2749-.42,1.4768,1.4768,0,0,1-.4551-1.14,1.3014,1.3014,0,0,1,.5352-1.12,2.8471,2.8471,0,0,1,1.665-.39h1.02v-.51a1.1138,1.1138,0,0,0-.3-.84,1.2784,1.2784,0,0,0-.92-.29,1.3851,1.3851,0,0,0-.7851.21,1.7267,1.7267,0,0,0-.5249.56l-.48-.45a1.8255,1.8255,0,0,1,.67-.7149,2.1093,2.1093,0,0,1,1.16-.2949,2.1325,2.1325,0,0,1,1.46.459,1.6132,1.6132,0,0,1,.52,1.2768v2.834h.59v.71Zm-2.3-.56a2.05,2.05,0,0,0,.55-.07,1.3455,1.3455,0,0,0,.43-.2.9905.9905,0,0,0,.28-.3.72.72,0,0,0,.1-.37v-.85h-1.06a1.9339,1.9339,0,0,0-1.0049.2.6451.6451,0,0,0-.3154.58v.21a.6993.6993,0,0,0,.2753.59A1.1964,1.1964,0,0,0,107.2029,263.9916Z"/><path class="cls-1" d="M115.4431,265.1269a1.2661,1.2661,0,0,1-.625,1.1709,3.7319,3.7319,0,0,1-1.875.374,3.445,3.445,0,0,1-1.74-.33,1.0446,1.0446,0,0,1-.53-.939.92.92,0,0,1,.22-.6543,1.2912,1.2912,0,0,1,.6-.3447v-.11a.7416.7416,0,0,1-.46-.7168.72.72,0,0,1,.25-.5923,1.6329,1.6329,0,0,1,.64-.3037v-.04a1.6635,1.6635,0,0,1-.7153-.6318,1.77,1.77,0,0,1-.2549-.9526,1.8287,1.8287,0,0,1,.14-.7222,1.6169,1.6169,0,0,1,.395-.5664,1.799,1.799,0,0,1,.61-.3662,2.4971,2.4971,0,0,1,1.7749.0693v-.09a.8488.8488,0,0,1,.14-.5015.5234.5234,0,0,1,.46-.1987h.77v.71h-.98v.3311a1.6874,1.6874,0,0,1,.4351.5766,1.7938,1.7938,0,0,1,.1548.7574,1.8354,1.8354,0,0,1-.14.7221,1.6314,1.6314,0,0,1-.395.5664,1.7931,1.7931,0,0,1-.6152.3662,2.3334,2.3334,0,0,1-.8.13,2.55,2.55,0,0,1-.5-.05,1.6544,1.6544,0,0,0-.47.2046.4233.4233,0,0,0-.21.375.3042.3042,0,0,0,.22.31,1.6858,1.6858,0,0,0,.57.08h1.1a2.1633,2.1633,0,0,1,1.3951.3638A1.2354,1.2354,0,0,1,115.4431,265.1269Zm-.75.0547a.5987.5987,0,0,0-.2353-.4952,1.3989,1.3989,0,0,0-.835-.1845h-1.72a.73.73,0,0,0-.48.7.7686.7686,0,0,0,.2549.58,1.2467,1.2467,0,0,0,.8647.24h.74a2.1245,2.1245,0,0,0,1.04-.2105A.68.68,0,0,0,114.6931,265.1816Zm-1.79-2.98a1.2394,1.2394,0,0,0,.81-.2461.9242.9242,0,0,0,.3-.7583v-.2813a.9249.9249,0,0,0-.3-.7583,1.4562,1.4562,0,0,0-1.62,0,.9236.9236,0,0,0-.3.7583v.2813a.923.923,0,0,0,.3.7583A1.2377,1.2377,0,0,0,112.9031,262.2016Z"/><path class="cls-1" d="M118.2527,264.6718a2.319,2.319,0,0,1-.9551-.19,2.0612,2.0612,0,0,1-.73-.5455,2.4973,2.4973,0,0,1-.47-.85,3.8444,3.8444,0,0,1,0-2.2251,2.4957,2.4957,0,0,1,.47-.8549,2.054,2.054,0,0,1,.73-.545,2.311,2.311,0,0,1,.9551-.19,2.1985,2.1985,0,0,1,.93.189,2.0638,2.0638,0,0,1,.7.5234,2.3392,2.3392,0,0,1,.4453.792,3.1358,3.1358,0,0,1,.1548,1.0068v.3784h-3.71v.24a1.769,1.769,0,0,0,.105.6147,1.46,1.46,0,0,0,.3.4951,1.3733,1.3733,0,0,0,.48.33,1.6467,1.6467,0,0,0,.645.12,1.57,1.57,0,0,0,.855-.23,1.5079,1.5079,0,0,0,.5649-.66l.57.4126a1.992,1.992,0,0,1-.78.86A2.3537,2.3537,0,0,1,118.2527,264.6718Zm0-4.73a1.5248,1.5248,0,0,0-.6.1143,1.349,1.349,0,0,0-.4649.3227,1.5182,1.5182,0,0,0-.3051.4922,1.7035,1.7035,0,0,0-.11.6211v.0693h2.85v-.1093a1.5684,1.5684,0,0,0-.375-1.0977A1.2791,1.2791,0,0,0,118.2527,259.9418Z"/><path class="cls-1" d="M314.15,112.017l-1.69-.5019-.0215.021,4.1084,4.1084-.5791.58-4.9355-4.9355.6855-.6855,4.8145,1.2084,1.6894.5025.0215-.0215-4.1074-4.1079.58-.58,4.9355,4.9356-.6865.686Z"/><path class="cls-1" d="M322.0969,110.0942l-1.9512-1.9517-4.6806-1.2871.6787-.6787,3.6914,1.06.0205-.021-1.06-3.6909.6778-.6787,1.2441,4.6807,1.9736,1.9731Z"/><path class="cls-1" d="M322.4436,100.9228l4.4131,4.4126-.5947.5942-4.4131-4.4126-1.5684,1.5693-.5234-.5229,3.7334-3.7334.5224.523Z"/><path class="cls-1" d="M330.9075,101.2836l-4.9356-4.9355,2.9414-2.9409.5235.5229-2.3477,2.3472,1.6543,1.6548L330.886,95.79l.5234.5229-2.1426,2.1421,2.2344,2.2349Z"/><path class="cls-1" d="M334.6624,97.5292,331.0129,93.88l.5664-.5659.6719.6719.0352-.0352a1.5685,1.5685,0,0,1-.1133-.8208,1.5375,1.5375,0,0,1,.4951-.9048l.22-.2192.5655.5659-.333.3325a1.81,1.81,0,0,0-.544.89.7241.7241,0,0,0,.1768.6934l2.4746,2.4751Z"/><path class="cls-1" d="M338.6858,93.6757a2.3188,2.3188,0,0,1-.8057.5366,2.0422,2.0422,0,0,1-.9052.1343,2.5533,2.5533,0,0,1-.9366-.2651,3.3935,3.3935,0,0,1-.9092-.6685,3.4427,3.4427,0,0,1-.665-.9048,2.559,2.559,0,0,1-.2676-.94,2.0322,2.0322,0,0,1,.1338-.9048,2.4575,2.4575,0,0,1,1.34-1.34,2.1,2.1,0,0,1,.9052-.1343,2.4993,2.4993,0,0,1,.9434.2646,3.73,3.73,0,0,1,1.5742,1.5733,2.5214,2.5214,0,0,1,.2608.9409,2.11,2.11,0,0,1-.1338.9048A2.2966,2.2966,0,0,1,338.6858,93.6757Zm-.5029-.5024a1.4507,1.4507,0,0,0,.4668-1.0323,1.63,1.63,0,0,0-.5723-1.1528l-.5234-.5234a1.6346,1.6346,0,0,0-1.1524-.5723,1.603,1.603,0,0,0-1.498,1.4985,1.6277,1.6277,0,0,0,.5722,1.1524l.5235.5234a1.6334,1.6334,0,0,0,1.1523.5728A1.4516,1.4516,0,0,0,338.1829,93.1733Z"/><path class="cls-1" d="M341.1829,91.0092l-3.65-3.6489.5655-.5655.5879.5874.0273-.0283a1.6922,1.6922,0,0,1-.1113-.8686,1.5109,1.5109,0,0,1,.4726-.8355,1.6185,1.6185,0,0,1,1.2578-.5307,2.097,2.097,0,0,1,1.3575.7l2.3408,2.3408-.5654.5654L341.22,86.4789q-.986-.9851-1.8125-.1577a1.8,1.8,0,0,0-.2871.3716,1.3624,1.3624,0,0,0-.1582.4136.8479.8479,0,0,0,.248.8l2.5371,2.5371Z"/><path class="cls-1" d="M346.0051,86.1864a.82.82,0,0,1-.6152.2833.8684.8684,0,0,1-.5859-.2818l-2.5469-2.5469-.6016.6011-.5019-.5019.34-.3394a.4685.4685,0,0,0,.1768-.3257.5481.5481,0,0,0-.1905-.3247l-.68-.6792.51-.5093,1.0108,1.0113.7988-.7989.5019.502-.7988.7988L345.467,85.72l.7432-.7427.502.5024Z"/><path class="cls-1" d="M349.4055,82.7856,344.47,77.85l1.9658-1.9653a1.89,1.89,0,0,1,1.3994-.6436,2.3767,2.3767,0,0,1,2.0723,2.0718,1.8958,1.8958,0,0,1-.6436,1.4l-1.3721,1.3716,2.1075,2.1074Zm-2.0371-3.2246,1.3721-1.3716a1.0847,1.0847,0,0,0,.3642-.7315.966.966,0,0,0-.3291-.7177l-.3681-.3677a.9662.9662,0,0,0-.7168-.3286,1.0848,1.0848,0,0,0-.7325.3637l-1.371,1.3716Z"/><path class="cls-1" d="M356.2151,75.9765a.783.783,0,0,1-.626.2861,1.1891,1.1891,0,0,1-.5976-.251l-.0352.0352a1.3364,1.3364,0,0,1,.1133.9053,1.7331,1.7331,0,0,1-.4883.8276,1.8048,1.8048,0,0,1-1.1982.604,1.4735,1.4735,0,0,1-1.128-.4844,1.3028,1.3028,0,0,1-.414-1.17,2.8461,2.8461,0,0,1,.9023-1.4531l.7207-.7212-.36-.36a1.1134,1.1134,0,0,0-.8057-.3814,1.2761,1.2761,0,0,0-.8555.4453,1.38,1.38,0,0,0-.4072.7036,1.7341,1.7341,0,0,0,.0244.7671l-.6572.021a1.8308,1.8308,0,0,1-.0322-.979,2.5,2.5,0,0,1,1.9687-1.7368,1.6157,1.6157,0,0,1,1.2705.5352l2.0039,2.0039.417-.417.502.5024Zm-2.0225,1.23a2.0634,2.0634,0,0,0,.34-.439,1.3625,1.3625,0,0,0,.1621-.4448,1.0111,1.0111,0,0,0-.0137-.4107.7266.7266,0,0,0-.1914-.3325l-.6016-.6011-.749.7495a1.94,1.94,0,0,0-.5693.8521.6441.6441,0,0,0,.1875.6333l.1484.1484a.6974.6974,0,0,0,.6113.2222A1.1961,1.1961,0,0,0,354.1926,77.207Z"/><path class="cls-1" d="M360.8215,72.183a1.2645,1.2645,0,0,1,.3867,1.27,3.7342,3.7342,0,0,1-1.0615,1.59,3.451,3.451,0,0,1-1.4638.9976,1.0465,1.0465,0,0,1-1.0391-.2891.92.92,0,0,1-.3066-.6187,1.2788,1.2788,0,0,1,.1806-.6679l-.0771-.0777a.7417.7417,0,0,1-.833-.1811.7188.7188,0,0,1-.2412-.5962,1.6406,1.6406,0,0,1,.2373-.6675l-.0284-.0283a1.6579,1.6579,0,0,1-.9531.0591,1.7731,1.7731,0,0,1-.8535-.4927,1.8461,1.8461,0,0,1-.4121-.61,1.6277,1.6277,0,0,1-.1211-.68,1.8075,1.8075,0,0,1,.1728-.6909,2.4985,2.4985,0,0,1,1.3038-1.2055l-.0625-.0635a.8471.8471,0,0,1-.2559-.4536.5228.5228,0,0,1,.1846-.4659l.5439-.5444.502.502-.6924.6928.2334.2339a1.701,1.701,0,0,1,.7158.1,1.8086,1.8086,0,0,1,.6455.4263,1.86,1.86,0,0,1,.4121.6094,1.6586,1.6586,0,0,1,.1211.68,1.82,1.82,0,0,1-.1758.6943,2.3688,2.3688,0,0,1-.4746.6572,2.48,2.48,0,0,1-.3887.3184,1.651,1.651,0,0,0-.1875.477.4243.4243,0,0,0,.1172.4141.3049.3049,0,0,0,.375.0635,1.7081,1.7081,0,0,0,.459-.3467l.7774-.7778a2.1664,2.1664,0,0,1,1.2441-.729A1.2352,1.2352,0,0,1,360.8215,72.183Zm-3.8642-.2729a1.2462,1.2462,0,0,0,.3994-.7466.9277.9277,0,0,0-.3242-.748l-.1993-.1993a.9273.9273,0,0,0-.748-.3242,1.4584,1.4584,0,0,0-1.1465,1.1455.9247.9247,0,0,0,.3242.7486l.1993.1992a.9224.9224,0,0,0,.748.3237A1.24,1.24,0,0,0,356.9573,71.91Zm3.373.8418a.598.598,0,0,0-.5166-.1836,1.3971,1.3971,0,0,0-.7207.46l-1.2168,1.2158a.7316.7316,0,0,0,.1563.8349.7647.7647,0,0,0,.59.23,1.242,1.242,0,0,0,.7813-.4414l.5234-.5234a2.1169,2.1169,0,0,0,.5869-.8843A.6805.6805,0,0,0,360.33,72.7519Z"/><path class="cls-1" d="M362.4875,69.8744a2.31,2.31,0,0,1-.81.5406,2.051,2.051,0,0,1-.9014.1308,2.4965,2.4965,0,0,1-.9336-.2685,3.8326,3.8326,0,0,1-1.5732-1.5733,2.4826,2.4826,0,0,1-.2715-.937,2.0376,2.0376,0,0,1,.1309-.9014,2.2934,2.2934,0,0,1,.541-.8095,2.1865,2.1865,0,0,1,.791-.5244,2.0609,2.0609,0,0,1,.8643-.1245,2.3439,2.3439,0,0,1,.875.2451,3.1326,3.1326,0,0,1,.8212.6025l.2676.2676-2.623,2.623.17.17a1.7494,1.7494,0,0,0,.5088.36,1.451,1.451,0,0,0,.5615.1382,1.3682,1.3682,0,0,0,.5733-.106,1.6464,1.6464,0,0,0,.541-.3711,1.5743,1.5743,0,0,0,.4424-.7671,1.5029,1.5029,0,0,0-.0684-.8662l.6953-.1113a1.99,1.99,0,0,1,.0566,1.16A2.3519,2.3519,0,0,1,362.4875,69.8744ZM359.1418,66.53a1.5443,1.5443,0,0,0-.3437.5049,1.3757,1.3757,0,0,0-.1.5571,1.513,1.513,0,0,0,.1318.5635,1.6962,1.6962,0,0,0,.3623.5171l.0489.0488,2.0146-2.0151-.0771-.0772a1.5685,1.5685,0,0,0-1.0411-.5112A1.2812,1.2812,0,0,0,359.1418,66.53Z"/><path class="cls-1" d="M52.5842,293.9355h2.87a1.8579,1.8579,0,0,1,1.3652.49,1.9961,1.9961,0,0,1,.3848,1.97,1.3663,1.3663,0,0,1-.28.4449,1.135,1.135,0,0,1-.37.26,1.7244,1.7244,0,0,1-.37.1148v.06a1.4192,1.4192,0,0,1,.4253.1,1.3912,1.3912,0,0,1,.4449.2852,1.6157,1.6157,0,0,1,.3549.5,1.699,1.699,0,0,1,.1451.7353,2.3136,2.3136,0,0,1-.1348.7988,1.9617,1.9617,0,0,1-.375.6407,1.7611,1.7611,0,0,1-.57.4258,1.6831,1.6831,0,0,1-.72.1543h-3.17Zm.84,3.02h1.93a1.1308,1.1308,0,0,0,.78-.25.915.915,0,0,0,.28-.72v-.34a.9158.9158,0,0,0-.28-.72,1.1308,1.1308,0,0,0-.78-.25h-1.93Zm0,3.22h2.07a1.2341,1.2341,0,0,0,.85-.2754,1.0181,1.0181,0,0,0,.31-.8047v-.34a1.02,1.02,0,0,0-.31-.8047,1.2341,1.2341,0,0,0-.85-.2754h-2.07Z"/><path class="cls-1" d="M62.7839,300.9155a.7841.7841,0,0,1-.645-.24,1.1876,1.1876,0,0,1-.2451-.6h-.05a1.3331,1.3331,0,0,1-.56.72,1.7393,1.7393,0,0,1-.93.24,1.8074,1.8074,0,0,1-1.2749-.42,1.4757,1.4757,0,0,1-.4551-1.14,1.3018,1.3018,0,0,1,.5351-1.1206,2.8469,2.8469,0,0,1,1.6651-.39h1.02v-.51a1.1142,1.1142,0,0,0-.3-.84,1.2788,1.2788,0,0,0-.92-.29,1.3849,1.3849,0,0,0-.7852.21,1.7285,1.7285,0,0,0-.5249.56l-.48-.45a1.8256,1.8256,0,0,1,.67-.7148,2.109,2.109,0,0,1,1.16-.2949,2.1326,2.1326,0,0,1,1.46.459,1.6132,1.6132,0,0,1,.52,1.2768v2.834h.59v.71Zm-2.3-.5606a2.07,2.07,0,0,0,.55-.0693,1.3444,1.3444,0,0,0,.43-.2.9875.9875,0,0,0,.28-.3.7212.7212,0,0,0,.1-.37v-.85h-1.06a1.9391,1.9391,0,0,0-1.0049.2.6462.6462,0,0,0-.3154.58v.211a.7.7,0,0,0,.2754.59A1.1985,1.1985,0,0,0,60.4836,300.3549Z"/><path class="cls-1" d="M64.3738,300.9155v-5.16h.8v.95h.05a1.5558,1.5558,0,0,1,.5-.66,1.5349,1.5349,0,0,1,.99-.29h.31v.8h-.47a1.8075,1.8075,0,0,0-1.0147.2446.723.723,0,0,0-.3652.6153v3.5Z"/><path class="cls-1" d="M69.2239,300.9155a.8192.8192,0,0,1-.6353-.2344.8721.8721,0,0,1-.2148-.6133v-3.6025h-.85v-.71h.48a.4688.4688,0,0,0,.3549-.105.5429.5429,0,0,0,.0953-.3647v-.96h.72v1.43h1.13v.71h-1.13v3.74h1.05v.71Z"/><path class="cls-1" d="M71.5935,293.5155h.8v3.07h.04a1.682,1.682,0,0,1,.5352-.6929,1.5123,1.5123,0,0,1,.9248-.2573,1.62,1.62,0,0,1,1.2651.5146,2.0967,2.0967,0,0,1,.4649,1.4551v3.31h-.8v-3.1768q0-1.3931-1.17-1.3931a1.7968,1.7968,0,0,0-.4654.06,1.3522,1.3522,0,0,0-.4048.18.8979.8979,0,0,0-.2851.3056.8727.8727,0,0,0-.105.4361v3.5879h-.8Z"/><path class="cls-1" d="M79.2136,301.0356a2.31,2.31,0,0,1-.9551-.19,2.0652,2.0652,0,0,1-.73-.5449,2.4958,2.4958,0,0,1-.47-.85,3.8444,3.8444,0,0,1,0-2.2251,2.4947,2.4947,0,0,1,.47-.855,2.0545,2.0545,0,0,1,.73-.5449,2.311,2.311,0,0,1,.9551-.19,2.2,2.2,0,0,1,.93.1889,2.0653,2.0653,0,0,1,.7.5235,2.3366,2.3366,0,0,1,.4453.792,3.1353,3.1353,0,0,1,.1548,1.0068v.3784h-3.71v.24a1.7662,1.7662,0,0,0,.105.6152,1.4606,1.4606,0,0,0,.3.4951,1.3808,1.3808,0,0,0,.48.33,1.6471,1.6471,0,0,0,.645.12,1.5614,1.5614,0,0,0,.855-.2305,1.4981,1.4981,0,0,0,.5649-.66l.57.4131a1.9929,1.9929,0,0,1-.78.86A2.3532,2.3532,0,0,1,79.2136,301.0356Zm0-4.73a1.5266,1.5266,0,0,0-.6.1142,1.3488,1.3488,0,0,0-.4648.3228,1.5157,1.5157,0,0,0-.3052.4922,1.7056,1.7056,0,0,0-.11.6211v.0693h2.85v-.1094a1.5683,1.5683,0,0,0-.375-1.0976A1.2791,1.2791,0,0,0,79.2136,296.3056Z"/><path class="cls-1" d="M84.3132,301.0356a2.4209,2.4209,0,0,1-1.205-.2744,2.75,2.75,0,0,1-.835-.7364l.57-.459a2.2276,2.2276,0,0,0,.67.584,1.7447,1.7447,0,0,0,.86.2051,1.2753,1.2753,0,0,0,.7949-.2187.8.8,0,0,0,.09-1.1358,1.1926,1.1926,0,0,0-.705-.2949l-.41-.06a3.4271,3.4271,0,0,1-.66-.1548,1.8442,1.8442,0,0,1-.525-.28,1.2062,1.2062,0,0,1-.35-.4351,1.4154,1.4154,0,0,1-.125-.62,1.4919,1.4919,0,0,1,.14-.6651,1.3324,1.3324,0,0,1,.3852-.4751,1.6838,1.6838,0,0,1,.585-.2851,2.7142,2.7142,0,0,1,.73-.0947,2.2792,2.2792,0,0,1,1.0547.22,2.3745,2.3745,0,0,1,.7451.61l-.53.48a1.58,1.58,0,0,0-1.33-.63,1.1438,1.1438,0,0,0-.7549.2153.7237.7237,0,0,0-.2553.5849.6113.6113,0,0,0,.2553.55,1.9042,1.9042,0,0,0,.7349.25l.4.06a2.1436,2.1436,0,0,1,1.22.4951,1.3029,1.3029,0,0,1,.36.9546,1.4589,1.4589,0,0,1-.51,1.18A2.1021,2.1021,0,0,1,84.3132,301.0356Z"/><path class="cls-1" d="M365.7541,111.289l2.0284-2.0288a1.855,1.855,0,0,1,1.3115-.6192,2.0009,2.0009,0,0,1,1.666,1.1206,1.368,1.368,0,0,1,.1152.5127,1.1342,1.1342,0,0,1-.0771.4458,1.6856,1.6856,0,0,1-.1807.3428l.043.0425a1.4313,1.4313,0,0,1,.8877-.3433,1.627,1.627,0,0,1,.6045.1026,1.6941,1.6941,0,0,1,.6221.417,2.3092,2.3092,0,0,1,.47.6616,1.9443,1.9443,0,0,1,.1875.7178,1.7472,1.7472,0,0,1-.1026.7036,1.6674,1.6674,0,0,1-.3994.6186l-2.24,2.2412Zm2.7286,1.5415,1.3652-1.3648a1.1366,1.1366,0,0,0,.374-.728.911.911,0,0,0-.3115-.7075l-.24-.24a.9148.9148,0,0,0-.7071-.3111,1.1335,1.1335,0,0,0-.7285.3745l-1.3642,1.3648Zm2.2773,2.2768,1.4629-1.4633a1.2308,1.2308,0,0,0,.4062-.7954,1.0179,1.0179,0,0,0-.35-.7886l-.24-.2407a1.0212,1.0212,0,0,0-.7891-.35,1.23,1.23,0,0,0-.7949.4062l-1.4638,1.4634Z"/><path class="cls-1" d="M377.9006,109.0126a.782.782,0,0,1-.625.2862,1.19,1.19,0,0,1-.5976-.251l-.0352.0351a1.3424,1.3424,0,0,1,.1133.9053,1.7488,1.7488,0,0,1-.4883.8276,1.8062,1.8062,0,0,1-1.1992.604,1.4735,1.4735,0,0,1-1.127-.4843,1.3,1.3,0,0,1-.414-1.17,2.85,2.85,0,0,1,.9014-1.4532l.7216-.7212-.3613-.36a1.112,1.112,0,0,0-.8057-.3814,1.2761,1.2761,0,0,0-.8554.4454,1.3927,1.3927,0,0,0-.4073.7036,1.7347,1.7347,0,0,0,.0254.7671l-.6582.021a1.8322,1.8322,0,0,1-.0312-.979,2.1112,2.1112,0,0,1,.6113-1.0289,2.1361,2.1361,0,0,1,1.3574-.708,1.6126,1.6126,0,0,1,1.27.5352l2.0039,2.0039.4179-.4175.502.5025Zm-2.0215,1.23a2.0509,2.0509,0,0,0,.3389-.439,1.3408,1.3408,0,0,0,.1631-.4448,1.01,1.01,0,0,0-.0146-.4106.7252.7252,0,0,0-.19-.3326l-.6015-.601-.75.7495a1.9442,1.9442,0,0,0-.5684.852.6441.6441,0,0,0,.1875.6333l.1484.1485a.6963.6963,0,0,0,.6114.2221A1.1978,1.1978,0,0,0,375.8791,110.2431Z"/><path class="cls-1" d="M379.0256,107.8881l-3.6484-3.6489.5644-.5654.6719.6718.0362-.0356a1.556,1.556,0,0,1-.1133-.82,1.5321,1.5321,0,0,1,.4951-.9048l.2187-.2193.5664.566-.333.3325a1.81,1.81,0,0,0-.5439.89.7238.7238,0,0,0,.1758.6934l2.4756,2.4751Z"/><path class="cls-1" d="M382.4553,104.4589a.821.821,0,0,1-.6152.2827.8687.8687,0,0,1-.586-.2817l-2.5468-2.5469-.6016.6011-.5019-.502.34-.3393a.4658.4658,0,0,0,.1758-.3252.54.54,0,0,0-.19-.3252l-.68-.6792.51-.5093,1.0107,1.0112.7989-.7988.5019.502-.7988.7988,2.6445,2.6445.7432-.7427.502.5025Z"/><path class="cls-1" d="M378.8977,97.55l.5654-.5654,2.1719,2.1714.0274-.0283a1.6917,1.6917,0,0,1-.1114-.8687,1.5127,1.5127,0,0,1,.4727-.8359,1.62,1.62,0,0,1,1.2578-.5308,2.0946,2.0946,0,0,1,1.3574.7l2.3418,2.3408-.5664.5654-2.2461-2.2465q-.9843-.9852-1.8125-.1573a1.8031,1.8031,0,0,0-.2871.3716,1.3651,1.3651,0,0,0-.1582.4136.8484.8484,0,0,0,.248.8l2.5372,2.5371-.5645.5654Z"/><path class="cls-1" d="M389.6038,97.48a2.3,2.3,0,0,1-.8106.54,2.0473,2.0473,0,0,1-.9.1309,2.4937,2.4937,0,0,1-.9336-.2686A3.85,3.85,0,0,1,385.385,96.31a2.5054,2.5054,0,0,1-.2715-.937,2.0532,2.0532,0,0,1,.1309-.9014,2.3073,2.3073,0,0,1,.541-.81,2.2034,2.2034,0,0,1,.791-.5244,2.0683,2.0683,0,0,1,.8652-.1245,2.3467,2.3467,0,0,1,.875.2451,3.1369,3.1369,0,0,1,.8213.6021l.2676.2676-2.624,2.6235.17.17a1.7887,1.7887,0,0,0,.51.36,1.446,1.446,0,0,0,.5615.1382,1.38,1.38,0,0,0,.5732-.106,1.6575,1.6575,0,0,0,.5411-.3711,1.5726,1.5726,0,0,0,.4414-.7671,1.5123,1.5123,0,0,0-.0664-.8667l.6943-.1108a1.99,1.99,0,0,1,.0566,1.16A2.3545,2.3545,0,0,1,389.6038,97.48Zm-3.3448-3.3447a1.528,1.528,0,0,0-.3437.5049,1.36,1.36,0,0,0-.1006.5571,1.5173,1.5173,0,0,0,.1328.5635,1.7083,1.7083,0,0,0,.3613.5171l.0489.0488,2.0156-2.0152-.0781-.0771a1.5659,1.5659,0,0,0-1.0411-.5112A1.2791,1.2791,0,0,0,386.259,94.1352Z"/><path class="cls-1" d="M393.2092,93.8739a2.4015,2.4015,0,0,1-1.0468.6573,2.7376,2.7376,0,0,1-1.1094.0708l.0781-.729a2.236,2.236,0,0,0,.8867-.06,1.7455,1.7455,0,0,0,.7539-.4629,1.278,1.278,0,0,0,.4063-.7178.8.8,0,0,0-.7393-.8667,1.1945,1.1945,0,0,0-.707.29l-.333.2475a3.4031,3.4031,0,0,1-.5762.3575,1.8453,1.8453,0,0,1-.5684.1728,1.21,1.21,0,0,1-.5556-.06,1.4156,1.4156,0,0,1-.5264-.35,1.4866,1.4866,0,0,1-.3711-.5693,1.3369,1.3369,0,0,1-.0635-.6084,1.6989,1.6989,0,0,1,.212-.6152,2.7155,2.7155,0,0,1,.4492-.583,2.2847,2.2847,0,0,1,.9-.59,2.3828,2.3828,0,0,1,.959-.0957l-.0352.7139a1.5829,1.5829,0,0,0-1.3867.4951,1.1448,1.1448,0,0,0-.3809.686.7244.7244,0,0,0,.2324.5943.6126.6126,0,0,0,.57.208,1.8986,1.8986,0,0,0,.6953-.3428l.3261-.24a2.1394,2.1394,0,0,1,1.2129-.5127,1.3044,1.3044,0,0,1,.93.4209,1.4566,1.4566,0,0,1,.4727,1.1953A2.0993,2.0993,0,0,1,393.2092,93.8739Z"/><path class="cls-1" d="M58.0242,331.3988h-.05l-.59,1.17-1.67,3.04-1.67-3.04-.59-1.17h-.05v5.88h-.82v-6.98h1.12l2,3.76h.05l2.01-3.76h1.08v6.98h-.82Z"/><path class="cls-1" d="M62.5642,337.3988a2.3254,2.3254,0,0,1-.9551-.1894,2.0584,2.0584,0,0,1-.73-.5459,2.4973,2.4973,0,0,1-.47-.85,3.8427,3.8427,0,0,1,0-2.2246,2.4986,2.4986,0,0,1,.47-.8555,2.0664,2.0664,0,0,1,.73-.5449,2.3093,2.3093,0,0,1,.9551-.19,2.1984,2.1984,0,0,1,.93.1885,2.0729,2.0729,0,0,1,.7.5234,2.345,2.345,0,0,1,.4453.792,3.1381,3.1381,0,0,1,.1548,1.0069v.3789h-3.71v.24a1.7651,1.7651,0,0,0,.105.6143,1.4519,1.4519,0,0,0,.3.4951,1.368,1.368,0,0,0,.48.33,1.6489,1.6489,0,0,0,.645.12,1.5694,1.5694,0,0,0,.855-.2295,1.51,1.51,0,0,0,.5649-.66l.57.4121a1.9917,1.9917,0,0,1-.78.86A2.3534,2.3534,0,0,1,62.5642,337.3988Zm0-4.7294a1.5248,1.5248,0,0,0-.6.1142,1.3466,1.3466,0,0,0-.4648.3223,1.5252,1.5252,0,0,0-.3052.4922,1.707,1.707,0,0,0-.11.6211v.0693h2.85v-.1094a1.5692,1.5692,0,0,0-.375-1.0976A1.2787,1.2787,0,0,0,62.5642,332.6694Z"/><path class="cls-1" d="M66.9641,337.2787a.82.82,0,0,1-.6352-.2343.8488.8488,0,0,1-.2149-.5957v-6.5694h.8v6.69h.76v.71Z"/><path class="cls-1" d="M69.8738,337.2787l-1.81-5.16h.8l.9,2.56.56,1.76h.05l.5595-1.76.9205-2.56h.77l-1.82,5.16Z"/><path class="cls-1" d="M74.0535,330.9086a.4863.4863,0,0,1-.375-.125.46.46,0,0,1-.1153-.3242v-.1309a.46.46,0,0,1,.1153-.3242.625.625,0,0,1,.75,0,.46.46,0,0,1,.1152.3242v.1309a.46.46,0,0,1-.1152.3242A.4865.4865,0,0,1,74.0535,330.9086Zm-.4,1.21h.8v5.16h-.8Z"/><path class="cls-1" d="M77.0037,337.2787a.82.82,0,0,1-.6353-.2343.8491.8491,0,0,1-.2148-.5957v-6.5694h.8v6.69h.76v.71Z"/><path class="cls-1" d="M79.6736,337.2787a.82.82,0,0,1-.6353-.2343.8491.8491,0,0,1-.2148-.5957v-6.5694h.8v6.69h.76v.71Z"/><path class="cls-1" d="M83.4832,337.3988a2.325,2.325,0,0,1-.9551-.1894,2.0576,2.0576,0,0,1-.73-.5459,2.4957,2.4957,0,0,1-.47-.85,3.8405,3.8405,0,0,1,0-2.2246,2.4969,2.4969,0,0,1,.47-.8555,2.0655,2.0655,0,0,1,.73-.5449,2.309,2.309,0,0,1,.9551-.19,2.1979,2.1979,0,0,1,.93.1885,2.0709,2.0709,0,0,1,.7.5234,2.3433,2.3433,0,0,1,.4453.792,3.1354,3.1354,0,0,1,.1548,1.0069v.3789h-3.71v.24a1.7628,1.7628,0,0,0,.105.6143,1.4519,1.4519,0,0,0,.3.4951,1.3676,1.3676,0,0,0,.48.33,1.6494,1.6494,0,0,0,.6451.12,1.569,1.569,0,0,0,.8549-.2295,1.5091,1.5091,0,0,0,.565-.66l.57.4121a1.9926,1.9926,0,0,1-.78.86A2.3528,2.3528,0,0,1,83.4832,337.3988Zm0-4.7294a1.5241,1.5241,0,0,0-.6.1142,1.3479,1.3479,0,0,0-.4649.3223,1.527,1.527,0,0,0-.3052.4922,1.7091,1.7091,0,0,0-.11.6211v.0693h2.85v-.1094a1.5692,1.5692,0,0,0-.375-1.0976A1.2789,1.2789,0,0,0,83.4832,332.6694Z"/><path class="cls-1" d="M55.0442,373.7631a2.5255,2.5255,0,0,1-2.07-.9053,4.13,4.13,0,0,1-.74-2.665,4.3071,4.3071,0,0,1,.74-2.7051,2.481,2.481,0,0,1,2.07-.9453,2.4421,2.4421,0,0,1,2.4,1.5205l-.68.41a1.937,1.937,0,0,0-.64-.8653,1.7412,1.7412,0,0,0-1.08-.3252,1.83,1.83,0,0,0-.8052.1709,1.6636,1.6636,0,0,0-.6.4864,2.2863,2.2863,0,0,0-.375.7529,3.4335,3.4335,0,0,0-.13.9785v1.044a2.6072,2.6072,0,0,0,.5,1.6953,1.718,1.718,0,0,0,1.41.6123,1.7887,1.7887,0,0,0,1.12-.3448,1.9929,1.9929,0,0,0,.66-.915l.67.42a2.686,2.686,0,0,1-.95,1.16A2.6176,2.6176,0,0,1,55.0442,373.7631Z"/><path class="cls-1" d="M59.114,367.2729a.49.49,0,0,1-.375-.125.4607.4607,0,0,1-.1152-.3252v-.13a.4624.4624,0,0,1,.1152-.3252.625.625,0,0,1,.75,0,.4619.4619,0,0,1,.1152.3252v.13a.46.46,0,0,1-.1152.3252A.49.49,0,0,1,59.114,367.2729Zm-.4,1.21h.8v5.16h-.8Z"/><path class="cls-1" d="M60.574,373.643l1.91-2.6006-1.83-2.56h.94l1.31,1.92h.03l1.36-1.92h.89l-1.82,2.5,1.86,2.66h-.94l-1.34-2.02h-.03l-1.45,2.02Z"/><path class="cls-1" d="M66.6838,367.2729a.49.49,0,0,1-.375-.125.4607.4607,0,0,1-.1152-.3252v-.13a.4624.4624,0,0,1,.1152-.3252.625.625,0,0,1,.75,0,.462.462,0,0,1,.1153.3252v.13a.46.46,0,0,1-.1153.3252A.49.49,0,0,1,66.6838,367.2729Zm-.4,1.21h.8v5.16h-.8Z"/><path class="cls-1" d="M68.7839,373.643v-5.16h.8v.83h.04a1.6776,1.6776,0,0,1,.5351-.6924,1.51,1.51,0,0,1,.9248-.2578,1.6213,1.6213,0,0,1,1.2652.5147,2.0978,2.0978,0,0,1,.4648,1.455v3.3106h-.8v-3.1768q0-1.393-1.17-1.3935a1.8,1.8,0,0,0-.4653.06,1.3526,1.3526,0,0,0-.4048.18.9076.9076,0,0,0-.2852.3057.8753.8753,0,0,0-.105.4365v3.5879Z"/><path class="cls-1" d="M52.5842,410.0063v-6.98h.84v6.2392h2.97v.74Z"/><path class="cls-1" d="M59.3538,410.1264a2.3251,2.3251,0,0,1-.9551-.19,2.0564,2.0564,0,0,1-.73-.5459,2.4957,2.4957,0,0,1-.47-.85,3.8405,3.8405,0,0,1,0-2.2246,2.4978,2.4978,0,0,1,.47-.8555,2.0667,2.0667,0,0,1,.73-.5449,2.3105,2.3105,0,0,1,.9551-.1894,2.1979,2.1979,0,0,1,.93.1885,2.0683,2.0683,0,0,1,.7.5234,2.3432,2.3432,0,0,1,.4454.792,3.1375,3.1375,0,0,1,.1547,1.0068v.3789h-3.71v.24a1.7619,1.7619,0,0,0,.105.6142,1.451,1.451,0,0,0,.3.4951,1.3663,1.3663,0,0,0,.48.33,1.6476,1.6476,0,0,0,.6451.12,1.5682,1.5682,0,0,0,.8549-.23,1.5094,1.5094,0,0,0,.565-.66l.57.4121a1.9918,1.9918,0,0,1-.78.86A2.3528,2.3528,0,0,1,59.3538,410.1264Zm0-4.7295a1.5241,1.5241,0,0,0-.6.1143,1.3463,1.3463,0,0,0-.4649.3222,1.528,1.528,0,0,0-.3052.4922,1.7094,1.7094,0,0,0-.11.6211v.0693h2.85v-.1093a1.5693,1.5693,0,0,0-.375-1.0977A1.2789,1.2789,0,0,0,59.3538,405.3969Z"/><path class="cls-1" d="M62.9036,410.0063v-5.16h.8v.8311h.04a2.6547,2.6547,0,0,1,.2051-.3711,1.2688,1.2688,0,0,1,.28-.3028,1.295,1.295,0,0,1,.3852-.2021,1.62,1.62,0,0,1,.52-.0742,1.8764,1.8764,0,0,1,.94.2422,1.469,1.469,0,0,1,.64.7978h.02a1.5828,1.5828,0,0,1,.5249-.7285,1.6119,1.6119,0,0,1,1.045-.3115,1.5438,1.5438,0,0,1,1.2348.5146,2.157,2.157,0,0,1,.4453,1.4551v3.31h-.8V406.83a1.6882,1.6882,0,0,0-.27-1.042,1.0149,1.0149,0,0,0-.86-.3506,1.686,1.686,0,0,0-.4551.06,1.2338,1.2338,0,0,0-.3848.1807.87.87,0,0,0-.27.3056.9.9,0,0,0-.1.4356v3.5879h-.8V406.83a1.6915,1.6915,0,0,0-.27-1.042.9926.9926,0,0,0-.84-.3506,1.7411,1.7411,0,0,0-.46.06,1.2332,1.2332,0,0,0-.39.1807.931.931,0,0,0-.2749.3056.8694.8694,0,0,0-.1049.4356v3.5879Z"/><path class="cls-1" d="M54.9338,440.1293v6.24h-.84v-6.24h-2.22V439.39h5.28v.7392Z"/><path class="cls-1" d="M59.5237,446.49a2.3339,2.3339,0,0,1-.95-.19,2.0442,2.0442,0,0,1-.7349-.5459,2.5562,2.5562,0,0,1-.4751-.85,3.7259,3.7259,0,0,1,0-2.2246,2.5567,2.5567,0,0,1,.4751-.8555,2.0544,2.0544,0,0,1,.7349-.5449,2.3191,2.3191,0,0,1,.95-.1894,2.2885,2.2885,0,0,1,.9453.1894,2.1161,2.1161,0,0,1,.7349.5449,2.5144,2.5144,0,0,1,.48.8555,3.7238,3.7238,0,0,1,0,2.2246,2.5138,2.5138,0,0,1-.48.85,2.1053,2.1053,0,0,1-.7349.5459A2.3031,2.3031,0,0,1,59.5237,446.49Zm0-.71a1.45,1.45,0,0,0,1.06-.4,1.6315,1.6315,0,0,0,.41-1.22v-.74a1.6349,1.6349,0,0,0-.41-1.22,1.6058,1.6058,0,0,0-2.12,0,1.6353,1.6353,0,0,0-.41,1.22v.74a1.6319,1.6319,0,0,0,.41,1.22A1.4493,1.4493,0,0,0,59.5237,445.78Z"/><path class="cls-1" d="M64.0242,446.37a.82.82,0,0,1-.6353-.2344.849.849,0,0,1-.2148-.5957V438.97h.8v6.69h.76v.71Z"/><path class="cls-1" d="M65.8938,438.97h.8v4.69h.04l.79-.88,1.46-1.57h.97l-1.91,2.04,2.1,3.12h-.97l-1.71-2.63-.77.79v1.84h-.8Z"/><path class="cls-1" d="M71.5637,439.9994a.4865.4865,0,0,1-.375-.125.46.46,0,0,1-.1152-.3242v-.1308a.46.46,0,0,1,.1152-.3243.625.625,0,0,1,.75,0,.46.46,0,0,1,.1153.3243v.1308a.46.46,0,0,1-.1153.3242A.4863.4863,0,0,1,71.5637,439.9994Zm-.4,1.21h.8v5.16h-.8Z"/><path class="cls-1" d="M75.6038,446.49a2.3251,2.3251,0,0,1-.9551-.19,2.0564,2.0564,0,0,1-.73-.5459,2.4957,2.4957,0,0,1-.47-.85,3.8405,3.8405,0,0,1,0-2.2246,2.4969,2.4969,0,0,1,.47-.8555,2.0667,2.0667,0,0,1,.73-.5449,2.3105,2.3105,0,0,1,.9551-.1894,2.1994,2.1994,0,0,1,.93.1884,2.07,2.07,0,0,1,.7.5235,2.3432,2.3432,0,0,1,.4454.792,3.1375,3.1375,0,0,1,.1547,1.0068v.3789h-3.71v.24a1.7624,1.7624,0,0,0,.105.6143,1.451,1.451,0,0,0,.3.4951,1.3676,1.3676,0,0,0,.48.33,1.6476,1.6476,0,0,0,.6451.12,1.569,1.569,0,0,0,.8549-.2295,1.5094,1.5094,0,0,0,.565-.66l.57.4121a1.9929,1.9929,0,0,1-.78.86A2.3528,2.3528,0,0,1,75.6038,446.49Zm0-4.73a1.5259,1.5259,0,0,0-.6.1142,1.3479,1.3479,0,0,0-.4649.3223,1.527,1.527,0,0,0-.3052.4922,1.7091,1.7091,0,0,0-.11.6211v.0693h2.85V443.27a1.5692,1.5692,0,0,0-.375-1.0976A1.2789,1.2789,0,0,0,75.6038,441.76Z"/><path class="cls-1" d="M79.1536,446.37v-5.16h.8v.8311h.04a1.6869,1.6869,0,0,1,.5352-.6934,1.5151,1.5151,0,0,1,.9248-.2568,1.618,1.618,0,0,1,1.2651.5146,2.0958,2.0958,0,0,1,.4648,1.4551v3.31h-.8v-3.1768q0-1.393-1.17-1.3926a1.7963,1.7963,0,0,0-.4653.06,1.352,1.352,0,0,0-.4048.1807.89.89,0,0,0-.2852.3056.8694.8694,0,0,0-.1049.4356V446.37Z"/><path class="cls-1" d="M53.554,482.7338l-1.7-6.98h.89l.75,3.36.58,2.61h.02l.65-2.61.88-3.36h.96l.85,3.36.65,2.6h.03l.6-2.6.79-3.36h.86l-1.79,6.98h-.93l-.91-3.48-.64-2.56h-.02l-.66,2.56-.93,3.48Z"/><path class="cls-1" d="M63.2141,482.8539a2.3178,2.3178,0,0,1-.95-.19,2.0553,2.0553,0,0,1-.7349-.5449,2.5582,2.5582,0,0,1-.4751-.85,3.7292,3.7292,0,0,1,0-2.2256,2.5518,2.5518,0,0,1,.4751-.8545,2.031,2.031,0,0,1,.7349-.5449,2.3178,2.3178,0,0,1,.95-.19,2.2873,2.2873,0,0,1,.9453.19,2.09,2.09,0,0,1,.7349.5449,2.5115,2.5115,0,0,1,.48.8545,3.7292,3.7292,0,0,1,0,2.2256,2.5176,2.5176,0,0,1-.48.85,2.1161,2.1161,0,0,1-.7349.5449A2.2873,2.2873,0,0,1,63.2141,482.8539Zm0-.71a1.4546,1.4546,0,0,0,1.06-.4,1.6337,1.6337,0,0,0,.41-1.22v-.74a1.6335,1.6335,0,0,0-.41-1.22,1.6029,1.6029,0,0,0-2.12,0,1.6335,1.6335,0,0,0-.41,1.22v.74a1.6337,1.6337,0,0,0,.41,1.22A1.4534,1.4534,0,0,0,63.2141,482.144Z"/><path class="cls-1" d="M67.7146,482.7338a.8168.8168,0,0,1-.6353-.2353.845.845,0,0,1-.2148-.5948v-6.57h.8v6.69h.76v.71Z"/><path class="cls-1" d="M69.864,478.2836h-.84v-.71h.84v-1.04a1.2966,1.2966,0,0,1,.28-.87,1.0529,1.0529,0,0,1,.85-.33h.78v.71h-1.11v1.53h1.11v.71h-1.11v4.45h-.8Z"/><path class="cls-1" d="M74.7239,482.8539a2.31,2.31,0,0,1-.9551-.19,2.0667,2.0667,0,0,1-.73-.5449,2.4992,2.4992,0,0,1-.47-.85,3.8439,3.8439,0,0,1,0-2.2256,2.4937,2.4937,0,0,1,.47-.8545,2.042,2.042,0,0,1,.73-.5449,2.31,2.31,0,0,1,.9551-.19,2.1978,2.1978,0,0,1,.93.1895,2.0593,2.0593,0,0,1,.7.5234,2.3354,2.3354,0,0,1,.4453.792,3.1338,3.1338,0,0,1,.1548,1.0069v.3779h-3.71v.24a1.7725,1.7725,0,0,0,.105.6153,1.4713,1.4713,0,0,0,.3.4951,1.3787,1.3787,0,0,0,.48.33,1.6467,1.6467,0,0,0,.645.12,1.57,1.57,0,0,0,.855-.2305,1.504,1.504,0,0,0,.5649-.66l.57.4131a1.992,1.992,0,0,1-.78.86A2.3528,2.3528,0,0,1,74.7239,482.8539Zm0-4.73a1.5248,1.5248,0,0,0-.6.1142,1.35,1.35,0,0,0-.4649.3233,1.5044,1.5044,0,0,0-.3051.4921,1.7,1.7,0,0,0-.11.6211v.0694h2.85v-.1094a1.5679,1.5679,0,0,0-.375-1.0977A1.28,1.28,0,0,0,74.7239,478.1235Z"/><path class="cls-1" d="M52.5842,519.0971v-6.9795h.84v6.2393h2.97v.74Z"/><path class="cls-1" d="M57.9138,512.727a.4865.4865,0,0,1-.375-.125.46.46,0,0,1-.1152-.3242v-.1309a.46.46,0,0,1,.1152-.3242.625.625,0,0,1,.75,0,.4594.4594,0,0,1,.1152.3242v.1309a.4594.4594,0,0,1-.1152.3242A.4863.4863,0,0,1,57.9138,512.727Zm-.4,1.21h.8v5.16h-.8Z"/><path class="cls-1" d="M63.3137,518.267h-.04a1.5744,1.5744,0,0,1-1.51.95,1.97,1.97,0,0,1-.87-.1894,1.8928,1.8928,0,0,1-.665-.54,2.4685,2.4685,0,0,1-.42-.8506,4.3988,4.3988,0,0,1,0-2.24,2.4724,2.4724,0,0,1,.42-.85,1.8928,1.8928,0,0,1,.665-.54,1.9567,1.9567,0,0,1,.87-.1894,1.7536,1.7536,0,0,1,.9248.2324,1.4508,1.4508,0,0,1,.585.7178h.04v-3.07h.8v7.3994h-.8Zm-1.33.24a1.8588,1.8588,0,0,0,.5152-.07,1.2782,1.2782,0,0,0,.4248-.206,1.003,1.003,0,0,0,.2851-.3311.9316.9316,0,0,0,.105-.4482v-1.93a.79.79,0,0,0-.105-.3965.9836.9836,0,0,0-.2851-.3164,1.4269,1.4269,0,0,0-.4248-.206,1.7254,1.7254,0,0,0-.5152-.0752,1.3747,1.3747,0,0,0-1.07.4267,1.5992,1.5992,0,0,0-.39,1.1211v.8838a1.5992,1.5992,0,0,0,.39,1.1211A1.3777,1.3777,0,0,0,61.9836,518.5072Z"/><path class="cls-1" d="M66.6638,519.0971a.8192.8192,0,0,1-.6352-.2344.8486.8486,0,0,1-.2149-.5957v-6.5693h.8v6.6894h.76v.71Z"/><path class="cls-1" d="M71.8132,519.0971h-.84v-6.9795h2.78a1.9509,1.9509,0,0,1,1.435.51,1.9781,1.9781,0,0,1,.5152,1.47,2.1221,2.1221,0,0,1-.355,1.2656,1.7,1.7,0,0,1-1.0454.6543l1.6,3.08h-.95l-1.51-3h-1.63Zm1.94-3.72a1.0849,1.0849,0,0,0,.7749-.26.9691.9691,0,0,0,.2749-.74v-.52a.967.967,0,0,0-.2749-.7393,1.0813,1.0813,0,0,0-.7749-.2607h-1.94v2.52Z"/><path class="cls-1" d="M79.0832,519.2172a2.3265,2.3265,0,0,1-.955-.1894,2.0576,2.0576,0,0,1-.73-.5459,2.4971,2.4971,0,0,1-.47-.85,3.8405,3.8405,0,0,1,0-2.2246,2.4973,2.4973,0,0,1,.47-.8554,2.0658,2.0658,0,0,1,.73-.545,2.31,2.31,0,0,1,.955-.1894,2.1981,2.1981,0,0,1,.93.1885,2.07,2.07,0,0,1,.7.5234,2.3423,2.3423,0,0,1,.4453.792,3.1352,3.1352,0,0,1,.1548,1.0068v.3789h-3.71v.24a1.7641,1.7641,0,0,0,.1049.6142,1.4532,1.4532,0,0,0,.3.4952,1.366,1.366,0,0,0,.48.33,1.6476,1.6476,0,0,0,.6451.12,1.569,1.569,0,0,0,.8549-.2294,1.51,1.51,0,0,0,.565-.66l.57.4121a1.9926,1.9926,0,0,1-.78.86A2.3538,2.3538,0,0,1,79.0832,519.2172Zm0-4.73a1.524,1.524,0,0,0-.6.1143,1.3477,1.3477,0,0,0-.4649.3222,1.5291,1.5291,0,0,0-.3052.4922,1.7094,1.7094,0,0,0-.11.6211v.0694h2.85v-.1094a1.5694,1.5694,0,0,0-.375-1.0977A1.2789,1.2789,0,0,0,79.0832,514.4877Z"/><path class="cls-1" d="M84.553,519.2172a2.39,2.39,0,0,1-.97-.1894,1.9791,1.9791,0,0,1-.7246-.54,2.405,2.405,0,0,1-.45-.8506,4.13,4.13,0,0,1,0-2.24,2.4089,2.4089,0,0,1,.45-.85,1.9791,1.9791,0,0,1,.7246-.54,2.3732,2.3732,0,0,1,.97-.1894,2.0656,2.0656,0,0,1,1.2348.335,2.0406,2.0406,0,0,1,.6954.875l-.67.34a1.2128,1.2128,0,0,0-.46-.62,1.3808,1.3808,0,0,0-.8-.22,1.6039,1.6039,0,0,0-.63.1142,1.2364,1.2364,0,0,0-.45.32,1.3427,1.3427,0,0,0-.27.49,2.0613,2.0613,0,0,0-.09.625v.88a1.6774,1.6774,0,0,0,.3648,1.1153,1.3238,1.3238,0,0,0,1.0752.4345,1.4508,1.4508,0,0,0,1.4-.9l.58.3906a2.0472,2.0472,0,0,1-.7452.89A2.1806,2.1806,0,0,1,84.553,519.2172Z"/><path class="cls-1" d="M89.5427,519.2172a2.327,2.327,0,0,1-.9551-.1894,2.0572,2.0572,0,0,1-.73-.5459,2.4973,2.4973,0,0,1-.47-.85,3.8427,3.8427,0,0,1,0-2.2246,2.4975,2.4975,0,0,1,.47-.8554,2.0654,2.0654,0,0,1,.73-.545,2.3109,2.3109,0,0,1,.9551-.1894,2.1981,2.1981,0,0,1,.93.1885,2.0716,2.0716,0,0,1,.7.5234,2.3423,2.3423,0,0,1,.4453.792,3.138,3.138,0,0,1,.1548,1.0068v.3789h-3.71v.24a1.7642,1.7642,0,0,0,.105.6142,1.4514,1.4514,0,0,0,.3.4952,1.3673,1.3673,0,0,0,.48.33,1.6471,1.6471,0,0,0,.645.12,1.5693,1.5693,0,0,0,.855-.2294,1.51,1.51,0,0,0,.5649-.66l.57.4121a1.9926,1.9926,0,0,1-.78.86A2.354,2.354,0,0,1,89.5427,519.2172Zm0-4.73a1.5248,1.5248,0,0,0-.6.1143,1.3473,1.3473,0,0,0-.4648.3222,1.5274,1.5274,0,0,0-.3052.4922,1.71,1.71,0,0,0-.11.6211v.0694h2.85v-.1094a1.5694,1.5694,0,0,0-.375-1.0977A1.2787,1.2787,0,0,0,89.5427,514.4877Z"/><path class="cls-1" d="M93.4924,512.727a.4865.4865,0,0,1-.375-.125.46.46,0,0,1-.1152-.3242v-.1309a.46.46,0,0,1,.1152-.3242.625.625,0,0,1,.75,0,.46.46,0,0,1,.1153.3242v.1309a.46.46,0,0,1-.1153.3242A.4863.4863,0,0,1,93.4924,512.727Zm-.4,1.21h.8v5.16h-.8Z"/><path class="cls-1" d="M95.5925,513.9369h.8v.8311h.04a1.4512,1.4512,0,0,1,.5849-.7178,1.7547,1.7547,0,0,1,.9253-.2324,1.9553,1.9553,0,0,1,.87.1894,1.8892,1.8892,0,0,1,.665.54,2.4722,2.4722,0,0,1,.42.85,4.3988,4.3988,0,0,1,0,2.24,2.4684,2.4684,0,0,1-.42.8506,1.8892,1.8892,0,0,1-.665.54,1.969,1.969,0,0,1-.87.1894,1.5623,1.5623,0,0,1-1.51-.95h-.04v2.83h-.8Zm2.13,4.57a1.3776,1.3776,0,0,0,1.07-.4267,1.597,1.597,0,0,0,.39-1.1211v-.8838a1.597,1.597,0,0,0-.39-1.1211,1.3745,1.3745,0,0,0-1.07-.4267,1.7242,1.7242,0,0,0-.5151.0752,1.4328,1.4328,0,0,0-.4248.206.99.99,0,0,0-.2852.3164.7953.7953,0,0,0-.105.3965v1.93a.9374.9374,0,0,0,.105.4482,1.0091,1.0091,0,0,0,.2852.3311,1.283,1.283,0,0,0,.4248.206A1.8576,1.8576,0,0,0,97.7224,518.5072Z"/><path class="cls-1" d="M102.4724,519.0971a.8185.8185,0,0,1-.6352-.2344.87.87,0,0,1-.2149-.6133v-3.6025h-.85v-.71h.48a.4689.4689,0,0,0,.355-.1045.5444.5444,0,0,0,.0952-.3652v-.96h.72v1.43h1.13v.71h-1.13v3.74h1.05v.71Z"/><path class="cls-1" d="M57.1042,554.4506h-.03a1.38,1.38,0,0,1-.6348.8086,2.3914,2.3914,0,0,1-1.3052.3223,2.8783,2.8783,0,0,1-1.1748-.2364,2.4591,2.4591,0,0,1-.915-.6894,3.3,3.3,0,0,1-.5952-1.13,5.118,5.118,0,0,1-.2149-1.5557,5.2078,5.2078,0,0,1,.21-1.5449,3.1424,3.1424,0,0,1,.6-1.1289,2.58,2.58,0,0,1,.94-.6953,3.0156,3.0156,0,0,1,1.22-.24,2.7978,2.7978,0,0,1,1.57.415,2.76,2.76,0,0,1,.97,1.1045l-.69.42a1.9163,1.9163,0,0,0-1.85-1.1992,2.0652,2.0652,0,0,0-.84.166,1.8974,1.8974,0,0,0-.6548.4658,2.1112,2.1112,0,0,0-.4253.7227,2.799,2.799,0,0,0-.15.9433v1.1338a2.8511,2.8511,0,0,0,.15.9493,2.0923,2.0923,0,0,0,.4253.7265,1.8581,1.8581,0,0,0,.6748.4668,2.3319,2.3319,0,0,0,.9.166,2.4234,2.4234,0,0,0,.6851-.0957,1.69,1.69,0,0,0,.57-.2861,1.3444,1.3444,0,0,0,.3853-.4775,1.529,1.529,0,0,0,.14-.6778v-.6933h-1.54v-.74h2.36v3.59h-.78Z"/><path class="cls-1" d="M62.6335,554.63H62.594a2.47,2.47,0,0,1-.1953.3516,1.2927,1.2927,0,0,1-.6948.5195,1.7923,1.7923,0,0,1-.56.08,1.6332,1.6332,0,0,1-1.27-.5157,2.081,2.081,0,0,1-.47-1.455V550.3h.8v3.1778q0,1.3931,1.18,1.3925a1.7564,1.7564,0,0,0,.4654-.0605,1.2651,1.2651,0,0,0,.4-.18.9033.9033,0,0,0,.28-.3057.89.89,0,0,0,.1049-.4463V550.3h.8v5.16h-.8Z"/><path class="cls-1" d="M68.884,555.46a.7841.7841,0,0,1-.645-.24,1.1836,1.1836,0,0,1-.2451-.6h-.05a1.3391,1.3391,0,0,1-.56.7207,1.7393,1.7393,0,0,1-.93.24,1.812,1.812,0,0,1-1.2749-.42,1.4779,1.4779,0,0,1-.4551-1.1406,1.3027,1.3027,0,0,1,.5351-1.12,2.8472,2.8472,0,0,1,1.6651-.39h1.02v-.51a1.1135,1.1135,0,0,0-.3-.84,1.2791,1.2791,0,0,0-.92-.291,1.3812,1.3812,0,0,0-.7852.211,1.7167,1.7167,0,0,0-.5249.5595l-.48-.45a1.8323,1.8323,0,0,1,.67-.7148,2.1047,2.1047,0,0,1,1.16-.2949,2.13,2.13,0,0,1,1.46.459,1.6135,1.6135,0,0,1,.52,1.2773v2.834h.59v.709Zm-2.3-.56a2.07,2.07,0,0,0,.55-.0693,1.3247,1.3247,0,0,0,.43-.2012.9833.9833,0,0,0,.28-.2988.7221.7221,0,0,0,.1-.3711v-.85h-1.06a1.9293,1.9293,0,0,0-1.0049.2.6462.6462,0,0,0-.3154.58v.21a.6988.6988,0,0,0,.2754.59A1.1923,1.1923,0,0,0,66.5837,554.9008Z"/><path class="cls-1" d="M70.4739,555.46V550.3h.8v.9512h.05a1.5528,1.5528,0,0,1,.5-.66,1.5351,1.5351,0,0,1,.99-.291h.31v.8008h-.47a1.8159,1.8159,0,0,0-1.0147.2441.7242.7242,0,0,0-.3652.6153v3.5Z"/><path class="cls-1" d="M77.3835,554.63h-.04a1.5752,1.5752,0,0,1-1.51.9512,1.97,1.97,0,0,1-.87-.1905,1.8923,1.8923,0,0,1-.665-.54,2.47,2.47,0,0,1-.42-.85,4.3959,4.3959,0,0,1,0-2.24,2.4541,2.4541,0,0,1,.42-.85,1.8864,1.8864,0,0,1,.665-.541,1.957,1.957,0,0,1,.87-.1894,1.7629,1.7629,0,0,1,.9248.2324,1.4508,1.4508,0,0,1,.585.7178h.04v-3.07h.8V555.46h-.8Zm-1.33.24a1.8586,1.8586,0,0,0,.5151-.07,1.2964,1.2964,0,0,0,.4248-.2051,1.0065,1.0065,0,0,0,.2852-.332.931.931,0,0,0,.1049-.4473v-1.93a.7935.7935,0,0,0-.1049-.3975.9851.9851,0,0,0-.2852-.3164,1.4515,1.4515,0,0,0-.4248-.2061,1.7284,1.7284,0,0,0-.5151-.0752,1.3745,1.3745,0,0,0-1.07.4268,1.6,1.6,0,0,0-.39,1.1211v.8848a1.5971,1.5971,0,0,0,.39,1.12A1.3778,1.3778,0,0,0,76.0535,554.8705Z"/><path class="cls-1" d="M80.2834,549.0912a.49.49,0,0,1-.375-.125.4624.4624,0,0,1-.1152-.3252v-.13a.4607.4607,0,0,1,.1152-.3252.625.625,0,0,1,.75,0,.46.46,0,0,1,.1153.3252v.13a.462.462,0,0,1-.1153.3252A.49.49,0,0,1,80.2834,549.0912Zm-.4,1.209h.8v5.16h-.8Z"/><path class="cls-1" d="M86.1335,555.46a.7841.7841,0,0,1-.645-.24,1.1836,1.1836,0,0,1-.2451-.6h-.05a1.3391,1.3391,0,0,1-.56.7207,1.7393,1.7393,0,0,1-.93.24,1.812,1.812,0,0,1-1.2749-.42,1.4779,1.4779,0,0,1-.4551-1.1406,1.3027,1.3027,0,0,1,.5351-1.12,2.8472,2.8472,0,0,1,1.6651-.39h1.02v-.51a1.1135,1.1135,0,0,0-.3-.84,1.279,1.279,0,0,0-.92-.291,1.3812,1.3812,0,0,0-.7852.211,1.7167,1.7167,0,0,0-.5249.5595l-.48-.45a1.8323,1.8323,0,0,1,.67-.7148,2.1047,2.1047,0,0,1,1.16-.2949,2.13,2.13,0,0,1,1.46.459,1.6135,1.6135,0,0,1,.52,1.2773v2.834h.59v.709Zm-2.3-.56a2.07,2.07,0,0,0,.55-.0693,1.3247,1.3247,0,0,0,.43-.2012.9833.9833,0,0,0,.28-.2988.7221.7221,0,0,0,.1-.3711v-.85h-1.06a1.9287,1.9287,0,0,0-1.0048.2.6461.6461,0,0,0-.3155.58v.21a.6988.6988,0,0,0,.2754.59A1.1923,1.1923,0,0,0,83.8332,554.9008Z"/><path class="cls-1" d="M87.7234,555.46V550.3h.8v.8311h.04a1.6772,1.6772,0,0,1,.5352-.6924,1.509,1.509,0,0,1,.9248-.2578,1.6212,1.6212,0,0,1,1.2651.5146,2.0976,2.0976,0,0,1,.4649,1.4551v3.31h-.8v-3.1758q0-1.3945-1.17-1.3936a1.84,1.84,0,0,0-.4653.06,1.3774,1.3774,0,0,0-.4048.1807.907.907,0,0,0-.2851.3056.8711.8711,0,0,0-.105.4356V555.46Z"/><path class="cls-1" d="M425.1,108.22l-.0362.0356.4112,1.2446.9677,3.3306-3.33-.9688-1.2441-.41-.0352.0351,4.1573,4.1578-.5791.58-4.9356-4.9355.791-.7915,4.0723,1.2446.0361-.0356-1.2373-4.08.7637-.7637,4.9356,4.9356-.58.58Z"/><path class="cls-1" d="M432.552,109.2524a2.32,2.32,0,0,1-.8086.541,2.0684,2.0684,0,0,1-.9023.13,2.5051,2.5051,0,0,1-.9336-.2681,3.8454,3.8454,0,0,1-1.5723-1.5733,2.4881,2.4881,0,0,1-.2725-.937,2.0686,2.0686,0,0,1,.13-.9018,2.326,2.326,0,0,1,.541-.81,2.2138,2.2138,0,0,1,.792-.5239,2.0634,2.0634,0,0,1,.8653-.125,2.3184,2.3184,0,0,1,.874.2456,3.1148,3.1148,0,0,1,.8223.602l.2675.2676-2.623,2.6235.17.17a1.7527,1.7527,0,0,0,.5078.36,1.4607,1.4607,0,0,0,.5625.1382,1.3713,1.3713,0,0,0,.5723-.106,1.6363,1.6363,0,0,0,.541-.371,1.5674,1.5674,0,0,0,.4424-.7671,1.5031,1.5031,0,0,0-.0674-.8667l.6953-.1114a1.9974,1.9974,0,0,1,.0567,1.16A2.3547,2.3547,0,0,1,432.552,109.2524Zm-3.3438-3.3443a1.53,1.53,0,0,0-.3437.5049,1.3451,1.3451,0,0,0-.1006.5567,1.5172,1.5172,0,0,0,.1318.5639,1.7111,1.7111,0,0,0,.3624.5171l.0488.0488,2.0146-2.0151-.0761-.0772a1.5725,1.5725,0,0,0-1.042-.5112A1.2782,1.2782,0,0,0,429.2082,105.9081Z"/><path class="cls-1" d="M435.5793,106.0561a.82.82,0,0,1-.6152.2832.8461.8461,0,0,1-.5732-.2691l-4.6455-4.6455.5654-.5654,4.7305,4.73.538-.5376.502.5019Z"/><path class="cls-1" d="M437.636,103.9985l-4.9278-2.3682.5655-.5659,2.4463,1.1738,1.6406.8486.0351-.0356-.8486-1.64-1.1592-2.461.545-.5444,2.3613,4.9355Z"/><path class="cls-1" d="M436.0872,96.539a.4891.4891,0,0,1-.3536.1767.4573.4573,0,0,1-.3105-.1484l-.0918-.0923a.4538.4538,0,0,1-.1484-.31.6224.6224,0,0,1,.5293-.53.4586.4586,0,0,1,.3115.148l.0928.0922a.4583.4583,0,0,1,.1474.3111A.4862.4862,0,0,1,436.0872,96.539Zm.5732,1.1387.5654-.566,3.6485,3.6485-.5655.5659Z"/><path class="cls-1" d="M442.678,98.957a.8193.8193,0,0,1-.6153.2832.8485.8485,0,0,1-.5732-.2691l-4.6445-4.6455.5644-.5654,4.7305,4.73.5381-.5376.5019.502Z"/><path class="cls-1" d="M444.5657,97.0693a.818.818,0,0,1-.6153.2832.8443.8443,0,0,1-.5722-.2691l-4.6465-4.6455.5664-.5654,4.7305,4.73.5371-.5376.5019.5019Z"/><path class="cls-1" d="M447.345,94.46a2.3181,2.3181,0,0,1-.8106.541,2.0576,2.0576,0,0,1-.9013.13,2.4857,2.4857,0,0,1-.9327-.2681,3.8513,3.8513,0,0,1-1.5742-1.5732,2.5054,2.5054,0,0,1-.2715-.9371,2.056,2.056,0,0,1,.1309-.9018,2.3109,2.3109,0,0,1,.541-.81,2.1933,2.1933,0,0,1,.791-.5239,2.0687,2.0687,0,0,1,.8653-.1245,2.3416,2.3416,0,0,1,.875.2451,3.1175,3.1175,0,0,1,.82.6025l.2675.2676-2.623,2.6231.17.17a1.7864,1.7864,0,0,0,.51.36,1.46,1.46,0,0,0,.5615.1382,1.3788,1.3788,0,0,0,.5733-.1059,1.66,1.66,0,0,0,.541-.3711,1.5731,1.5731,0,0,0,.4414-.7671,1.5023,1.5023,0,0,0-.0674-.8662l.6953-.1114a1.9805,1.9805,0,0,1,.0557,1.16A2.3439,2.3439,0,0,1,447.345,94.46ZM444,91.1161a1.53,1.53,0,0,0-.3437.5049,1.3581,1.3581,0,0,0-.1006.5567,1.5188,1.5188,0,0,0,.1328.5639,1.7071,1.7071,0,0,0,.3613.5171l.0489.0488,2.0156-2.0151-.0781-.0771a1.5659,1.5659,0,0,0-1.041-.5113A1.28,1.28,0,0,0,444,91.1161Z"/><path class="cls-1" d="M481.9563,114.57a2.5259,2.5259,0,0,1-2.1045.8238,4.1285,4.1285,0,0,1-2.4062-1.3614,4.3118,4.3118,0,0,1-1.3907-2.4355,2.4829,2.4829,0,0,1,.7959-2.1323,2.4415,2.4415,0,0,1,2.7725-.6226l-.1914.771a1.9384,1.9384,0,0,0-1.0645-.1592,1.7428,1.7428,0,0,0-.9931.5342,1.8269,1.8269,0,0,0-.4483.69,1.6524,1.6524,0,0,0-.08.7686,2.29,2.29,0,0,0,.2666.7974,3.44,3.44,0,0,0,.6006.7837l.7373.7377a2.6081,2.6081,0,0,0,1.5528.8458,1.7174,1.7174,0,0,0,1.43-.5645,1.785,1.785,0,0,0,.5478-1.0356,1.9774,1.9774,0,0,0-.18-1.1138l.7705-.1768a2.6863,2.6863,0,0,1,.1494,1.4917A2.6228,2.6228,0,0,1,481.9563,114.57Z"/><path class="cls-1" d="M480.2444,107.103a.4874.4874,0,0,1-.3535.1767.4588.4588,0,0,1-.3106-.1479l-.0918-.0923a.46.46,0,0,1-.1484-.3111.6246.6246,0,0,1,.53-.53.4626.4626,0,0,1,.3115.1479l.0918.0923a.4646.4646,0,0,1,.1484.311A.4918.4918,0,0,1,480.2444,107.103Zm.5742,1.1386.5645-.5654,3.6484,3.6484-.5645.5655Z"/><path class="cls-1" d="M485.7815,110.5751l-.4873-3.1894L482.19,106.87l.6641-.6645,2.2851.4307.0205-.021-.3955-2.3194.6289-.6289.48,3.0542,3.1963.5659-.6651.6646-2.375-.481-.0214.0215.4023,2.4536Z"/><path class="cls-1" d="M485.5979,101.75a.4885.4885,0,0,1-.3535.1768.46.46,0,0,1-.3115-.148l-.0928-.0923a.4619.4619,0,0,1-.1475-.311.6252.6252,0,0,1,.53-.53.4583.4583,0,0,1,.31.148l.0928.0923a.4547.4547,0,0,1,.1475.311A.4846.4846,0,0,1,485.5979,101.75Zm.5723,1.1387.5664-.5654,3.6484,3.6484-.5664.5654Z"/><path class="cls-1" d="M491.5872,104.77l-3.6485-3.6485.5654-.5654.587.5869.0283-.0283a1.6887,1.6887,0,0,1-.1113-.8682,1.5094,1.5094,0,0,1,.4716-.8359,1.62,1.62,0,0,1,1.2588-.53,2.0964,2.0964,0,0,1,1.3574.7l2.34,2.34-.5645.5655-2.2461-2.2461q-.9858-.9852-1.8125-.1582a1.8067,1.8067,0,0,0-.2871.3715,1.3172,1.3172,0,0,0-.1582.4136.9021.9021,0,0,0,.0137.418.889.889,0,0,0,.2344.3823l2.5371,2.5371Z"/><path class="cls-1" d="M534.8538,116.2245l-4.9356-4.9355.5938-.5938,4.4121,4.4121,2.1-2.1.5234.5235Z"/><path class="cls-1" d="M539.7249,111.5229a2.3016,2.3016,0,0,1-.8106.54,2.0488,2.0488,0,0,1-.9.1309,2.4955,2.4955,0,0,1-.9336-.2686,3.5048,3.5048,0,0,1-.9043-.6724,3.5437,3.5437,0,0,1-.67-.9008,2.5241,2.5241,0,0,1-.2715-.937,2.0515,2.0515,0,0,1,.1309-.9014,2.32,2.32,0,0,1,.541-.81,2.2206,2.2206,0,0,1,.791-.5244,2.0706,2.0706,0,0,1,.8652-.1245,2.34,2.34,0,0,1,.875.2451,3.1314,3.1314,0,0,1,.82.6025l.2675.2676-2.623,2.6231.17.17a1.7864,1.7864,0,0,0,.51.36,1.4429,1.4429,0,0,0,.5625.1382,1.3736,1.3736,0,0,0,.5722-.1059,1.65,1.65,0,0,0,.5411-.3711,1.5649,1.5649,0,0,0,.4414-.7671,1.51,1.51,0,0,0-.0664-.8662l.6953-.1114a1.9989,1.9989,0,0,1,.0566,1.16A2.3577,2.3577,0,0,1,539.7249,111.5229Zm-3.3438-3.3448a1.5,1.5,0,0,0-.3437.5049,1.3452,1.3452,0,0,0-.1016.5572,1.5361,1.5361,0,0,0,.1328.5634,1.7231,1.7231,0,0,0,.3613.5171l.0489.0489,2.0156-2.0152-.0781-.0771a1.5661,1.5661,0,0,0-1.0411-.5113A1.2763,1.2763,0,0,0,536.3811,108.1781Z"/><path class="cls-1" d="M542.1506,108.9277l-3.6484-3.649.5644-.5654.5879.5874.0274-.0283a2.6469,2.6469,0,0,1-.1172-.4077,1.2639,1.2639,0,0,1-.0156-.4112,1.3133,1.3133,0,0,1,.1289-.416,1.6035,1.6035,0,0,1,.3164-.42,1.87,1.87,0,0,1,.8359-.4932,1.467,1.467,0,0,1,1.0156.1114l.0137-.0142a1.5864,1.5864,0,0,1-.1426-.8862,1.6088,1.6088,0,0,1,.5176-.96,1.5479,1.5479,0,0,1,1.2383-.5093,2.1588,2.1588,0,0,1,1.3437.7139l2.34,2.3408-.5664.5659-2.2461-2.2466a1.6929,1.6929,0,0,0-.9277-.5463,1.0155,1.0155,0,0,0-.8555.36,1.6573,1.6573,0,0,0-.2793.3648,1.2056,1.2056,0,0,0-.1445.3994.8949.8949,0,0,0,.0234.4067.9241.9241,0,0,0,.2383.3794l2.5371,2.5371-.5645.5654-2.248-2.2465a1.689,1.689,0,0,0-.9277-.5464.9955.9955,0,0,0-.8418.3467,1.7528,1.7528,0,0,0-.2832.3676,1.2564,1.2564,0,0,0-.1485.4034.9421.9421,0,0,0,.0215.41.8928.8928,0,0,0,.2344.3828l2.5371,2.5371Z"/><path class="cls-1" d="M586.8235,110.15l4.4121,4.4126-.5938.5938-4.4121-4.4126-1.5693,1.5693-.5225-.5229,3.7325-3.733.5234.523Z"/><path class="cls-1" d="M594.5666,111.4023a2.3185,2.3185,0,0,1-.8056.5366,2.0429,2.0429,0,0,1-.9053.1343,2.5555,2.5555,0,0,1-.9365-.2652,3.7066,3.7066,0,0,1-1.5742-1.5732,2.557,2.557,0,0,1-.2676-.94,2.032,2.032,0,0,1,.1338-.9048,2.4584,2.4584,0,0,1,1.34-1.34,2.1018,2.1018,0,0,1,.9053-.1342,2.5165,2.5165,0,0,1,.9434.2651,3.7338,3.7338,0,0,1,1.5732,1.5732,2.5239,2.5239,0,0,1,.2617.9405,2.106,2.106,0,0,1-.1338.9047A2.2933,2.2933,0,0,1,594.5666,111.4023Zm-.5029-.5025a1.45,1.45,0,0,0,.4668-1.0322,1.6293,1.6293,0,0,0-.5723-1.1528l-.5234-.5235a1.6345,1.6345,0,0,0-1.1523-.5722,1.603,1.603,0,0,0-1.4981,1.4985,1.6282,1.6282,0,0,0,.5723,1.1523l.5234.5235a1.6333,1.6333,0,0,0,1.1524.5727A1.4509,1.4509,0,0,0,594.0637,110.9Z"/><path class="cls-1" d="M597.6633,108.1352a.8145.8145,0,0,1-.6152.2822.8469.8469,0,0,1-.5723-.2681l-4.6465-4.646.5664-.5659,4.7305,4.7305.5371-.5376.503.5024Z"/><path class="cls-1" d="M593.7532,101.58l.5654-.5654,3.3164,3.3164.0283-.0283L597.6,103.122l-.0772-2.1431.6855-.686.0918,2.7934,3.6915.7212-.6856.6861-3.07-.65.0146,1.103,1.3018,1.3013-.5664.5654Z"/><path class="cls-1" d="M598.4915,98.2992a.4889.4889,0,0,1-.3536.1768.4661.4661,0,0,1-.3125-.1484l-.0918-.0918a.47.47,0,0,1-.1484-.3116.6271.6271,0,0,1,.5313-.53.4593.4593,0,0,1,.3105.1484l.0918.0918a.456.456,0,0,1,.1484.3115A.4845.4845,0,0,1,598.4915,98.2992Zm.5722,1.1382.5654-.5654,3.6495,3.6489-.5664.5654Z"/><path class="cls-1" d="M605.9368,100.0317a2.31,2.31,0,0,1-.8106.541,2.0471,2.0471,0,0,1-.9.1308,2.4935,2.4935,0,0,1-.9336-.2685,3.8508,3.8508,0,0,1-1.5742-1.5733,2.5044,2.5044,0,0,1-.2715-.937,2.0528,2.0528,0,0,1,.1309-.9013,2.3173,2.3173,0,0,1,.541-.81,2.2206,2.2206,0,0,1,.791-.5244,2.0731,2.0731,0,0,1,.8653-.1245,2.3407,2.3407,0,0,1,.875.2451,3.1473,3.1473,0,0,1,.8212.6025l.2676.2676-2.624,2.6235.17.17a1.7884,1.7884,0,0,0,.51.36,1.4424,1.4424,0,0,0,.5615.1382,1.3731,1.3731,0,0,0,.5733-.1064,1.6418,1.6418,0,0,0,.541-.3711,1.5653,1.5653,0,0,0,.4414-.7671,1.51,1.51,0,0,0-.0664-.8662l.6953-.1114a1.9989,1.9989,0,0,1,.0566,1.16A2.3577,2.3577,0,0,1,605.9368,100.0317Zm-3.3438-3.3448a1.52,1.52,0,0,0-.3447.5054,1.3588,1.3588,0,0,0-.1006.5571,1.5164,1.5164,0,0,0,.1328.5635,1.7071,1.7071,0,0,0,.3613.5171l.0489.0488,2.0156-2.0156-.0772-.0771a1.57,1.57,0,0,0-1.0419-.5113A1.2761,1.2761,0,0,0,602.593,96.6869Z"/><path class="cls-1" d="M608.3625,97.4369l-3.6494-3.6489.5655-.5654.5879.5874.0273-.0283a1.6933,1.6933,0,0,1-.1113-.8687,1.5115,1.5115,0,0,1,.4726-.8359,1.62,1.62,0,0,1,1.2578-.5308,2.0948,2.0948,0,0,1,1.3575.7l2.3418,2.3408-.5665.5655L608.4,92.9062q-.9845-.9852-1.8125-.1573a1.7652,1.7652,0,0,0-.2862.3711,1.3523,1.3523,0,0,0-.1592.4141.8481.8481,0,0,0,.2481.8l2.5371,2.5371Z"/><path class="cls-1" d="M644.9827,115.5385l-6.1387-3.7339.6289-.6289,2.9062,1.8452,2.2559,1.4361.0156-.0142-1.3867-2.3057-1.7539-2.998.68-.6787,2.9766,1.7744,2.2988,1.3789.0195-.021-1.414-2.2632-1.8165-2.9341.6075-.6079,3.67,6.2012-.6582.6577L644.77,110.829l-2.2637-1.3574-.0137.0142,1.3438,2.2768,1.8027,3.1182Z"/><path class="cls-1" d="M651.8967,108.7929a2.3228,2.3228,0,0,1-.8047.5371,2.0513,2.0513,0,0,1-.9062.1338,2.5433,2.5433,0,0,1-.9356-.2647,3.741,3.741,0,0,1-1.5742-1.5737,2.5417,2.5417,0,0,1-.2676-.94,2.0188,2.0188,0,0,1,.1329-.9048,2.3349,2.3349,0,0,1,.5371-.8057,2.3011,2.3011,0,0,1,.8027-.5341,2.1147,2.1147,0,0,1,.9063-.1348,2.5192,2.5192,0,0,1,.9433.2651,3.72,3.72,0,0,1,1.5742,1.5738,2.5382,2.5382,0,0,1,.2617.94,2.1566,2.1566,0,0,1-.1347.9058A2.2919,2.2919,0,0,1,651.8967,108.7929Zm-.5019-.502a1.4512,1.4512,0,0,0,.4668-1.0332,1.629,1.629,0,0,0-.5723-1.1518l-.5234-.5235a1.638,1.638,0,0,0-1.1524-.5732,1.6019,1.6019,0,0,0-1.498,1.499,1.63,1.63,0,0,0,.5722,1.1529l.5235.5234a1.6348,1.6348,0,0,0,1.1523.5723A1.4469,1.4469,0,0,0,651.3948,108.2909Z"/><path class="cls-1" d="M654.9944,105.5253a.8158.8158,0,0,1-.6153.2832.8481.8481,0,0,1-.5722-.269l-4.6445-4.6455.5644-.5655,4.7305,4.73.5371-.5376.5019.502Z"/><path class="cls-1" d="M653.3674,100.8588l-.5937.5938-.502-.502.5938-.5937-.7344-.7354a1.2937,1.2937,0,0,1-.418-.813,1.0524,1.0524,0,0,1,.3692-.8345l.5508-.5517.5019.5019-.7851.7852,1.082,1.0815.7851-.7851.502.5019-.7852.7852,3.1465,3.147-.5664.5659Z"/><path class="cls-1" d="M660.0354,100.6542a2.3187,2.3187,0,0,1-.8086.541,2.067,2.067,0,0,1-.9023.13,2.5032,2.5032,0,0,1-.9336-.2681,3.8416,3.8416,0,0,1-1.5723-1.5737,2.4893,2.4893,0,0,1-.2734-.937,2.08,2.08,0,0,1,.1308-.9014,2.322,2.322,0,0,1,.541-.8095,2.2011,2.2011,0,0,1,.793-.524,2.0507,2.0507,0,0,1,.8652-.125,2.3408,2.3408,0,0,1,.875.2452,3.1377,3.1377,0,0,1,.82.6025l.2675.2676-2.623,2.6235.17.1694a1.7455,1.7455,0,0,0,.5078.3609,1.4643,1.4643,0,0,0,.5625.1382,1.37,1.37,0,0,0,.5723-.106,1.6276,1.6276,0,0,0,.541-.3711,1.5679,1.5679,0,0,0,.4434-.7676,1.5108,1.5108,0,0,0-.0684-.8662l.6953-.1118a1.999,1.999,0,0,1,.0567,1.16A2.3426,2.3426,0,0,1,660.0354,100.6542ZM656.6916,97.31a1.5258,1.5258,0,0,0-.3437.5054,1.3108,1.3108,0,0,0-.1.5566,1.5,1.5,0,0,0,.1308.564,1.7307,1.7307,0,0,0,.3614.5166l.0508.0493,2.0136-2.0151-.0761-.0777a1.57,1.57,0,0,0-1.0411-.5107A1.2776,1.2776,0,0,0,656.6916,97.31Z"/><path class="cls-1" d="M699.0188,116.224l-4.9356-4.9355.5938-.5942,4.4121,4.4121,2.1-2.1.5235.5234Z"/><path class="cls-1" d="M698.2825,107.9511a.4892.4892,0,0,1-.3535.1768.46.46,0,0,1-.3106-.149l-.0918-.0918a.4606.4606,0,0,1-.1494-.311.6252.6252,0,0,1,.53-.53.4612.4612,0,0,1,.3115.1485l.0918.0918a.4593.4593,0,0,1,.1484.3115A.4862.4862,0,0,1,698.2825,107.9511Zm.5722,1.1382.5664-.5659,3.6485,3.6489-.5655.5659Z"/><path class="cls-1" d="M706.0178,108.05l-.0283.0283a1.5743,1.5743,0,0,1-.3945,1.74,1.96,1.96,0,0,1-.75.48,1.89,1.89,0,0,1-.8526.0883,2.4609,2.4609,0,0,1-.8974-.3042,4.3963,4.3963,0,0,1-1.584-1.5839,2.4559,2.4559,0,0,1-.3047-.8975,1.8848,1.8848,0,0,1,.0889-.8521,1.9614,1.9614,0,0,1,.4814-.75,1.7556,1.7556,0,0,1,.8174-.49,1.4507,1.4507,0,0,1,.9209.0942l.0293-.0283-2.1719-2.1714.5664-.5659,5.2324,5.2329-.5664.5659Zm-.77,1.11a1.8683,1.8683,0,0,0,.3145-.4136,1.27,1.27,0,0,0,.1543-.4463.9959.9959,0,0,0-.0323-.436.9232.9232,0,0,0-.2422-.3906l-1.3642-1.3648a.7972.7972,0,0,0-.3555-.2065.9955.9955,0,0,0-.4258-.022,1.434,1.434,0,0,0-.4453.1548,1.7517,1.7517,0,0,0-.4179.311,1.3717,1.3717,0,0,0-.4532,1.0586,1.5993,1.5993,0,0,0,.5157,1.0679l.625.6255a1.6028,1.6028,0,0,0,1.0683.5166A1.3776,1.3776,0,0,0,705.2473,109.16Z"/><path class="cls-1" d="M708.9739,106.268a.8155.8155,0,0,1-.6153.2827.8457.8457,0,0,1-.5722-.2685l-4.6465-4.646.5664-.5655,4.73,4.73.5371-.5376.5019.5024Z"/><path class="cls-1" d="M712.6155,102.6269l-.5938.5937-4.9355-4.9355L709.052,96.32a1.9507,1.9507,0,0,1,1.375-.6542,1.9758,1.9758,0,0,1,1.4033.6752,2.12,2.12,0,0,1,.6436,1.1456,1.6948,1.6948,0,0,1-.2764,1.2021l3.31,1.0464-.6719.6719-3.1895-1.0537-1.1523,1.1523Zm-1.2588-4.0025a1.0792,1.0792,0,0,0,.3633-.7314.9661.9661,0,0,0-.3282-.7183l-.3671-.3676a.97.97,0,0,0-.7188-.3282,1.0811,1.0811,0,0,0-.7314.3638l-1.3721,1.3716,1.7822,1.7817Z"/><path class="cls-1" d="M717.8411,97.5712a2.3,2.3,0,0,1-.8106.54,2.0471,2.0471,0,0,1-.9.1309,2.4937,2.4937,0,0,1-.9336-.2686,3.85,3.85,0,0,1-1.5742-1.5732,2.5054,2.5054,0,0,1-.2715-.937,2.0534,2.0534,0,0,1,.1309-.9014,2.3069,2.3069,0,0,1,.541-.8095,2.2024,2.2024,0,0,1,.791-.5245,2.0685,2.0685,0,0,1,.8653-.1245,2.3477,2.3477,0,0,1,.875.2451,3.1314,3.1314,0,0,1,.82.6026l.2675.2676-2.623,2.623.17.17a1.7887,1.7887,0,0,0,.51.36,1.446,1.446,0,0,0,.5615.1382,1.38,1.38,0,0,0,.5732-.106,1.6575,1.6575,0,0,0,.5411-.3711,1.5722,1.5722,0,0,0,.4414-.7671,1.5024,1.5024,0,0,0-.0674-.8662l.6953-.1113a1.99,1.99,0,0,1,.0566,1.16A2.3545,2.3545,0,0,1,717.8411,97.5712Zm-3.3448-3.3447a1.528,1.528,0,0,0-.3437.5049,1.36,1.36,0,0,0-.1006.5571,1.5173,1.5173,0,0,0,.1328.5635,1.7083,1.7083,0,0,0,.3613.5171l.0489.0488,2.0156-2.0151-.0781-.0772a1.5664,1.5664,0,0,0-1.041-.5112A1.2792,1.2792,0,0,0,714.4963,94.2265Z"/><path class="cls-1" d="M721.7082,93.7035a2.36,2.36,0,0,1-.82.5513,1.9721,1.9721,0,0,1-.8945.13,2.41,2.41,0,0,1-.9189-.2827,4.1335,4.1335,0,0,1-1.584-1.584,2.4027,2.4027,0,0,1-.2823-.919,1.9723,1.9723,0,0,1,.1309-.894,2.3677,2.3677,0,0,1,.5508-.82,2.0671,2.0671,0,0,1,1.11-.6363,2.0387,2.0387,0,0,1,1.11.127l-.2344.7144a1.2139,1.2139,0,0,0-.7637-.1133,1.3849,1.3849,0,0,0-.7207.41,1.5829,1.5829,0,0,0-.3632.5264,1.2143,1.2143,0,0,0-.0918.5449,1.3423,1.3423,0,0,0,.1543.5371,2.066,2.066,0,0,0,.3789.5054l.622.6221a1.6768,1.6768,0,0,0,1.0459.5307,1.3244,1.3244,0,0,0,1.0684-.4526,1.4508,1.4508,0,0,0,.3535-1.626l.6856-.1347a2.0552,2.0552,0,0,1,.1035,1.1567A2.177,2.177,0,0,1,721.7082,93.7035Z"/><path class="cls-1" d="M725.2375,90.1752a2.3088,2.3088,0,0,1-.81.54,2.05,2.05,0,0,1-.9014.1309,2.5041,2.5041,0,0,1-.9336-.2686,3.8394,3.8394,0,0,1-1.5732-1.5732,2.4852,2.4852,0,0,1-.2715-.937,2.0376,2.0376,0,0,1,.1309-.9014,2.2934,2.2934,0,0,1,.541-.8095,2.1855,2.1855,0,0,1,.791-.5245,2.0641,2.0641,0,0,1,.8643-.1245,2.3477,2.3477,0,0,1,.875.2451,3.1353,3.1353,0,0,1,.8212.6026l.2676.2676-2.623,2.623.17.17a1.7708,1.7708,0,0,0,.5088.36,1.4546,1.4546,0,0,0,.5615.1382,1.3777,1.3777,0,0,0,.5733-.106,1.6464,1.6464,0,0,0,.541-.3711,1.5743,1.5743,0,0,0,.4424-.7671,1.5029,1.5029,0,0,0-.0684-.8662l.6953-.1113a1.9894,1.9894,0,0,1,.0566,1.16A2.3517,2.3517,0,0,1,725.2375,90.1752Zm-3.3457-3.3447a1.5443,1.5443,0,0,0-.3437.5049,1.3757,1.3757,0,0,0-.1.5571,1.5157,1.5157,0,0,0,.1318.5635,1.6962,1.6962,0,0,0,.3623.5171l.0489.0488,2.0146-2.0151-.0771-.0772a1.5685,1.5685,0,0,0-1.0411-.5112A1.2812,1.2812,0,0,0,721.8918,86.8305Z"/><path class="cls-1" d="M723.4407,82.7929a.4892.4892,0,0,1-.3535.1768.4636.4636,0,0,1-.3116-.1485l-.0918-.0918a.46.46,0,0,1-.1484-.3115.6252.6252,0,0,1,.53-.53.4632.4632,0,0,1,.3115.1485l.0918.0918a.46.46,0,0,1,.1484.3115A.4862.4862,0,0,1,723.4407,82.7929Zm.5722,1.1382.5664-.5655,3.6485,3.649-.5654.5654Z"/><path class="cls-1" d="M725.7805,82.1635l.5664-.5654.5869.5874.0284-.0283a1.4451,1.4451,0,0,1-.0938-.9214,1.7582,1.7582,0,0,1,.49-.8184,1.9513,1.9513,0,0,1,.7491-.481,1.8807,1.8807,0,0,1,.8525-.0883,2.4587,2.4587,0,0,1,.8965.3037,4.3976,4.3976,0,0,1,1.584,1.584,2.462,2.462,0,0,1,.3047.8979,1.9021,1.9021,0,0,1-.0879.8521,1.9538,1.9538,0,0,1-.4805.75,1.5635,1.5635,0,0,1-1.74.3955l-.0293.0283,2.0019,2.0015-.5654.5654Zm4.7383,1.7256a1.3785,1.3785,0,0,0,.4551-1.0586,1.5937,1.5937,0,0,0-.5176-1.0684l-.625-.6255a1.5939,1.5939,0,0,0-1.0684-.5161,1.3744,1.3744,0,0,0-1.0586.4546,1.7411,1.7411,0,0,0-.31.4175,1.4364,1.4364,0,0,0-.1553.4458,1.0036,1.0036,0,0,0,.0225.4253.7993.7993,0,0,0,.206.355l1.3643,1.3647a.9488.9488,0,0,0,.3906.2422,1.0125,1.0125,0,0,0,.4365.0327,1.289,1.289,0,0,0,.4463-.1543A1.89,1.89,0,0,0,730.5188,83.8891Z"/><path class="cls-1" d="M734.2942,80.9477a.8174.8174,0,0,1-.6152.2832.873.873,0,0,1-.586-.2822l-2.5469-2.5469-.6005.6011-.502-.502.3389-.3394a.4724.4724,0,0,0,.1777-.3252.5448.5448,0,0,0-.1914-.3251l-.6787-.6792.5088-.5088,1.0117,1.0112.7988-.7993.502.5019-.7989.7993,2.6446,2.6446.7422-.7427.5019.5024Z"/><path class="cls-1" d="M756.22,112.3134l-.0215.0215a1.3759,1.3759,0,0,1,.123,1.02,2.3951,2.3951,0,0,1-.6943,1.1509,2.902,2.902,0,0,1-.9981.6645,2.4656,2.4656,0,0,1-1.1347.1592,3.3045,3.3045,0,0,1-1.22-.3779,5.119,5.119,0,0,1-1.252-.9483,5.2238,5.2238,0,0,1-.9443-1.2407,3.144,3.144,0,0,1-.3741-1.2231,2.5716,2.5716,0,0,1,.1739-1.1563,3.0069,3.0069,0,0,1,.6924-1.0322,2.8,2.8,0,0,1,1.4043-.8169,2.7579,2.7579,0,0,1,1.4667.0957l-.1914.7847a1.9138,1.9138,0,0,0-2.1562.46,2.0852,2.0852,0,0,0-.4766.711,1.9109,1.9109,0,0,0-.1338.7929,2.1207,2.1207,0,0,0,.21.8111,2.8215,2.8215,0,0,0,.5605.7734l.8028.8022a2.8349,2.8349,0,0,0,.7773.564,2.0886,2.0886,0,0,0,.8145.2144,1.8725,1.8725,0,0,0,.8066-.148,2.3251,2.3251,0,0,0,.7539-.519,2.421,2.421,0,0,0,.417-.5518,1.6894,1.6894,0,0,0,.2-.605,1.3546,1.3546,0,0,0-.0644-.61,1.5224,1.5224,0,0,0-.3809-.5786l-.49-.49L753.803,112.13l-.5235-.5234,1.668-1.6685,2.5391,2.5386-.5518.5512Z"/><path class="cls-1" d="M760.2571,108.5312l-.0283.0278a2.4278,2.4278,0,0,1,.1113.3867,1.3363,1.3363,0,0,1,.0156.419,1.356,1.356,0,0,1-.14.44,1.7563,1.7563,0,0,1-.34.4522,1.6359,1.6359,0,0,1-1.2627.5337,2.0813,2.0813,0,0,1-1.3613-.6963l-2.34-2.3409.5654-.5659,2.2471,2.2466q.9843.9851,1.8183.1514a1.8033,1.8033,0,0,0,.2871-.3721,1.2588,1.2588,0,0,0,.1543-.41.9126.9126,0,0,0-.0176-.414.8832.8832,0,0,0-.2412-.3892l-2.53-2.53.5664-.566,3.6484,3.649-.5664.5659Z"/><path class="cls-1" d="M765.2639,104.6987a.7812.7812,0,0,1-.625.2861,1.1882,1.1882,0,0,1-.5976-.2505l-.0352.0352a1.3407,1.3407,0,0,1,.1133.9047,1.7491,1.7491,0,0,1-.4883.8277,1.8126,1.8126,0,0,1-1.1992.605,1.4753,1.4753,0,0,1-1.127-.4844,1.3008,1.3008,0,0,1-.414-1.17,2.8448,2.8448,0,0,1,.9023-1.4536l.7207-.7212-.3613-.3609a1.112,1.112,0,0,0-.8057-.3813,1.2757,1.2757,0,0,0-.8554.4453,1.3879,1.3879,0,0,0-.4073.7036,1.7369,1.7369,0,0,0,.0254.7676l-.6582.021a1.823,1.823,0,0,1-.0312-.98,2.1109,2.1109,0,0,1,.6113-1.0288,2.1323,2.1323,0,0,1,1.3574-.7075,1.6125,1.6125,0,0,1,1.27.5351l2.0039,2.0039.417-.417.502.502Zm-2.0215,1.23a2.1035,2.1035,0,0,0,.34-.4385,1.3641,1.3641,0,0,0,.1621-.4453,1.0084,1.0084,0,0,0-.0137-.41.7252.7252,0,0,0-.1914-.3325l-.6016-.6011-.749.7495a1.934,1.934,0,0,0-.5693.852.6441.6441,0,0,0,.1875.6333l.1484.1485a.6988.6988,0,0,0,.6113.2226A1.2028,1.2028,0,0,0,763.2424,105.9291Z"/><path class="cls-1" d="M766.3889,103.5746,762.74,99.9257l.5654-.5654.6719.6719.0352-.0357a1.5648,1.5648,0,0,1-.1133-.82,1.54,1.54,0,0,1,.4961-.9053l.2187-.2192.5664.5659-.333.3325a1.8193,1.8193,0,0,0-.5449.8906.7266.7266,0,0,0,.1768.6934l2.4746,2.4751Z"/><path class="cls-1" d="M770.6868,98.1015l-.0284.0278a1.5752,1.5752,0,0,1-.3945,1.74,1.9652,1.9652,0,0,1-.75.4809,1.8918,1.8918,0,0,1-.8515.0884,2.4734,2.4734,0,0,1-.8985-.3042A4.3959,4.3959,0,0,1,766.18,98.55a2.4567,2.4567,0,0,1-.3047-.8974,1.8875,1.8875,0,0,1,.0889-.8521,1.9617,1.9617,0,0,1,.4815-.75,1.7482,1.7482,0,0,1,.8183-.4893,1.4512,1.4512,0,0,1,.9209.0933l.0283-.0278-2.1718-2.1709.5664-.566L771.84,98.123l-.5664.5659Zm-.77,1.1108a1.8266,1.8266,0,0,0,.3144-.414,1.2738,1.2738,0,0,0,.1553-.4468,1.0106,1.0106,0,0,0-.0332-.4356.9238.9238,0,0,0-.2422-.3906l-1.3643-1.3647a.7907.7907,0,0,0-.3554-.2061,1,1,0,0,0-.4248-.0229,1.4644,1.4644,0,0,0-.4463.1552,1.748,1.748,0,0,0-.418.3111,1.3715,1.3715,0,0,0-.4531,1.0586,1.6011,1.6011,0,0,0,.5156,1.0683l.625.625a1.6,1.6,0,0,0,1.0684.5166A1.377,1.377,0,0,0,769.9163,99.2123Z"/><path class="cls-1" d="M768.8206,92.1337a.4889.4889,0,0,1-.3536.1768.4564.4564,0,0,1-.31-.148l-.0928-.0923a.4536.4536,0,0,1-.1474-.311.6224.6224,0,0,1,.5293-.53.4627.4627,0,0,1,.3115.148l.0928.0923a.4632.4632,0,0,1,.1474.311A.4861.4861,0,0,1,768.8206,92.1337Zm.5722,1.1382.5664-.5654,3.6485,3.6489-.5655.5654Z"/><path class="cls-1" d="M777.4612,92.5014a.7812.7812,0,0,1-.625.2861,1.1889,1.1889,0,0,1-.5977-.25l-.0351.0352a1.34,1.34,0,0,1,.1132.9048,1.7482,1.7482,0,0,1-.4882.8276,1.8128,1.8128,0,0,1-1.1993.605,1.4748,1.4748,0,0,1-1.1269-.4844,1.3011,1.3011,0,0,1-.4141-1.17,2.8481,2.8481,0,0,1,.9024-1.4536l.7207-.7212-.3613-.3608a1.1118,1.1118,0,0,0-.8057-.3814,1.2761,1.2761,0,0,0-.8555.4453,1.3881,1.3881,0,0,0-.4072.7036,1.7369,1.7369,0,0,0,.0254.7676l-.6582.021a1.8229,1.8229,0,0,1-.0313-.98,2.4944,2.4944,0,0,1,1.9688-1.7363,1.6125,1.6125,0,0,1,1.2705.5352l2.0039,2.0039.417-.417.5019.5019Zm-2.0215,1.23a2.1029,2.1029,0,0,0,.34-.4385,1.3626,1.3626,0,0,0,.1621-.4453,1.0073,1.0073,0,0,0-.0136-.41.7266.7266,0,0,0-.1914-.3325l-.6016-.6011-.749.7495a1.9349,1.9349,0,0,0-.5694.8521.6446.6446,0,0,0,.1875.6333l.1485.1484a.6991.6991,0,0,0,.6113.2227A1.2017,1.2017,0,0,0,775.44,93.7319Z"/><path class="cls-1" d="M778.5862,91.3774l-3.6494-3.649.5654-.5654.5879.5874.0273-.0283a1.6913,1.6913,0,0,1-.1113-.8682,1.5107,1.5107,0,0,1,.4727-.8364,1.62,1.62,0,0,1,1.2578-.5308,2.0955,2.0955,0,0,1,1.3574.7l2.3418,2.3409-.5664.5654-2.2461-2.2466q-.9844-.9843-1.8125-.1572a1.7588,1.7588,0,0,0-.2861.3711,1.3665,1.3665,0,0,0-.1592.414.9008.9008,0,0,0,.0146.418.8792.8792,0,0,0,.2334.3823l2.5371,2.5371Z"/><path class="cls-1" d="M19.9983,360.8959a2.7465,2.7465,0,0,1-.39,1.4942,3.3692,3.3692,0,0,1-1.0738,1.0507l-.624-.6386a2.9947,2.9947,0,0,0,.894-.8448,1.94,1.94,0,0,0,.3057-1.0927,1.544,1.544,0,0,0-.4316-1.18,1.612,1.612,0,0,0-1.1524-.4072,1.2816,1.2816,0,0,0-.9238.31,2.1858,2.1858,0,0,0-.5161,1.02l-.1558.5878a3.2152,3.2152,0,0,1-.7983,1.51,2.0637,2.0637,0,0,1-1.5059.5205,2.5936,2.5936,0,0,1-.9839-.1748,1.9582,1.9582,0,0,1-.72-.49,2.1064,2.1064,0,0,1-.438-.752,2.97,2.97,0,0,1-.15-.9638,2.6765,2.6765,0,0,1,.3482-1.3965,2.8679,2.8679,0,0,1,1.02-.9834l.5517.6484a2.3946,2.3946,0,0,0-.7558.7217,1.8837,1.8837,0,0,0-.2759,1.0518,1.61,1.61,0,0,0,.3418,1.0869,1.28,1.28,0,0,0,1.0259.3965,1.1651,1.1651,0,0,0,.9062-.335,2.4076,2.4076,0,0,0,.4859-1.0156l.1562-.5869a2.9029,2.9029,0,0,1,.84-1.5362,2.2575,2.2575,0,0,1,1.5-.4736,3.0175,3.0175,0,0,1,1.0439.1709,2.1575,2.1575,0,0,1,.792.4883,2.2032,2.2032,0,0,1,.5039.7793A2.8068,2.8068,0,0,1,19.9983,360.8959Z"/><path class="cls-1" d="M19.9983,355.0112a2.102,2.102,0,0,1-.228.9843,2.18,2.18,0,0,1-.6538.752,3.1642,3.1642,0,0,1-1.02.4844,5.3314,5.3314,0,0,1-2.67,0,3.1576,3.1576,0,0,1-1.0259-.4844,2.18,2.18,0,0,1-.6538-.752,2.102,2.102,0,0,1-.228-.9843,1.9952,1.9952,0,0,1,.2271-.959,2.1882,2.1882,0,0,1,.6279-.7207,2.967,2.967,0,0,1,.9507-.459,4.32,4.32,0,0,1,1.208-.16h.4541v3.8242h.2881a2.43,2.43,0,0,0,.7382-.1084,1.792,1.792,0,0,0,.5938-.3095,1.4233,1.4233,0,0,0,.396-.4942,1.4867,1.4867,0,0,0,.144-.664,1.4492,1.4492,0,0,0-.2758-.8819,1.7738,1.7738,0,0,0-.792-.583l.4951-.5869a2.3047,2.3047,0,0,1,1.0322.8037A2.1685,2.1685,0,0,1,19.9983,355.0112Zm-5.6763,0a1.3791,1.3791,0,0,0,.1377.6191,1.4137,1.4137,0,0,0,.3872.4785,1.9048,1.9048,0,0,0,.59.3145,2.3294,2.3294,0,0,0,.7456.1132h.0835V353.599H16.135a2.0825,2.0825,0,0,0-1.3179.3868A1.2368,1.2368,0,0,0,14.322,355.0112Z"/><path class="cls-1" d="M19.8542,350.1772a.78.78,0,0,1-.2812.6543,1.1519,1.1519,0,0,1-.7363.2226H14.5144v.875h-.852v-.4941a.4424.4424,0,0,0-.126-.3662.7329.7329,0,0,0-.438-.0977H11.946v-.7422h1.7164v-1.165h.852v1.165h4.4878v-1.082h.852Z"/><path class="cls-1" d="M12.21,344.89a.461.461,0,0,1-.15.3867.61.61,0,0,1-.39.1191h-.1558a.61.61,0,0,1-.39-.1191.461.461,0,0,1-.15-.3867.4661.4661,0,0,1,.15-.3868.6158.6158,0,0,1,.39-.1181H11.67a.616.616,0,0,1,.39.1181A.4661.4661,0,0,1,12.21,344.89Zm1.4522.4121v-.8242h6.1918v.8242Z"/><path class="cls-1" d="M19.8542,342.726H13.6624v-.8242h.9965v-.041a2.0067,2.0067,0,0,1-.8315-.5518,1.4048,1.4048,0,0,1-.3091-.9541,1.56,1.56,0,0,1,.6182-1.3027,2.788,2.788,0,0,1,1.7456-.48h3.9721v.8242h-3.812q-1.6721,0-1.6718,1.2061a1.5908,1.5908,0,0,0,.0722.4785,1.29,1.29,0,0,0,.2163.4179,1.032,1.032,0,0,0,.3667.294,1.1969,1.1969,0,0,0,.5235.1084h4.3051Z"/><line class="cls-2" x1="137.5569" y1="571.8488" x2="783.8902" y2="571.8488"/><line class="cls-2" x1="137.5569" y1="534.9984" x2="783.8902" y2="534.9984"/><line class="cls-2" x1="137.5569" y1="498.148" x2="783.8902" y2="498.148"/><line class="cls-2" x1="137.5569" y1="461.2976" x2="783.8902" y2="461.2976"/><line class="cls-2" x1="137.5569" y1="424.4472" x2="783.8902" y2="424.4472"/><line class="cls-2" x1="137.5569" y1="387.5968" x2="783.8902" y2="387.5968"/><line class="cls-2" x1="137.5569" y1="350.7464" x2="783.8902" y2="350.7464"/><line class="cls-2" x1="137.5569" y1="313.8961" x2="783.8902" y2="313.8961"/><line class="cls-2" x1="137.5569" y1="277.0457" x2="783.8902" y2="277.0457"/><line class="cls-2" x1="137.5569" y1="240.1953" x2="783.8902" y2="240.1953"/><line class="cls-2" x1="137.5569" y1="203.3449" x2="783.8902" y2="203.3449"/><line class="cls-2" x1="137.5569" y1="166.4945" x2="783.8902" y2="166.4945"/><line class="cls-2" x1="137.5569" y1="129.6441" x2="783.8902" y2="129.6441"/><line class="cls-2" x1="783.8144" y1="129.6441" x2="783.8144" y2="571.9774"/><line class="cls-2" x1="729.9562" y1="129.6441" x2="729.9562" y2="571.9774"/><line class="cls-2" x1="676.0979" y1="129.6441" x2="676.0979" y2="571.9774"/><line class="cls-2" x1="622.2396" y1="129.6441" x2="622.2396" y2="571.9774"/><line class="cls-2" x1="568.3814" y1="129.6441" x2="568.3814" y2="571.9774"/><line class="cls-2" x1="514.5231" y1="129.6441" x2="514.5231" y2="571.9774"/><line class="cls-2" x1="460.6648" y1="129.6441" x2="460.6648" y2="571.9774"/><line class="cls-2" x1="406.8066" y1="129.6441" x2="406.8066" y2="571.9774"/><line class="cls-2" x1="352.9483" y1="129.6441" x2="352.9483" y2="571.9774"/><line class="cls-2" x1="299.09" y1="129.6441" x2="299.09" y2="571.9774"/><line class="cls-2" x1="245.2318" y1="129.6441" x2="245.2318" y2="571.9774"/><line class="cls-2" x1="191.3735" y1="129.6441" x2="191.3735" y2="571.9774"/><line class="cls-2" x1="137.5152" y1="129.6441" x2="137.5152" y2="571.9774"/><line class="cls-2" x1="729.9978" y1="571.8318" x2="783.8034" y2="534.9984"/><line class="cls-2" x1="783.8034" y1="571.8318" x2="729.9978" y2="534.9984"/><line class="cls-2" x1="676.1396" y1="534.9814" x2="729.9451" y2="498.148"/><line class="cls-2" x1="729.9451" y1="534.9814" x2="676.1396" y2="498.148"/><line class="cls-2" x1="622.2813" y1="498.131" x2="676.0868" y2="461.2976"/><line class="cls-2" x1="676.0868" y1="498.131" x2="622.2813" y2="461.2976"/><line class="cls-2" x1="568.423" y1="461.2806" x2="622.2286" y2="424.4472"/><line class="cls-2" x1="622.2286" y1="461.2806" x2="568.423" y2="424.4472"/><line class="cls-2" x1="514.5648" y1="424.4302" x2="568.3703" y2="387.5968"/><line class="cls-2" x1="568.3703" y1="424.4302" x2="514.5648" y2="387.5968"/><line class="cls-2" x1="460.7065" y1="387.5798" x2="514.512" y2="350.7464"/><line class="cls-2" x1="514.512" y1="387.5798" x2="460.7065" y2="350.7464"/><line class="cls-2" x1="406.8482" y1="350.7294" x2="460.6538" y2="313.8961"/><line class="cls-2" x1="460.6538" y1="350.7294" x2="406.8482" y2="313.8961"/><line class="cls-2" x1="352.99" y1="313.879" x2="406.7955" y2="277.0457"/><line class="cls-2" x1="406.7955" y1="313.879" x2="352.99" y2="277.0457"/><line class="cls-2" x1="299.1317" y1="277.0286" x2="352.9372" y2="240.1953"/><line class="cls-2" x1="352.9372" y1="277.0286" x2="299.1317" y2="240.1953"/><line class="cls-2" x1="245.2734" y1="240.1782" x2="299.079" y2="203.3449"/><line class="cls-2" x1="299.079" y1="240.1782" x2="245.2734" y2="203.3449"/><line class="cls-2" x1="191.4151" y1="203.3278" x2="245.2207" y2="166.4945"/><line class="cls-2" x1="245.2207" y1="203.3278" x2="191.4151" y2="166.4945"/><line class="cls-2" x1="137.5569" y1="166.4774" x2="191.3624" y2="129.6441"/><line class="cls-2" x1="191.3624" y1="166.4774" x2="137.5569" y2="129.6441"/><polyline class="cls-2" points="137.515 47.311 137.515 34.977 783.89 34.977 783.89 47.311"/><polyline class="cls-2" points="48.973 571.977 32.974 571.977 32.974 129.644 48.973 129.644"/></svg>