<svg class='eye' xmlns="http://www.w3.org/2000/svg" xmlns:xlink="http://www.w3.org/1999/xlink" viewBox="0 0 83.52 83.52"><defs><linearGradient id="a" x1="77.5" y1="21.13" x2="6.02" y2="62.39" gradientUnits="userSpaceOnUse"><stop offset="0.71" stop-color="#fff"/><stop offset="0.82" stop-color="#dcdcdc"/><stop offset="1" stop-color="#999"/></linearGradient></defs><circle id='eye-white' cx="41.76" cy="41.76" r="41.26" style="stroke:#ffffff;stroke-miterlimit:10;fill:url(#a)"/>
	<g id='iris'>
	<circle id='eye-blue' cx="41.76" cy="41.76" r="22.31" style="fill:#268aff;stroke:#ffffff;stroke-miterlimit:10"/><circle cx="41.76" cy="41.76" r="10.91" style="fill:#1e1e1e"/><g style="opacity:0.5700000000000001"><polygon points="53.68 58.64 54.37 58.08 48.58 51.36 48.33 51.57 53.68 58.64" style="fill:#0c2a4d"/><polygon points="51.22 60.15 51.98 59.69 47.19 52.24 46.91 52.41 51.22 60.15" style="fill:#0c2a4d"/><polygon points="48.58 61.31 49.4 60.96 45.68 52.91 45.38 53.04 48.58 61.31" style="fill:#0c2a4d"/><polygon points="45.8 62.09 46.66 61.86 44.1 53.37 43.78 53.45 45.8 62.09" style="fill:#0c2a4d"/><polygon points="42.94 62.47 43.82 62.36 42.47 53.6 42.14 53.64 42.94 62.47" style="fill:#0c2a4d"/><polygon points="40.05 62.45 40.94 62.47 40.82 53.6 40.49 53.59 40.05 62.45" style="fill:#0c2a4d"/><polygon points="37.19 62.03 38.07 62.17 39.19 53.37 38.87 53.32 37.19 62.03" style="fill:#0c2a4d"/><polygon points="34.42 61.22 35.27 61.48 37.6 52.92 37.29 52.83 34.42 61.22" style="fill:#0c2a4d"/><polygon points="31.79 60.02 32.6 60.4 36.1 52.25 35.8 52.12 31.79 60.02" style="fill:#0c2a4d"/><polygon points="29.35 58.48 30.1 58.96 34.7 51.38 34.42 51.2 29.35 58.48" style="fill:#0c2a4d"/><polygon points="27.15 56.61 27.82 57.19 33.43 50.33 33.19 50.11 27.15 56.61" style="fill:#0c2a4d"/><polygon points="25.24 54.45 25.82 55.12 32.33 49.1 32.12 48.86 25.24 54.45" style="fill:#0c2a4d"/><polygon points="23.64 52.05 24.12 52.79 31.41 47.74 31.23 47.46 23.64 52.05" style="fill:#0c2a4d"/><polygon points="22.39 49.44 22.76 50.25 30.68 46.26 30.54 45.96 22.39 49.44" style="fill:#0c2a4d"/><polygon points="21.52 46.69 21.77 47.54 30.17 44.69 30.07 44.38 21.52 46.69" style="fill:#0c2a4d"/><polygon points="21.03 43.84 21.17 44.72 29.88 43.07 29.83 42.75 21.03 43.84" style="fill:#0c2a4d"/><polygon points="20.95 40.96 20.96 41.85 29.82 41.42 29.82 41.09 20.95 40.96" style="fill:#0c2a4d"/><polygon points="21.27 38.09 21.16 38.97 29.99 39.78 30.03 39.46 21.27 38.09" style="fill:#0c2a4d"/><polygon points="21.99 35.29 21.76 36.15 30.39 38.18 30.47 37.87 21.99 35.29" style="fill:#0c2a4d"/><polygon points="23.09 32.62 22.74 33.44 31 36.65 31.13 36.35 23.09 32.62" style="fill:#0c2a4d"/><polygon points="24.55 30.13 24.09 30.89 31.82 35.23 31.99 34.95 24.55 30.13" style="fill:#0c2a4d"/><polygon points="26.34 27.87 25.78 28.56 32.84 33.92 33.04 33.67 26.34 27.87" style="fill:#0c2a4d"/><polygon points="28.43 25.88 27.78 26.48 34.02 32.78 34.26 32.56 28.43 25.88" style="fill:#0c2a4d"/><polygon points="30.77 24.2 30.05 24.7 35.35 31.81 35.62 31.62 30.77 24.2" style="fill:#0c2a4d"/><polygon points="33.33 22.86 32.54 23.26 36.8 31.03 37.1 30.88 33.33 22.86" style="fill:#0c2a4d"/><polygon points="36.05 21.89 35.21 22.18 38.35 30.47 38.66 30.36 36.05 21.89" style="fill:#0c2a4d"/><polygon points="38.88 21.3 38.01 21.47 39.97 30.12 40.28 30.06 38.88 21.3" style="fill:#0c2a4d"/><polygon points="41.76 21.12 40.87 21.17 41.61 30 41.94 29.99 41.76 21.12" style="fill:#0c2a4d"/><polygon points="44.64 21.34 43.76 21.26 43.25 30.12 43.58 30.14 44.64 21.34" style="fill:#0c2a4d"/><polygon points="47.46 21.96 46.59 21.76 44.87 30.46 45.18 30.53 47.46 21.96" style="fill:#0c2a4d"/><polygon points="50.17 22.97 49.34 22.65 46.41 31.02 46.72 31.14 50.17 22.97" style="fill:#0c2a4d"/><polygon points="52.71 24.34 51.93 23.91 47.87 31.79 48.16 31.95 52.71 24.34" style="fill:#0c2a4d"/><polygon points="55.03 26.05 54.32 25.51 49.21 32.76 49.47 32.95 55.03 26.05" style="fill:#0c2a4d"/><polygon points="57.09 28.07 56.47 27.44 50.39 33.9 50.62 34.13 57.09 28.07" style="fill:#0c2a4d"/><polygon points="58.86 30.36 58.32 29.64 51.41 35.2 51.6 35.46 58.86 30.36" style="fill:#0c2a4d"/><polygon points="60.28 32.87 59.85 32.09 52.24 36.62 52.39 36.91 60.28 32.87" style="fill:#0c2a4d"/><polygon points="61.35 35.55 61.03 34.72 52.85 38.15 52.97 38.45 61.35 35.55" style="fill:#0c2a4d"/><polygon points="62.03 38.35 61.83 37.49 53.26 39.75 53.33 40.06 62.03 38.35" style="fill:#0c2a4d"/><polygon points="62.31 41.23 62.24 40.34 53.43 41.39 53.46 41.71 62.31 41.23" style="fill:#0c2a4d"/><polygon points="62.19 44.11 62.24 43.23 53.38 43.03 53.36 43.36 62.19 44.11" style="fill:#0c2a4d"/><polygon points="61.67 46.95 61.84 46.08 53.09 44.66 53.03 44.98 61.67 46.95" style="fill:#0c2a4d"/><polygon points="60.76 49.69 61.05 48.85 52.59 46.23 52.48 46.53 60.76 49.69" style="fill:#0c2a4d"/><polygon points="59.48 52.28 59.88 51.49 51.87 47.71 51.72 48 59.48 52.28" style="fill:#0c2a4d"/><polygon points="57.85 54.66 58.36 53.94 50.95 49.08 50.76 49.34 57.85 54.66" style="fill:#0c2a4d"/><polygon points="55.9 56.8 56.51 56.15 49.84 50.3 49.62 50.54 55.9 56.8" style="fill:#0c2a4d"/><polygon points="53.68 58.64 54.37 58.08 48.58 51.36 48.33 51.57 53.68 58.64" style="fill:#0c2a4d"/><polygon points="51.22 60.15 51.98 59.69 47.19 52.24 46.91 52.41 51.22 60.15" style="fill:#0c2a4d"/><polygon points="48.58 61.31 49.4 60.96 45.68 52.91 45.38 53.04 48.58 61.31" style="fill:#0c2a4d"/><polygon points="45.8 62.09 46.66 61.86 44.1 53.37 43.78 53.45 45.8 62.09" style="fill:#0c2a4d"/><polygon points="42.94 62.47 43.82 62.36 42.47 53.6 42.14 53.64 42.94 62.47" style="fill:#0c2a4d"/><polygon points="40.05 62.45 40.94 62.47 40.82 53.6 40.49 53.59 40.05 62.45" style="fill:#0c2a4d"/></g></g></svg>