<svg viewBox="0 0 241 193" fill="none" xmlns="http://www.w3.org/2000/svg">
<path d="M24.0565 192.452C17.441 192.452 11.7777 190.097 7.0666 185.386C2.35553 180.674 0 175.011 0 168.396V24.0565C0 17.441 2.35553 11.7777 7.0666 7.0666C11.7777 2.35553 17.441 0 24.0565 0H216.509C223.124 0 228.788 2.35553 233.499 7.0666C238.21 11.7777 240.565 17.441 240.565 24.0565V168.396C240.565 175.011 238.21 180.674 233.499 185.386C228.788 190.097 223.124 192.452 216.509 192.452H24.0565ZM120.283 108.254L24.0565 48.113V168.396H216.509V48.113L120.283 108.254ZM120.283 84.1978L216.509 24.0565H24.0565L120.283 84.1978ZM24.0565 48.113V24.0565V168.396V48.113Z" fill="#1C1B1F"/>
</svg>
