<!-- Generator: Adobe Illustrator 25.2.0, SVG Export Plug-In  -->
<svg version="1.1" xmlns="http://www.w3.org/2000/svg" xmlns:xlink="http://www.w3.org/1999/xlink" x="0px" y="0px" class="site-logo" viewBox="0 0 83.7 83.7" style="overflow:visible;enable-background:new 0 0 83.7 83.7;" xml:space="preserve">
<g>
	<g>
		<path class="st0" d="M41.9,3.5c15,0,27.2,17.2,27.2,38.4S56.8,80.2,41.9,80.2S14.7,63,14.7,41.9S26.9,3.5,41.9,3.5 M41.9,0
			C24.9,0,11.2,18.7,11.2,41.9s13.7,41.9,30.6,41.9S72.5,65,72.5,41.9S58.8,0,41.9,0L41.9,0z"/>
	</g>
	<g>
		<path class="st0" d="M41.9,3.5c21.2,0,38.4,17.2,38.4,38.4S63,80.2,41.9,80.2S3.5,63,3.5,41.9S20.7,3.5,41.9,3.5 M41.9,0
			C18.7,0,0,18.7,0,41.9s18.7,41.9,41.9,41.9S83.7,65,83.7,41.9S65,0,41.9,0L41.9,0z"/>
	</g>
	<g>
		<path class="st0" d="M41.9,3.5c5.2,0,12.6,15,12.6,38.4S47,80.2,41.9,80.2s-12.6-15-12.6-38.4S36.7,3.5,41.9,3.5 M41.9,0
			C33,0,25.7,18.7,25.7,41.9S33,83.7,41.9,83.7S58,65,58,41.9S50.8,0,41.9,0L41.9,0z"/>
	</g>
	<line class="st1" x1="41.9" y1="2.4" x2="41.9" y2="81"/>
	<line class="st1" x1="1.1" y1="41.9" x2="82.6" y2="41.9"/>
</g>
</svg>
