<svg xmlns="http://www.w3.org/2000/svg" width="256" height="199.3333" viewBox="0 0 256 199.3333">
  <defs>
    <style>
      .cls-1 {
        isolation: isolate;
      }

      .cls-2, .cls-3, .cls-5 {
        mix-blend-mode: multiply;
      }

      .cls-3, .cls-5, .cls-6, .cls-7, .cls-8, .cls-9 {
        fill: none;
      }

      .cls-3, .cls-6, .cls-7, .cls-8, .cls-9 {
        stroke: #000;
      }

      .cls-3 {
        stroke-miterlimit: 10;
        stroke-width: 0.25px;
      }

      .cls-4 {
        fill: #ff4200;
      }

      .cls-5 {
        stroke: #ff4200;
      }

      .cls-5, .cls-6, .cls-7, .cls-8, .cls-9 {
        stroke-linecap: round;
        stroke-linejoin: round;
      }

      .cls-6, .cls-7, .cls-8, .cls-9 {
        stroke-width: 0.5px;
      }

      .cls-7 {
        stroke-dasharray: 1.0029 1.0029;
      }

      .cls-8 {
        stroke-dasharray: 0.9955 0.9955;
      }

      .cls-9 {
        stroke-dasharray: 1.0048 1.0048;
      }
    </style>
  </defs>
  <g class="cls-1">
    <g id="Layer_1" data-name="Layer 1">
      <g>
        <path d="M97.0107,70.91h-.72v2.5976h-.4258V70.91h-.5224v-.3594h.5224a1.761,1.761,0,0,1,.0957-.66.7811.7811,0,0,1,.7852-.4668,2.9008,2.9008,0,0,1,.4385.041v.3731a.8344.8344,0,0,0-.2764-.043c-.3057,0-.498.0957-.5635.2832-.0537.125-.0537.1485-.0537.4727h.72Z"/>
        <path d="M100.9814,73.5078H98.1807v-.373H99.38V70.0469a4.4233,4.4233,0,0,1-1.0977.8633v-.504A3.5648,3.5648,0,0,0,99.5,69.43h.3594v3.7051h1.122Z"/>
      </g>
      <g>
        <path d="M155.2461,60.541h-.7188v2.5967h-.4257V60.541h-.5235v-.3594h.5235a1.7545,1.7545,0,0,1,.0957-.66.7794.7794,0,0,1,.7851-.4678,2.9151,2.9151,0,0,1,.4375.042v.3721a.8443.8443,0,0,0-.2754-.042c-.3066,0-.498.0957-.5644.2822-.0528.126-.0528.1494-.0528.4736h.7188Z"/>
        <path d="M158.9062,63.1377h-2.8378v-.4141c.8769-.6533.8769-.6533,1.32-1.0254.7793-.6533,1.0078-.9716,1.0078-1.4267a.846.846,0,0,0-.9-.8154.9574.9574,0,0,0-.7676.3837.9047.9047,0,0,0-.1914.5332l-.4687-.1435a1.396,1.396,0,0,1,1.4336-1.17,1.2757,1.2757,0,0,1,1.3925,1.206c0,.5576-.2773.959-1.1406,1.6612-.3418.2812-.6543.5156-1.0547.7968h2.207Z"/>
      </g>
      <g>
        <path d="M177.38,70.91h-.72v2.5976h-.4258V70.91h-.5225v-.3594h.5225a1.7589,1.7589,0,0,1,.0957-.66.7809.7809,0,0,1,.7851-.4668,2.9008,2.9008,0,0,1,.4385.041v.3731a.834.834,0,0,0-.2764-.043c-.3056,0-.498.0957-.5634.2832-.0537.125-.0537.1485-.0537.4727h.72Z"/>
        <path d="M178.8369,71.2285h.4561c.5937,0,.93-.2519.93-.7012a.7409.7409,0,0,0-.834-.7011,1.02,1.02,0,0,0-.7139.2754.9.9,0,0,0-.2217.3711l-.4551-.125a1.3386,1.3386,0,0,1,.4493-.6192,1.6132,1.6132,0,0,1,.9834-.2988,1.1607,1.1607,0,0,1,1.3017,1.0605.9065.9065,0,0,1-.7676.9121,1,1,0,0,1,.9229.9961c0,.7071-.6172,1.1875-1.5166,1.1875a1.6757,1.6757,0,0,1-1.0557-.33,1.2615,1.2615,0,0,1-.4619-.6426l.4678-.1563a.9988.9988,0,0,0,.2822.4864,1.1991,1.1991,0,0,0,.7852.2343,1.04,1.04,0,0,0,.75-.24.7251.7251,0,0,0,.2275-.5273c0-.4864-.4014-.7793-1.0732-.7793h-.4561Z"/>
      </g>
      <g>
        <path d="M177.5957,102.3672h-.7187v2.5976h-.4258v-2.5976h-.5235v-.3594h.5235a1.7583,1.7583,0,0,1,.0957-.66.78.78,0,0,1,.7851-.4668,2.89,2.89,0,0,1,.4375.041v.373a.8247.8247,0,0,0-.2754-.0429c-.3066,0-.498.0957-.5644.2832-.0527.125-.0527.1484-.0527.4726h.7187Z"/>
        <path d="M179.6172,104.9648v-.9531h-1.9727v-.3359l1.8282-2.7949h.6308v2.7343h.6465v.3965h-.6465v.9531Zm0-3.2382c0-.168,0-.2461.0117-.4434-.1016.1856-.1426.2578-.2148.377l-1.2481,1.955h1.4512Z"/>
      </g>
      <g class="cls-2">
        <path d="M48.0264,11.7852v-4h2.4463v.4375H48.5234V9.4883h1.6192v.4023H48.5234v1.8946Z"/>
        <path d="M53.377,10.34A1.3984,1.3984,0,0,1,52.01,11.8633c-.7744,0-1.29-.624-1.29-1.5654A1.3845,1.3845,0,0,1,52.0576,8.751C52.8613,8.751,53.377,9.374,53.377,10.34Zm-1.9493-.8877a1.5,1.5,0,0,0-.2041.84c0,.7617.3,1.1934.8213,1.1934.5166,0,.8281-.4375.8281-1.169a1.4465,1.4465,0,0,0-.21-.87.7949.7949,0,0,0-.624-.3174A.7688.7688,0,0,0,51.4277,9.4521Z"/>
        <path d="M55.998,11.7852V9.8838c0-.48-.2158-.7373-.6113-.7373A.9063.9063,0,0,0,54.56,10.16v1.625h-.4619V8.8291h.4257V9.374c.3057-.4668.5391-.623.9473-.623a.9343.9343,0,0,1,.8516.5156,1.825,1.825,0,0,1,.1084.81v1.709Z"/>
        <path d="M58.7168,11.833a2.5658,2.5658,0,0,1-.4375.0361c-.5576,0-.8457-.3056-.8457-.8994V9.1885h-.5215V8.8291h.5215l.0185-.7441.4317-.0362v.78h.665v.3594h-.665V11.042a.4169.4169,0,0,0,.48.4609,1.75,1.75,0,0,0,.3535-.0351Z"/>
        <path d="M60.8242,10.9277a.59.59,0,0,0,.1914.336,1.203,1.203,0,0,0,.7256.2217c.4141,0,.6953-.1924.6953-.4795,0-.24-.1738-.39-.5088-.4561l-.624-.1143c-.5039-.0957-.7978-.3955-.7978-.8154,0-.5215.4443-.8691,1.1152-.8691a1.076,1.076,0,0,1,1.1641.749l-.42.0908a.7328.7328,0,0,0-.7558-.4619c-.3838,0-.6358.1738-.6358.4375,0,.2217.15.3535.4619.4141l.5821.1015c.6054.1084.8994.3955.8994.876,0,.5391-.4863.9053-1.2178.9053a1.4651,1.4651,0,0,1-1.0068-.33.8983.8983,0,0,1-.3067-.5156Z"/>
        <path d="M64.0752,8.2949h-.4981v-.51h.4981Zm-.0176,3.49h-.4619V8.8291h.4619Z"/>
        <path d="M66.8174,11.7852H64.6406v-.3536l1.57-2.2431H64.76V8.8291h2.0576v.252l-1.625,2.3505h1.625Z"/>
        <path d="M69.71,10.9932a1.2683,1.2683,0,0,1-1.2539.87,1.379,1.379,0,0,1-1.3555-1.541,1.4151,1.4151,0,0,1,1.374-1.5713,1.1977,1.1977,0,0,1,1.1152.6836,2.05,2.05,0,0,1,.1739.9111H67.61a1.3923,1.3923,0,0,0,.12.6895.8481.8481,0,0,0,.7558.45.8109.8109,0,0,0,.6172-.27,1.0164,1.0164,0,0,0,.1807-.3125Zm-.45-.9893a.9269.9269,0,0,0-.168-.5879.7037.7037,0,0,0-.6113-.3115.7977.7977,0,0,0-.6358.3057,1.0076,1.0076,0,0,0-.21.5937Z"/>
        <path d="M74.7129,9.0625v.4023H71.9121V9.0625Zm0,.9473v.4023H71.9121V10.01Z"/>
        <path d="M78.32,9.1885h-.72v2.5967h-.4258V9.1885h-.5225V8.8291h.5225a1.7555,1.7555,0,0,1,.0957-.66.7805.7805,0,0,1,.7852-.4677,2.9262,2.9262,0,0,1,.4384.042v.372a.8556.8556,0,0,0-.2763-.042c-.3057,0-.4981.0957-.5635.2823-.0537.1259-.0537.1494-.0537.4736h.72Z"/>
        <path d="M80.1963,12.6709V11.19c0-.373-.168-.5742-.4766-.5742a.7061.7061,0,0,0-.6445.7891v1.2656h-.3594V10.3691h.3321v.4248c.2373-.3642.42-.4853.7373-.4853a.7277.7277,0,0,1,.663.4014,1.4221,1.4221,0,0,1,.084.63v1.3311Z"/>
        <path d="M82.5078,12.4531a4.0267,4.0267,0,0,1-.8642-2.5,4.1945,4.1945,0,0,1,.8574-2.501h.3066a4.39,4.39,0,0,0-.7383,2.4766,4.5814,4.5814,0,0,0,.7442,2.5244Z"/>
        <path d="M83.63,10.6221a1.1167,1.1167,0,0,0,1.1816.8154c.6,0,.959-.2764.959-.7314,0-.3057-.2217-.5342-.6113-.63l-.7979-.2041a1.3794,1.3794,0,0,1-.6592-.3,1.0319,1.0319,0,0,1-.3242-.7735c0-.6533.54-1.0918,1.35-1.0918a1.3849,1.3849,0,0,1,1.4268.9834l-.4492.126a.7428.7428,0,0,0-.252-.4316,1.1336,1.1336,0,0,0-.7441-.27c-.4854,0-.8457.2754-.8457.6534,0,.3183.1865.4921.6543.6054l.7431.1807c.6836.1611,1.0313.5332,1.0313,1.1035,0,.7314-.5811,1.2051-1.4805,1.2051a1.6392,1.6392,0,0,1-1.17-.3955,1.7358,1.7358,0,0,1-.4619-.75Z"/>
        <path d="M89.1846,10.8193a1.2086,1.2086,0,0,1-.3477.7256,1.0487,1.0487,0,0,1-.7969.3184c-.7558,0-1.248-.6123-1.248-1.5537,0-.9356.5039-1.5586,1.2715-1.5586a1.092,1.092,0,0,1,1.1211,1.0312l-.4131.0782a.9775.9775,0,0,0-.1563-.45.6768.6768,0,0,0-.5576-.2813c-.4853,0-.7851.4492-.7851,1.169,0,.7441.2871,1.1875.7793,1.1875.372,0,.623-.252.72-.7374Z"/>
        <path d="M89.8516,11.7852V8.8291h.4013v.6895a2.2822,2.2822,0,0,1,.3057-.5157.779.779,0,0,1,.582-.2578c.0362,0,.1016.0059.168.0117v.4375a.9488.9488,0,0,0-.9951,1.0254v1.5655Z"/>
        <path d="M94.1406,10.9932a1.2683,1.2683,0,0,1-1.2539.87,1.379,1.379,0,0,1-1.3555-1.541A1.4152,1.4152,0,0,1,92.9053,8.751a1.1979,1.1979,0,0,1,1.1152.6836,2.05,2.05,0,0,1,.1738.9111H92.041a1.3934,1.3934,0,0,0,.12.6895.8483.8483,0,0,0,.7559.45.811.811,0,0,0,.6172-.27,1.0165,1.0165,0,0,0,.1806-.3125Zm-.45-.9893a.9263.9263,0,0,0-.1679-.5879.7039.7039,0,0,0-.6114-.3115.7975.7975,0,0,0-.6357.3057,1.0083,1.0083,0,0,0-.21.5937Z"/>
        <path d="M97.291,10.9932a1.2683,1.2683,0,0,1-1.2539.87,1.379,1.379,0,0,1-1.3555-1.541A1.4152,1.4152,0,0,1,96.0557,8.751a1.1979,1.1979,0,0,1,1.1152.6836,2.05,2.05,0,0,1,.1738.9111H95.1914a1.3934,1.3934,0,0,0,.12.6895.8483.8483,0,0,0,.7559.45.811.811,0,0,0,.6172-.27,1.0165,1.0165,0,0,0,.1806-.3125Zm-.45-.9893a.9263.9263,0,0,0-.1679-.5879.7039.7039,0,0,0-.6114-.3115.7975.7975,0,0,0-.6357.3057,1.0077,1.0077,0,0,0-.21.5937Z"/>
        <path d="M99.9668,11.7852V9.8838c0-.48-.2158-.7373-.6113-.7373a.9064.9064,0,0,0-.8272,1.0137v1.625h-.4619V8.8291h.4258V9.374c.3057-.4668.539-.623.9473-.623a.9342.9342,0,0,1,.8515.5156,1.825,1.825,0,0,1,.1084.81v1.709Z"/>
        <path d="M105.4326,11.7852h-.3721l-.6591-2.1944-.6065,2.1944h-.3779L102.53,8.8291h.4609l.6426,2.2.6172-2.2h.3359l.6592,2.2129.666-2.2129h.3721Z"/>
        <path d="M107.3057,8.2949h-.4981v-.51h.4981Zm-.0176,3.49h-.4619V8.8291h.4619Z"/>
        <path d="M110.5381,11.7852h-.42v-.504a.9848.9848,0,0,1-.9356.5879c-.6953,0-1.1875-.6357-1.1875-1.5351,0-.9356.4981-1.583,1.2119-1.583a.9862.9862,0,0,1,.8692.4795V7.7852h.4619Zm-.4619-1.8174a.8772.8772,0,0,0-.1739-.5449.8063.8063,0,0,0-.624-.3067c-.4736,0-.7793.4561-.7793,1.1582,0,.7676.2822,1.2168.7617,1.2168a.8132.8132,0,0,0,.6-.3.9253.9253,0,0,0,.2158-.6055Z"/>
        <path d="M112.83,11.833a2.5658,2.5658,0,0,1-.4375.0361c-.5576,0-.8457-.3056-.8457-.8994V9.1885h-.5215V8.8291h.5215l.0185-.7441.4317-.0362v.78h.665v.3594h-.665V11.042a.4169.4169,0,0,0,.48.4609,1.75,1.75,0,0,0,.3535-.0351Z"/>
        <path d="M115.2,11.7852V9.9922a1.3387,1.3387,0,0,0-.06-.5342.5516.5516,0,0,0-.5156-.3291.795.795,0,0,0-.5762.2813,1.09,1.09,0,0,0-.2451.78v1.5948h-.4619v-4h.4619V9.374a.9532.9532,0,0,1,.9053-.6289.9026.9026,0,0,1,.7734.39,1.2432,1.2432,0,0,1,.18.8574v1.793Z"/>
        <path d="M116.7324,7.4521a4.0348,4.0348,0,0,1,.8633,2.501,4.19,4.19,0,0,1-.8574,2.5h-.3057a4.3915,4.3915,0,0,0,.7373-2.4765,4.5845,4.5845,0,0,0-.7441-2.5245Z"/>
      </g>
      <g class="cls-2">
        <path d="M109.4229,186.9785a1.1166,1.1166,0,0,0,1.1816.8154c.6,0,.959-.2763.959-.7314,0-.3057-.2217-.5342-.6114-.63l-.7978-.2041a1.3785,1.3785,0,0,1-.6592-.3,1.0316,1.0316,0,0,1-.3242-.7734c0-.6533.54-1.0918,1.35-1.0918a1.3848,1.3848,0,0,1,1.4268.9834l-.4493.126a.7433.7433,0,0,0-.2519-.4317,1.1342,1.1342,0,0,0-.7441-.2695c-.4854,0-.8458.2754-.8458.6533,0,.3184.1866.4922.6543.6055l.7432.1806c.6836.1612,1.0313.5332,1.0313,1.1035,0,.7315-.5811,1.2051-1.48,1.2051a1.6388,1.6388,0,0,1-1.17-.3955,1.7351,1.7351,0,0,1-.4619-.75Z"/>
        <path d="M114.9473,187.1758a1.2089,1.2089,0,0,1-.3477.7256,1.0488,1.0488,0,0,1-.7969.3183c-.7558,0-1.248-.6123-1.248-1.5537,0-.9355.5039-1.5586,1.2715-1.5586a1.092,1.092,0,0,1,1.1211,1.0313l-.4131.0781a.98.98,0,0,0-.1563-.45.6767.6767,0,0,0-.5576-.2812c-.4853,0-.7851.4492-.7851,1.1689,0,.7441.2871,1.1875.7793,1.1875.372,0,.623-.252.72-.7373Z"/>
        <path d="M115.585,188.1416v-2.9561h.4013v.69a2.281,2.281,0,0,1,.3057-.5156.7786.7786,0,0,1,.582-.2578c.0362,0,.1016.0058.168.0117v.4375a.9487.9487,0,0,0-.9951,1.0254v1.5654Z"/>
        <path d="M119.8438,187.35a1.2683,1.2683,0,0,1-1.254.87,1.3789,1.3789,0,0,1-1.3554-1.541,1.4151,1.4151,0,0,1,1.374-1.5713,1.1979,1.1979,0,0,1,1.1152.6836,2.05,2.05,0,0,1,.1739.9111h-2.1534a1.3919,1.3919,0,0,0,.12.69.8481.8481,0,0,0,.7558.45.8108.8108,0,0,0,.6172-.2695,1.0189,1.0189,0,0,0,.1807-.3125Zm-.45-.9892a.9269.9269,0,0,0-.168-.5879.7038.7038,0,0,0-.6113-.3116.7975.7975,0,0,0-.6358.3057,1.008,1.008,0,0,0-.21.5938Z"/>
        <path d="M122.9639,187.35a1.2683,1.2683,0,0,1-1.2539.87,1.3789,1.3789,0,0,1-1.3555-1.541,1.4151,1.4151,0,0,1,1.374-1.5713,1.1982,1.1982,0,0,1,1.1153.6836,2.0516,2.0516,0,0,1,.1738.9111h-2.1533a1.392,1.392,0,0,0,.12.69.8481.8481,0,0,0,.7558.45.8108.8108,0,0,0,.6172-.2695,1.0189,1.0189,0,0,0,.1807-.3125Zm-.45-.9892a.9269.9269,0,0,0-.168-.5879.7038.7038,0,0,0-.6113-.3116.7977.7977,0,0,0-.6358.3057,1.008,1.008,0,0,0-.21.5938Z"/>
        <path d="M125.6094,188.1416V186.24c0-.4795-.2158-.7373-.6114-.7373a.9065.9065,0,0,0-.8271,1.0137v1.625h-.4619v-2.9561h.4258v.545c.3056-.4668.539-.6231.9472-.6231a.9343.9343,0,0,1,.8516.5156,1.8253,1.8253,0,0,1,.1084.81v1.709Z"/>
        <path d="M131.0156,188.1416h-.372l-.6592-2.1943-.6065,2.1943H129l-.8867-2.9561h.4609l.6426,2.2.6172-2.2h.3359l.6592,2.2129.666-2.2129h.3721Z"/>
        <path d="M132.8584,184.6514h-.498v-.51h.498Zm-.0176,3.49h-.4619v-2.9561h.4619Z"/>
        <path d="M136.0615,188.1416h-.42v-.5039a.9849.9849,0,0,1-.9355.5879c-.6954,0-1.1875-.6358-1.1875-1.5352,0-.9355.498-1.583,1.2119-1.583a.9862.9862,0,0,1,.8691.48v-1.4453h.4619Zm-.4619-1.8174a.878.878,0,0,0-.1738-.5449.8067.8067,0,0,0-.624-.3066c-.4737,0-.7793.456-.7793,1.1582,0,.7675.2822,1.2168.7617,1.2168a.8132.8132,0,0,0,.6-.3.9258.9258,0,0,0,.2158-.6055Z"/>
        <path d="M138.3232,188.19a2.5762,2.5762,0,0,1-.4375.0361c-.5576,0-.8457-.3057-.8457-.8994v-1.7813h-.5214v-.3594h.5214l.0186-.7441.4316-.0361v.78h.6651v.3594H137.49v1.8535a.417.417,0,0,0,.48.461,1.7509,1.7509,0,0,0,.3535-.0352Z"/>
        <path d="M140.6631,188.1416v-1.793a1.3384,1.3384,0,0,0-.06-.5341.5516.5516,0,0,0-.5156-.3291.7953.7953,0,0,0-.5762.2812,1.09,1.09,0,0,0-.2451.78v1.5947h-.4619v-4h.4619v1.5889a.9531.9531,0,0,1,.9053-.6289.9029.9029,0,0,1,.7734.39,1.2432,1.2432,0,0,1,.18.8574v1.793Z"/>
        <path d="M146.1592,185.9766a1.7769,1.7769,0,0,1-.3115-.6231.0832.0832,0,0,1,.09-.084c.042,0,.06.0117.1377.1016a2.6314,2.6314,0,0,0,.792.6182c.126.0712.1377.083.1377.1435s-.0117.0654-.1856.1621a2.6257,2.6257,0,0,0-.7441.5938c-.084.09-.0957.1015-.1436.1015a.0821.0821,0,0,1-.0839-.084,1.6951,1.6951,0,0,1,.3115-.624h-2.9981v-.3056Z"/>
      </g>
      <rect class="cls-3" x="47.2408" y="17.4761" width="161.5184" height="161.5184"/>
      <g class="cls-2">
        <path class="cls-4" d="M119.3906,101.7148l-2.8838-2.7714,1.6953-1.7637.3145.3027-1.35,1.4063.9121.8769,1.1221-1.1679.29.2793-1.1221,1.1679,1.3663,1.3125Z"/>
        <path class="cls-4" d="M122.0352,96.877a1.4,1.4,0,0,1,.1513,2.0419,1.3657,1.3657,0,0,1-2.0234-.1543,1.3473,1.3473,0,1,1,1.8721-1.8876Zm-1.9913.791a1.4944,1.4944,0,0,0,.4649.7285c.5488.5283,1.0683.6113,1.43.2353.3574-.372.2578-.9-.27-1.4072a1.4435,1.4435,0,0,0-.7724-.4512.7918.7918,0,0,0-.6611.2305A.7657.7657,0,0,0,120.0439,97.668Z"/>
        <path class="cls-4" d="M124.873,96.01l-1.37-1.3164c-.3457-.3321-.6816-.3555-.956-.07a.9064.9064,0,0,0,.1572,1.2989l1.1719,1.125-.32.334-2.1309-2.0489.2949-.3066.3926.3779a1.0326,1.0326,0,0,1,.207-1.1142.9342.9342,0,0,1,.9629-.2579,1.8119,1.8119,0,0,1,.6582.4825l1.2325,1.1845Z"/>
        <path class="cls-4" d="M126.7705,94.1055a2.467,2.467,0,0,1-.2773.34.7763.7763,0,0,1-1.2344-.0137l-1.2842-1.2343-.3613.3769-.2588-.25.3613-.375-.5244-.5293.2734-.3359.5625.54.461-.48.2588.2491-.461.4794,1.3369,1.2852a.4176.4176,0,0,0,.6651-.0273,1.63,1.63,0,0,0,.2187-.2793Z"/>
        <path class="cls-4" d="M127.5361,92.002a.59.59,0,0,0,.375.0947,1.1986,1.1986,0,0,0,.6621-.3692c.2872-.2988.3438-.6357.1368-.8349-.1729-.166-.4024-.1436-.6817.0517l-.5156.3711a.8457.8457,0,0,1-1.1406.0108c-.375-.3614-.3184-.9229.1465-1.4063a1.0778,1.0778,0,0,1,1.3476-.3213l-.2266.3662a.7328.7328,0,0,0-.8564.2247c-.2666.2773-.3154.5791-.125.7617.1592.1533.3584.1367.6182-.0469l.4765-.3486c.4981-.3623.9082-.3741,1.2559-.042.3887.374.3144.9785-.1914,1.5058a1.464,1.464,0,0,1-.9356.4971.903.903,0,0,1-.5849-.1357Z"/>
        <path class="cls-4" d="M127.87,87.8545l-.3457.3594-.3672-.3526.3457-.3593Zm2.5039,2.4307-.32.3339L127.9229,88.57l.32-.333Z"/>
        <path class="cls-4" d="M132.2656,88.3184l-1.5088,1.5683-.2539-.2441-.5293-2.6875-1.0058,1.0469-.26-.2491,1.4258-1.4834.1816.1748.5694,2.8,1.1259-1.1709Z"/>
        <path class="cls-4" d="M133.6787,85.7051a1.27,1.27,0,0,1-.2422,1.5078,1.3793,1.3793,0,0,1-2.0508-.0918,1.4132,1.4132,0,0,1-.18-2.0781,1.194,1.194,0,0,1,1.2656-.33,2.0429,2.0429,0,0,1,.7773.5059l-1.4922,1.5527a1.3972,1.3972,0,0,0,.58.3906.85.85,0,0,0,.8486-.2334.8144.8144,0,0,0,.2334-.6318,1,1,0,0,0-.1005-.3467Zm-1.0254-.36a.9288.9288,0,0,0-.541-.2861.7041.7041,0,0,0-.6484.2246.7979.7979,0,0,0-.22.67,1.0181,1.0181,0,0,0,.2823.5635Z"/>
      </g>
      <line class="cls-5" x1="47.2408" y1="178.9945" x2="208.7592" y2="17.4761"/>
      <g class="cls-2">
        <g>
          <line class="cls-6" x1="47.2407" y1="178.9945" x2="47.6826" y2="178.7604"/>
          <line class="cls-7" x1="48.5686" y1="178.2906" x2="207.6272" y2="93.9855"/>
          <line class="cls-6" x1="208.0703" y1="93.7506" x2="208.512" y2="93.5165"/>
        </g>
      </g>
      <g class="cls-2">
        <g>
          <line class="cls-6" x1="47.2407" y1="178.9945" x2="47.6379" y2="178.6906"/>
          <line class="cls-8" x1="48.4285" y1="178.0854" x2="207.7197" y2="56.1565"/>
          <line class="cls-6" x1="208.115" y1="55.8539" x2="208.512" y2="55.55"/>
        </g>
      </g>
      <g class="cls-2">
        <g>
          <line class="cls-6" x1="47.2407" y1="178.9945" x2="47.4841" y2="178.5576"/>
          <line class="cls-9" x1="47.9729" y1="177.6798" x2="136.7068" y2="18.3518"/>
          <line class="cls-6" x1="136.9512" y1="17.913" x2="137.1946" y2="17.4761"/>
        </g>
      </g>
    </g>
  </g>
</svg>
