<svg xmlns="http://www.w3.org/2000/svg" width="256" height="199.3333" viewBox="0 0 256 199.3333">
  <defs>
    <style>
      .cls-1 {
        isolation: isolate;
      }

      .cls-2, .cls-4, .cls-5 {
        mix-blend-mode: multiply;
      }

      .cls-3 {
        fill: #ff4200;
      }

      .cls-4, .cls-5 {
        fill: none;
      }

      .cls-4 {
        stroke: #000;
        stroke-miterlimit: 10;
        stroke-width: 0.25px;
      }

      .cls-5 {
        stroke: #ff4200;
        stroke-linecap: round;
        stroke-linejoin: round;
      }

      .cls-6 {
        opacity: 0.89;
      }
    </style>
  </defs>
  <g class="cls-1">
    <g id="Layer_1" data-name="Layer 1">
      <g class="cls-2">
        <path d="M51.9688,11.2061v-4h2.4453v.4375H52.4648V8.9092H54.084v.4023H52.4648v1.8946Z"/>
        <path d="M57.3184,9.7607a1.3984,1.3984,0,0,1-1.3672,1.5235c-.7735,0-1.2891-.624-1.2891-1.5654A1.384,1.384,0,0,1,56,8.1719C56.8027,8.1719,57.3184,8.7949,57.3184,9.7607ZM55.3691,8.873a1.5084,1.5084,0,0,0-.2031.84c0,.7617.2988,1.1933.82,1.1933.5176,0,.8282-.4374.8282-1.1689a1.4541,1.4541,0,0,0-.209-.87.7968.7968,0,0,0-.625-.3174A.7715.7715,0,0,0,55.3691,8.873Z"/>
        <path d="M59.94,11.2061V9.3047c0-.4795-.2149-.7373-.6114-.7373a.9063.9063,0,0,0-.8261,1.0137v1.625h-.4629V8.25h.4257v.5449c.3067-.4668.5391-.623.9473-.623a.9332.9332,0,0,1,.8516.5156,1.8211,1.8211,0,0,1,.1093.81v1.709Z"/>
        <path d="M62.6582,11.2539a2.5509,2.5509,0,0,1-.4375.0361c-.5566,0-.8457-.3056-.8457-.8994V8.6094h-.5215V8.25h.5215l.02-.7441.4317-.0362v.78h.664v.3594h-.664v1.8535a.4162.4162,0,0,0,.4785.4609,1.75,1.75,0,0,0,.3535-.0351Z"/>
        <path d="M64.7656,10.3486a.5953.5953,0,0,0,.1914.336,1.2061,1.2061,0,0,0,.7266.2216c.4141,0,.6953-.1923.6953-.4794,0-.24-.1738-.39-.51-.4561l-.623-.1143c-.5039-.0957-.7988-.3955-.7988-.8154,0-.5215.4453-.8691,1.1152-.8691a1.0753,1.0753,0,0,1,1.1641.749l-.42.0908a.7313.7313,0,0,0-.7558-.4619c-.3828,0-.6348.1738-.6348.4375,0,.2217.15.3535.461.4141l.582.1015c.6055.1084.9.3955.9.876,0,.5391-.4864.9053-1.2188.9053a1.4607,1.4607,0,0,1-1.0058-.33.8983.8983,0,0,1-.3067-.5156Z"/>
        <path d="M68.0176,7.7158H67.52v-.51h.4981ZM68,11.2061h-.4629V8.25H68Z"/>
        <path d="M70.76,11.2061H68.582v-.3536l1.57-2.2431H68.7012V8.25H70.76v.252l-1.625,2.35H70.76Z"/>
        <path d="M73.6523,10.4141a1.269,1.269,0,0,1-1.2539.87,1.3784,1.3784,0,0,1-1.3554-1.541,1.415,1.415,0,0,1,1.373-1.5713,1.1957,1.1957,0,0,1,1.1152.6836,2.0377,2.0377,0,0,1,.1739.9111H71.5527a1.3937,1.3937,0,0,0,.1192.6895.8492.8492,0,0,0,.7558.45.8077.8077,0,0,0,.6172-.27,1.0152,1.0152,0,0,0,.1817-.3125Zm-.4511-.9893a.9209.9209,0,0,0-.168-.5879.7025.7025,0,0,0-.6113-.3115.7957.7957,0,0,0-.6348.3057,1.0079,1.0079,0,0,0-.2109.5937Z"/>
        <path d="M78.6543,8.4834v.4023H75.8535V8.4834Zm0,.9473V9.833H75.8535V9.4307Z"/>
        <path d="M81.0859,10.043a1.1175,1.1175,0,0,0,1.1817.8154c.6,0,.959-.2764.959-.7314,0-.3057-.2207-.5342-.6114-.63l-.7968-.2041a1.3884,1.3884,0,0,1-.66-.3A1.0353,1.0353,0,0,1,80.834,8.22c0-.6533.541-1.0918,1.35-1.0918a1.3867,1.3867,0,0,1,1.4277.9834l-.4492.126a.7484.7484,0,0,0-.2519-.4316,1.1379,1.1379,0,0,0-.7442-.27c-.4863,0-.8457.2754-.8457.6534,0,.3183.1856.4921.6543.6054l.7422.1807c.6836.1611,1.0312.5332,1.0312,1.1035,0,.7314-.58,1.2051-1.48,1.2051a1.6407,1.6407,0,0,1-1.17-.3955,1.7445,1.7445,0,0,1-.461-.75Z"/>
        <path d="M86.6406,10.24a1.2192,1.2192,0,0,1-.3476.7256,1.0518,1.0518,0,0,1-.7969.3184c-.7559,0-1.2481-.6123-1.2481-1.5537,0-.9356.504-1.5586,1.2715-1.5586a1.0918,1.0918,0,0,1,1.1211,1.0312l-.414.0781a.9683.9683,0,0,0-.1563-.45.6751.6751,0,0,0-.5566-.2813c-.4864,0-.7852.4492-.7852,1.169,0,.7441.2871,1.1874.7793,1.1874.3711,0,.6231-.2519.7188-.7373Z"/>
        <path d="M87.3086,11.2061V8.25h.4v.69a2.2731,2.2731,0,0,1,.3066-.5157.7774.7774,0,0,1,.5821-.2578c.0351,0,.1015.0059.1679.0117v.4375A.949.949,0,0,0,87.77,9.6406v1.5655Z"/>
        <path d="M91.5957,10.4141a1.2674,1.2674,0,0,1-1.2539.87,1.38,1.38,0,0,1-1.3555-1.541,1.4153,1.4153,0,0,1,1.375-1.5713,1.2,1.2,0,0,1,1.1153.6836,2.0657,2.0657,0,0,1,.1738.9111H89.4961a1.3907,1.3907,0,0,0,.1211.6895.8469.8469,0,0,0,.7558.45.8139.8139,0,0,0,.6172-.27,1.0177,1.0177,0,0,0,.18-.3125Zm-.4492-.9893a.9324.9324,0,0,0-.168-.5879.7048.7048,0,0,0-.6113-.3115.7994.7994,0,0,0-.6367.3057,1.0074,1.0074,0,0,0-.209.5937Z"/>
        <path d="M94.7461,10.4141a1.2674,1.2674,0,0,1-1.2539.87,1.38,1.38,0,0,1-1.3555-1.541,1.4153,1.4153,0,0,1,1.375-1.5713,1.2,1.2,0,0,1,1.1153.6836,2.0657,2.0657,0,0,1,.1738.9111H92.6465a1.3907,1.3907,0,0,0,.1211.6895.8469.8469,0,0,0,.7558.45.8139.8139,0,0,0,.6172-.27,1.0177,1.0177,0,0,0,.18-.3125Zm-.4492-.9893a.933.933,0,0,0-.168-.5879.7049.7049,0,0,0-.6113-.3115.7994.7994,0,0,0-.6367.3057,1.0074,1.0074,0,0,0-.209.5937Z"/>
        <path d="M97.4219,11.2061V9.3047c0-.4795-.2168-.7373-.6114-.7373a.9065.9065,0,0,0-.8281,1.0137v1.625h-.4609V8.25h.4258v.5449c.3047-.4668.539-.623.9472-.623a.9353.9353,0,0,1,.8516.5156,1.8294,1.8294,0,0,1,.1074.81v1.709Z"/>
        <path d="M102.8887,11.2061h-.3731l-.6582-2.1944-.6074,2.1944h-.377L99.9863,8.25h.461l.6425,2.2.6172-2.2h.336l.6582,2.2129.666-2.2129h.373Z"/>
        <path d="M104.7617,7.7158h-.498v-.51h.498Zm-.0176,3.49h-.4629V8.25h.4629Z"/>
        <path d="M107.9941,11.2061h-.42v-.504a.9847.9847,0,0,1-.9355.5879c-.6953,0-1.1875-.6357-1.1875-1.5351,0-.9356.498-1.583,1.2129-1.583a.986.986,0,0,1,.8691.4795V7.2061h.4609Zm-.4609-1.8174a.89.89,0,0,0-.1738-.5449.81.81,0,0,0-.625-.3067c-.4727,0-.7793.4561-.7793,1.1582,0,.7676.2832,1.2168.7617,1.2168a.8112.8112,0,0,0,.6-.3.9257.9257,0,0,0,.2168-.6055Z"/>
        <path d="M110.2871,11.2539a2.5808,2.5808,0,0,1-.4375.0361c-.5586,0-.8457-.3056-.8457-.8994V8.6094h-.5215V8.25h.5215l.0176-.7441.4316-.0362v.78h.666v.3594h-.666v1.8535c0,.3057.1621.4609.48.4609a1.75,1.75,0,0,0,.3535-.0351Z"/>
        <path d="M112.6562,11.2061V9.4131a1.3169,1.3169,0,0,0-.0605-.5342A.5505.5505,0,0,0,112.08,8.55a.7968.7968,0,0,0-.5762.2813,1.09,1.09,0,0,0-.2441.78v1.5948h-.4629v-4h.4629V8.7949a.951.951,0,0,1,.9043-.6289.9015.9015,0,0,1,.7734.39,1.2432,1.2432,0,0,1,.18.8574v1.793Z"/>
        <path d="M117.209,9.7412l-.9043.9053-.2891-.2881.9063-.9053-.9063-.9052.2891-.2881.9043.9052.9-.9052.2871.2881-.9043.9052.9043.9053-.2871.2881Z"/>
        <path d="M123.498,7.89a2.9731,2.9731,0,0,1,.3047,1.3379,2.868,2.868,0,0,1-.3242,1.3194,1.3289,1.3289,0,0,1-1.1875.7373c-.8926,0-1.5156-.8574-1.5156-2.0869a2.8281,2.8281,0,0,1,.293-1.3077,1.35,1.35,0,0,1,2.43,0Zm-2.2128,1.2959c0,1.0733.3769,1.709,1.0117,1.709a.8574.8574,0,0,0,.8281-.63,2.74,2.74,0,0,0,.1621-.9716,3.2184,3.2184,0,0,0-.2031-1.1875.8539.8539,0,0,0-.8106-.5869C121.6445,7.5186,121.2852,8.13,121.2852,9.1855Z"/>
        <path d="M125.0938,11.2061H124.44v-.6534h.6543Z"/>
        <path d="M128.5137,7.89a2.9744,2.9744,0,0,1,.3047,1.3379,2.868,2.868,0,0,1-.3243,1.3194,1.3289,1.3289,0,0,1-1.1875.7373c-.8925,0-1.5156-.8574-1.5156-2.0869a2.8281,2.8281,0,0,1,.293-1.3077,1.35,1.35,0,0,1,2.43,0Zm-2.2129,1.2959c0,1.0733.3769,1.709,1.0117,1.709a.8574.8574,0,0,0,.8281-.63,2.74,2.74,0,0,0,.1621-.9716A3.2164,3.2164,0,0,0,128.1,8.1055a.8539.8539,0,0,0-.8105-.5869C126.66,7.5186,126.3008,8.13,126.3008,9.1855Z"/>
        <path d="M132.4492,11.2061h-2.8008V10.834h1.1993V7.7461a4.4891,4.4891,0,0,1-1.0977.8633V8.1055a3.5652,3.5652,0,0,0,1.2168-.9776h.3594V10.834h1.123Z"/>
      </g>
      <g class="cls-2">
        <path d="M113.6523,186.2236a1.1176,1.1176,0,0,0,1.1817.8155c.6,0,.959-.2764.959-.7315,0-.3056-.2207-.5342-.6114-.63l-.7968-.2041a1.3875,1.3875,0,0,1-.66-.3A1.0349,1.0349,0,0,1,113.4,184.4c0-.6533.541-1.0918,1.35-1.0918a1.3866,1.3866,0,0,1,1.4277.9834l-.4492.126a.749.749,0,0,0-.2519-.4317,1.1383,1.1383,0,0,0-.7442-.2695c-.4863,0-.8457.2754-.8457.6533,0,.3184.1856.4922.6543.6055l.7422.1806c.6836.1612,1.0313.5333,1.0313,1.1036,0,.7314-.58,1.205-1.48,1.205a1.64,1.64,0,0,1-1.17-.3955,1.7442,1.7442,0,0,1-.461-.75Z"/>
        <path d="M119.1777,186.4209a1.22,1.22,0,0,1-.3476.7256,1.0518,1.0518,0,0,1-.7969.3183c-.7559,0-1.248-.6123-1.248-1.5537,0-.9355.5039-1.5586,1.2714-1.5586a1.0919,1.0919,0,0,1,1.1211,1.0313l-.414.0781a.9692.9692,0,0,0-.1563-.45.675.675,0,0,0-.5566-.2812c-.4863,0-.7852.4492-.7852,1.1689,0,.7442.2871,1.1875.7793,1.1875.3711,0,.6231-.2519.7188-.7373Z"/>
        <path d="M119.8145,187.3867v-2.956h.4023v.6894a2.2832,2.2832,0,0,1,.3047-.5156.78.78,0,0,1,.582-.2578c.0371,0,.1016.0058.168.0117v.4375a.9486.9486,0,0,0-.9942,1.0254v1.5654Z"/>
        <path d="M124.0742,186.5947a1.269,1.269,0,0,1-1.2539.87,1.3785,1.3785,0,0,1-1.3555-1.541,1.415,1.415,0,0,1,1.3731-1.5713,1.1961,1.1961,0,0,1,1.1152.6836,2.0379,2.0379,0,0,1,.1739.9112h-2.1524a1.3933,1.3933,0,0,0,.1192.6894.8492.8492,0,0,0,.7558.45.8079.8079,0,0,0,.6172-.27,1.0178,1.0178,0,0,0,.1816-.3125Zm-.4512-.9892a.92.92,0,0,0-.1679-.5879.7026.7026,0,0,0-.6113-.3115.7958.7958,0,0,0-.6348.3056,1.009,1.009,0,0,0-.211.5938Z"/>
        <path d="M127.1934,186.5947a1.2674,1.2674,0,0,1-1.2539.87,1.38,1.38,0,0,1-1.3555-1.541,1.4153,1.4153,0,0,1,1.375-1.5713,1.2,1.2,0,0,1,1.1152.6836,2.063,2.063,0,0,1,.1738.9112h-2.1542a1.3916,1.3916,0,0,0,.121.6894.8471.8471,0,0,0,.7559.45.8139.8139,0,0,0,.6172-.27,1.02,1.02,0,0,0,.18-.3125Zm-.4493-.9892a.9324.9324,0,0,0-.1679-.5879.7049.7049,0,0,0-.6114-.3115.8.8,0,0,0-.6367.3056,1.0084,1.0084,0,0,0-.209.5938Z"/>
        <path d="M129.84,187.3867v-1.9013c0-.48-.2168-.7374-.6113-.7374a.9065.9065,0,0,0-.8281,1.0137v1.625H127.94v-2.956h.4257v.5449c.3047-.4668.5391-.6231.9473-.6231a.9353.9353,0,0,1,.8516.5157,1.8289,1.8289,0,0,1,.1074.8095v1.709Z"/>
        <path d="M135.2461,187.3867h-.3731l-.6582-2.1943-.6074,2.1943h-.3769l-.8867-2.956h.4609l.6426,2.2.6172-2.2H134.4l.6582,2.2129.666-2.2129h.3731Z"/>
        <path d="M137.0879,183.8965H136.59v-.51h.4981Zm-.0176,3.49h-.4609v-2.956h.4609Z"/>
        <path d="M140.291,187.3867h-.42v-.5039a.985.985,0,0,1-.9356.5879c-.6953,0-1.1875-.6357-1.1875-1.5352,0-.9355.4981-1.583,1.2129-1.583a.9864.9864,0,0,1,.8692.48v-1.4453h.4609Zm-.4609-1.8174a.89.89,0,0,0-.1739-.5449.81.81,0,0,0-.625-.3066c-.4726,0-.7792.456-.7792,1.1582,0,.7676.2832,1.2168.7617,1.2168a.8117.8117,0,0,0,.6-.3.9261.9261,0,0,0,.2168-.6055Z"/>
        <path d="M142.5527,187.4346a2.5612,2.5612,0,0,1-.4375.0361c-.5566,0-.8457-.3057-.8457-.8994V184.79h-.5215v-.3593h.5215l.02-.7442.4316-.0361v.78h.6641v.3593h-.6641v1.8536a.4163.4163,0,0,0,.4785.4609,1.7509,1.7509,0,0,0,.3535-.0352Z"/>
        <path d="M144.8926,187.3867v-1.7929a1.3638,1.3638,0,0,0-.0586-.5342.5526.5526,0,0,0-.5156-.3291.7936.7936,0,0,0-.5762.2812,1.09,1.09,0,0,0-.2461.78v1.5947h-.4609v-4h.4609v1.5889a.9551.9551,0,0,1,.9062-.6289.9042.9042,0,0,1,.7735.39,1.2436,1.2436,0,0,1,.18.8575v1.7929Z"/>
        <path d="M150.3887,185.2217a1.7691,1.7691,0,0,1-.3106-.6231.0827.0827,0,0,1,.09-.084c.041,0,.0586.0118.1367.1016a2.6368,2.6368,0,0,0,.793.6182c.125.0713.1367.083.1367.1435s-.0117.0655-.1856.1621a2.6257,2.6257,0,0,0-.7441.5938c-.084.09-.0957.1016-.1426.1016a.0817.0817,0,0,1-.084-.084,1.7047,1.7047,0,0,1,.3106-.6241h-2.9981v-.3056Z"/>
      </g>
      <g class="cls-2">
        <path d="M53.3174,184.07a2.9748,2.9748,0,0,1,.3056,1.3379,2.88,2.88,0,0,1-.3242,1.3193,1.3289,1.3289,0,0,1-1.1875.7373c-.8935,0-1.5166-.8574-1.5166-2.0869a2.8152,2.8152,0,0,1,.294-1.3076,1.3488,1.3488,0,0,1,2.4287,0Zm-2.2129,1.2959c0,1.0733.3779,1.709,1.0127,1.709a.8574.8574,0,0,0,.8281-.63,2.74,2.74,0,0,0,.1621-.9717,3.1954,3.1954,0,0,0-.2041-1.1875.8544.8544,0,0,0-.8095-.5869C51.4639,183.6992,51.1045,184.3105,51.1045,185.3662Z"/>
      </g>
      <g class="cls-2">
        <path d="M202.252,187.3867h-2.8008v-.3721H200.65v-3.0878a4.4862,4.4862,0,0,1-1.0977.8632v-.5039a3.563,3.563,0,0,0,1.2168-.9775h.3594v3.706h1.1231Z"/>
        <path d="M205.3105,183.8184h-1.9667l-.084,1.2959a1.2932,1.2932,0,0,1,.9785-.4385,1.359,1.359,0,0,1,1.3789,1.3857,1.4252,1.4252,0,0,1-1.5234,1.4033,1.5206,1.5206,0,0,1-1.08-.4082,1.1175,1.1175,0,0,1-.336-.5332l.4258-.15a.9918.9918,0,0,0,.99.6963.97.97,0,0,0,1.0371-1.0136.9175.9175,0,0,0-.9414-.9659,1.0747,1.0747,0,0,0-.9415.5459l-.3964-.0839.1328-2.1651h2.3691Z"/>
        <path d="M208.91,184.07a2.9753,2.9753,0,0,1,.3066,1.3379,2.8926,2.8926,0,0,1-.3242,1.3193,1.329,1.329,0,0,1-1.1875.7373c-.8946,0-1.5176-.8574-1.5176-2.0869a2.8043,2.8043,0,0,1,.2949-1.3076,1.3481,1.3481,0,0,1,2.4278,0Zm-2.2129,1.2959c0,1.0733.3789,1.709,1.0136,1.709a.8574.8574,0,0,0,.8282-.63,2.74,2.74,0,0,0,.1621-.9717,3.1764,3.1764,0,0,0-.2051-1.1875.8533.8533,0,0,0-.8086-.5869C207.0566,183.6992,206.6973,184.3105,206.6973,185.3662Z"/>
        <path d="M212.4316,184.07a2.974,2.974,0,0,1,.3067,1.3379,2.8926,2.8926,0,0,1-.3242,1.3193,1.329,1.329,0,0,1-1.1875.7373c-.8946,0-1.5176-.8574-1.5176-2.0869a2.8031,2.8031,0,0,1,.2949-1.3076,1.348,1.348,0,0,1,2.4277,0Zm-2.2128,1.2959c0,1.0733.3789,1.709,1.0136,1.709a.8574.8574,0,0,0,.8281-.63,2.7374,2.7374,0,0,0,.1622-.9717,3.1764,3.1764,0,0,0-.2051-1.1875.8533.8533,0,0,0-.8086-.5869C210.5781,183.6992,210.2188,184.3105,210.2188,185.3662Z"/>
      </g>
      <g class="cls-2">
        <path d="M43.6982,175.5371a2.9735,2.9735,0,0,1,1.3379-.3057,2.8805,2.8805,0,0,1,1.3194.3243,1.3289,1.3289,0,0,1,.7373,1.1875c0,.8935-.8574,1.5166-2.0869,1.5166a2.8159,2.8159,0,0,1-1.3077-.294,1.3488,1.3488,0,0,1,0-2.4287Zm1.2959,2.2129c1.0733,0,1.709-.3779,1.709-1.0127a.8574.8574,0,0,0-.63-.8281,2.74,2.74,0,0,0-.9716-.1621,3.1951,3.1951,0,0,0-1.1875.2041.8536.8536,0,0,0-.587.81C43.3271,177.3906,43.9385,177.75,44.9941,177.75Z"/>
      </g>
      <g class="cls-2">
        <path class="cls-3" d="M120.7686,101.9141,117.94,99.085l1.7294-1.7295.3106.3086-1.3789,1.3789.8945.8945,1.1455-1.1445.2842.2841-1.1445,1.1456,1.34,1.34Z"/>
        <path class="cls-3" d="M123.5088,97.1289a1.3991,1.3991,0,0,1,.1094,2.0449,1.3648,1.3648,0,0,1-2.0186-.1953,1.3472,1.3472,0,1,1,1.9092-1.85Zm-2.0068.751a1.4988,1.4988,0,0,0,.4492.7383c.539.539,1.0566.6318,1.4248.2627.3652-.3653.2763-.8946-.24-1.4121a1.4531,1.4531,0,0,0-.7636-.4668.7948.7948,0,0,0-.666.2168A.7679.7679,0,0,0,121.502,97.88Z"/>
        <path class="cls-3" d="M126.3623,96.3184l-1.3437-1.3438c-.34-.34-.6739-.3691-.9532-.09a.9072.9072,0,0,0,.1309,1.3027l1.1494,1.1484-.3271.3262-2.09-2.09.3008-.3008.3857.3847a1.03,1.03,0,0,1,.23-1.1093.9331.9331,0,0,1,.9668-.2383,1.8148,1.8148,0,0,1,.6485.4961l1.2089,1.208Z"/>
        <path class="cls-3" d="M128.2979,94.4512a2.5634,2.5634,0,0,1-.2842.3349.7762.7762,0,0,1-1.2334-.0381l-1.26-1.26-.3691.3691-.2539-.2539.3691-.3691-.5137-.5391.2793-.33.5528.5508.47-.47.2539.2539-.47.47,1.3105,1.3115a.417.417,0,0,0,.6651-.0136,1.7261,1.7261,0,0,0,.2246-.2744Z"/>
        <path class="cls-3" d="M129.1045,92.3633a.5894.5894,0,0,0,.373.1035,1.1994,1.1994,0,0,0,.67-.3574c.2929-.292.3564-.628.1533-.8311-.17-.17-.3994-.1513-.6826.0381l-.5225.36a.8454.8454,0,0,1-1.1406-.0127c-.3682-.3692-.3-.9278.1748-1.4024a1.0723,1.0723,0,0,1,1.3515-.2929l-.2324.36a.7326.7326,0,0,0-.8613.208c-.2715.2715-.3262.5723-.14.7588.1573.1572.3565.1436.6192-.0342l.4834-.34c.5049-.3516.916-.3555,1.2558-.0157.3809.3809.2959.9834-.2207,1.5a1.46,1.46,0,0,1-.9453.4786.8929.8929,0,0,1-.582-.1475Z"/>
        <path class="cls-3" d="M129.5205,88.2246l-.3516.3516-.36-.36.3525-.3525Zm2.457,2.4805-.3271.3261-2.0908-2.09.3271-.3271Z"/>
        <path class="cls-3" d="M133.9072,88.7754l-1.539,1.5391-.25-.25-.4766-2.6973-1.0254,1.0254-.2539-.2539,1.4541-1.4541.1787.1787.5127,2.8105,1.1494-1.1484Z"/>
        <path class="cls-3" d="M135.3711,86.19a1.27,1.27,0,0,1-.2715,1.502,1.3775,1.3775,0,0,1-2.0478-.1319,1.4132,1.4132,0,0,1-.14-2.082,1.1972,1.1972,0,0,1,1.2725-.3047,2.0314,2.0314,0,0,1,.7656.5215l-1.5215,1.5215a1.3882,1.3882,0,0,0,.5723.4033.852.852,0,0,0,.8535-.2158.8131.8131,0,0,0,.2441-.627,1.0384,1.0384,0,0,0-.0918-.35Zm-1.0186-.3818a.9291.9291,0,0,0-.5341-.2959.7039.7039,0,0,0-.6524.2119.7952.7952,0,0,0-.2334.666,1.0076,1.0076,0,0,0,.2715.5684Z"/>
      </g>
      <rect class="cls-4" x="51.4694" y="16.7217" width="161.5184" height="161.5184"/>
      <line class="cls-5" x1="212.6244" y1="17.0519" x2="51.758" y2="177.9183"/>
      <g class="cls-6">
        <path d="M47.7666,20.4131v2.8008h-.3721V22.0146H44.3066a4.4676,4.4676,0,0,1,.8633,1.0977H44.666a3.569,3.569,0,0,0-.9775-1.2178v-.3593h3.706V20.4131Z"/>
        <path d="M44.1982,17.3535V19.32l1.2959.084a1.2931,1.2931,0,0,1-.4384-.9775,1.3589,1.3589,0,0,1,1.3857-1.3789,1.4247,1.4247,0,0,1,1.4033,1.5234,1.5165,1.5165,0,0,1-.4082,1.0791,1.1181,1.1181,0,0,1-.5332.3359l-.15-.4258a.9905.9905,0,0,0,.6963-.9892.97.97,0,0,0-1.0137-1.0381.9176.9176,0,0,0-.9658.9424,1.0757,1.0757,0,0,0,.5459.9414l-.084.3955-2.165-.1318V17.3115Z"/>
      </g>
    </g>
  </g>
</svg>
