<svg xmlns="http://www.w3.org/2000/svg" width="256" height="185.9624" viewBox="0 0 256 185.9624">
  <defs>
    <style>
      .cls-1 {
        isolation: isolate;
      }

      .cls-2, .cls-5 {
        fill: none;
      }

      .cls-2 {
        stroke: #000;
        stroke-miterlimit: 10;
        stroke-width: 0.25px;
      }

      .cls-3 {
        mix-blend-mode: multiply;
      }

      .cls-4 {
        fill: #ff4200;
      }

      .cls-5 {
        stroke: #ff4200;
        stroke-linecap: round;
        stroke-linejoin: round;
      }
    </style>
  </defs>
  <g class="cls-1">
    <g id="Layer_1" data-name="Layer 1">
      <polygon class="cls-2" points="38.733 49.638 38.733 140.115 126.564 177.337 237.511 125.448 143.41 90.819 144.152 7.559 38.733 49.638"/>
      <g>
        <path d="M40.1191,23.4544v-4h2.4473v.4375H40.6172v1.2657h1.6191V21.56H40.6172v1.8945Z"/>
        <path d="M45.44,22.0091a1.3984,1.3984,0,0,1-1.3672,1.5235c-.7735,0-1.2891-.6241-1.2891-1.5655A1.384,1.384,0,0,1,44.1211,20.42C44.9238,20.42,45.44,21.0433,45.44,22.0091ZM43.49,21.1214a1.5084,1.5084,0,0,0-.2031.84c0,.7617.2988,1.1933.82,1.1933.5176,0,.8281-.4375.8281-1.1689a1.4539,1.4539,0,0,0-.2089-.87.7968.7968,0,0,0-.625-.3174A.7715.7715,0,0,0,43.49,21.1214Z"/>
        <path d="M48.0312,23.4544V21.5531c0-.48-.2148-.7373-.6113-.7373a.9062.9062,0,0,0-.8261,1.0136v1.625h-.4629v-2.956h.4257v.5449c.3067-.4678.5391-.6231.9473-.6231a.9333.9333,0,0,1,.8516.5157,1.8205,1.8205,0,0,1,.1093.8095v1.709Z"/>
        <path d="M50.7207,23.5023a2.5808,2.5808,0,0,1-.4375.0361c-.5586,0-.8457-.3057-.8457-.8994V20.8577H48.916v-.3593h.5215l.0176-.7442.4316-.0361v.78h.666v.3593h-.666v1.8536a.4177.4177,0,0,0,.48.4609,1.7509,1.7509,0,0,0,.3535-.0352Z"/>
        <path d="M52.7676,22.597a.5836.5836,0,0,0,.1914.3359,1.2,1.2,0,0,0,.7246.2217c.4141,0,.6973-.1924.6973-.4795,0-.24-.1758-.39-.51-.456l-.625-.1143c-.5039-.0957-.7969-.3955-.7969-.8154,0-.5215.4434-.8692,1.1153-.8692a1.0766,1.0766,0,0,1,1.164.7491l-.42.0908a.7344.7344,0,0,0-.7559-.4619c-.3847,0-.6367.1738-.6367.4375,0,.2217.15.3535.4629.414l.582.1016c.6055.1084.8985.3955.8985.876,0,.539-.4864.9053-1.2168.9053a1.4693,1.4693,0,0,1-1.0078-.33.8986.8986,0,0,1-.3067-.5157Z"/>
        <path d="M55.9883,19.9642H55.49v-.51h.4981Zm-.0176,3.49H55.51v-2.956h.4609Z"/>
        <path d="M58.7012,23.4544H56.5234v-.3535l1.57-2.2432H56.6426v-.3593h2.0586V20.75l-1.625,2.3506h1.625Z"/>
        <path d="M61.5625,22.6624a1.2675,1.2675,0,0,1-1.2539.87,1.38,1.38,0,0,1-1.3555-1.5411,1.4153,1.4153,0,0,1,1.375-1.5713,1.2,1.2,0,0,1,1.1153.6836,2.0662,2.0662,0,0,1,.1738.9112H59.4629a1.39,1.39,0,0,0,.1211.6894.847.847,0,0,0,.7558.45.8139.8139,0,0,0,.6172-.2695,1.02,1.02,0,0,0,.18-.3125Zm-.4492-.9892a.9324.9324,0,0,0-.168-.5879.7048.7048,0,0,0-.6113-.3115.8.8,0,0,0-.6367.3056,1.0077,1.0077,0,0,0-.209.5938Z"/>
        <path d="M66.5059,20.7318v.4023H63.7051v-.4023Zm0,.9472v.4024H63.7051V21.679Z"/>
        <path d="M70.0527,20.8577H69.334v2.5967h-.4258V20.8577h-.5234v-.3593h.5234a1.7551,1.7551,0,0,1,.0957-.66.78.78,0,0,1,.7852-.4678,2.9162,2.9162,0,0,1,.4375.042v.3721a.8474.8474,0,0,0-.2754-.042c-.3067,0-.4981.0957-.5645.2822-.0527.126-.0527.1495-.0527.4737h.7187Z"/>
        <path d="M71.3438,24.4554a4.0281,4.0281,0,0,1-.8653-2.5,4.2018,4.2018,0,0,1,.8574-2.501h.3067a4.39,4.39,0,0,0-.7383,2.4766,4.5821,4.5821,0,0,0,.7441,2.5244Z"/>
        <path d="M73.9219,23.4544l-.75-1.1992-.7676,1.1992h-.4492l.9961-1.5351-.9-1.4209h.5273l.6367,1.0068.6407-1.0068h.4433l-.8633,1.3252,1.02,1.6308Z"/>
        <path d="M75.5781,23.388l-.4375.8164h-.2519l.3476-.75h-.3008v-.666h.6426Z"/>
        <path d="M78.8066,23.8021a1.1631,1.1631,0,0,1-.4082.5937.763.763,0,0,1-.4629.1143,1.3717,1.3717,0,0,1-.3476-.0479V24.096a1.389,1.389,0,0,0,.3066.042.5038.5038,0,0,0,.4668-.2519,2.0622,2.0622,0,0,0,.1992-.4854l-1.0253-2.9023h.4668l.791,2.2246.81-2.2246h.3887Z"/>
        <path d="M80.5762,19.4544a4.0294,4.0294,0,0,1,.8633,2.501,4.1836,4.1836,0,0,1-.8575,2.5h-.3047a4.3979,4.3979,0,0,0,.7364-2.4766,4.5837,4.5837,0,0,0-.7442-2.5244Z"/>
      </g>
      <g class="cls-3">
        <path d="M33.5859,99.1312a1.1575,1.1575,0,0,1,.5938.4082.7606.7606,0,0,1,.1142.4619,1.3712,1.3712,0,0,1-.0478.3477H33.88a1.3757,1.3757,0,0,0,.042-.3057.5042.5042,0,0,0-.252-.4678,2.0827,2.0827,0,0,0-.4853-.1982l-2.9024,1.0254v-.4678l2.2246-.791-2.2246-.81v-.39Z"/>
        <path d="M31.0732,93.3665a1.7767,1.7767,0,0,1-.623.3116.0833.0833,0,0,1-.084-.09c0-.042.0117-.06.1016-.1377a2.6313,2.6313,0,0,0,.6181-.792c.0713-.1259.083-.1377.1436-.1377s.0654.0118.1621.1856a2.6222,2.6222,0,0,0,.5938.7441c.09.084.1015.0957.1015.1436a.0822.0822,0,0,1-.084.084,1.7133,1.7133,0,0,1-.624-.3116v2.9981h-.3057Z"/>
      </g>
      <g class="cls-3">
        <path d="M75.4258,165.0609l-.2217-1.3975-1.1748.8047-.4141-.1758,1.5157-1.0244-.2735-1.6592.4864.2051.1914,1.1758.9843-.6768.4082.1729-1.3125.8838.3018,1.8994Z"/>
        <path d="M80.999,165.0716a1.7823,1.7823,0,0,1-.0439-.6953.0835.0835,0,0,1,.1152-.042c.0391.0166.0508.0342.0879.1475a2.6046,2.6046,0,0,0,.4883.8779c.0879.1152.0937.13.07.1865-.0234.0547-.0371.0547-.2344.0762a2.6352,2.6352,0,0,0-.917.2559c-.1123.0507-.1279.0566-.1709.038a.081.081,0,0,1-.0449-.11,1.6911,1.6911,0,0,1,.5293-.4531l-2.76-1.17.1192-.2812Z"/>
      </g>
      <g class="cls-3">
        <path class="cls-4" d="M164.4434,61.1888v-4H166.89v.4375H164.94v1.2656H166.56v.4024H164.94v1.8945Z"/>
        <path class="cls-4" d="M169.7637,59.7435a1.3982,1.3982,0,0,1-1.3672,1.5234c-.7744,0-1.29-.624-1.29-1.5654a1.3845,1.3845,0,0,1,1.3379-1.5469C169.248,58.1546,169.7637,58.7777,169.7637,59.7435Zm-1.9492-.8877a1.4987,1.4987,0,0,0-.2041.84c0,.7618.3,1.1934.8212,1.1934.5166,0,.8282-.4375.8282-1.1689a1.4459,1.4459,0,0,0-.21-.87.7951.7951,0,0,0-.624-.3173A.7682.7682,0,0,0,167.8145,58.8558Z"/>
        <path class="cls-4" d="M172.3555,61.1888V59.2874c0-.48-.2159-.7373-.6114-.7373a.9064.9064,0,0,0-.8271,1.0137v1.625h-.4619V58.2327h.4258v.545c.3056-.4668.539-.6231.9472-.6231a.9343.9343,0,0,1,.8516.5156,1.8253,1.8253,0,0,1,.1084.81v1.709Z"/>
        <path class="cls-4" d="M175.0439,61.2367a2.5762,2.5762,0,0,1-.4375.0361c-.5576,0-.8457-.3057-.8457-.8994V58.5921h-.5214v-.3594h.5214l.0186-.7441.4316-.0361v.78h.6651v.3594h-.6651v1.8535a.417.417,0,0,0,.48.461,1.75,1.75,0,0,0,.3535-.0352Z"/>
        <path class="cls-4" d="M177.0908,60.3314a.5894.5894,0,0,0,.1914.3359,1.203,1.203,0,0,0,.7256.2217c.4141,0,.6963-.1924.6963-.48,0-.24-.1748-.39-.51-.456l-.624-.1143c-.5039-.0957-.7978-.3955-.7978-.8154,0-.5215.4443-.8692,1.1152-.8692a1.076,1.076,0,0,1,1.1641.749l-.42.0909a.7327.7327,0,0,0-.7558-.4619c-.3838,0-.6358.1738-.6358.4375,0,.2216.15.3535.4619.414l.5821.1016c.6054.1084.8994.3955.8994.876,0,.539-.4863.9052-1.2178.9052a1.4651,1.4651,0,0,1-1.0068-.33.8983.8983,0,0,1-.3067-.5156Z"/>
        <path class="cls-4" d="M180.3125,57.6986h-.498v-.51h.498Zm-.0176,3.49h-.4619V58.2327h.4619Z"/>
        <path class="cls-4" d="M183.0244,61.1888h-2.1767v-.3535l1.57-2.2432h-1.4512v-.3594h2.0576v.252l-1.625,2.3506h1.625Z"/>
        <path class="cls-4" d="M185.8867,60.3968a1.2683,1.2683,0,0,1-1.2539.87,1.3789,1.3789,0,0,1-1.3555-1.541,1.4152,1.4152,0,0,1,1.3741-1.5713,1.1981,1.1981,0,0,1,1.1152.6836,2.05,2.05,0,0,1,.1738.9111h-2.1533a1.3932,1.3932,0,0,0,.12.69.8483.8483,0,0,0,.7559.45.8109.8109,0,0,0,.6172-.27,1.019,1.019,0,0,0,.1806-.3125Zm-.45-.9892a.9263.9263,0,0,0-.1679-.5879.704.704,0,0,0-.6114-.3116.7975.7975,0,0,0-.6357.3057,1.008,1.008,0,0,0-.21.5938Z"/>
      </g>
      <line class="cls-2" x1="38.7768" y1="140.0751" x2="143.371" y2="90.8292"/>
      <g class="cls-3">
        <path class="cls-5" d="M221.9968,59.6175c-8.863,13.9572-17.7263,35.9921-26.59,52.4561-8.8633,17.0144-17.7265,28.458-26.59,33.95-17.7268,11.4917-35.4524-.709-53.1794,12.1836m106.3586-98.59c-8.863,13.9572-17.7263,35.9921-26.59,52.4561-8.8633,17.0144-17.7265,28.458-26.59,33.95-17.7268,11.4917-35.4524-.709-53.1794,12.1836m101.105-96.7722c-8.8433,15.359-17.6866,36.6774-26.5293,52.0751-8.8428,15.9113-17.6866,25.9023-26.5291,30.4909-17.6865,9.3789-35.3725-1.9594-53.0593,12.7293M216.7432,61.4354c-8.8433,15.359-17.6866,36.6774-26.5293,52.0751-8.8428,15.9113-17.6866,25.9023-26.5291,30.4909-17.6865,9.3789-35.3725-1.9594-53.0593,12.7293m100.957-93.91c-8.8237,16.486-17.647,37.0287-26.47,51.392-8.8237,14.8412-17.6465,23.5028-26.47,27.31-17.6463,7.5232-35.2937-2.7336-52.94,13.5885m105.88-92.29c-8.8237,16.486-17.647,37.0287-26.47,51.392-8.8237,14.8412-17.6465,23.5028-26.47,27.31-17.6463,7.5232-35.2937-2.7336-52.94,13.5885M206.512,63.8449c-8.8035,17.3626-17.6077,37.0791-26.4109,50.4391-8.8042,13.8035-17.6074,21.25-26.4119,24.3875-17.6074,5.9017-35.2148-3.0834-52.822,14.7057M206.512,63.8449c-8.8035,17.3626-17.6077,37.0791-26.4109,50.4391-8.8042,13.8035-17.6074,21.25-26.4119,24.3875-17.6074,5.9017-35.2148-3.0834-52.822,14.7057M201.5293,64.5726c-8.7844,18.0118-17.5686,36.86-26.3525,49.2475-8.7847,12.7989-17.5689,19.1373-26.3536,21.7063-17.5683,4.497-35.1372-3.0528-52.7063,16.0351M201.5293,64.5726c-8.7844,18.0118-17.5686,36.86-26.3525,49.2475-8.7847,12.7989-17.5689,19.1373-26.3536,21.7063-17.5683,4.497-35.1372-3.0528-52.7063,16.0351M196.6331,65.06c-8.7652,18.455-17.53,36.3994-26.2955,47.8471-8.7653,11.8277-17.5305,17.1582-26.2956,19.2521-17.5308,3.29-35.061-2.6818-52.5916,17.5378M196.6331,65.06c-8.7652,18.455-17.53,36.3994-26.2955,47.8471-8.7653,11.8277-17.5305,17.1582-26.2956,19.2521-17.5308,3.29-35.061-2.6818-52.5916,17.5378m-4.5849-1.8786c17.4929-21.1826,34.9851-16.9258,52.4773-19.281,8.7466-1.5956,17.4926-6.02,26.2387-16.9132,8.7461-10.5439,17.4932-27.5558,26.2395-46.2692M86.8655,147.8181c17.4929-21.1826,34.9851-16.9258,52.4773-19.281,8.7466-1.5956,17.4926-6.02,26.2387-16.9132,8.7461-10.5439,17.4932-27.5558,26.2395-46.2692m-4.73.1464c-8.7276,18.8043-17.4551,34.8651-26.1829,44.5327-8.7275,9.9872-17.4551,13.5814-26.1829,14.98-17.4555,1.4157-34.91-1.0455-52.3657,20.9468M187.0911,65.5011c-8.7276,18.8043-17.4551,34.8651-26.1829,44.5327-8.7275,9.9872-17.4551,13.5814-26.1829,14.98-17.4555,1.4157-34.91-1.0455-52.3657,20.9468M182.4417,65.5361c-17.4185,39.3467-34.836,55.4866-52.2547,55.8136-17.4184.724-34.8364.1664-52.2549,22.809m104.51-78.6226c-17.4185,39.3467-34.836,55.4866-52.2547,55.8136-17.4184.724-34.8364.1664-52.2549,22.809m99.9392-78.6679c-17.3811,38.7958-34.7639,52.0421-52.1452,52.2013-17.3823.1835-34.7637,1.6114-52.146,24.7552M177.8713,65.4908c-17.3811,38.7958-34.7639,52.0421-52.1452,52.2013-17.3823.1835-34.7637,1.6114-52.146,24.7552m99.7971-77.0542c-17.346,38.0187-34.6917,48.5737-52.0374,48.6924-17.3457-.2146-34.6919,3.2715-52.0371,26.7744M173.3772,65.3931c-17.346,38.0187-34.6917,48.5737-52.0374,48.6924-17.3457-.2146-34.6919,3.2715-52.0371,26.7744m99.6558-75.5938c-17.31,37.0433-34.62,45.1048-51.93,45.304-17.31-.4775-34.6211,5.1316-51.9311,28.8586M168.9585,65.2661c-17.31,37.0433-34.62,45.1048-51.93,45.304-17.31-.4775-34.6211,5.1316-51.9311,28.8586m99.5163-74.2993c-17.2751,35.8953-34.5495,41.6561-51.8249,42.0523-17.2749-.6107-34.55,7.1784-51.8252,31.0032m103.65-73.0555c-17.2751,35.8953-34.5495,41.6561-51.8249,42.0523-17.2749-.6107-34.55,7.1784-51.8252,31.0032M160.34,64.999c-17.24,34.6-34.481,38.2486-51.721,38.953-17.24-.62-34.48,9.4012-51.7207,33.2058M160.34,64.999c-17.24,34.6-34.481,38.2486-51.721,38.953-17.24-.62-34.48,9.4012-51.7207,33.2058m99.2383-72.2694c-17.2053,33.1815-34.4118,34.9-51.6174,35.8021-8.6026.8351-17.2061,2.538-25.8084,8.6932-8.6035,5.8443-17.206,16.1412-25.8093,26.9913M156.1367,64.8884c-17.2053,33.1815-34.4118,34.9-51.6174,35.8021-8.6026.8351-17.2061,2.538-25.8084,8.6932-8.6035,5.8443-17.206,16.1412-25.8093,26.9913m99.1013-71.5671c-17.1718,31.66-34.3437,31.6314-51.5163,33.0411-8.5862,1.0031-17.1717,3.28-25.7581,10.0255-8.5862,6.4179-17.1716,17.3029-25.7578,27.988M152.0029,64.8079c-17.1718,31.66-34.3437,31.6314-51.5163,33.0411-8.5862,1.0031-17.1717,3.28-25.7581,10.0255-8.5862,6.4179-17.1716,17.3029-25.7578,27.988m98.9651-71.0968C130.7966,94.8214,113.6584,93.2227,96.52,95.2421a48.0872,48.0872,0,0,0-25.707,11.4643c-8.5693,7.0046-17.1387,18.4624-25.708,28.9381M147.9358,64.7657C130.7966,94.8214,113.6584,93.2227,96.52,95.2421a48.0872,48.0872,0,0,0-25.707,11.4643c-8.5693,7.0046-17.1387,18.4624-25.708,28.9381m98.83-70.8762c-17.105,28.386-34.2115,25.3913-51.3155,28.12a48.6875,48.6875,0,0,0-25.6582,13.0082c-8.5529,7.604-17.1057,19.62-25.6579,29.8473M143.9346,64.7683c-17.105,28.386-34.2115,25.3913-51.3155,28.12a48.6875,48.6875,0,0,0-25.6582,13.0082c-8.5529,7.604-17.1057,19.62-25.6579,29.8473M139.9983,64.82C122.9253,91.489,105.853,87.2692,88.7808,90.8034c-8.5362,1.8258-17.0723,6.067-25.6084,14.6538-8.5364,8.2171-17.0725,20.78-25.6092,30.722M139.9983,64.82C122.9253,91.489,105.853,87.2692,88.7808,90.8034c-8.5362,1.8258-17.0723,6.067-25.6084,14.6538-8.5364,8.2171-17.0725,20.78-25.6092,30.722m98.5616-71.256c-17.04,24.92-34.0806,19.6439-51.1219,24.0793-8.52,2.2017-17.04,7.1734-25.5595,16.4-8.52,8.8437-17.04,21.9423-25.56,31.5683M136.1248,64.9232c-17.04,24.92-34.0806,19.6439-51.1219,24.0793-8.52,2.2017-17.04,7.1734-25.5595,16.4-8.52,8.8437-17.04,21.9423-25.56,31.5683m98.43-71.891c-17.008,23.1533-34.0163,16.9856-51.0246,22.416-8.5039,2.6281-17.0078,8.3663-25.5122,18.2463-8.5044,9.4844-17.0083,23.1111-25.5125,32.3927M132.3132,65.08c-17.008,23.1533-34.0163,16.9856-51.0246,22.416-8.5039,2.6281-17.0078,8.3663-25.5122,18.2463-8.5044,9.4844-17.0083,23.1111-25.5125,32.3927m85.3311,20.0937c-28.4546-6.5282-56.9092-29.66-85.3633-20.06m85.3633,20.06c-28.4221-6.5358-56.844-29.6686-85.2659-20.1247M121.1,155.0081c-28.5325-9.542-57.0652-33.68-85.5984-23.0151M121.1,155.0081c-28.5325-9.542-57.0652-33.68-85.5984-23.0151m91.083,21.0233c-28.6109-12.2959-57.2207-38.1982-85.8316-27.947m85.8316,27.947c-28.6109-12.2959-57.2207-38.1982-85.8316-27.947m91.2964,26.9181c-28.687-14.5839-57.3745-42.7-86.0625-33.9983m86.0625,33.9983c-28.687-14.5839-57.3745-42.7-86.0625-33.9983m91.5069,33.6294C108.73,135.3715,79.9661,104.8654,51.2024,111.2m86.2913,40.4183C108.73,135.3715,79.9661,104.8654,51.2024,111.2m91.7163,40.3853C114.08,134.4193,85.24,101.5833,56.4011,105.0207m86.5176,46.5648C114.08,134.4193,85.24,101.5833,56.4011,105.0207m91.9229,46.5365C119.41,134.29,90.4954,99.3878,61.5815,99.6557m86.7425,51.9015C119.41,134.29,90.4954,99.3878,61.5815,99.6557M66.7451,95.21c28.9885,2.9435,57.9763,39.4855,86.9644,56m-86.9644-56c28.9885,2.9435,57.9763,39.4855,86.9644,56m5.3664-.9669c-29.0613-14.92-58.1238-52.5428-87.1855-58.5394m87.1855,58.5394c-29.0613-14.92-58.1238-52.5428-87.1855-58.5394m92.5322,56.6842c-29.1348-12.5337-58.269-50.5852-87.4038-59.3046m87.4038,59.3046c-29.1348-12.5337-58.269-50.5852-87.4038-59.3046M169.75,145.4227c-29.207-9.448-58.4131-47.2141-87.62-58.1876m87.62,58.1876c-29.207-9.448-58.4131-47.2141-87.62-58.1876m92.9277,53.947C145.78,135.3864,116.5024,98.64,87.2244,85.9952m87.8337,55.1869C145.78,135.3864,116.5024,98.64,87.2244,85.9952M180.3477,135.57C150.999,133.8182,121.65,98.8175,92.3015,85.1648M180.3477,135.57C150.999,133.8182,121.65,98.8175,92.3015,85.1648m93.3167,43.403c-29.419,2.47-58.8374-30.1062-88.2564-44.05m88.2564,44.0505c-29.419,2.47-58.8374-30.1062-88.2564-44.05m93.5071,35.7275C161.3811,126.86,131.8923,97.3071,102.4045,83.81m88.4644,36.4347C161.3811,126.86,131.8923,97.3071,102.4045,83.81m5.0267-1.0152c29.5568,12.3172,59.114,38.3639,88.6709,27.9721M107.4312,82.7949c29.5568,12.3172,59.114,38.3639,88.6709,27.9721m5.2133-10.362c-29.6237,13.4673-59.25-8.7385-88.8745-19.18m88.8745,19.18c-29.6237,13.4673-59.25-8.7385-88.8745-19.18m94.07,8.3165c-29.6921,15.4722-59.385-2.7411-89.0774-10.6739M206.5112,89.542c-29.6921,15.4722-59.385-2.7411-89.0774-10.6739m94.2542-.187c-29.7593,16.0005-59.5186,1.7149-89.2781-3.1724m89.2781,3.1724c-29.7593,16.0005-59.5186,1.7149-89.2781-3.1724m94.4365-7.0552c-29.8254,14.6057-59.6511,3.935-89.4765,2.509m89.4765-2.509c-29.8254,14.6057-59.6511,3.935-89.4765,2.509m94.6167-11.341c-29.8911,10.8107-59.7818,3.1591-89.6734,5.4583m89.6734-5.4583c-29.8911,10.8107-59.7818,3.1591-89.6734,5.4583"/>
      </g>
    </g>
  </g>
</svg>
