<svg xmlns="http://www.w3.org/2000/svg" width="256" height="215" viewBox="0 0 256 215">
  <defs>
    <style>
      .cls-1 {
        isolation: isolate;
      }

      .cls-2 {
        mix-blend-mode: multiply;
      }

      .cls-3 {
        fill: #00a957;
      }

      .cls-4,
      .cls-5 {
        fill: none;
      }

      .cls-4 {
        stroke: #000;
        stroke-miterlimit: 10;
        stroke-width: 0.25px;
      }

      .cls-5 {
        stroke: #00a957;
        stroke-linecap: round;
        stroke-linejoin: round;
        stroke-width: 1.5px;
      }
    </style>
  </defs>
  <g class="cls-1">
    <g id="Layer_1" data-name="Layer 1">
      <g class="cls-2">
        <path d="M39.1748,18.8581v-4h2.4463v.4375H39.6719v1.2656H41.291v.4023H39.6719v1.8946Z" />
        <path d="M44.5254,17.4128a1.3982,1.3982,0,0,1-1.3672,1.5234c-.7744,0-1.29-.624-1.29-1.5654a1.3845,1.3845,0,0,1,1.3379-1.5469C44.01,15.8239,44.5254,16.4469,44.5254,17.4128Zm-1.9492-.8877a1.4982,1.4982,0,0,0-.2041.84c0,.7617.3,1.1934.8213,1.1934.5166,0,.8281-.4375.8281-1.169a1.4457,1.4457,0,0,0-.21-.87.7949.7949,0,0,0-.624-.3174A.7684.7684,0,0,0,42.5762,16.5251Z" />
        <path d="M47.1465,18.8581V16.9567c0-.48-.2158-.7373-.6113-.7373a.9064.9064,0,0,0-.8272,1.0137v1.625h-.4619V15.902h.4258v.5449c.3056-.4668.539-.623.9472-.623a.9343.9343,0,0,1,.8516.5156,1.825,1.825,0,0,1,.1084.81v1.709Z" />
        <path d="M49.8652,18.9059a2.5675,2.5675,0,0,1-.4375.0362c-.5576,0-.8457-.3057-.8457-.8995V16.2614h-.5215V15.902h.5215l.0186-.7441.4316-.0362v.78h.6651v.3594h-.6651v1.8535a.417.417,0,0,0,.4795.4609,1.75,1.75,0,0,0,.3535-.0351Z" />
        <path d="M51.9727,18.0007a.5889.5889,0,0,0,.1914.3359,1.2027,1.2027,0,0,0,.7255.2217c.4141,0,.6963-.1924.6963-.4795,0-.24-.1748-.39-.51-.4561l-.6241-.1142c-.5039-.0957-.7978-.3955-.7978-.8155,0-.5215.4443-.8691,1.1152-.8691a1.0759,1.0759,0,0,1,1.1641.749l-.42.0908a.733.733,0,0,0-.7559-.4619c-.3838,0-.6357.1739-.6357.4375,0,.2217.15.3535.4619.4141l.582.1015c.6055.1084.8994.3956.8994.876,0,.5391-.4863.9053-1.2177.9053a1.4652,1.4652,0,0,1-1.0069-.33.8982.8982,0,0,1-.3066-.5156Z" />
        <path d="M55.2236,15.3678h-.498v-.51h.498Zm-.0175,3.49h-.462V15.902h.462Z" />
        <path d="M57.9658,18.8581H55.7891v-.3535l1.57-2.2432H55.9082V15.902h2.0576v.252l-1.625,2.3506h1.625Z" />
        <path d="M60.8584,18.0661a1.2683,1.2683,0,0,1-1.2539.87,1.379,1.379,0,0,1-1.3555-1.541,1.4152,1.4152,0,0,1,1.374-1.5713,1.198,1.198,0,0,1,1.1153.6836,2.0516,2.0516,0,0,1,.1738.9111H58.7588a1.3934,1.3934,0,0,0,.12.6895.8482.8482,0,0,0,.7559.45.8108.8108,0,0,0,.6172-.27,1.0165,1.0165,0,0,0,.1806-.3125Zm-.45-.9893a.9263.9263,0,0,0-.168-.5879.7036.7036,0,0,0-.6113-.3115.7975.7975,0,0,0-.6357.3057,1.0077,1.0077,0,0,0-.21.5937Z" />
        <path d="M65.8613,16.1354v.4024H63.0605v-.4024Zm0,.9473v.4023H63.0605v-.4023Z" />
        <path d="M39.1865,24.195a1.1169,1.1169,0,0,0,1.1817.8154c.6,0,.9589-.2764.9589-.7314,0-.3057-.2216-.5342-.6113-.63l-.7978-.2041a1.3785,1.3785,0,0,1-.6592-.3,1.0315,1.0315,0,0,1-.3242-.7735c0-.6533.54-1.0918,1.35-1.0918a1.3848,1.3848,0,0,1,1.4267.9834l-.4492.126a.7435.7435,0,0,0-.2519-.4316,1.1345,1.1345,0,0,0-.7442-.27c-.4853,0-.8457.2753-.8457.6533,0,.3183.1865.4922.6543.6054l.7432.1807c.6836.1611,1.0312.5332,1.0312,1.1035,0,.7315-.581,1.2051-1.48,1.2051a1.64,1.64,0,0,1-1.17-.3955,1.7376,1.7376,0,0,1-.4619-.75Z" />
        <path d="M44.7412,24.3923a1.2091,1.2091,0,0,1-.3476.7255,1.0485,1.0485,0,0,1-.7969.3184c-.7559,0-1.2481-.6123-1.2481-1.5537,0-.9356.5039-1.5586,1.2715-1.5586a1.0918,1.0918,0,0,1,1.1211,1.0312l-.4131.0782a.9787.9787,0,0,0-.1562-.45.677.677,0,0,0-.5576-.2813c-.4854,0-.7852.4492-.7852,1.169,0,.7441.2871,1.1875.7793,1.1875.3721,0,.624-.252.72-.7373Z" />
        <path d="M45.4082,25.3581V22.402H45.81v.6895a2.2791,2.2791,0,0,1,.3056-.5157.779.779,0,0,1,.5821-.2578c.0361,0,.1015.0059.1679.0118v.4375a.9487.9487,0,0,0-.9951,1.0253v1.5655Z" />
        <path d="M49.6973,24.5661a1.2683,1.2683,0,0,1-1.2539.87,1.379,1.379,0,0,1-1.3555-1.541,1.4151,1.4151,0,0,1,1.374-1.5713,1.1977,1.1977,0,0,1,1.1152.6836,2.05,2.05,0,0,1,.1739.9111H47.5977a1.3923,1.3923,0,0,0,.12.6895.8481.8481,0,0,0,.7558.45.8105.8105,0,0,0,.6172-.27,1.0164,1.0164,0,0,0,.1807-.3125Zm-.45-.9893a.9269.9269,0,0,0-.168-.5879.7037.7037,0,0,0-.6113-.3115.7977.7977,0,0,0-.6358.3057,1.0076,1.0076,0,0,0-.21.5937Z" />
        <path d="M52.8477,24.5661a1.2683,1.2683,0,0,1-1.2539.87,1.379,1.379,0,0,1-1.3555-1.541,1.4151,1.4151,0,0,1,1.374-1.5713,1.1977,1.1977,0,0,1,1.1152.6836,2.05,2.05,0,0,1,.1739.9111H50.748a1.3921,1.3921,0,0,0,.12.6895.8481.8481,0,0,0,.7558.45.8105.8105,0,0,0,.6172-.27,1.0164,1.0164,0,0,0,.1807-.3125Zm-.45-.9893a.9269.9269,0,0,0-.168-.5879.7037.7037,0,0,0-.6113-.3115.7977.7977,0,0,0-.6358.3057,1.0076,1.0076,0,0,0-.21.5937Z" />
        <path d="M55.5234,25.3581V23.4567c0-.48-.2158-.7373-.6113-.7373a.9063.9063,0,0,0-.8271,1.0137v1.625h-.462V22.402h.4258v.5449c.3057-.4668.5391-.623.9473-.623a.9343.9343,0,0,1,.8516.5156,1.825,1.825,0,0,1,.1084.81v1.709Z" />
        <path d="M60.9893,25.3581h-.3721l-.6592-2.1944-.6064,2.1944h-.378l-.8867-2.9561h.4619l.6416,2.2.6172-2.2h.336l.6591,2.2129.6661-2.2129h.372Z" />
        <path d="M62.8623,21.8678h-.498v-.51h.498Zm-.0176,3.49h-.4619V22.402h.4619Z" />
        <path d="M66.0947,25.3581h-.42v-.5039a.9849.9849,0,0,1-.9355.5879c-.6954,0-1.1875-.6358-1.1875-1.5352,0-.9355.498-1.583,1.2119-1.583a.986.986,0,0,1,.8691.48V21.3581h.4619Zm-.4619-1.8174a.8778.8778,0,0,0-.1738-.5449.8065.8065,0,0,0-.624-.3067c-.4737,0-.7793.4561-.7793,1.1582,0,.7676.2822,1.2168.7617,1.2168a.8129.8129,0,0,0,.6-.3.9253.9253,0,0,0,.2158-.6054Z" />
        <path d="M68.3867,25.4059a2.5675,2.5675,0,0,1-.4375.0362c-.5576,0-.8457-.3057-.8457-.8995V22.7614H66.582V22.402h.5215l.0186-.7441.4316-.0362v.78h.6651v.3594h-.6651v1.8535a.4169.4169,0,0,0,.4795.4609,1.75,1.75,0,0,0,.3535-.0351Z" />
        <path d="M70.7568,25.3581v-1.793a1.3411,1.3411,0,0,0-.0595-.5342.5519.5519,0,0,0-.5157-.3291.7948.7948,0,0,0-.5761.2813,1.0893,1.0893,0,0,0-.2451.78v1.5948h-.462v-4h.462v1.5888a.953.953,0,0,1,.9052-.6289.9028.9028,0,0,1,.7735.39,1.2432,1.2432,0,0,1,.18.8574v1.793Z" />
        <path d="M74.3516,23.8932l-.9053.9053-.2881-.2881.9063-.9053L73.1582,22.7l.2881-.2881.9053.9053.8994-.9053.2881.2881-.9053.9052.9053.9053-.2881.2881Z" />
        <path d="M80.207,22.0417a2.9729,2.9729,0,0,1,.3057,1.3379,2.88,2.88,0,0,1-.3242,1.3193,1.329,1.329,0,0,1-1.1875.7373c-.8936,0-1.5166-.8574-1.5166-2.0869a2.8152,2.8152,0,0,1,.2939-1.3076,1.3487,1.3487,0,0,1,2.4287,0Zm-2.2129,1.2959c0,1.0732.378,1.7089,1.0127,1.7089a.8574.8574,0,0,0,.8282-.63,2.74,2.74,0,0,0,.1621-.9717,3.1971,3.1971,0,0,0-.2041-1.1875.8536.8536,0,0,0-.81-.5869C78.3535,21.6706,77.9941,22.2819,77.9941,23.3376Z" />
        <path d="M81.8027,25.3581h-.6533v-.6533h.6533Z" />
        <path d="M85.2227,22.0417a2.9742,2.9742,0,0,1,.3056,1.3379,2.88,2.88,0,0,1-.3242,1.3193,1.329,1.329,0,0,1-1.1875.7373c-.8936,0-1.5166-.8574-1.5166-2.0869a2.8164,2.8164,0,0,1,.2939-1.3076,1.3488,1.3488,0,0,1,2.4288,0ZM83.01,23.3376c0,1.0732.3779,1.7089,1.0127,1.7089a.8574.8574,0,0,0,.8281-.63,2.74,2.74,0,0,0,.1621-.9717,3.1971,3.1971,0,0,0-.2041-1.1875.8536.8536,0,0,0-.81-.5869C83.3691,21.6706,83.01,22.2819,83.01,23.3376Z" />
        <path d="M89.1582,25.3581H86.3574V24.986h1.1992V21.8981a4.4653,4.4653,0,0,1-1.0976.8633v-.5039a3.5692,3.5692,0,0,0,1.2178-.9776h.3593V24.986h1.1221Z" />
        <path d="M92.4277,23.151V21.9215h.4375V23.151h1.1817v.4082H92.8652v1.2295h-.4375V23.5592H91.2461V23.151Z" />
        <path d="M41.5254,31.8581l-.7383-1.7334H39.6426v1.7334h-.4678v-4h1.5713a1.1421,1.1421,0,0,1,1.2646,1.122,1.1547,1.1547,0,0,1-.2753.7373.9692.9692,0,0,1-.4678.2881l.7851,1.8526Zm-.84-2.1407a.7909.7909,0,0,0,.6241-.2216.7573.7573,0,0,0,.2041-.5284c0-.413-.294-.6718-.7676-.6718H39.6426v1.4218Z" />
        <path d="M45.126,31.0661a1.2683,1.2683,0,0,1-1.2539.87,1.379,1.379,0,0,1-1.3555-1.541,1.4152,1.4152,0,0,1,1.374-1.5713,1.198,1.198,0,0,1,1.1153.6836,2.0516,2.0516,0,0,1,.1738.9111H43.0264a1.3923,1.3923,0,0,0,.12.6895.8481.8481,0,0,0,.7558.45.8105.8105,0,0,0,.6172-.27,1.0164,1.0164,0,0,0,.1807-.3125Zm-.45-.9893a.9269.9269,0,0,0-.168-.5879.7036.7036,0,0,0-.6113-.3115.7978.7978,0,0,0-.6358.3057,1.0083,1.0083,0,0,0-.21.5937Z" />
        <path d="M47.74,31.8581a3.7073,3.7073,0,0,1-.0537-.5342,1.04,1.04,0,0,1-1.0371.6123.9045.9045,0,0,1-.5342-1.7031,2.6121,2.6121,0,0,1,1.1875-.2158c.1084,0,.1983,0,.3838.0117v-.0957c0-.5576-.21-.7618-.7734-.7618a.7049.7049,0,0,0-.792.54l-.4258-.0723a.7659.7659,0,0,1,.2227-.4619,1.4845,1.4845,0,0,1,1.0966-.3594,1.0633,1.0633,0,0,1,.918.3477,1.36,1.36,0,0,1,.1983.8633v1.2539a2.1683,2.1683,0,0,0,.0654.5752Zm-.4433-1.4932c-.7676,0-1.1875.24-1.1875.69,0,.3183.2461.5283.63.5283a.97.97,0,0,0,.9531-1.0137c0-.0537,0-.1142-.0059-.1924C47.5244,30.3708,47.3691,30.3649,47.2969,30.3649Z" />
        <path d="M51.3887,31.8581h-.42v-.5039a.985.985,0,0,1-.9356.5879c-.6953,0-1.1875-.6358-1.1875-1.5352,0-.9355.4981-1.583,1.2119-1.583a.9862.9862,0,0,1,.8692.48V27.8581h.4619Zm-.4619-1.8174a.8778.8778,0,0,0-.1739-.5449.8063.8063,0,0,0-.624-.3067c-.4736,0-.7793.4561-.7793,1.1582,0,.7676.2822,1.2168.7617,1.2168a.8129.8129,0,0,0,.6-.3.9253.9253,0,0,0,.2159-.6054Z" />
        <path d="M54.7188,31.0661a1.2683,1.2683,0,0,1-1.254.87,1.379,1.379,0,0,1-1.3554-1.541,1.4151,1.4151,0,0,1,1.374-1.5713,1.1977,1.1977,0,0,1,1.1152.6836,2.05,2.05,0,0,1,.1739.9111H52.6191a1.3921,1.3921,0,0,0,.12.6895.8481.8481,0,0,0,.7558.45.8105.8105,0,0,0,.6172-.27,1.0164,1.0164,0,0,0,.1807-.3125Zm-.45-.9893a.9269.9269,0,0,0-.168-.5879.7037.7037,0,0,0-.6113-.3115.7975.7975,0,0,0-.6358.3057,1.0076,1.0076,0,0,0-.21.5937Z" />
        <path d="M55.4941,31.8581V28.902h.4014v.6895a2.2785,2.2785,0,0,1,.3057-.5157.779.779,0,0,1,.582-.2578c.0361,0,.1016.0059.168.0118v.4375a.9487.9487,0,0,0-.9951,1.0253v1.5655Z" />
        <path d="M58.085,28.4518l-.3965.7022h-.2031l.2871-.7022h-.2871v-.5937h.6Z" />
        <path d="M58.9922,31.0007a.5889.5889,0,0,0,.1914.3359,1.203,1.203,0,0,0,.7256.2217c.414,0,.6963-.1924.6963-.4795,0-.24-.1748-.39-.51-.4561l-.624-.1142c-.5039-.0957-.7979-.3955-.7979-.8155,0-.5215.4444-.8691,1.1153-.8691a1.0758,1.0758,0,0,1,1.164.749l-.42.0908a.7329.7329,0,0,0-.7559-.4619c-.3837,0-.6357.1739-.6357.4375,0,.2217.15.3535.4619.4141l.582.1015c.6055.1084.9.3956.9.876,0,.5391-.4864.9053-1.2178.9053a1.4649,1.4649,0,0,1-1.0068-.33.8983.8983,0,0,1-.3067-.5156Z" />
        <path d="M65.6025,31.8581h-.42v-.5039a.9848.9848,0,0,1-.9355.5879c-.6953,0-1.1875-.6358-1.1875-1.5352,0-.9355.498-1.583,1.2119-1.583a.9859.9859,0,0,1,.8691.48V27.8581h.4619Zm-.4619-1.8174a.8772.8772,0,0,0-.1738-.5449.8065.8065,0,0,0-.624-.3067c-.4737,0-.7793.4561-.7793,1.1582,0,.7676.2822,1.2168.7617,1.2168a.8129.8129,0,0,0,.6-.3.9247.9247,0,0,0,.2158-.6054Z" />
        <path d="M68.9326,31.0661a1.2683,1.2683,0,0,1-1.2539.87,1.379,1.379,0,0,1-1.3555-1.541,1.4152,1.4152,0,0,1,1.3741-1.5713,1.1979,1.1979,0,0,1,1.1152.6836,2.05,2.05,0,0,1,.1738.9111H66.833a1.3934,1.3934,0,0,0,.12.6895.8483.8483,0,0,0,.7559.45.8107.8107,0,0,0,.6172-.27,1.0165,1.0165,0,0,0,.1806-.3125Zm-.45-.9893a.9263.9263,0,0,0-.1679-.5879.7039.7039,0,0,0-.6114-.3115.7975.7975,0,0,0-.6357.3057,1.0077,1.0077,0,0,0-.21.5937Z" />
        <path d="M70.877,29.2614h-.72v2.5967h-.4258V29.2614H69.209V28.902h.5224a1.7566,1.7566,0,0,1,.0957-.66.78.78,0,0,1,.7852-.4678,2.9262,2.9262,0,0,1,.4385.042v.3721a.8534.8534,0,0,0-.2764-.042c-.3056,0-.498.0957-.5635.2822-.0537.126-.0537.1494-.0537.4736h.72Z" />
        <path d="M73.3066,31.8581a3.7073,3.7073,0,0,1-.0537-.5342,1.04,1.04,0,0,1-1.0371.6123.9045.9045,0,0,1-.5342-1.7031,2.6121,2.6121,0,0,1,1.1875-.2158c.1084,0,.1983,0,.3838.0117v-.0957c0-.5576-.21-.7618-.7734-.7618a.7049.7049,0,0,0-.792.54l-.4258-.0723a.7659.7659,0,0,1,.2227-.4619,1.4846,1.4846,0,0,1,1.0967-.3594,1.0632,1.0632,0,0,1,.9179.3477,1.36,1.36,0,0,1,.1983.8633v1.2539a2.1683,2.1683,0,0,0,.0654.5752Zm-.4433-1.4932c-.7676,0-1.1875.24-1.1875.69,0,.3183.2461.5283.63.5283a.97.97,0,0,0,.9531-1.0137c0-.0537,0-.1142-.0059-.1924C73.0908,30.3708,72.9355,30.3649,72.8633,30.3649Z" />
        <path d="M76.5645,31.8581v-.5635a1.0228,1.0228,0,0,1-.9415.6416c-.6,0-.9716-.4316-.9716-1.1455V28.902h.4619v1.8887a.8377.8377,0,0,0,.1494.5635.5627.5627,0,0,0,.4316.2041.9164.9164,0,0,0,.8223-.9893V28.902h.4609v2.9561Z" />
        <path d="M77.9277,31.8581v-4H78.39v4Z" />
        <path d="M80.6748,31.9059a2.5675,2.5675,0,0,1-.4375.0362c-.5576,0-.8457-.3057-.8457-.8995V29.2614H78.87V28.902h.5215l.0186-.7441.4316-.0362v.78h.665v.3594h-.665v1.8535a.4169.4169,0,0,0,.4795.4609,1.75,1.75,0,0,0,.3535-.0351Z" />
        <path d="M83.9688,29.2614h-.72v2.5967h-.4258V29.2614h-.5224V28.902h.5224a1.7566,1.7566,0,0,1,.0957-.66.78.78,0,0,1,.7852-.4678,2.9262,2.9262,0,0,1,.4385.042v.3721a.8534.8534,0,0,0-.2764-.042c-.3057,0-.498.0957-.5635.2822-.0537.126-.0537.1494-.0537.4736h.72Z" />
        <path d="M86.8838,30.4128a1.3982,1.3982,0,0,1-1.3672,1.5234c-.7744,0-1.29-.624-1.29-1.5654a1.3845,1.3845,0,0,1,1.3379-1.5469C86.3682,28.8239,86.8838,29.4469,86.8838,30.4128Zm-1.9492-.8877a1.4982,1.4982,0,0,0-.2041.84c0,.7617.3,1.1934.8213,1.1934.5166,0,.8281-.4375.8281-1.169a1.4457,1.4457,0,0,0-.21-.87.7949.7949,0,0,0-.624-.3174A.7684.7684,0,0,0,84.9346,29.5251Z" />
        <path d="M89.5059,31.8581V29.9567c0-.48-.2159-.7373-.6114-.7373a.9063.9063,0,0,0-.8271,1.0137v1.625h-.4619V28.902h.4257v.5449c.3057-.4668.5391-.623.9473-.623a.9343.9343,0,0,1,.8516.5156,1.825,1.825,0,0,1,.1084.81v1.709Z" />
        <path d="M92.2236,31.9059a2.5675,2.5675,0,0,1-.4375.0362c-.5576,0-.8457-.3057-.8457-.8995V29.2614h-.5215V28.902H90.94l.0186-.7441.4316-.0362v.78h.6651v.3594h-.6651v1.8535a.417.417,0,0,0,.4795.4609,1.75,1.75,0,0,0,.3535-.0351Z" />
        <path d="M94.3311,31.0007a.5889.5889,0,0,0,.1914.3359,1.2027,1.2027,0,0,0,.7255.2217c.4141,0,.6954-.1924.6954-.4795,0-.24-.1739-.39-.5088-.4561l-.6241-.1142c-.5039-.0957-.7978-.3955-.7978-.8155,0-.5215.4443-.8691,1.1152-.8691a1.0759,1.0759,0,0,1,1.1641.749l-.42.0908a.733.733,0,0,0-.7559-.4619c-.3838,0-.6357.1739-.6357.4375,0,.2217.15.3535.4619.4141l.582.1015c.6055.1084.8994.3956.8994.876,0,.5391-.4863.9053-1.2177.9053a1.4652,1.4652,0,0,1-1.0069-.33.8982.8982,0,0,1-.3066-.5156Z" />
        <path d="M97.583,28.3678h-.498v-.51h.498Zm-.0176,3.49h-.4619V28.902h.4619Z" />
        <path d="M100.3232,31.8581H98.1465v-.3535l1.57-2.2432H98.2656V28.902h2.0576v.252l-1.625,2.3506h1.625Z" />
        <path d="M103.2158,31.0661a1.2683,1.2683,0,0,1-1.2539.87,1.379,1.379,0,0,1-1.3555-1.541,1.4152,1.4152,0,0,1,1.3741-1.5713,1.1979,1.1979,0,0,1,1.1152.6836,2.05,2.05,0,0,1,.1738.9111h-2.1533a1.3934,1.3934,0,0,0,.12.6895.8483.8483,0,0,0,.7559.45.8107.8107,0,0,0,.6172-.27,1.0165,1.0165,0,0,0,.1806-.3125Zm-.45-.9893a.9263.9263,0,0,0-.1679-.5879.7039.7039,0,0,0-.6114-.3115.7975.7975,0,0,0-.6357.3057,1.0083,1.0083,0,0,0-.21.5937Z" />
        <path d="M106.4854,30.5046l-.9053.9052-.2881-.2881.9062-.9052-.9062-.9053.2881-.2881.9053.9053.8994-.9053.2881.2881-.9053.9053.9053.9052-.2881.2881Z" />
        <path d="M112.125,28.5417a2.9729,2.9729,0,0,1,.3057,1.3379,2.88,2.88,0,0,1-.3243,1.3193,1.3288,1.3288,0,0,1-1.1875.7373c-.8935,0-1.5166-.8574-1.5166-2.0869a2.8152,2.8152,0,0,1,.294-1.3076,1.3487,1.3487,0,0,1,2.4287,0Zm-2.2129,1.2959c0,1.0732.3779,1.7089,1.0127,1.7089a.8574.8574,0,0,0,.8281-.63,2.7383,2.7383,0,0,0,.1621-.9717,3.1951,3.1951,0,0,0-.2041-1.1875.8535.8535,0,0,0-.8095-.5869C110.2715,28.1706,109.9121,28.7819,109.9121,29.8376Z" />
        <path d="M113.7217,31.8581h-.6533v-.6533h.6533Z" />
        <path d="M114.5811,28.818c0-.6181.5576-1.0381,1.3789-1.0381.8095,0,1.3369.4024,1.3369,1.02a.9731.9731,0,0,1-.7735.9121,3.0547,3.0547,0,0,1,.5518.3057.9862.9862,0,0,1,.3955.791c0,.6718-.6172,1.1279-1.5293,1.1279s-1.5527-.4619-1.5527-1.1152c0-.45.3115-.792.9472-1.0381A1.0356,1.0356,0,0,1,114.5811,28.818Zm.3,2.0264c0,.4316.413.7139,1.0488.7139s1.05-.2754,1.05-.6895c0-.3955-.3359-.666-1.0918-.876C115.21,30.1549,114.8809,30.4372,114.8809,30.8444Zm1.9785-2.0684c0-.3779-.3418-.6181-.8819-.6181s-.8935.2461-.8935.6181c0,.3418.33.6289.8574.7549C116.5957,29.363,116.8594,29.1413,116.8594,28.776Z" />
        <path d="M120.6143,28.29h-1.9668l-.084,1.2959a1.2931,1.2931,0,0,1,.9775-.4385,1.359,1.359,0,0,1,1.3789,1.3858,1.4247,1.4247,0,0,1-1.5234,1.4033,1.5165,1.5165,0,0,1-1.0791-.4082,1.1183,1.1183,0,0,1-.336-.5332l.4258-.15a.9909.9909,0,0,0,.9893.6963.97.97,0,0,0,1.0381-1.0137.9176.9176,0,0,0-.9424-.9658,1.0756,1.0756,0,0,0-.9414.5459l-.3955-.084.1318-2.165h2.3691Z" />
      </g>
      <g class="cls-2">
        <path d="M32.1328,139.5182a1.1165,1.1165,0,0,0,.8164-1.1816c0-.6-.2773-.959-.7324-.959-.3047,0-.5332.2217-.6289.6113l-.2051.7979a1.3881,1.3881,0,0,1-.2988.6592,1.0348,1.0348,0,0,1-.7735.3242c-.6543,0-1.0917-.54-1.0917-1.35a1.3851,1.3851,0,0,1,.9824-1.4268l.1269.4492a.7376.7376,0,0,0-.4316.252,1.1342,1.1342,0,0,0-.27.7441c0,.4854.2753.8457.6523.8457.3184,0,.4922-.1865.6055-.6543l.1816-.7431c.16-.6836.5332-1.0313,1.1035-1.0313.73,0,1.2051.5811,1.2051,1.4805a1.64,1.64,0,0,1-.3965,1.17,1.7236,1.7236,0,0,1-.75.4619Z" />
        <path d="M32.33,133.9938a1.2087,1.2087,0,0,1,.7265.3477,1.0517,1.0517,0,0,1,.3184.7968c0,.7559-.6133,1.2481-1.5547,1.2481-.9355,0-1.5586-.5039-1.5586-1.2715a1.0919,1.0919,0,0,1,1.0313-1.1211l.0781.4131a.9733.9733,0,0,0-.4492.1563.6768.6768,0,0,0-.2813.5576c0,.4853.4492.7851,1.168.7851.7441,0,1.1875-.2871,1.1875-.7793,0-.372-.252-.624-.7363-.72Z" />
        <path d="M33.2969,133.3561H30.34v-.4013h.6895a2.3269,2.3269,0,0,1-.5156-.3057.7786.7786,0,0,1-.2578-.582c0-.0362.0058-.1016.0117-.168h.4375a.9493.9493,0,0,0,1.0254.9951h1.5664Z" />
        <path d="M32.5039,129.0973a1.2679,1.2679,0,0,1,.8711,1.2539,1.38,1.38,0,0,1-1.541,1.3555,1.416,1.416,0,0,1-1.5723-1.374,1.1982,1.1982,0,0,1,.6836-1.1153,2.0533,2.0533,0,0,1,.9121-.1738v2.1533a1.3923,1.3923,0,0,0,.69-.12.8491.8491,0,0,0,.4492-.7558.8108.8108,0,0,0-.27-.6172,1.0189,1.0189,0,0,0-.3125-.1807Zm-.9883.45a.9252.9252,0,0,0-.5879.168.7048.7048,0,0,0-.3125.6113.7986.7986,0,0,0,.3067.6358,1.0076,1.0076,0,0,0,.5937.21Z" />
        <path d="M32.5039,125.9772a1.2679,1.2679,0,0,1,.8711,1.2539,1.38,1.38,0,0,1-1.541,1.3555,1.4161,1.4161,0,0,1-1.5723-1.374,1.1982,1.1982,0,0,1,.6836-1.1153,2.0533,2.0533,0,0,1,.9121-.1738v2.1533a1.3934,1.3934,0,0,0,.69-.12.8492.8492,0,0,0,.4492-.7559.8107.8107,0,0,0-.27-.6171,1.0189,1.0189,0,0,0-.3125-.1807Zm-.9883.45a.9252.9252,0,0,0-.5879.168.7047.7047,0,0,0-.3125.6113.7984.7984,0,0,0,.3067.6357,1.0077,1.0077,0,0,0,.5937.21Z" />
        <path d="M33.2969,123.3317H31.3945c-.4785,0-.7363.2158-.7363.6113a.9064.9064,0,0,0,1.0137.8272h1.625v.4619H30.34v-.4258h.545c-.4668-.3056-.6231-.539-.6231-.9473a.9342.9342,0,0,1,.5156-.8515,1.8332,1.8332,0,0,1,.8106-.1084h1.709Z" />
        <path d="M33.2969,117.9255v.372l-2.1953.6592,2.1953.6065v.3779l-2.9571.8867v-.4619l2.2012-.6416-2.2012-.6172v-.3359l2.2129-.6592-2.2129-.666v-.3721Z" />
        <path d="M29.8066,116.0827v.498h-.51v-.498Zm3.49.0176v.4619H30.34V116.1Z" />
        <path d="M33.2969,112.88v.42H32.793a.9848.9848,0,0,1,.5879.9355c0,.6953-.6368,1.1875-1.5352,1.1875-.9355,0-1.584-.498-1.584-1.2119a.9869.9869,0,0,1,.48-.8691H29.2969V112.88Zm-1.8184.4619a.88.88,0,0,0-.5449.1738.8093.8093,0,0,0-.3066.624c0,.4737.457.7793,1.1582.7793.7675,0,1.2168-.2822,1.2168-.7617a.8118.8118,0,0,0-.2989-.6.9268.9268,0,0,0-.6054-.2158Z" />
        <path d="M33.3438,110.6178a2.4923,2.4923,0,0,1,.0371.4375c0,.5577-.3067.8457-.9.8457H30.6992v.5215H30.34v-.5215l-.7441-.0185-.0352-.4317H30.34v-.665h.3594v.665h1.8535c.3067,0,.461-.1611.461-.4794a1.7512,1.7512,0,0,0-.0352-.3536Z" />
        <path d="M33.2969,108.278h-1.793a1.344,1.344,0,0,0-.5351.06.5508.5508,0,0,0-.3282.5156.795.795,0,0,0,.2813.5762,1.0872,1.0872,0,0,0,.7793.2451h1.5957v.4619h-4v-.4619h1.5879a.9531.9531,0,0,1-.6289-.9053.9034.9034,0,0,1,.3906-.7734,1.2417,1.2417,0,0,1,.8574-.18h1.793Z" />
        <path d="M31.1309,102.7819a1.7787,1.7787,0,0,1-.6231.3115.0832.0832,0,0,1-.084-.09c0-.042.0117-.06.1016-.1377a2.65,2.65,0,0,0,.6191-.792c.07-.126.0821-.1377.1426-.1377s.0664.0117.1621.1855a2.64,2.64,0,0,0,.5938.7442c.09.084.1015.0957.1015.1435a.0816.0816,0,0,1-.084.084,1.7034,1.7034,0,0,1-.623-.3115v2.998h-.3066Z" />
      </g>
      <g class="cls-2">
        <path d="M47.9551,177.8883l-.002-1.8847-1.0547-.4473-.6757,1.5967-.4317-.1826,1.5625-3.6826,1.4453.6132a1.1413,1.1413,0,0,1,.7266,1.5264,1.1555,1.1555,0,0,1-.541.5713.9658.9658,0,0,1-.543.083v2.0117Zm.0625-2.3a.7947.7947,0,0,0,.6621.04.7641.7641,0,0,0,.3945-.4072.6726.6726,0,0,0-.4453-.917l-1.0156-.4317-.5547,1.3086Z" />
        <path d="M51.5527,178.5524a1.27,1.27,0,0,1-1.4961.3115,1.3787,1.3787,0,0,1-.6445-1.9482,1.4146,1.4146,0,0,1,1.877-.91,1.1949,1.1949,0,0,1,.76,1.0655,2.0136,2.0136,0,0,1-.1953.9062l-1.9824-.8408a1.41,1.41,0,0,0-.1582.6816.8487.8487,0,0,0,.52.71.8147.8147,0,0,0,.6738-.0068,1.0345,1.0345,0,0,0,.2891-.2178Zm-.0293-1.0869a.9241.9241,0,0,0,.0743-.6065.699.699,0,0,0-.4415-.5253.7948.7948,0,0,0-.7031.0332,1.0086,1.0086,0,0,0-.4258.4648Z" />
        <path d="M53.6221,180.2907a3.67,3.67,0,0,1,.1591-.5127,1.0412,1.0412,0,0,1-1.1933.1592.9048.9048,0,0,1,.1738-1.7774,2.6207,2.6207,0,0,1,1.1768.2657c.1.0419.1826.0771.3486.16l.0371-.0879c.2178-.5137.1035-.7832-.414-1.0039a.7043.7043,0,0,0-.94.1885l-.3652-.2324a.7648.7648,0,0,1,.3867-.3389,1.4838,1.4838,0,0,1,1.1484.0977,1.0607,1.0607,0,0,1,.709.6777,1.3428,1.3428,0,0,1-.1543.873l-.4883,1.1543a2.1944,2.1944,0,0,0-.165.5547Zm.1748-1.5479c-.7071-.3-1.1875-.2421-1.3633.1709a.551.551,0,0,0,.375.7325.9712.9712,0,0,0,1.2734-.5606c.02-.05.044-.1055.0684-.18C54.0039,178.8376,53.8633,178.7712,53.7969,178.7428Z" />
        <path d="M56.9531,181.7038l-.3867-.1641.1973-.4648a.9848.9848,0,0,1-1.0908.1767,1.3376,1.3376,0,0,1-.4932-1.8769c.3652-.8614,1.0762-1.2627,1.7324-.9844a.9858.9858,0,0,1,.6133.7812l.5644-1.331.4248.1807Zm.2842-1.8545a.8811.8811,0,0,0,.0537-.5694.8126.8126,0,0,0-.4551-.5263c-.4365-.1846-.8964.1162-1.17.7627-.2988.706-.2148,1.23.2266,1.417a.8093.8093,0,0,0,.6679-.041.92.92,0,0,0,.4356-.4737Z" />
        <path d="M60.3008,182.2624a1.2681,1.2681,0,0,1-1.4942.3115,1.3788,1.3788,0,0,1-.6464-1.9482,1.415,1.415,0,0,1,1.8789-.9092,1.1983,1.1983,0,0,1,.76,1.0644,2.0552,2.0552,0,0,1-.1963.9063l-1.9824-.8408a1.4015,1.4015,0,0,0-.1592.6816.8511.8511,0,0,0,.5215.71.811.811,0,0,0,.6738-.0079,1.0356,1.0356,0,0,0,.2872-.2168Zm-.0293-1.0869a.9267.9267,0,0,0,.0762-.6065.7055.7055,0,0,0-.4415-.5254.7992.7992,0,0,0-.705.0332,1.01,1.01,0,0,0-.4258.4649Z" />
        <path d="M60.6777,183.2829l1.1543-2.7217.3692.1562-.27.6348a2.2845,2.2845,0,0,1,.4825-.3555.78.78,0,0,1,.6367-.01c.0332.0146.0918.0449.15.0762l-.1719.4033a.9483.9483,0,0,0-1.3164.5547l-.61,1.4414Z" />
        <path d="M64.3652,181.1462l-.6386.4921-.1875-.08.539-.5342-.2656-.1123.2324-.5459.5528.2344Z" />
        <path d="M64.1777,183.8356a.5941.5941,0,0,0,.045.3838,1.2046,1.2046,0,0,0,.582.4873c.3808.1621.7148.0947.8281-.17.0938-.2207-.01-.4268-.291-.6192l-.5313-.3476a.8469.8469,0,0,1-.416-1.0625c.2041-.4805.7491-.627,1.3672-.3652a1.0758,1.0758,0,0,1,.7783,1.1445l-.4209-.0811a.7339.7339,0,0,0-.5166-.72c-.3525-.15-.6533-.0879-.7558.1543-.0869.2041.001.3848.2637.5615l.496.32c.5147.3369.6729.7159.4854,1.1582-.209.4961-.8008.6436-1.4746.3584a1.4641,1.4641,0,0,1-.7969-.6972.9025.9025,0,0,1-.082-.5948Z" />
        <path d="M69.873,187.1823l-.3857-.1641.1963-.4638a.9847.9847,0,0,1-1.09.1757,1.337,1.337,0,0,1-.4942-1.8769c.3652-.8613,1.0762-1.2627,1.7334-.9844a.9881.9881,0,0,1,.6123.7813l.5645-1.33.4257.18Zm.2852-1.8535a.8861.8861,0,0,0,.0527-.5694.81.81,0,0,0-.455-.5263c-.4356-.1846-.8946.1162-1.17.7627-.2988.706-.2148,1.23.2266,1.417a.8144.8144,0,0,0,.67-.042.9223.9223,0,0,0,.4336-.4727Z" />
        <path d="M73.2207,187.7409a1.2674,1.2674,0,0,1-1.4941.3115,1.3783,1.3783,0,0,1-.6465-1.9473,1.4149,1.4149,0,0,1,1.8789-.91,1.1984,1.1984,0,0,1,.76,1.0644,2.0683,2.0683,0,0,1-.1954.9063l-1.9824-.84a1.3653,1.3653,0,0,0-.1582.6817.8474.8474,0,0,0,.5195.709.8111.8111,0,0,0,.6739-.0069,1.0171,1.0171,0,0,0,.2871-.2177Zm-.0273-1.086a.9256.9256,0,0,0,.0742-.6064.7086.7086,0,0,0-.4414-.5264.7966.7966,0,0,0-.7051.0342,1.0031,1.0031,0,0,0-.4238.4639Z" />
        <path d="M75.6875,186.8278l-.6621-.2813-1.0137,2.3907-.3926-.166,1.0137-2.3907-.4805-.205.1407-.33.48.2031a1.781,1.781,0,0,1,.3457-.57.782.782,0,0,1,.9063-.124,3.106,3.106,0,0,1,.3867.21l-.1445.3428a.8791.8791,0,0,0-.2383-.1465c-.2822-.1191-.4961-.1064-.6289.04-.1.0947-.1084.1162-.2344.415l.6621.28Z" />
        <path d="M76.8828,190.1549a3.8134,3.8134,0,0,1,.1592-.5136,1.04,1.04,0,0,1-1.1943.1592.9045.9045,0,0,1,.1738-1.7764,2.6178,2.6178,0,0,1,1.1777.2646c.1.043.1817.0782.3477.1612l.0381-.0889c.2177-.5127.1045-.7832-.4151-1.0029a.7039.7039,0,0,0-.9394.1875l-.3643-.2324a.7644.7644,0,0,1,.3858-.3379,1.4831,1.4831,0,0,1,1.15.0966,1.0642,1.0642,0,0,1,.709.6788,1.3658,1.3658,0,0,1-.1543.872l-.49,1.1543a2.196,2.196,0,0,0-.1641.5557Zm.1748-1.5478c-.706-.3008-1.1865-.2432-1.3623.1709a.5473.5473,0,0,0,.3731.7314.97.97,0,0,0,1.2734-.56c.0215-.0488.0449-.1055.07-.18C77.2646,188.7008,77.124,188.6344,77.0576,188.6071Z" />
        <path d="M79.8555,191.4147l.2187-.5185a1.02,1.02,0,0,1-1.1172.2226.9885.9885,0,0,1-.4472-1.4336l.7382-1.7383.4258.18-.7383,1.7393a.8342.8342,0,0,0-.082.5771.5634.5634,0,0,0,.3184.3555.9151.9151,0,0,0,1.1426-.5889l.65-1.5351.4239.1806-1.1533,2.7207Z" />
        <path d="M81.082,191.9352l1.5625-3.6826.4248.1807-1.5615,3.6826Z" />
        <path d="M83.5645,193.04a2.4763,2.4763,0,0,1-.4161-.1377.7764.7764,0,0,1-.4277-1.1582l.6953-1.64-.48-.2032.1407-.331.48.2031.3067-.6777.4121.1357-.3047.7178.6113.26-.14.331-.6123-.26-.7227,1.7061a.4153.4153,0,0,0,.2617.6113,1.6378,1.6378,0,0,0,.3379.1065Z" />
        <path d="M87.5742,191.8678l-.6621-.28-1.0137,2.3906-.3916-.167,1.0137-2.3906-.4814-.2041.1406-.33.4805.2031a1.781,1.781,0,0,1,.3457-.57.7824.7824,0,0,1,.9062-.124,2.92,2.92,0,0,1,.3867.21l-.1445.3428a.8516.8516,0,0,0-.2383-.1465c-.2812-.12-.4961-.1064-.6289.04-.1.0937-.1074.1162-.2344.414l.6621.2813Z" />
        <path d="M89.7812,194.0544a1.399,1.399,0,0,1-1.8535.8691,1.366,1.366,0,0,1-.5761-1.9453,1.347,1.347,0,1,1,2.43,1.0762Zm-1.4472-1.5782a1.4848,1.4848,0,0,0-.5166.6934c-.2979.7012-.19,1.2148.29,1.4189.4766.2022.9336-.0791,1.2188-.7529a1.4426,1.4426,0,0,0,.1465-.8828.7918.7918,0,0,0-.45-.5361A.7679.7679,0,0,0,88.334,192.4762Z" />
        <path d="M91.6035,196.3971l.7422-1.7509c.1875-.4414.0889-.7637-.2754-.918a.9045.9045,0,0,0-1.1562.6113l-.6348,1.4961-.4258-.1807,1.1543-2.7216.3926.166-.2129.5019a1.0333,1.0333,0,0,1,1.1152-.2041.9345.9345,0,0,1,.5821.8077,1.81,1.81,0,0,1-.2168.7871l-.666,1.5742Z" />
        <path d="M94.06,197.49a2.6657,2.6657,0,0,1-.417-.1367.7779.7779,0,0,1-.4278-1.1582l.6954-1.6406-.48-.2032.14-.331.48.2041.3086-.6787.41.1357-.3047.7188.6133.2588-.1406.331-.6123-.26-.7236,1.7071a.4172.4172,0,0,0,.2617.6113,1.832,1.832,0,0,0,.3388.1055Z" />
        <path d="M96.2969,197.4557a.5878.5878,0,0,0,.0459.3838,1.1977,1.1977,0,0,0,.581.4873c.3809.1621.7168.0957.8282-.1689.0937-.2217-.0079-.4268-.2911-.6192l-.5293-.3486a.8464.8464,0,0,1-.417-1.0625c.2042-.48.7491-.626,1.3663-.3643a1.0753,1.0753,0,0,1,.7793,1.1436l-.4219-.08a.7332.7332,0,0,0-.5156-.7207c-.3536-.1494-.6534-.0879-.7559.1553-.0869.2031,0,.3838.2637.56l.4961.3213c.5146.336.6738.7149.4863,1.1573-.2109.496-.8008.6445-1.4746.3584a1.469,1.469,0,0,1-.7988-.6973.8967.8967,0,0,1-.08-.5947Z" />
        <path d="M98.9121,199.4958l-.4248-.18,1.1533-2.7217.4258.1807Zm1.3789-3.2061-.459-.1943.1992-.4688.459.1944Z" />
        <path d="M101.4238,200.5622l-2.0039-.8506.1387-.3252,2.3213-1.4522-1.336-.5664.14-.331,1.8945.8027-.0976.2324-2.4141,1.5293,1.4961.6348Z" />
        <path d="M104.3691,200.95a1.2674,1.2674,0,0,1-1.4941.3115,1.3789,1.3789,0,0,1-.6465-1.9482,1.4156,1.4156,0,0,1,1.8789-.91,1.2007,1.2007,0,0,1,.76,1.0654,2.0566,2.0566,0,0,1-.1963.9063l-1.9824-.8408a1.3992,1.3992,0,0,0-.1592.6816.8557.8557,0,0,0,.5215.71.8148.8148,0,0,0,.6738-.0079,1.0355,1.0355,0,0,0,.2871-.2168Zm-.0293-1.0869a.9261.9261,0,0,0,.0762-.6065.7052.7052,0,0,0-.4414-.5254.7994.7994,0,0,0-.7051.0332,1.011,1.011,0,0,0-.4257.4639Z" />
        <path d="M109.3789,201.5827a1.7576,1.7576,0,0,1-.043-.6953.0817.0817,0,0,1,.1153-.042c.039.0156.05.0332.0859.1474a2.6582,2.6582,0,0,0,.4883.878c.0879.1152.0937.13.07.1855s-.0352.0557-.2344.0772a2.6351,2.6351,0,0,0-.916.2558c-.1123.0508-.1269.0567-.1719.0381a.0827.0827,0,0,1-.0449-.11,1.7231,1.7231,0,0,1,.5313-.4532l-2.76-1.17.1191-.2822Z" />
      </g>
      <g class="cls-2">
        <path class="cls-3" d="M174.09,77.8288v-4h2.4473v.4375h-1.9492v1.2656h1.6191v.4023h-1.6191v1.8946Z" />
        <path class="cls-3" d="M179.41,76.3835a1.3983,1.3983,0,0,1-1.3672,1.5234c-.7735,0-1.2891-.624-1.2891-1.5654a1.384,1.384,0,0,1,1.3379-1.5469C178.8945,74.7946,179.41,75.4176,179.41,76.3835Zm-1.9493-.8877a1.508,1.508,0,0,0-.2031.84c0,.7617.2988,1.1934.82,1.1934.5176,0,.8281-.4375.8281-1.169a1.4541,1.4541,0,0,0-.2089-.87.7968.7968,0,0,0-.625-.3174A.7714.7714,0,0,0,177.4609,75.4958Z" />
        <path class="cls-3" d="M182.002,77.8288V75.9274c0-.48-.2149-.7373-.6114-.7373a.9063.9063,0,0,0-.8261,1.0137v1.625h-.4629V74.8727h.4257v.5449c.3067-.4668.5391-.623.9473-.623a.9332.9332,0,0,1,.8516.5156,1.8211,1.8211,0,0,1,.1093.81v1.709Z" />
        <path class="cls-3" d="M184.6914,77.8766a2.5826,2.5826,0,0,1-.4375.0362c-.5586,0-.8457-.3057-.8457-.9V75.2321h-.5215v-.3594h.5215l.0176-.7441.4316-.0362v.78h.666v.3594h-.666v1.8535c0,.3057.1621.4609.48.4609a1.75,1.75,0,0,0,.3535-.0351Z" />
        <path class="cls-3" d="M186.7383,76.9714a.584.584,0,0,0,.1914.3359,1.2,1.2,0,0,0,.7246.2217c.4141,0,.6973-.1924.6973-.48,0-.24-.1758-.39-.51-.4561l-.625-.1142c-.5039-.0957-.7969-.3955-.7969-.8155,0-.5214.4434-.8691,1.1153-.8691a1.0766,1.0766,0,0,1,1.164.749l-.42.0908a.7345.7345,0,0,0-.7559-.4619c-.3847,0-.6367.1739-.6367.4375,0,.2217.15.3535.4629.4141l.582.1016c.6055.1083.8985.3955.8985.8759,0,.5391-.4863.9053-1.2168.9053a1.4693,1.4693,0,0,1-1.0078-.33.8983.8983,0,0,1-.3067-.5156Z" />
        <path class="cls-3" d="M189.959,74.3385h-.4981v-.51h.4981Zm-.0176,3.49h-.4609V74.8727h.4609Z" />
        <path class="cls-3" d="M192.6719,77.8288h-2.1778v-.3535l1.57-2.2432h-1.4512v-.3594h2.0586v.252l-1.625,2.3506h1.625Z" />
        <path class="cls-3" d="M195.5332,77.0368a1.2674,1.2674,0,0,1-1.2539.87,1.38,1.38,0,0,1-1.3555-1.541,1.4153,1.4153,0,0,1,1.375-1.5713,1.2,1.2,0,0,1,1.1153.6836,2.0657,2.0657,0,0,1,.1738.9111h-2.1543a1.3907,1.3907,0,0,0,.1211.6895.847.847,0,0,0,.7558.45.8136.8136,0,0,0,.6172-.27,1.0177,1.0177,0,0,0,.18-.3125Zm-.4492-.9893a.9324.9324,0,0,0-.168-.5879.705.705,0,0,0-.6113-.3115.7994.7994,0,0,0-.6367.3057,1.0074,1.0074,0,0,0-.209.5937Z" />
      </g>
      <polygon class="cls-4" points="38.676 74.201 38.676 164.678 126.506 201.9 237.454 150.011 143.352 115.383 144.095 32.122 38.676 74.201" />
      <line class="cls-4" x1="38.8341" y1="164.5759" x2="143.4283" y2="115.3301" />
      <g class="cls-2">
        <g>
          <g>
            <line class="cls-5" x1="236.0008" y1="85.629" x2="126.6463" y2="176.5097" />
            <line class="cls-5" x1="236.0008" y1="85.629" x2="126.6463" y2="176.5097" />
          </g>
          <g>
            <line class="cls-5" x1="230.5993" y1="85.3084" x2="121.4925" y2="175.8075" />
            <line class="cls-5" x1="230.5993" y1="85.3084" x2="121.4925" y2="175.8075" />
          </g>
          <g>
            <line class="cls-5" x1="225.293" y1="84.9935" x2="116.4308" y2="175.1178" />
            <line class="cls-5" x1="225.293" y1="84.9935" x2="116.4308" y2="175.1178" />
          </g>
          <g>
            <line class="cls-5" x1="220.0795" y1="84.6841" x2="111.4591" y2="174.4404" />
            <line class="cls-5" x1="220.0795" y1="84.6841" x2="111.4591" y2="174.4404" />
          </g>
          <g>
            <line class="cls-5" x1="214.9568" y1="84.3801" x2="106.5753" y2="173.7749" />
            <line class="cls-5" x1="214.9568" y1="84.3801" x2="106.5753" y2="173.7749" />
          </g>
          <g>
            <line class="cls-5" x1="209.9226" y1="84.0813" x2="101.7773" y2="173.1212" />
            <line class="cls-5" x1="209.9226" y1="84.0813" x2="101.7773" y2="173.1212" />
          </g>
          <g>
            <line class="cls-5" x1="204.9751" y1="83.7876" x2="97.063" y2="172.4789" />
            <line class="cls-5" x1="204.9751" y1="83.7876" x2="97.063" y2="172.4789" />
          </g>
          <g>
            <line class="cls-5" x1="200.1121" y1="83.499" x2="92.4306" y2="171.8477" />
            <line class="cls-5" x1="200.1121" y1="83.499" x2="92.4306" y2="171.8477" />
          </g>
          <g>
            <line class="cls-5" x1="195.3318" y1="83.2153" x2="87.8781" y2="171.2274" />
            <line class="cls-5" x1="195.3318" y1="83.2153" x2="87.8781" y2="171.2274" />
          </g>
          <g>
            <line class="cls-5" x1="190.6324" y1="82.9364" x2="83.4037" y2="170.6177" />
            <line class="cls-5" x1="190.6324" y1="82.9364" x2="83.4037" y2="170.6177" />
          </g>
          <g>
            <line class="cls-5" x1="186.0119" y1="82.6622" x2="79.0056" y2="170.0185" />
            <line class="cls-5" x1="186.0119" y1="82.6622" x2="79.0056" y2="170.0185" />
          </g>
          <g>
            <line class="cls-5" x1="181.4687" y1="82.3926" x2="74.6821" y2="169.4294" />
            <line class="cls-5" x1="181.4687" y1="82.3926" x2="74.6821" y2="169.4294" />
          </g>
          <g>
            <line class="cls-5" x1="177.0011" y1="82.1274" x2="70.4315" y2="168.8502" />
            <line class="cls-5" x1="177.0011" y1="82.1274" x2="70.4315" y2="168.8502" />
          </g>
          <g>
            <line class="cls-5" x1="172.6074" y1="81.8666" x2="66.2523" y2="168.2808" />
            <line class="cls-5" x1="172.6074" y1="81.8666" x2="66.2523" y2="168.2808" />
          </g>
          <g>
            <line class="cls-5" x1="168.286" y1="81.6102" x2="62.1428" y2="167.7208" />
            <line class="cls-5" x1="168.286" y1="81.6102" x2="62.1428" y2="167.7208" />
          </g>
          <g>
            <line class="cls-5" x1="164.0353" y1="81.3579" x2="58.1014" y2="167.1702" />
            <line class="cls-5" x1="164.0353" y1="81.3579" x2="58.1014" y2="167.1702" />
          </g>
          <g>
            <line class="cls-5" x1="159.8539" y1="81.1097" x2="54.1268" y2="166.6286" />
            <line class="cls-5" x1="159.8539" y1="81.1097" x2="54.1268" y2="166.6286" />
          </g>
          <g>
            <line class="cls-5" x1="155.7402" y1="80.8656" x2="50.2175" y2="166.096" />
            <line class="cls-5" x1="155.7402" y1="80.8656" x2="50.2175" y2="166.096" />
          </g>
          <g>
            <line class="cls-5" x1="151.6928" y1="80.6254" x2="46.3719" y2="165.572" />
            <line class="cls-5" x1="151.6928" y1="80.6254" x2="46.3719" y2="165.572" />
          </g>
          <g>
            <line class="cls-5" x1="147.7103" y1="80.389" x2="42.5889" y2="165.0566" />
            <line class="cls-5" x1="147.7103" y1="80.389" x2="42.5889" y2="165.0566" />
          </g>
          <g>
            <line class="cls-5" x1="143.7914" y1="80.1564" x2="38.8671" y2="164.5495" />
            <line class="cls-5" x1="143.7914" y1="80.1564" x2="38.8671" y2="164.5495" />
          </g>
        </g>
        <g>
          <g>
            <line class="cls-5" x1="126.6019" y1="176.5369" x2="38.8341" y2="164.5759" />
            <line class="cls-5" x1="126.6019" y1="176.5369" x2="38.9341" y2="164.5495" />
          </g>
          <g>
            <line class="cls-5" x1="132.2618" y1="171.8332" x2="44.2521" y2="160.2181" />
            <line class="cls-5" x1="132.2618" y1="171.8332" x2="44.2521" y2="160.2181" />
          </g>
          <g>
            <line class="cls-5" x1="137.901" y1="167.1466" x2="49.6517" y2="155.8751" />
            <line class="cls-5" x1="137.901" y1="167.1466" x2="49.6517" y2="155.8751" />
          </g>
          <g>
            <line class="cls-5" x1="143.5197" y1="162.4772" x2="55.0329" y2="151.5469" />
            <line class="cls-5" x1="143.5197" y1="162.4772" x2="55.0329" y2="151.5469" />
          </g>
          <g>
            <line class="cls-5" x1="149.1178" y1="157.8248" x2="60.3958" y2="147.2334" />
            <line class="cls-5" x1="149.1178" y1="157.8248" x2="60.3958" y2="147.2334" />
          </g>
          <g>
            <line class="cls-5" x1="154.6955" y1="153.1894" x2="65.7405" y2="142.9345" />
            <line class="cls-5" x1="154.6955" y1="153.1894" x2="65.7405" y2="142.9345" />
          </g>
          <g>
            <line class="cls-5" x1="160.253" y1="148.5708" x2="71.0671" y2="138.6502" />
            <line class="cls-5" x1="160.253" y1="148.5708" x2="71.0671" y2="138.6502" />
          </g>
          <g>
            <line class="cls-5" x1="165.7903" y1="143.9689" x2="76.3758" y2="134.3803" />
            <line class="cls-5" x1="165.7903" y1="143.9689" x2="76.3758" y2="134.3803" />
          </g>
          <g>
            <line class="cls-5" x1="171.3076" y1="139.3837" x2="81.6665" y2="130.1249" />
            <line class="cls-5" x1="171.3076" y1="139.3837" x2="81.6665" y2="130.1249" />
          </g>
          <g>
            <line class="cls-5" x1="176.805" y1="134.8151" x2="86.9395" y2="125.8837" />
            <line class="cls-5" x1="176.805" y1="134.8151" x2="86.9395" y2="125.8837" />
          </g>
          <g>
            <line class="cls-5" x1="182.2825" y1="130.2629" x2="92.1947" y2="121.6568" />
            <line class="cls-5" x1="182.2825" y1="130.2629" x2="92.1947" y2="121.6568" />
          </g>
          <g>
            <line class="cls-5" x1="187.7403" y1="125.7271" x2="97.4322" y2="117.4441" />
            <line class="cls-5" x1="187.7403" y1="125.7271" x2="97.4322" y2="117.4441" />
          </g>
          <g>
            <line class="cls-5" x1="193.1785" y1="121.2077" x2="102.6523" y2="113.2455" />
            <line class="cls-5" x1="193.1785" y1="121.2077" x2="102.6523" y2="113.2455" />
          </g>
          <g>
            <line class="cls-5" x1="198.5971" y1="116.7044" x2="107.8549" y2="109.061" />
            <line class="cls-5" x1="198.5971" y1="116.7044" x2="107.8549" y2="109.061" />
          </g>
          <g>
            <line class="cls-5" x1="203.9964" y1="112.2173" x2="113.0401" y2="104.8904" />
            <line class="cls-5" x1="203.9964" y1="112.2173" x2="113.0401" y2="104.8904" />
          </g>
          <g>
            <line class="cls-5" x1="209.3764" y1="107.7462" x2="118.208" y2="100.7337" />
            <line class="cls-5" x1="209.3764" y1="107.7462" x2="118.208" y2="100.7337" />
          </g>
          <g>
            <line class="cls-5" x1="214.7372" y1="103.2911" x2="123.3587" y2="96.5909" />
            <line class="cls-5" x1="214.7372" y1="103.2911" x2="123.3587" y2="96.5909" />
          </g>
          <g>
            <line class="cls-5" x1="220.0788" y1="98.8518" x2="128.4923" y2="92.4618" />
            <line class="cls-5" x1="220.0788" y1="98.8518" x2="128.4923" y2="92.4618" />
          </g>
          <g>
            <line class="cls-5" x1="225.4015" y1="94.4283" x2="133.6089" y2="88.3464" />
            <line class="cls-5" x1="225.4015" y1="94.4283" x2="133.6089" y2="88.3464" />
          </g>
          <g>
            <line class="cls-5" x1="230.7053" y1="90.0206" x2="138.7086" y2="84.2446" />
            <line class="cls-5" x1="230.7053" y1="90.0206" x2="138.7086" y2="84.2446" />
          </g>
          <g>
            <line class="cls-5" x1="235.9903" y1="85.6284" x2="143.7914" y2="80.1564" />
            <line class="cls-5" x1="235.9903" y1="85.6284" x2="143.7914" y2="80.1564" />
          </g>
        </g>
      </g>
    </g>
  </g>
</svg>