<svg xmlns="http://www.w3.org/2000/svg" width="256" height="199.3333" viewBox="0 0 256 199.3333">
  <defs>
    <style>
      .cls-1 {
        isolation: isolate;
      }

      .cls-2, .cls-3, .cls-5 {
        mix-blend-mode: multiply;
      }

      .cls-10, .cls-3, .cls-5, .cls-6, .cls-7, .cls-8, .cls-9 {
        fill: none;
      }

      .cls-10, .cls-3, .cls-6, .cls-7, .cls-8, .cls-9 {
        stroke: #000;
      }

      .cls-3 {
        stroke-miterlimit: 10;
        stroke-width: 0.25px;
      }

      .cls-4 {
        fill: #ff4200;
      }

      .cls-5 {
        stroke: #ff4200;
      }

      .cls-10, .cls-5, .cls-6, .cls-7, .cls-8, .cls-9 {
        stroke-linecap: round;
        stroke-linejoin: round;
      }

      .cls-10, .cls-6, .cls-7, .cls-8, .cls-9 {
        stroke-width: 0.5px;
      }

      .cls-7 {
        stroke-dasharray: 1.0054 1.0054;
      }

      .cls-8 {
        stroke-dasharray: 1.004 1.004;
      }

      .cls-9 {
        stroke-dasharray: 1.0054 1.0054;
      }

      .cls-10 {
        stroke-dasharray: 0.9984 0.9984;
      }
    </style>
  </defs>
  <g class="cls-1">
    <g id="Layer_1" data-name="Layer 1">
      <g>
        <path d="M62.8711,116.0986h-.72v2.5967h-.4258v-2.5967h-.5225v-.3593h.5225a1.7547,1.7547,0,0,1,.0957-.66.78.78,0,0,1,.7851-.4678,2.9262,2.9262,0,0,1,.4385.042v.3721a.856.856,0,0,0-.2763-.042c-.3057,0-.4981.0957-.5635.2822-.0537.126-.0537.1494-.0537.4737h.72Z"/>
        <path d="M66.3379,118.6953H63.5371v-.3721h1.1992v-3.0878a4.4672,4.4672,0,0,1-1.0976.8632v-.5039a3.5677,3.5677,0,0,0,1.2177-.9775h.3594v3.706h1.1221Z"/>
      </g>
      <g>
        <path d="M185.9922,34.752h-.7207v2.5966h-.4258V34.752h-.5215v-.3594h.5215a1.7551,1.7551,0,0,1,.0957-.66.7813.7813,0,0,1,.7852-.4678,2.9374,2.9374,0,0,1,.4394.042v.3721a.8648.8648,0,0,0-.2773-.042c-.3047,0-.4981.0957-.5625.2822-.0547.126-.0547.1495-.0547.4737h.7207Z"/>
        <path d="M189.459,37.3486h-2.8008v-.372h1.1992V33.8887a4.4887,4.4887,0,0,1-1.0976.8633v-.504a3.5638,3.5638,0,0,0,1.2168-.9775h.3593v3.7061h1.1231Z"/>
      </g>
      <g>
        <path d="M185.9922,47.085h-.7207v2.5966h-.4258V47.085h-.5215v-.3594h.5215a1.7555,1.7555,0,0,1,.0957-.66.7813.7813,0,0,1,.7852-.4677,2.9483,2.9483,0,0,1,.4394.0419v.3721a.8648.8648,0,0,0-.2773-.042c-.3047,0-.4981.0957-.5625.2823-.0547.1259-.0547.1494-.0547.4736h.7207Z"/>
        <path d="M189.2539,49.6816H186.418v-.414c.875-.6533.875-.6533,1.3183-1.0254.7813-.6533,1.0078-.9717,1.0078-1.4268A.8442.8442,0,0,0,187.8457,46a.9548.9548,0,0,0-.7676.3838.9053.9053,0,0,0-.1933.5332l-.4668-.1436a1.3919,1.3919,0,0,1,1.4336-1.17,1.2751,1.2751,0,0,1,1.3906,1.2061c0,.5576-.2754.959-1.1387,1.6611-.3418.2813-.6543.5156-1.0566.7969h2.207Z"/>
      </g>
      <g>
        <path d="M185.9922,59.0205h-.7207v2.5967h-.4258V59.0205h-.5215v-.3594h.5215a1.7545,1.7545,0,0,1,.0957-.66.7813.7813,0,0,1,.7852-.4678,2.9374,2.9374,0,0,1,.4394.042v.3721a.862.862,0,0,0-.2773-.042c-.3047,0-.4981.0957-.5625.2822-.0547.126-.0547.1494-.0547.4736h.7207Z"/>
        <path d="M187.27,59.3389h.4551c.5938,0,.93-.252.93-.7022a.7409.7409,0,0,0-.834-.7012,1.016,1.016,0,0,0-.7129.2754.8977.8977,0,0,0-.2226.3721l-.4551-.126a1.354,1.354,0,0,1,.4492-.6181,1.6149,1.6149,0,0,1,.9844-.3,1.1605,1.1605,0,0,1,1.3008,1.0615.9071.9071,0,0,1-.7676.9121.9988.9988,0,0,1,.9238.9951c0,.708-.6172,1.1875-1.5176,1.1875a1.6651,1.6651,0,0,1-1.0547-.33,1.264,1.264,0,0,1-.4628-.6416l.4687-.1562a1.01,1.01,0,0,0,.2813.4863,1.2042,1.2042,0,0,0,.7851.2334,1.045,1.045,0,0,0,.75-.2392.723.723,0,0,0,.2285-.5284c0-.4853-.4023-.7793-1.0742-.7793H187.27Z"/>
      </g>
      <g>
        <path d="M62.8711,127.1152h-.72v2.5977h-.4258v-2.5977h-.5225v-.3593h.5225a1.7586,1.7586,0,0,1,.0957-.66.7811.7811,0,0,1,.7851-.4668,2.9008,2.9008,0,0,1,.4385.041v.3731a.8339.8339,0,0,0-.2763-.043c-.3057,0-.4981.0957-.5635.2832-.0537.125-.0537.1484-.0537.4727h.72Z"/>
        <path d="M66.1338,129.7129H63.2969v-.4141c.876-.6543.876-.6543,1.3193-1.0254.78-.6543,1.0078-.9726,1.0078-1.4277a.845.845,0,0,0-.8994-.8145.955.955,0,0,0-.7676.3829.9079.9079,0,0,0-.1924.5332l-.4677-.1426a1.3919,1.3919,0,0,1,1.4336-1.17,1.2753,1.2753,0,0,1,1.3916,1.205c0,.5586-.2764.959-1.14,1.6622-.3418.2812-.6533.5156-1.0556.7968h2.207Z"/>
      </g>
      <g>
        <path d="M62.8711,139.1963h-.72v2.5967h-.4258v-2.5967h-.5225v-.3594h.5225a1.7545,1.7545,0,0,1,.0957-.66.78.78,0,0,1,.7851-.4678,2.9262,2.9262,0,0,1,.4385.042v.372a.8555.8555,0,0,0-.2763-.0419c-.3057,0-.4981.0957-.5635.2822-.0537.126-.0537.1494-.0537.4736h.72Z"/>
        <path d="M64.1484,139.5146h.4561c.5937,0,.93-.2519.93-.7021a.7409.7409,0,0,0-.834-.7012,1.02,1.02,0,0,0-.7139.2754.8984.8984,0,0,0-.2217.3721l-.455-.126a1.34,1.34,0,0,1,.4492-.6182,1.6146,1.6146,0,0,1,.9834-.3,1.1614,1.1614,0,0,1,1.3017,1.0616.9079.9079,0,0,1-.7675.9121.9987.9987,0,0,1,.9228.9951c0,.708-.6172,1.1875-1.5166,1.1875a1.6693,1.6693,0,0,1-1.0556-.33,1.2637,1.2637,0,0,1-.462-.6416l.4678-.1562a1.0035,1.0035,0,0,0,.2822.4863,1.2046,1.2046,0,0,0,.7852.2334,1.0448,1.0448,0,0,0,.75-.2393.7254.7254,0,0,0,.2275-.5283c0-.4853-.4013-.7793-1.0732-.7793h-.4561Z"/>
      </g>
      <g class="cls-2">
        <path d="M47.6328,13.05v-4h2.4463v.4375H48.13v1.2656H49.749v.4024H48.13V13.05Z"/>
        <path d="M52.9834,11.6045a1.3982,1.3982,0,0,1-1.3672,1.5234c-.7744,0-1.29-.624-1.29-1.5654a1.3845,1.3845,0,0,1,1.3379-1.5469C52.4678,10.0156,52.9834,10.6387,52.9834,11.6045Zm-1.9492-.8877a1.4987,1.4987,0,0,0-.2041.84c0,.7618.3,1.1934.8213,1.1934.5166,0,.8281-.4375.8281-1.1689a1.4459,1.4459,0,0,0-.21-.87.7951.7951,0,0,0-.624-.3173A.7683.7683,0,0,0,51.0342,10.7168Z"/>
        <path d="M55.6045,13.05V11.1484c0-.4795-.2158-.7373-.6113-.7373a.9065.9065,0,0,0-.8272,1.0137V13.05h-.4619v-2.956H54.13v.5449c.3056-.4678.539-.6231.9472-.6231a.9343.9343,0,0,1,.8516.5156,1.8253,1.8253,0,0,1,.1084.81V13.05Z"/>
        <path d="M58.3232,13.0977a2.5762,2.5762,0,0,1-.4375.0361c-.5576,0-.8457-.3057-.8457-.8994V10.4531h-.5214v-.3593H57.04l.0186-.7442.4316-.0361v.78h.6651v.3593H57.49v1.8535a.417.417,0,0,0,.48.461,1.7509,1.7509,0,0,0,.3535-.0352Z"/>
        <path d="M60.4307,12.1924a.5885.5885,0,0,0,.1914.3359,1.2028,1.2028,0,0,0,.7256.2217c.414,0,.6953-.1924.6953-.4795,0-.24-.1739-.39-.5088-.456L60.91,11.7c-.504-.0957-.7979-.3955-.7979-.8154,0-.5215.4443-.8692,1.1152-.8692a1.0759,1.0759,0,0,1,1.1641.749l-.42.0909a.7328.7328,0,0,0-.7559-.4619c-.3838,0-.6357.1738-.6357.4375,0,.2216.15.3535.4619.414l.582.1016c.6055.1084.8994.3955.8994.876,0,.539-.4863.9052-1.2177.9052a1.4656,1.4656,0,0,1-1.0069-.33.8993.8993,0,0,1-.3066-.5157Z"/>
        <path d="M63.6816,9.56h-.498V9.05h.498Zm-.0175,3.49h-.462v-2.956h.462Z"/>
        <path d="M66.4238,13.05H64.2471v-.3535l1.57-2.2432H64.3662v-.3593h2.0576v.2519l-1.625,2.3506h1.625Z"/>
        <path d="M69.3164,12.2578a1.2683,1.2683,0,0,1-1.2539.87,1.3789,1.3789,0,0,1-1.3555-1.541,1.4152,1.4152,0,0,1,1.3741-1.5713,1.1981,1.1981,0,0,1,1.1152.6836,2.05,2.05,0,0,1,.1738.9112H67.2168a1.393,1.393,0,0,0,.12.6894.8483.8483,0,0,0,.7559.45.8111.8111,0,0,0,.6172-.27,1.019,1.019,0,0,0,.1806-.3125Zm-.45-.9892a.9257.9257,0,0,0-.168-.5879.7037.7037,0,0,0-.6113-.3116.7975.7975,0,0,0-.6357.3057,1.008,1.008,0,0,0-.21.5938Z"/>
        <path d="M74.3193,10.3271V10.73H71.5186v-.4024Zm0,.9473v.4024H71.5186v-.4024Z"/>
        <path d="M77.9268,10.4531h-.72V13.05h-.4258V10.4531h-.5224v-.3593h.5224a1.7542,1.7542,0,0,1,.0958-.66.78.78,0,0,1,.7851-.4678,2.9262,2.9262,0,0,1,.4385.042V9.38a.8561.8561,0,0,0-.2764-.042c-.3056,0-.498.0957-.5635.2822-.0537.126-.0537.1494-.0537.4737h.72Z"/>
        <path d="M79.8027,13.9355v-1.48c0-.3731-.1679-.5742-.4765-.5742a.7066.7066,0,0,0-.6446.789v1.2656h-.3593V11.6338h.332v.4248c.2373-.3643.42-.4854.7373-.4854a.7282.7282,0,0,1,.6631.4014,1.4241,1.4241,0,0,1,.084.63v1.331Z"/>
        <path d="M82.1143,13.7178a4.0271,4.0271,0,0,1-.8643-2.5,4.1947,4.1947,0,0,1,.8574-2.501h.3067a4.39,4.39,0,0,0-.7383,2.4766,4.5821,4.5821,0,0,0,.7441,2.5244Z"/>
        <path d="M83.2363,11.8867a1.1168,1.1168,0,0,0,1.1817.8154c.6,0,.959-.2763.959-.7314,0-.3057-.2217-.5342-.6114-.63l-.7978-.2041a1.3785,1.3785,0,0,1-.6592-.3,1.0313,1.0313,0,0,1-.3242-.7734c0-.6533.54-1.0918,1.35-1.0918a1.3846,1.3846,0,0,1,1.4267.9834l-.4492.126a.7438.7438,0,0,0-.2519-.4317,1.1345,1.1345,0,0,0-.7442-.27c-.4853,0-.8457.2754-.8457.6533,0,.3184.1865.4922.6543.6055l.7432.1806c.6836.1612,1.0312.5332,1.0312,1.1036,0,.7314-.581,1.205-1.48,1.205a1.6392,1.6392,0,0,1-1.17-.3955,1.7364,1.7364,0,0,1-.4619-.75Z"/>
        <path d="M88.791,12.084a1.2094,1.2094,0,0,1-.3476.7256,1.0488,1.0488,0,0,1-.7969.3183c-.7559,0-1.2481-.6123-1.2481-1.5537,0-.9355.5039-1.5586,1.2715-1.5586a1.0919,1.0919,0,0,1,1.1211,1.0313l-.4131.0781a.98.98,0,0,0-.1562-.45.677.677,0,0,0-.5576-.2812c-.4854,0-.7852.4492-.7852,1.1689,0,.7441.2871,1.1875.7793,1.1875.3721,0,.623-.252.72-.7373Z"/>
        <path d="M89.458,13.05v-2.956h.4014v.6894a2.2778,2.2778,0,0,1,.3056-.5156.7788.7788,0,0,1,.5821-.2578c.0361,0,.1015.0058.1679.0117v.4375a.9487.9487,0,0,0-.9951,1.0254V13.05Z"/>
        <path d="M93.7471,12.2578a1.2683,1.2683,0,0,1-1.2539.87,1.3789,1.3789,0,0,1-1.3555-1.541,1.4151,1.4151,0,0,1,1.374-1.5713,1.1982,1.1982,0,0,1,1.1153.6836,2.0518,2.0518,0,0,1,.1738.9112H91.6475a1.3918,1.3918,0,0,0,.12.6894.8481.8481,0,0,0,.7558.45.8108.8108,0,0,0,.6172-.27,1.0189,1.0189,0,0,0,.1807-.3125Zm-.45-.9892a.9269.9269,0,0,0-.168-.5879.7038.7038,0,0,0-.6113-.3116.7977.7977,0,0,0-.6358.3057,1.008,1.008,0,0,0-.21.5938Z"/>
        <path d="M96.8975,12.2578a1.2683,1.2683,0,0,1-1.2539.87,1.3789,1.3789,0,0,1-1.3555-1.541,1.4151,1.4151,0,0,1,1.374-1.5713,1.1979,1.1979,0,0,1,1.1152.6836,2.05,2.05,0,0,1,.1739.9112H94.7979a1.3918,1.3918,0,0,0,.12.6894.8481.8481,0,0,0,.7558.45.8108.8108,0,0,0,.6172-.27,1.0189,1.0189,0,0,0,.1807-.3125Zm-.45-.9892a.9269.9269,0,0,0-.168-.5879.7038.7038,0,0,0-.6113-.3116.7977.7977,0,0,0-.6358.3057,1.008,1.008,0,0,0-.21.5938Z"/>
        <path d="M99.5732,13.05V11.1484c0-.4795-.2158-.7373-.6113-.7373a.9064.9064,0,0,0-.8271,1.0137V13.05h-.4619v-2.956h.4257v.5449c.3057-.4678.5391-.6231.9473-.6231a.9343.9343,0,0,1,.8516.5156,1.8253,1.8253,0,0,1,.1084.81V13.05Z"/>
        <path d="M105.0391,13.05h-.3721l-.6592-2.1943-.6064,2.1943h-.378l-.8867-2.956h.461l.6425,2.2.6172-2.2h.336l.6591,2.2128.6661-2.2128h.372Z"/>
        <path d="M106.9121,9.56h-.498V9.05h.498Zm-.0176,3.49h-.4619v-2.956h.4619Z"/>
        <path d="M110.1445,13.05h-.42v-.5039a.9849.9849,0,0,1-.9355.5879c-.6953,0-1.1875-.6358-1.1875-1.5352,0-.9355.498-1.583,1.2119-1.583a.9862.9862,0,0,1,.8691.48V9.05h.4619Zm-.4619-1.8174a.878.878,0,0,0-.1738-.5449.8067.8067,0,0,0-.624-.3066c-.4737,0-.7793.456-.7793,1.1582,0,.7675.2822,1.2168.7617,1.2168a.8132.8132,0,0,0,.6-.3.9252.9252,0,0,0,.2158-.6055Z"/>
        <path d="M112.4365,13.0977a2.5762,2.5762,0,0,1-.4375.0361c-.5576,0-.8457-.3057-.8457-.8994V10.4531h-.5215v-.3593h.5215l.0186-.7442.4316-.0361v.78h.6651v.3593h-.6651v1.8535a.417.417,0,0,0,.48.461,1.7509,1.7509,0,0,0,.3535-.0352Z"/>
        <path d="M114.8066,13.05v-1.793a1.3409,1.3409,0,0,0-.0595-.5341.5517.5517,0,0,0-.5157-.3291.7951.7951,0,0,0-.5761.2812,1.0894,1.0894,0,0,0-.2451.78V13.05h-.462v-4h.462v1.5889a.953.953,0,0,1,.9052-.6289.903.903,0,0,1,.7735.39,1.2432,1.2432,0,0,1,.18.8574V13.05Z"/>
        <path d="M116.3389,8.7168a4.0347,4.0347,0,0,1,.8632,2.501,4.1894,4.1894,0,0,1-.8574,2.5h-.3056a4.3921,4.3921,0,0,0,.7373-2.4766,4.5837,4.5837,0,0,0-.7442-2.5244Z"/>
      </g>
      <g class="cls-2">
        <path d="M106.2852,185.7148a1.116,1.116,0,0,0,1.1816.8155c.6,0,.959-.2764.959-.7315,0-.3056-.2227-.5342-.6113-.63l-.7989-.2041a1.37,1.37,0,0,1-.6582-.3,1.028,1.028,0,0,1-.3242-.7734c0-.6533.5391-1.0918,1.35-1.0918a1.3829,1.3829,0,0,1,1.4258.9834l-.4492.126a.7387.7387,0,0,0-.252-.4317,1.13,1.13,0,0,0-.7441-.2695c-.4844,0-.8457.2754-.8457.6533,0,.3184.1875.4922.6543.6055l.7441.1807c.6836.1611,1.0313.5332,1.0313,1.1035,0,.7314-.5821,1.2051-1.48,1.2051a1.6372,1.6372,0,0,1-1.17-.3956,1.726,1.726,0,0,1-.4629-.75Z"/>
        <path d="M111.8086,185.9121a1.1976,1.1976,0,0,1-.3477.7256,1.0456,1.0456,0,0,1-.7968.3184c-.7559,0-1.2481-.6123-1.2481-1.5538,0-.9355.5039-1.5585,1.2715-1.5585a1.0918,1.0918,0,0,1,1.1211,1.0312l-.4121.0781a.99.99,0,0,0-.1563-.45.6785.6785,0,0,0-.5586-.2812c-.4843,0-.7851.4492-.7851,1.1689,0,.7442.2871,1.1875.7793,1.1875.373,0,.625-.2519.7207-.7373Z"/>
        <path d="M112.4473,186.8779v-2.956h.4v.6894a2.2718,2.2718,0,0,1,.3066-.5156.7773.7773,0,0,1,.582-.2578c.0352,0,.1016.0059.168.0117v.4375a.949.949,0,0,0-.9961,1.0254v1.5654Z"/>
        <path d="M116.7051,186.0859a1.2675,1.2675,0,0,1-1.2539.87,1.38,1.38,0,0,1-1.3555-1.5411,1.4153,1.4153,0,0,1,1.375-1.5712,1.2,1.2,0,0,1,1.1152.6835,2.0646,2.0646,0,0,1,.1739.9112h-2.1543a1.39,1.39,0,0,0,.1211.6894.847.847,0,0,0,.7558.45.8139.8139,0,0,0,.6172-.2695,1.02,1.02,0,0,0,.18-.3125Zm-.4492-.9892a.933.933,0,0,0-.168-.5879.7049.7049,0,0,0-.6113-.3115.8.8,0,0,0-.6368.3056,1.0083,1.0083,0,0,0-.2089.5938Z"/>
        <path d="M119.8262,186.0859a1.2692,1.2692,0,0,1-1.2539.87,1.3785,1.3785,0,0,1-1.3555-1.5411,1.4149,1.4149,0,0,1,1.373-1.5712,1.196,1.196,0,0,1,1.1153.6835,2.0383,2.0383,0,0,1,.1738.9112h-2.1523a1.3946,1.3946,0,0,0,.1191.6894.8493.8493,0,0,0,.7559.45.808.808,0,0,0,.6172-.2695,1.0178,1.0178,0,0,0,.1816-.3125Zm-.4512-.9892a.9209.9209,0,0,0-.168-.5879.7024.7024,0,0,0-.6113-.3115.7959.7959,0,0,0-.6348.3056,1.0083,1.0083,0,0,0-.2109.5938Z"/>
        <path d="M122.4707,186.8779v-1.9013c0-.48-.2148-.7373-.6113-.7373a.9063.9063,0,0,0-.8262,1.0136v1.625H120.57v-2.956h.4258v.5449c.3066-.4668.5391-.623.9473-.623a.933.933,0,0,1,.8515.5156,1.82,1.82,0,0,1,.1094.81v1.709Z"/>
        <path d="M127.877,186.8779h-.3711l-.66-2.1943-.6055,2.1943h-.3789l-.8867-2.956h.4629l.6406,2.2.6172-2.2h.3359l.66,2.2129.666-2.2129h.3711Z"/>
        <path d="M129.7207,183.3877h-.498v-.51h.498Zm-.0176,3.49H129.24v-2.956h.4629Z"/>
        <path d="M132.9238,186.8779h-.42v-.5039a.9849.9849,0,0,1-.9355.5879c-.6954,0-1.1875-.6357-1.1875-1.5351,0-.9356.498-1.583,1.2109-1.583a.986.986,0,0,1,.8691.4794v-1.4453h.4629Zm-.4629-1.8174a.866.866,0,0,0-.1738-.5449.8032.8032,0,0,0-.623-.3066c-.4746,0-.7793.456-.7793,1.1582,0,.7676.2812,1.2168.7617,1.2168a.8149.8149,0,0,0,.6-.3.9244.9244,0,0,0,.2148-.6055Z"/>
        <path d="M135.1855,186.9258a2.5793,2.5793,0,0,1-.4375.0361c-.5585,0-.8457-.3057-.8457-.8994v-1.7813h-.5214v-.3593h.5214l.0176-.7442.4317-.0361v.78h.666v.3593h-.666v1.8536a.4177.4177,0,0,0,.48.4609,1.75,1.75,0,0,0,.3535-.0352Z"/>
        <path d="M137.5254,186.8779V185.085a1.3145,1.3145,0,0,0-.0606-.5342.5505.5505,0,0,0-.5156-.3291.797.797,0,0,0-.5762.2812,1.09,1.09,0,0,0-.2441.78v1.5947h-.4629v-4h.4629v1.5889a.9511.9511,0,0,1,.9043-.6289.9015.9015,0,0,1,.7734.39,1.2437,1.2437,0,0,1,.18.8575v1.7929Z"/>
        <path d="M143.0215,184.7129a1.7856,1.7856,0,0,1-.3125-.6231.0837.0837,0,0,1,.09-.0839c.043,0,.0606.0117.1387.1015a2.6273,2.6273,0,0,0,.791.6182c.127.0713.1387.083.1387.1435s-.0117.0655-.1856.1621a2.6257,2.6257,0,0,0-.7441.5938c-.084.09-.0957.1016-.1445.1016a.0828.0828,0,0,1-.084-.084,1.72,1.72,0,0,1,.3125-.624h-2.9981v-.3057Z"/>
      </g>
      <g class="cls-2">
        <path d="M49.6494,183.5625a2.97,2.97,0,0,1,.3057,1.3379,2.8735,2.8735,0,0,1-.3242,1.3184,1.33,1.33,0,0,1-1.1875.7382c-.8936,0-1.5166-.8574-1.5166-2.0879a2.8083,2.8083,0,0,1,.2939-1.3066,1.3488,1.3488,0,0,1,2.4287,0Zm-2.2129,1.2949c0,1.0742.378,1.709,1.0127,1.709a.8564.8564,0,0,0,.8281-.6289,2.7431,2.7431,0,0,0,.1622-.9727,3.1975,3.1975,0,0,0-.2041-1.1875.8541.8541,0,0,0-.81-.5859C47.7959,183.1914,47.4365,183.8027,47.4365,184.8574Z"/>
      </g>
      <rect class="cls-3" x="47.8012" y="18.213" width="161.5184" height="161.5184"/>
      <g class="cls-2">
        <path class="cls-4" d="M119.2324,98.2314l-3.2168-2.3779,1.4541-1.9668.3516.26-1.1582,1.5674,1.0176.7529.9629-1.3027.3232.2392-.9619,1.3018,1.5234,1.1269Z"/>
        <path class="cls-4" d="M121.2324,93.0938a1.4,1.4,0,0,1,.4131,2.0058,1.3657,1.3657,0,0,1-2.0264.1055,1.3467,1.3467,0,1,1,1.6133-2.1113Zm-1.872,1.04a1.4985,1.4985,0,0,0,.5546.6631c.6114.4531,1.1368.4687,1.4473.0488.3066-.415.1406-.9258-.4473-1.36a1.45,1.45,0,0,0-.8252-.3487.7964.7964,0,0,0-.6259.3125A.7728.7728,0,0,0,119.36,94.1338Z"/>
        <path class="cls-4" d="M123.9355,91.8691l-1.5293-1.1308c-.3857-.2852-.7207-.2637-.956.0547a.9064.9064,0,0,0,.3232,1.2675l1.3077.9649-.2754.3721-2.377-1.7569.2529-.3437.4385.3242a1.0346,1.0346,0,0,1,.0625-1.1318.9338.9338,0,0,1,.92-.378,1.8135,1.8135,0,0,1,.7159.3936l1.374,1.0166Z"/>
        <path class="cls-4" d="M125.5723,89.7354a2.5435,2.5435,0,0,1-.2315.374.7769.7769,0,0,1-1.2256.1445l-1.4326-1.0586-.31.42L122.083,89.4l.3106-.418-.587-.458.2276-.3682.6269.4629.3955-.5341.2891.2138-.3955.5352,1.49,1.1015a.4172.4172,0,0,0,.6563-.1123,1.6711,1.6711,0,0,0,.1816-.3046Z"/>
        <path class="cls-4" d="M126.0615,87.5508a.5822.5822,0,0,0,.3828.0469,1.1979,1.1979,0,0,0,.61-.4522c.2461-.333.2588-.6738.0283-.8447-.1934-.1426-.417-.0918-.67.1387l-.4629.4335a.846.846,0,0,1-1.13.1573c-.4189-.31-.4346-.8741-.0361-1.4131a1.0754,1.0754,0,0,1,1.2949-.4912l-.1768.3916a.7342.7342,0,0,0-.8212.333c-.2286.3086-.2383.6142-.0254.7715.1777.1318.373.0888.6074-.125l.4277-.4073c.4463-.4238.8516-.4882,1.2383-.2031.4336.32.44.93.0039,1.5176a1.46,1.46,0,0,1-.8633.6133.8971.8971,0,0,1-.5967-.0606Z"/>
        <path class="cls-4" d="M125.8594,83.3965l-.2959.4-.41-.3037.2959-.4Zm2.7959,2.0879-.2744.3711-2.378-1.7569.2754-.3711Z"/>
        <path class="cls-4" d="M130.2783,83.29l-1.2949,1.75-.2842-.21-.87-2.5957-.8633,1.166-.289-.2129L127.9,81.5332l.2021.1494.9248,2.7041.9659-1.3066Z"/>
        <path class="cls-4" d="M131.3428,80.5176a1.2673,1.2673,0,0,1-.0469,1.5254,1.3791,1.3791,0,0,1-2.0449.1738,1.4144,1.4144,0,0,1-.4453-2.0391,1.1975,1.1975,0,0,1,1.2129-.49,2.046,2.046,0,0,1,.8349.4023l-1.28,1.7315a1.4186,1.4186,0,0,0,.626.3135.85.85,0,0,0,.8115-.3409.8092.8092,0,0,0,.15-.6562,1.024,1.024,0,0,0-.1445-.3311Zm-1.0635-.2266a.9271.9271,0,0,0-.5732-.2139.7012.7012,0,0,0-.6133.3057.7975.7975,0,0,0-.1328.6934,1.0093,1.0093,0,0,0,.3535.5215Z"/>
      </g>
      <polyline class="cls-5" points="47.801 144.065 91.866 144.065 167.31 39.62 209.32 39.62"/>
      <g class="cls-2">
        <g>
          <line class="cls-6" x1="108.25" y1="120.9666" x2="107.75" y2="120.9666"/>
          <line class="cls-7" x1="106.7446" y1="120.9666" x2="48.9333" y2="120.9666"/>
          <line class="cls-6" x1="48.4307" y1="120.9666" x2="47.9307" y2="120.9666"/>
        </g>
      </g>
      <g class="cls-2">
        <g>
          <line class="cls-6" x1="209.3196" y1="51.9536" x2="208.8196" y2="51.9536"/>
          <line class="cls-8" x1="207.8154" y1="51.9536" x2="160.126" y2="51.9536"/>
          <line class="cls-6" x1="159.6238" y1="51.9536" x2="159.1238" y2="51.9536"/>
        </g>
      </g>
      <g class="cls-2">
        <g>
          <line class="cls-6" x1="47.8013" y1="131.984" x2="48.3013" y2="131.984"/>
          <line class="cls-9" x1="49.3066" y1="131.984" x2="99.0737" y2="131.984"/>
          <line class="cls-6" x1="99.5764" y1="131.984" x2="100.0764" y2="131.984"/>
        </g>
      </g>
      <g class="cls-2">
        <g>
          <line class="cls-6" x1="209.3196" y1="64.3958" x2="208.8196" y2="64.3958"/>
          <line class="cls-10" x1="207.821" y1="64.3958" x2="150.4133" y2="64.3958"/>
          <line class="cls-6" x1="149.9141" y1="64.3958" x2="149.4141" y2="64.3958"/>
        </g>
      </g>
    </g>
  </g>
</svg>
