<svg id="Layer_1" data-name="Layer 1" xmlns="http://www.w3.org/2000/svg" viewBox="0 0 1366 768"><defs><style>.cls-1{fill:#ff400e;}.cls-2{fill:#ff4a25;}.cls-3{fill:#ff4217;}.cls-11,.cls-4{fill:#fff;}.cls-5{font-size:19.5353px;}.cls-13,.cls-5,.cls-6,.cls-7{font-family:SuisseIntl-Medium, Suisse Int'l;}.cls-6{font-size:20px;}.cls-7{font-size:19.5353px;}.cls-8{font-size:51px;font-family:SuisseIntl-Book, Suisse Int'l;letter-spacing:-0.01em;}.cls-9{letter-spacing:-0.002em;}.cls-10{letter-spacing:-0.01em;}.cls-11{font-size:58px;font-family:SuisseIntlCond-MediumItalic, Suisse Int'l Condensed;font-style:italic;letter-spacing:-0.02em;}.cls-12{letter-spacing:-0.015em;}.cls-13{font-size:42px;letter-spacing:-0.02em;}.cls-14{letter-spacing:-0.011em;}.cls-15{letter-spacing:-0.018em;}.cls-16{letter-spacing:-0.02em;}</style></defs><title>Artboard 1</title><polygon class="cls-1" points="1194.514 520 1209.384 537.167 1229.229 526.121 1237.331 547.339 1259.757 543.746 1260.113 566.456 1282.415 570.75 1274.983 592.212 1294.472 603.875 1280.148 621.5 1294.472 639.125 1274.983 650.788 1282.415 672.25 1260.113 676.544 1259.757 699.254 1237.331 695.661 1229.229 716.879 1209.384 705.833 1194.514 723 1179.644 705.833 1159.799 716.879 1151.697 695.661 1129.271 699.254 1128.915 676.544 1106.612 672.25 1114.044 650.788 1094.556 639.125 1108.88 621.5 1094.556 603.875 1114.044 592.212 1106.612 570.75 1128.915 566.456 1129.271 543.746 1151.697 547.339 1159.799 526.121 1179.644 537.167 1194.514 520"/><circle class="cls-1" cx="968.5" cy="639" r="86"/><polygon class="cls-2" points="199.248 63.921 213.542 85.71 233.87 69.405 240.731 94.545 265.103 85.319 263.859 111.349 289.889 110.105 280.663 134.477 305.803 141.338 289.497 161.666 311.287 175.96 289.497 190.255 305.803 210.583 280.663 217.444 289.889 241.816 263.859 240.572 265.103 266.602 240.731 257.376 233.87 282.516 213.542 266.21 199.248 288 184.953 266.21 164.625 282.516 157.764 257.376 133.392 266.602 134.636 240.572 108.606 241.816 117.832 217.444 92.692 210.583 108.998 190.255 87.208 175.96 108.998 161.666 92.692 141.338 117.832 134.477 108.606 110.105 134.636 111.349 133.392 85.319 157.764 94.545 164.625 69.405 184.953 85.71 199.248 63.921"/><polygon class="cls-3" points="452.577 53.208 466.871 74.998 487.199 58.692 494.06 83.832 518.432 74.606 517.189 100.636 543.219 99.392 533.992 123.764 559.133 130.625 542.827 150.953 564.616 165.248 542.827 179.542 559.133 199.87 533.992 206.731 543.219 231.103 517.189 229.859 518.432 255.889 494.06 246.663 487.199 271.803 466.871 255.497 452.577 277.287 438.282 255.497 417.955 271.803 411.093 246.663 386.721 255.889 387.965 229.859 361.935 231.103 371.161 206.731 346.021 199.87 362.327 179.542 340.537 165.248 362.327 150.953 346.021 130.625 371.161 123.764 361.935 99.392 387.965 100.636 386.721 74.606 411.093 83.832 417.955 58.692 438.282 74.998 452.577 53.208"/><path class="cls-4" d="M149.4963,188.4717c-3.962.4833-6.0678-1.3608-6.8441-4.5124-.5758-2.4032-.9308-5.8881-2.0447-5.9535-2.227-.13-5.2391,8.21-6.415,16.8591-1.01,7.3614.2093,15.9485,2.8882,16.3951,2.2139.3533,4.3188-4.3075,5.349-9.701-3.4194,1.1419-5.5139-.12-6.9514-3.8251-.4676-1.19.0541-1.6957,1.1392-2.28a83.0435,83.0435,0,0,1,7.8883-3.81c1.9025-.8043,3.0156-.74,4.2325.2477a23.7659,23.7659,0,0,1,2.302,2.3029,4.8109,4.8109,0,0,1,1.1253,4.4462c-.8968,6.9662-3.0854,12.672-6.0155,16.1665a10.0321,10.0321,0,0,1-7.0352,3.7248,16.6641,16.6641,0,0,1-7.1023-.8619,9.84,9.84,0,0,1-4.8344-4.1033c-5.3027-9.0939-3.2214-29.8261,4.9077-40.0583a9.3016,9.3016,0,0,1,6.2222-3.2136,14.33,14.33,0,0,1,8.2581,1.3539c2.0761,1.1933,3.05,2.9048,3.7789,5.3385a35.7212,35.7212,0,0,1,1.0633,9.3608C151.3308,187.684,150.9827,188.2894,149.4963,188.4717Z"/><path class="cls-4" d="M180.7163,169.8183c2.9763,9.1365,3.1665,25.0178-2.4922,34.6569a10.1734,10.1734,0,0,1-7.9668,5.1448,16.2445,16.2445,0,0,1-7.1643-.553,9.9517,9.9517,0,0,1-4.7986-3.9673c-5.5566-8.9516-4.297-27.8546,3.0592-38.2438a10.37,10.37,0,0,1,6.6514-4.06,14.32,14.32,0,0,1,8.2215,1.2178A9.6751,9.6751,0,0,1,180.7163,169.8183Zm-15.9074,16.3488c-.6752,6.98.3637,15.9807,3.16,16.3227,2.7278.3611,5.0123-6.6139,5.5505-15.4556.4214-6.8372-.5966-16.5757-2.9606-16.6681C168.2632,170.2544,165.4657,179.1206,164.8089,186.1671Z"/><path class="cls-4" d="M211.9206,161.4005c2.9763,9.1374,3.1665,25.0178-2.4913,34.6569a10.1761,10.1761,0,0,1-7.9668,5.1448,16.2456,16.2456,0,0,1-7.1652-.5513,9.9518,9.9518,0,0,1-4.7977-3.9681c-5.5575-8.9525-4.297-27.8555,3.0592-38.2447a10.3777,10.3777,0,0,1,6.6514-4.06,14.33,14.33,0,0,1,8.2215,1.2178A9.6752,9.6752,0,0,1,211.9206,161.4005ZM196.014,177.751c-.676,6.9785.3638,15.98,3.16,16.3227,2.7277.3594,5.0123-6.6156,5.5505-15.4573.4213-6.8372-.5975-16.5748-2.9615-16.6681C199.4675,161.8366,196.6709,170.7036,196.014,177.751Z"/><path class="cls-4" d="M215.8547,156.4667c-1.1235-1.4516-1.2936-2.3553-.0157-3.5765,5.6474-5.6159,19.5834-11.9332,27.0914-1.1689,6.6636,9.5309,4.2307,29.7737-12.8657,41.9852a4.6585,4.6585,0,0,1-4.9155.7423,40.2183,40.2183,0,0,1-4.8579-2.5646c-1.7481-1.0625-2.6675-1.7647-2.6693-5.5644.014-7.5307.2966-18.1319.7179-26.87A32.73,32.73,0,0,1,215.8547,156.4667Zm19.5049.5129c-1.3006-1.8423-4.2072-2.5925-7.4007-.3428-.8112,8.9159-1.2465,18.68-1.428,28.3038C237.9155,174.8532,237.9294,160.816,235.36,156.98Z"/><path class="cls-4" d="M255.42,174.4432c4.9748,2.4582,9.1706,2.569,10.4686.6107,1.5353-2.1677-6.7072-4.5483-11.4394-7.7305a11.711,11.711,0,0,1-4.8431-11.9942,31,31,0,0,1,6.9479-14.8834,8.4512,8.4512,0,0,1,6.76-2.8472,16.6053,16.6053,0,0,1,6.975,2.2854c2.4773,1.5964,2.8978,3.969,3.1891,5.8637a47.6815,47.6815,0,0,1-.5783,12.2141c-.3324,1.4777-.94,1.9348-2.3134,1.72-3.8783-.5618-6.0154-2.2506-6.1367-5.1414-.1169-2.6.53-8.3288-.3977-8.5172-1.65-.431-8.014,10.9318-2.9938,14.913,5.4537,4.2289,15.1791,5.3333,13.649,12.3973-1.1034,5.12-3.95,9.47-9.5361,10.9771-4.4967,1.2125-9.4262.2774-14.7115-4.1452-2.73-2.2593-2.7321-3.3549-1.6216-4.3851C250.6556,174.1205,253.6589,173.6023,255.42,174.4432Z"/><path class="cls-4" d="M388.3907,197.0028c-7.1729,1.2542-11.187-1.77-12.5635-9.6427a50.39,50.39,0,0,1-.4509-10.1373l.1586-4.5953c.4392-13.2982,3.682-19.1539,14.295-21.01,7.581-1.3256,12.7762.8911,13.9794,7.7721a21.5368,21.5368,0,0,1,.25,4.5239l-.0148.6036-9.2139,1.6111.0149-.6036a20.8664,20.8664,0,0,0-.1612-4.3589c-.49-2.7993-1.8672-3.46-4.141-3.0623-4.7817.8361-4.9719,6.2783-5.2885,15.4681l-.104,2.8429a55.3073,55.3073,0,0,0,.2248,9.8767c.5,2.8576,1.7765,4.3171,4.5173,3.8379,4.14-.724,6.0492-4.2435,6.3093-10.659l.0473-1.45-7.1729,1.2543.2125-6.3477,15.1612-2.6511-.856,23.2871-6.473,1.1318-.0573-4.7975C395.6046,193.5779,393.7556,196.0647,388.3907,197.0028Z"/><path class="cls-4" d="M423.5561,190.8538c-9.0393,1.5806-13.54-1.4786-14.9778-9.7012a44.3732,44.3732,0,0,1-.4278-9.6607l.1586-4.5953c.4392-13.2981,3.5652-19.1334,14.1783-20.9892,8.98-1.57,13.4817,1.4889,14.9194,9.7114a48.3541,48.3541,0,0,1,.4855,9.651l-.158,4.5945C437.2367,183.1726,434.1692,188.998,423.5561,190.8538Zm-.8888-6.4553c4.84-.8463,4.972-6.2787,5.2885-15.4685l.1033-2.8427a55.2338,55.2338,0,0,0-.2241-9.8765c-.51-2.916-1.7187-4.3272-4.5172-3.8379-4.7818.8361-4.972,6.2784-5.2886,15.4682l-.1039,2.8428a55.2975,55.2975,0,0,0,.2248,9.8767C418.65,183.4183,419.9265,184.8778,422.6673,184.3985Z"/><path class="cls-4" d="M456.3887,185.1128c-9.0393,1.5806-13.54-1.4787-14.9778-9.7012a44.3735,44.3735,0,0,1-.4278-9.6607l.1586-4.5953c.4392-13.2982,3.5652-19.1334,14.1783-20.9892,8.98-1.57,13.4817,1.4888,14.9194,9.7114a48.3531,48.3531,0,0,1,.4855,9.6509l-.158,4.5945C470.0693,177.4316,467.0018,183.257,456.3887,185.1128Zm-.8888-6.4553c4.84-.8463,4.972-6.2787,5.2885-15.4685l.1033-2.8428a55.2326,55.2326,0,0,0-.2241-9.8764c-.51-2.9161-1.7187-4.3273-4.5172-3.8379-4.7818.8361-4.972,6.2783-5.2886,15.4681l-.1039,2.8429a55.2978,55.2978,0,0,0,.2248,9.8767C451.4823,177.6772,452.7591,179.1367,455.5,178.6575Z"/><path class="cls-4" d="M475.5721,137.4067l11.1963-1.9578c9.68-1.6926,14.1585.8895,15.5453,8.82a45.2632,45.2632,0,0,1,.427,9.6612l-.158,4.5945c-.4391,13.2982-3.2313,18.2938-15.594,20.4555l-13.0042,2.2739Zm10.85,35.2427c5.8314-1.02,6.1236-5.8791,6.4394-15.0688l.104-2.8428a53.5183,53.5183,0,0,0-.2389-9.2732c-.52-2.9737-1.845-4.365-5.1691-3.7837l-2.916.51-1.1354,30.9686Z"/><path class="cls-4" d="M519.1963,174.13c-7.7562,1.3563-13.8972-1.116-14.978-7.297a25.92,25.92,0,0,1-.1232-4.4858l.0141-.6035,9.1554-1.6009-.0148.6036a18.8807,18.8807,0,0,0,.1658,3.6968c.5,2.8577,1.9487,3.926,4.8063,3.4263,3.2073-.5608,5.3475-3.0985,4.6542-7.0634-.3773-2.1577-1.6467-3.9193-4.5393-5.3363l-3.44-1.8026c-4.4849-2.28-7.6326-5.1557-8.2647-8.771-1.6825-9.6219,3.332-14.2851,12.2538-15.8451,7.1729-1.2543,12.8086.0441,13.971,6.6918a20.0031,20.0031,0,0,1,.265,3.92l-.0074.3018-9.0387,1.5805.0067-.3017a13.45,13.45,0,0,0-.1873-2.7919c-.4792-2.7409-1.9562-3.6245-4.4051-3.1963-2.8474.558-4.9422,2.6673-4.33,6.1662a5.3287,5.3287,0,0,0,2.7065,3.7938l3.9,2.0224c5.9414,3.0473,9.3971,5.628,10.111,9.71C533.6816,167.27,528.7013,172.4683,519.1963,174.13Z"/><text class="cls-5" transform="translate(419.094 234.1642) rotate(27.4744)">G</text><text class="cls-5" transform="translate(433.4317 241.171) rotate(14.5702)">e</text><text class="cls-5" transform="translate(445.0347 244.0982) rotate(6.2482)">t</text><text class="cls-5" transform="translate(452.4077 244.7649) rotate(1.1549)"> </text><text class="cls-5" transform="matrix(0.9989, -0.046, 0.046, 0.9989, 457.4472, 244.8478)">i</text><text class="cls-5" transform="matrix(0.9881, -0.1538, 0.1538, 0.9881, 463.3798, 244.6873)">n</text><text class="cls-5" transform="translate(475.6901 242.5223) rotate(-15.3081)"> </text><text class="cls-5" transform="translate(481.0166 241.1807) rotate(-21.8176)">s</text><text class="cls-5" transform="matrix(0.8499, -0.527, 0.527, 0.8499, 491.6041, 236.6412)">o</text><text class="cls-5" transform="matrix(0.7427, -0.6696, 0.6696, 0.7427, 502.4089, 230.2562)">n</text><text class="cls-5" transform="matrix(0.6476, -0.9459, 0.8251, 0.5649, 388.1618, 141.6177)">F</text><text class="cls-5" transform="matrix(0.7553, -0.8623, 0.7522, 0.6589, 395.2571, 131.4264)">r</text><text class="cls-5" transform="matrix(0.8575, -0.7608, 0.6637, 0.748, 399.9786, 125.7131)">e</text><text class="cls-5" transform="matrix(0.9672, -0.6154, 0.5368, 0.8437, 409.261, 117.47)">s</text><text class="cls-5" transform="matrix(1.053, -0.4532, 0.3954, 0.9185, 418.5727, 111.4189)">h</text><text class="cls-5" transform="matrix(1.098, -0.3295, 0.2874, 0.9578, 430.2474, 106.5989)">l</text><text class="cls-5" transform="matrix(1.1243, -0.2239, 0.1953, 0.9807, 435.1436, 104.9743)">y</text><text class="cls-5" transform="matrix(1.14, -0.1208, 0.1054, 0.9944, 445.6181, 102.9892)"> </text><text class="cls-5" transform="matrix(1.1464, 0.0005, -0.0005, 1, 450.1479, 102.1963)">B</text><text class="cls-5" transform="matrix(1.1339, 0.1685, -0.147, 0.9891, 464.4448, 102.2477)">a</text><text class="cls-5" transform="matrix(1.1054, 0.3036, -0.2648, 0.9643, 476.4757, 104.036)">k</text><text class="cls-5" transform="matrix(1.0661, 0.4213, -0.3675, 0.93, 487.2097, 106.9154)">e</text><text class="cls-5" transform="matrix(1.0134, 0.5359, -0.4675, 0.884, 499.0088, 111.5459)">d</text><polygon class="cls-3" points="458.455 293.208 472.749 314.998 493.077 298.692 499.938 323.832 524.31 314.606 523.067 340.636 549.097 339.392 539.871 363.764 565.011 370.625 548.705 390.953 570.495 405.248 548.705 419.542 565.011 439.87 539.871 446.731 549.097 471.103 523.067 469.859 524.31 495.889 499.938 486.663 493.077 511.803 472.749 495.497 458.455 517.287 444.161 495.497 423.833 511.803 416.972 486.663 392.6 495.889 393.843 469.859 367.813 471.103 377.039 446.731 351.899 439.87 368.205 419.542 346.416 405.248 368.205 390.953 351.899 370.625 377.039 363.764 367.813 339.392 393.843 340.636 392.6 314.606 416.972 323.832 423.833 298.692 444.161 314.998 458.455 293.208"/><path class="cls-4" d="M392.5406,433.42c-7.23.8694-11.0765-2.3653-12.0306-10.3a50.38,50.38,0,0,1,.091-10.147l.4038-4.58c1.1486-13.2557,4.7-18.93,15.3965-20.2162,7.6409-.9189,12.71,1.5721,13.5444,8.5075a21.5379,21.5379,0,0,1,.0082,4.5308l-.047.6019-9.2867,1.1168.047-.6019a20.8716,20.8716,0,0,0,.0719-4.3613c-.3393-2.8214-1.68-3.5547-3.9716-3.2791-4.82.58-5.3,6.0039-6.1069,15.1637l-.2556,2.8333a55.3044,55.3044,0,0,0-.303,9.8746c.3464,2.88,1.5434,4.4058,4.3059,4.0736,4.1729-.5018,6.2672-3.9144,6.87-10.3068l.1247-1.4457-7.23.8694.5511-6.3273,15.2812-1.8377-2.0983,23.2082-6.5242.7846.199-4.7938C399.9271,430.3853,397.948,432.77,392.5406,433.42Z"/><path class="cls-4" d="M427.9842,429.1577c-9.1108,1.0956-13.4418-2.2-14.4385-10.4872a44.38,44.38,0,0,1,.0888-9.67l.4037-4.58c1.1487-13.2557,4.5818-18.9157,15.2789-20.2021,9.0512-1.0885,13.3829,2.2066,14.38,10.4942a48.3566,48.3566,0,0,1-.0306,9.6631l-.4031,4.5795C442.0555,422.218,438.6812,427.8713,427.9842,429.1577Zm-.5428-6.4935c4.8784-.5867,5.3-6.0043,6.1069-15.1641l.2549-2.8331a55.2269,55.2269,0,0,0,.3037-9.8744c-.3534-2.9391-1.4852-4.4128-4.3059-4.0736-4.82.58-5.3,6.0039-6.107,15.1637l-.2556,2.8332a55.3028,55.3028,0,0,0-.3029,9.8746C423.4819,421.4708,424.6789,422.9964,427.4414,422.6642Z"/><path class="cls-4" d="M461.0765,425.178c-9.1108,1.0957-13.4418-2.2-14.4384-10.4871a44.373,44.373,0,0,1,.0887-9.67l.4037-4.58c1.1487-13.2558,4.5819-18.9158,15.2789-20.2022,9.0512-1.0885,13.3829,2.2066,14.38,10.4943a48.3566,48.3566,0,0,1-.0306,9.6631l-.4031,4.5795C475.1478,418.2384,471.7736,423.8916,461.0765,425.178Zm-.5428-6.4935c4.8784-.5866,5.3-6.0042,6.107-15.164l.2548-2.8332a55.2258,55.2258,0,0,0,.3037-9.8743c-.3534-2.9391-1.4852-4.4129-4.3059-4.0737-4.82.58-5.3,6.004-6.107,15.1637l-.2556,2.8333a55.3123,55.3123,0,0,0-.3029,9.8746C456.5742,417.4911,457.7712,419.0167,460.5337,418.6845Z"/><path class="cls-4" d="M482.78,378.5644l11.2849-1.3571c9.7568-1.1733,14.0907,1.6442,15.052,9.6379a45.2575,45.2575,0,0,1-.0894,9.67l-.4031,4.5795c-1.1487,13.2558-4.2036,18.0952-16.6641,19.5937l-13.1071,1.5762Zm8.953,35.7718c5.8775-.7068,6.4288-5.5437,7.2349-14.7034l.2556-2.8332a53.5246,53.5246,0,0,0,.2566-9.2727c-.36-2.9973-1.6092-4.4573-4.96-4.0544l-2.9391.3535L488.7939,414.69Z"/><path class="cls-4" d="M524.3809,417.5652c-7.8175.94-13.8177-1.8566-14.5669-8.0864a25.9119,25.9119,0,0,1,.1165-4.4861l.0463-.6019,9.2278-1.11-.047.602a18.8968,18.8968,0,0,0-.0319,3.7c.3464,2.88,1.7363,4.0244,4.6166,3.678,3.2326-.3887,5.5053-2.8085,5.0247-6.8048-.2615-2.1747-1.4351-4.0017-4.2479-5.571l-3.3388-1.9838c-4.3568-2.5166-7.3464-5.5559-7.7846-9.2-1.1663-9.698,4.09-14.0868,13.0825-15.1682,7.23-.8694,12.7879.728,13.5937,7.4284a19.9937,19.9937,0,0,1,.0552,3.9288l-.0235.301-9.11,1.0955.0228-.3009a13.4534,13.4534,0,0,0-.038-2.7979c-.3322-2.7625-1.76-3.7238-4.2281-3.427-2.8732.4053-5.0776,2.4-4.6535,5.9262a5.3286,5.3286,0,0,0,2.5,3.9329l3.7862,2.2278c5.77,3.36,9.0832,6.1218,9.578,10.2365C539.2119,411.4879,533.9612,416.4131,524.3809,417.5652Z"/><text class="cls-6" transform="translate(397.1789 453.2958) rotate(49.7907)">G</text><text class="cls-6" transform="matrix(0.7823, 0.6229, -0.6229, 0.7823, 407.6703, 465.214)">e</text><text class="cls-6" transform="matrix(0.8587, 0.5124, -0.5124, 0.8587, 417.0699, 472.6411)">t</text><text class="cls-6" transform="matrix(0.9009, 0.434, -0.434, 0.9009, 423.5124, 476.3312)"> </text><text class="cls-6" transform="translate(428.3597 478.7768) rotate(19.3342)">y</text><text class="cls-6" transform="translate(438.6685 482.3763) rotate(10.4853)">o</text><text class="cls-6" transform="matrix(0.9994, 0.0334, -0.0334, 0.9994, 451.4706, 484.6288)">u</text><text class="cls-6" transform="translate(464.0314 484.9291) rotate(-4.8488)">r</text><text class="cls-6" transform="translate(471.9647 484.3753) rotate(-10.5068)">s</text><text class="cls-6" transform="translate(482.9967 482.1357) rotate(-16.5743)"> </text><text class="cls-6" transform="translate(487.9879 480.6735) rotate(-21.3977)">t</text><text class="cls-6" transform="matrix(0.87, -0.4931, 0.4931, 0.87, 495.3605, 477.8971)">o</text><text class="cls-6" transform="translate(506.9721 471.156) rotate(-40.0276)">d</text><text class="cls-6" transform="translate(517.1899 462.3729) rotate(-49.394)">a</text><text class="cls-6" transform="translate(525.0171 453.0754) rotate(-56.923)">y</text><text class="cls-6" transform="matrix(0.6492, -0.9448, 0.8242, 0.5663, 394.0301, 381.6111)">F</text><text class="cls-6" transform="matrix(0.7595, -0.8587, 0.7491, 0.6625, 401.3123, 371.1952)">r</text><text class="cls-6" transform="matrix(0.8637, -0.7538, 0.6576, 0.7534, 406.1654, 365.3718)">e</text><text class="cls-6" transform="matrix(0.9748, -0.6033, 0.5263, 0.8503, 415.7493, 356.9981)">s</text><text class="cls-6" transform="matrix(1.06, -0.4365, 0.3808, 0.9247, 425.3622, 350.9197)">h</text><text class="cls-6" transform="matrix(1.1034, -0.3107, 0.271, 0.9626, 437.3629, 346.1886)">l</text><text class="cls-6" transform="matrix(1.1282, -0.2034, 0.1774, 0.9841, 442.4315, 344.6042)">y</text><text class="cls-6" transform="matrix(1.1417, -0.1028, 0.0897, 0.996, 453.1695, 342.7791)"> </text><text class="cls-6" transform="matrix(1.146, 0.027, -0.0235, 0.9997, 457.8596, 342.0438)">B</text><text class="cls-6" transform="matrix(1.1294, 0.1964, -0.1714, 0.9852, 472.4926, 342.4378)">a</text><text class="cls-6" transform="matrix(1.0974, 0.3314, -0.2891, 0.9573, 484.7725, 344.5733)">k</text><text class="cls-6" transform="matrix(1.0552, 0.4481, -0.3909, 0.9205, 495.6681, 347.7918)">e</text><text class="cls-6" transform="matrix(0.999, 0.5622, -0.4904, 0.8715, 507.6402, 352.8427)">d</text><polygon class="cls-1" points="458.455 526.208 472.749 547.998 493.077 531.692 499.938 556.832 524.31 547.606 523.067 573.636 549.097 572.392 539.871 596.764 565.011 603.625 548.705 623.953 570.495 638.248 548.705 652.542 565.011 672.87 539.871 679.731 549.097 704.103 523.067 702.859 524.31 728.889 499.938 719.663 493.077 744.803 472.749 728.497 458.455 750.287 444.161 728.497 423.833 744.803 416.972 719.663 392.6 728.889 393.843 702.859 367.813 704.103 377.039 679.731 351.899 672.87 368.205 652.542 346.416 638.248 368.205 623.953 351.899 603.625 377.039 596.764 367.813 572.392 393.843 573.636 392.6 547.606 416.972 556.832 423.833 531.692 444.161 547.998 458.455 526.208"/><text class="cls-6" transform="translate(397.1789 686.2958) rotate(49.7907)">G</text><text class="cls-6" transform="translate(408.6104 699.1929) rotate(37.4462)">e</text><text class="cls-6" transform="translate(418.9102 706.7568) rotate(29.085)">t</text><text class="cls-6" transform="translate(425.409 710.2856) rotate(24.0262)"> </text><text class="cls-6" transform="translate(430.0519 712.3445) rotate(19.837)">i</text><text class="cls-6" transform="translate(435.6452 714.5144) rotate(12.7676)">n</text><text class="cls-6" transform="matrix(0.9936, 0.1127, -0.1127, 0.9936, 447.9596, 717.0499)"> </text><text class="cls-6" transform="translate(453.2082 717.7815) rotate(0.8329)">h</text><text class="cls-6" transform="translate(465.9822 717.9178) rotate(-6.7807)">e</text><text class="cls-6" transform="translate(478.5319 716.2341) rotate(-14.1833)">r</text><text class="cls-6" transform="translate(486.4801 714.3276) rotate(-22.0174)">e</text><text class="cls-6" transform="matrix(0.8734, -0.4871, 0.4871, 0.8734, 498.0685, 709.3419)"> </text><text class="cls-6" transform="matrix(0.8121, -0.5835, 0.5835, 0.8121, 502.8793, 706.7936)">s</text><text class="cls-6" transform="translate(512.4882 699.8059) rotate(-45.0351)">o</text><text class="cls-6" transform="matrix(0.5887, -0.8084, 0.8084, 0.5887, 521.6344, 690.4883)">n</text><text class="cls-6" transform="matrix(0.7241, -0.8887, 0.7753, 0.6316, 392.6352, 611.7087)">F</text><text class="cls-6" transform="matrix(0.8269, -0.7939, 0.6926, 0.7214, 400.7426, 601.9209)">r</text><text class="cls-6" transform="matrix(0.9222, -0.6809, 0.594, 0.8045, 406.0538, 596.5126)">e</text><text class="cls-6" transform="matrix(1.0207, -0.5218, 0.4552, 0.8904, 416.2883, 588.9479)">s</text><text class="cls-6" transform="matrix(1.092, -0.3487, 0.3042, 0.9526, 426.3647, 583.6734)">h</text><text class="cls-6" transform="matrix(1.1251, -0.2197, 0.1916, 0.9815, 438.7111, 579.9362)">l</text><text class="cls-6" transform="matrix(1.141, -0.1108, 0.0966, 0.9953, 443.892, 578.7701)">y</text><text class="cls-6" transform="matrix(1.1463, -0.0094, 0.0082, 1, 454.7431, 577.8264)"> </text><text class="cls-6" transform="matrix(1.1409, 0.112, -0.0977, 0.9952, 459.4881, 577.5311)">b</text><text class="cls-6" transform="matrix(1.1137, 0.2717, -0.237, 0.9715, 472.6744, 578.8176)">a</text><text class="cls-6" transform="matrix(1.0723, 0.4054, -0.3536, 0.9354, 484.7606, 581.766)">k</text><text class="cls-6" transform="matrix(1.0215, 0.5203, -0.4539, 0.8911, 495.4289, 585.7233)">e</text><text class="cls-6" transform="matrix(0.957, 0.6311, -0.5505, 0.8348, 507.0223, 591.5967)">d</text><text class="cls-7" transform="translate(140.3715 150.2146) rotate(-45.1353)">F</text><text class="cls-7" transform="translate(148.0439 142.6111) rotate(-39.2333)">r</text><text class="cls-7" transform="translate(152.9831 138.3801) rotate(-33.1307)">e</text><text class="cls-7" transform="translate(162.0706 132.4468) rotate(-25.5719)">s</text><text class="cls-7" transform="translate(170.7568 128.2022) rotate(-17.9926)">h</text><text class="cls-7" transform="matrix(0.9765, -0.2153, 0.2153, 0.9765, 181.2896, 124.9274)">l</text><text class="cls-7" transform="translate(185.6859 123.8434) rotate(-7.7132)">y</text><text class="cls-7" transform="translate(194.8296 122.7257) rotate(-4.418)"> </text><text class="cls-7" transform="translate(198.8707 122.2027) rotate(2.5292)">B</text><text class="cls-7" transform="translate(211.2774 122.7848) rotate(10.229)">a</text><text class="cls-7" transform="translate(221.7244 124.6686) rotate(16.5458)">k</text><text class="cls-7" transform="matrix(0.9253, 0.3792, -0.3792, 0.9253, 230.9836, 127.3584)">e</text><text class="cls-7" transform="translate(241.2029 131.5096) rotate(28.4268)">d</text><polygon class="cls-3" points="717.455 53.208 731.749 74.998 752.077 58.692 758.938 83.832 783.31 74.606 782.067 100.636 808.097 99.392 798.871 123.764 824.011 130.625 807.705 150.953 829.495 165.248 807.705 179.542 824.011 199.87 798.871 206.731 808.097 231.103 782.067 229.859 783.31 255.889 758.938 246.663 752.077 271.803 731.749 255.497 717.455 277.287 703.161 255.497 682.833 271.803 675.972 246.663 651.6 255.889 652.843 229.859 626.813 231.103 636.039 206.731 610.899 199.87 627.205 179.542 605.416 165.248 627.205 150.953 610.899 130.625 636.039 123.764 626.813 99.392 652.843 100.636 651.6 74.606 675.972 83.832 682.833 58.692 703.161 74.998 717.455 53.208"/><text class="cls-5" transform="translate(683.9725 234.1642) rotate(27.4744)">G</text><text class="cls-5" transform="translate(698.3101 241.171) rotate(14.5702)">e</text><text class="cls-5" transform="translate(709.9132 244.0982) rotate(6.2482)">t</text><text class="cls-5" transform="translate(717.2861 244.7649) rotate(1.1549)"> </text><text class="cls-5" transform="matrix(0.9989, -0.046, 0.046, 0.9989, 722.3257, 244.8478)">i</text><text class="cls-5" transform="matrix(0.9881, -0.1538, 0.1538, 0.9881, 728.2583, 244.6873)">n</text><text class="cls-5" transform="translate(740.5685 242.5223) rotate(-15.3081)"> </text><text class="cls-5" transform="translate(745.8951 241.1807) rotate(-21.8176)">s</text><text class="cls-5" transform="matrix(0.8499, -0.527, 0.527, 0.8499, 756.4825, 236.6412)">o</text><text class="cls-5" transform="matrix(0.7427, -0.6696, 0.6696, 0.7427, 767.2874, 230.2562)">n</text><text class="cls-5" transform="matrix(0.6476, -0.9459, 0.8251, 0.5649, 653.0403, 141.6177)">F</text><text class="cls-5" transform="matrix(0.7553, -0.8623, 0.7522, 0.6589, 660.1355, 131.4264)">r</text><text class="cls-5" transform="matrix(0.8575, -0.7608, 0.6637, 0.748, 664.857, 125.7131)">e</text><text class="cls-5" transform="matrix(0.9672, -0.6154, 0.5368, 0.8437, 674.1395, 117.47)">s</text><text class="cls-5" transform="matrix(1.053, -0.4532, 0.3954, 0.9185, 683.4511, 111.4189)">h</text><text class="cls-5" transform="matrix(1.098, -0.3295, 0.2874, 0.9578, 695.1258, 106.5989)">l</text><text class="cls-5" transform="matrix(1.1243, -0.2239, 0.1953, 0.9807, 700.0221, 104.9743)">y</text><text class="cls-5" transform="matrix(1.14, -0.1208, 0.1054, 0.9944, 710.4966, 102.9892)"> </text><text class="cls-5" transform="matrix(1.1464, 0.0005, -0.0005, 1, 715.0264, 102.1963)">B</text><text class="cls-5" transform="matrix(1.1339, 0.1685, -0.147, 0.9891, 729.3232, 102.2477)">a</text><text class="cls-5" transform="matrix(1.1054, 0.3036, -0.2648, 0.9643, 741.3542, 104.036)">k</text><text class="cls-5" transform="matrix(1.0661, 0.4213, -0.3675, 0.93, 752.0881, 106.9154)">e</text><text class="cls-5" transform="matrix(1.0134, 0.5359, -0.4675, 0.884, 763.8872, 111.5459)">d</text><path class="cls-4" d="M667.4963,178.4717c-3.962.4833-6.0678-1.3608-6.8441-4.5124-.5758-2.4032-.9308-5.8881-2.0447-5.9535-2.227-.13-5.2391,8.21-6.415,16.8591-1.01,7.3614.2093,15.9485,2.8882,16.3951,2.2139.3533,4.3188-4.3075,5.349-9.701-3.4194,1.1419-5.5139-.12-6.9514-3.8251-.4676-1.19.0541-1.6957,1.1392-2.28a83.0435,83.0435,0,0,1,7.8883-3.81c1.9025-.8043,3.0156-.74,4.2325.2477a23.7659,23.7659,0,0,1,2.302,2.3029,4.8109,4.8109,0,0,1,1.1253,4.4462c-.8968,6.9662-3.0854,12.672-6.0155,16.1665a10.0321,10.0321,0,0,1-7.0352,3.7248,16.6641,16.6641,0,0,1-7.1023-.8619,9.84,9.84,0,0,1-4.8344-4.1033c-5.3027-9.0939-3.2214-29.8261,4.9077-40.0583a9.3016,9.3016,0,0,1,6.2222-3.2136,14.33,14.33,0,0,1,8.2581,1.3539c2.0761,1.1933,3.05,2.9048,3.7789,5.3385a35.7212,35.7212,0,0,1,1.0633,9.3608C669.3308,177.684,668.9827,178.2894,667.4963,178.4717Z"/><path class="cls-4" d="M698.7163,159.8183c2.9763,9.1365,3.1665,25.0178-2.4922,34.6569a10.1734,10.1734,0,0,1-7.9668,5.1448,16.2445,16.2445,0,0,1-7.1643-.553,9.9517,9.9517,0,0,1-4.7986-3.9673c-5.5566-8.9516-4.297-27.8546,3.0592-38.2438a10.37,10.37,0,0,1,6.6514-4.06,14.32,14.32,0,0,1,8.2215,1.2178A9.6751,9.6751,0,0,1,698.7163,159.8183Zm-15.9074,16.3488c-.6752,6.98.3637,15.9807,3.16,16.3227,2.7278.3611,5.0123-6.6139,5.55-15.4556.4214-6.8372-.5966-16.5757-2.9606-16.6681C686.2632,160.2544,683.4657,169.1206,682.8089,176.1671Z"/><path class="cls-4" d="M729.9206,151.4005c2.9763,9.1374,3.1665,25.0178-2.4913,34.6569a10.1761,10.1761,0,0,1-7.9668,5.1448,16.2456,16.2456,0,0,1-7.1652-.5513,9.9518,9.9518,0,0,1-4.7977-3.9681c-5.5575-8.9525-4.297-27.8555,3.0592-38.2447a10.3777,10.3777,0,0,1,6.6514-4.06,14.33,14.33,0,0,1,8.2215,1.2178A9.6752,9.6752,0,0,1,729.9206,151.4005ZM714.014,167.751c-.676,6.9785.3638,15.98,3.16,16.3227,2.7277.3594,5.0123-6.6156,5.5505-15.4573.4213-6.8372-.5975-16.5748-2.9615-16.6681C717.4675,151.8366,714.6709,160.7036,714.014,167.751Z"/><path class="cls-4" d="M733.8547,146.4667c-1.1235-1.4516-1.2936-2.3553-.0157-3.5765,5.6474-5.6159,19.5834-11.9332,27.0914-1.1689,6.6636,9.5309,4.2307,29.7737-12.8657,41.9852a4.6585,4.6585,0,0,1-4.9155.7423,40.2183,40.2183,0,0,1-4.8579-2.5646c-1.7481-1.0625-2.6675-1.7647-2.6693-5.5644.014-7.5307.2966-18.1319.7179-26.87A32.73,32.73,0,0,1,733.8547,146.4667Zm19.5049.5129c-1.3006-1.8423-4.2072-2.5925-7.4007-.3428-.8112,8.9159-1.2465,18.68-1.428,28.3038C755.9155,164.8532,755.9294,150.816,753.36,146.98Z"/><path class="cls-4" d="M773.42,164.4432c4.9748,2.4582,9.1706,2.569,10.4686.6107,1.5353-2.1677-6.7072-4.5483-11.4394-7.7305a11.711,11.711,0,0,1-4.8431-11.9942,31,31,0,0,1,6.9479-14.8834,8.4512,8.4512,0,0,1,6.76-2.8472,16.6053,16.6053,0,0,1,6.975,2.2854c2.4773,1.5964,2.8978,3.969,3.1891,5.8637a47.6815,47.6815,0,0,1-.5783,12.2141c-.3324,1.4777-.94,1.9348-2.3134,1.72-3.8783-.5618-6.0154-2.2506-6.1367-5.1414-.1169-2.6.53-8.3288-.3977-8.5172-1.65-.431-8.014,10.9318-2.9938,14.913,5.4537,4.2289,15.1791,5.3333,13.649,12.3973-1.1034,5.12-3.95,9.47-9.5361,10.9771-4.4967,1.2125-9.4262.2774-14.7115-4.1452-2.73-2.2593-2.7321-3.3549-1.6216-4.3851C768.6556,164.1205,771.6589,163.6023,773.42,164.4432Z"/><text class="cls-8" transform="translate(385.9041 664.6106) rotate(-6.2321)">G<tspan class="cls-9" x="38.6069" y="0">oo</tspan><tspan class="cls-10" x="98.6836" y="0">ds</tspan></text><polygon class="cls-1" points="704.455 526.208 718.749 547.998 739.077 531.692 745.938 556.832 770.31 547.606 769.067 573.636 795.097 572.392 785.871 596.764 811.011 603.625 794.705 623.953 816.495 638.248 794.705 652.542 811.011 672.87 785.871 679.731 795.097 704.103 769.067 702.859 770.31 728.889 745.938 719.663 739.077 744.803 718.749 728.497 704.455 750.287 690.161 728.497 669.833 744.803 662.972 719.663 638.6 728.889 639.843 702.859 613.813 704.103 623.039 679.731 597.899 672.87 614.205 652.542 592.416 638.248 614.205 623.953 597.899 603.625 623.039 596.764 613.813 572.392 639.843 573.636 638.6 547.606 662.972 556.832 669.833 531.692 690.161 547.998 704.455 526.208"/><text class="cls-6" transform="translate(643.1789 686.2958) rotate(49.7907)">G</text><text class="cls-6" transform="translate(654.6104 699.1929) rotate(37.4462)">e</text><text class="cls-6" transform="translate(664.9102 706.7568) rotate(29.085)">t</text><text class="cls-6" transform="translate(671.409 710.2856) rotate(24.0262)"> </text><text class="cls-6" transform="translate(676.0519 712.3445) rotate(19.837)">i</text><text class="cls-6" transform="translate(681.6452 714.5144) rotate(12.7676)">n</text><text class="cls-6" transform="matrix(0.9936, 0.1127, -0.1127, 0.9936, 693.9596, 717.0499)"> </text><text class="cls-6" transform="translate(699.2082 717.7815) rotate(0.8329)">h</text><text class="cls-6" transform="translate(711.9822 717.9178) rotate(-6.7807)">e</text><text class="cls-6" transform="translate(724.5319 716.2341) rotate(-14.1833)">r</text><text class="cls-6" transform="translate(732.4801 714.3276) rotate(-22.0174)">e</text><text class="cls-6" transform="matrix(0.8734, -0.4871, 0.4871, 0.8734, 744.0685, 709.3419)"> </text><text class="cls-6" transform="matrix(0.8121, -0.5835, 0.5835, 0.8121, 748.8793, 706.7936)">s</text><text class="cls-6" transform="translate(758.4882 699.8059) rotate(-45.0351)">o</text><text class="cls-6" transform="matrix(0.5887, -0.8084, 0.8084, 0.5887, 767.6344, 690.4883)">n</text><text class="cls-6" transform="matrix(0.6599, -0.9374, 0.8177, 0.5757, 643.1305, 611.0238)">F</text><text class="cls-6" transform="matrix(0.7866, -0.8339, 0.7275, 0.6862, 650.4975, 600.755)">r</text><text class="cls-6" transform="matrix(0.9035, -0.7055, 0.6155, 0.7882, 655.4715, 595.0957)">e</text><text class="cls-6" transform="matrix(1.0198, -0.5235, 0.4567, 0.8896, 665.4531, 587.2944)">s</text><text class="cls-6" transform="matrix(1.0973, -0.3317, 0.2893, 0.9572, 675.4506, 582.0277)">h</text><text class="cls-6" transform="matrix(1.1297, -0.1946, 0.1698, 0.9855, 687.8458, 578.5012)">l</text><text class="cls-6" transform="matrix(1.1433, -0.0836, 0.073, 0.9973, 693.0452, 577.4506)">y</text><text class="cls-6" transform="matrix(1.1462, 0.02, -0.0174, 0.9998, 703.9157, 576.767)"> </text><text class="cls-6" transform="matrix(1.1377, 0.1403, -0.1224, 0.9925, 708.6699, 576.5964)">b</text><text class="cls-6" transform="matrix(1.1072, 0.2972, -0.2592, 0.9658, 721.813, 578.2107)">a</text><text class="cls-6" transform="matrix(1.0635, 0.4279, -0.3732, 0.9277, 733.8544, 581.4429)">k</text><text class="cls-6" transform="matrix(1.0113, 0.5399, -0.471, 0.8822, 744.4462, 585.63)">e</text><text class="cls-6" transform="matrix(0.9455, 0.6481, -0.5654, 0.8248, 755.9144, 591.7169)">d</text><text class="cls-11" transform="translate(629.4247 667.2246) rotate(-6.2321)">G<tspan class="cls-12" x="31.6089" y="0">O</tspan><tspan x="63.5664" y="0">ODS</tspan></text><text class="cls-6" transform="translate(904.1789 686.2958) rotate(49.7907)">G</text><text class="cls-6" transform="translate(915.6104 699.1929) rotate(37.4462)">e</text><text class="cls-6" transform="translate(925.9102 706.7568) rotate(29.085)">t</text><text class="cls-6" transform="translate(932.409 710.2856) rotate(24.0262)"> </text><text class="cls-6" transform="translate(937.0519 712.3445) rotate(19.837)">i</text><text class="cls-6" transform="translate(942.6452 714.5144) rotate(12.7676)">n</text><text class="cls-6" transform="matrix(0.9936, 0.1127, -0.1127, 0.9936, 954.9596, 717.0499)"> </text><text class="cls-6" transform="translate(960.2082 717.7815) rotate(0.8329)">h</text><text class="cls-6" transform="translate(972.9822 717.9178) rotate(-6.7807)">e</text><text class="cls-6" transform="translate(985.5319 716.2341) rotate(-14.1833)">r</text><text class="cls-6" transform="translate(993.4801 714.3276) rotate(-22.0174)">e</text><text class="cls-6" transform="matrix(0.8734, -0.4871, 0.4871, 0.8734, 1005.0685, 709.3419)"> </text><text class="cls-6" transform="matrix(0.8121, -0.5835, 0.5835, 0.8121, 1009.8793, 706.7936)">s</text><text class="cls-6" transform="translate(1019.4882 699.8059) rotate(-45.0351)">o</text><text class="cls-6" transform="matrix(0.5887, -0.8084, 0.8084, 0.5887, 1028.6344, 690.4883)">n</text><text class="cls-6" transform="matrix(0.5425, -1.0099, 0.8809, 0.4732, 910.2101, 611.1032)">F</text><text class="cls-6" transform="matrix(0.6913, -0.9144, 0.7977, 0.6031, 916.2716, 600.0553)">r</text><text class="cls-6" transform="matrix(0.837, -0.7833, 0.6833, 0.7302, 920.5288, 593.9089)">e</text><text class="cls-6" transform="matrix(0.9876, -0.582, 0.5077, 0.8615, 929.6893, 585.3051)">s</text><text class="cls-6" transform="matrix(1.0878, -0.3618, 0.3156, 0.9489, 939.2759, 579.4891)">h</text><text class="cls-6" transform="matrix(1.1278, -0.2054, 0.1791, 0.9838, 951.5421, 575.663)">l</text><text class="cls-6" transform="matrix(1.1434, -0.082, 0.0716, 0.9974, 956.6921, 574.5533)">y</text><text class="cls-6" transform="matrix(1.1457, 0.0401, -0.035, 0.9994, 967.4973, 573.8935)"> </text><text class="cls-6" transform="matrix(1.1291, 0.1982, -0.1729, 0.9849, 972.1744, 573.7062)">b</text><text class="cls-6" transform="matrix(1.0667, 0.4199, -0.3663, 0.9305, 985.035, 575.9145)">a</text><text class="cls-6" transform="matrix(0.9721, 0.6076, -0.53, 0.848, 996.4681, 580.3908)">k</text><text class="cls-6" transform="matrix(0.8589, 0.7593, -0.6623, 0.7492, 1006.0273, 586.2275)">e</text><text class="cls-6" transform="matrix(0.722, 0.8904, -0.7768, 0.6298, 1015.67, 594.6777)">d</text><text class="cls-13" transform="translate(893.1654 660.6926) rotate(-6.2321)">G<tspan class="cls-14" x="31.248" y="0">O</tspan><tspan x="63.5449" y="0">O</tspan><tspan class="cls-15" x="95.4648" y="0">D</tspan><tspan class="cls-16" x="124.9067" y="0">S</tspan></text><text class="cls-6" transform="translate(1131.6789 667.2958) rotate(49.7907)">G</text><text class="cls-6" transform="translate(1143.1104 680.1929) rotate(37.4462)">e</text><text class="cls-6" transform="translate(1153.4102 687.7568) rotate(29.085)">t</text><text class="cls-6" transform="translate(1159.909 691.2856) rotate(24.0262)"> </text><text class="cls-6" transform="translate(1164.5519 693.3445) rotate(19.837)">i</text><text class="cls-6" transform="translate(1170.1452 695.5144) rotate(12.7676)">n</text><text class="cls-6" transform="matrix(0.9936, 0.1127, -0.1127, 0.9936, 1182.4596, 698.0499)"> </text><text class="cls-6" transform="translate(1187.7082 698.7815) rotate(0.8329)">h</text><text class="cls-6" transform="translate(1200.4822 698.9178) rotate(-6.7807)">e</text><text class="cls-6" transform="translate(1213.0319 697.2341) rotate(-14.1833)">r</text><text class="cls-6" transform="translate(1220.9801 695.3276) rotate(-22.0174)">e</text><text class="cls-6" transform="matrix(0.8734, -0.4871, 0.4871, 0.8734, 1232.5685, 690.3419)"> </text><text class="cls-6" transform="matrix(0.8121, -0.5835, 0.5835, 0.8121, 1237.3793, 687.7936)">s</text><text class="cls-6" transform="translate(1246.9882 680.8059) rotate(-45.0351)">o</text><text class="cls-6" transform="matrix(0.5887, -0.8084, 0.8084, 0.5887, 1256.1344, 671.4883)">n</text><text class="cls-6" transform="matrix(0.524, -1.0196, 0.8894, 0.4571, 1137.7285, 598.2205)">F</text><text class="cls-6" transform="matrix(0.6349, -0.9545, 0.8326, 0.5538, 1143.6286, 586.9275)">r</text><text class="cls-6" transform="matrix(0.7563, -0.8615, 0.7515, 0.6597, 1147.6061, 580.4989)">e</text><text class="cls-6" transform="matrix(0.911, -0.6959, 0.6071, 0.7947, 1155.9002, 570.9706)">s</text><text class="cls-6" transform="matrix(1.0468, -0.4672, 0.4076, 0.9132, 1164.6313, 564.0281)">h</text><text class="cls-6" transform="matrix(1.1144, -0.2688, 0.2345, 0.9721, 1176.3573, 559.1038)">l</text><text class="cls-6" transform="matrix(1.1425, -0.0944, 0.0824, 0.9966, 1181.2671, 557.6522)">y</text><text class="cls-6" transform="matrix(1.1455, 0.0436, -0.0381, 0.9993, 1192.0261, 556.9586)"> </text><text class="cls-6" transform="matrix(1.1329, 0.1749, -0.1526, 0.9883, 1196.7664, 556.8502)">b</text><text class="cls-6" transform="matrix(1.0867, 0.3651, -0.3185, 0.9479, 1209.7545, 558.8136)">a</text><text class="cls-6" transform="matrix(1.0122, 0.5382, -0.4695, 0.8829, 1221.4626, 562.7216)">k</text><text class="cls-6" transform="matrix(0.9149, 0.6907, -0.6025, 0.7981, 1231.4203, 567.8783)">e</text><text class="cls-6" transform="matrix(0.7846, 0.8358, -0.7291, 0.6845, 1241.6886, 575.5382)">d</text><text class="cls-13" transform="translate(1120.6654 641.6926) rotate(-6.2321)">G<tspan class="cls-14" x="31.248" y="0">O</tspan><tspan x="63.5449" y="0">O</tspan><tspan class="cls-15" x="95.4648" y="0">D</tspan><tspan class="cls-16" x="124.9067" y="0">S</tspan></text></svg>