<svg xmlns="http://www.w3.org/2000/svg" viewBox="0 0 1349.44 920.58"><title>bg</title><rect x="255.8" y="31.49" width="128.86" height="300" transform="translate(-11.1 265.75) rotate(-21.35)" style="fill:#85ce38"/><rect x="64.16" y="366.74" width="128.86" height="300" transform="translate(-346.4 493.76) rotate(-58.58)" style="fill:#ff621d"/><rect x="753.78" y="294.09" width="128.86" height="300" transform="translate(-23.83 263) rotate(-8.53)" style="fill:#fec700"/><rect x="1094.04" y="105.69" width="128.86" height="300" transform="translate(764.74 1499.33) rotate(-81.36)" style="fill:#e529e5"/><rect x="454.18" y="234.07" width="128.86" height="300" transform="translate(694.54 -108.54) rotate(66.27)" style="fill:#ffed00"/><rect x="12.97" y="-10.1" width="128.86" height="300" transform="translate(63.69 123.69) rotate(11.97)" style="fill:#ffed00"/><rect x="539.3" y="-49.86" width="128.86" height="300" transform="translate(646.19 -375.08) rotate(81.47)" style="fill:#00a0db"/><rect x="859.04" y="-123.76" width="128.86" height="300" transform="translate(144.01 -276.84) rotate(26.8)" style="fill:#ff6010"/><rect x="509.85" y="473.99" width="128.86" height="300" transform="translate(493.32 -79.65) rotate(34.9)" style="fill:#156fff"/><rect x="963.88" y="387.08" width="128.86" height="300" transform="translate(230.84 -136.29) rotate(16.71)" style="fill:#3aaa35"/></svg>