<svg xmlns="http://www.w3.org/2000/svg" viewBox="0 0 1302.68 844.44"><title>bg</title><rect x="255.8" y="31.49" width="128.86" height="300" transform="translate(-11.1 265.75) rotate(-21.35)" style="fill:#fec700"/><rect x="64.16" y="366.74" width="128.86" height="300" transform="translate(-346.4 493.76) rotate(-58.58)" style="fill:#ef2563"/><rect x="753.78" y="294.09" width="128.86" height="300" transform="translate(-23.83 263) rotate(-8.53)" style="fill:#fec700"/><rect x="460.12" y="471.52" width="128.86" height="300" transform="translate(-135.69 1183.51) rotate(-81.36)" style="fill:#892a81"/><rect x="480.17" y="247.4" width="128.86" height="300" transform="translate(722.29 -124.38) rotate(66.27)" style="fill:#3aaa35"/><rect x="12.97" y="-10.1" width="128.86" height="300" transform="translate(63.69 123.69) rotate(11.97)" style="fill:#bccf00"/><rect x="539.3" y="-49.86" width="128.86" height="300" transform="translate(646.19 -375.08) rotate(81.47)" style="fill:#00a0db"/><rect x="859.04" y="-123.76" width="128.86" height="300" transform="translate(144.01 -276.84) rotate(26.8)" style="fill:#e5005b"/><rect x="1047.36" y="58.9" width="128.86" height="300" transform="translate(1186.42 -784.88) rotate(81.47)" style="fill:#156fff"/><rect x="963.88" y="387.08" width="128.86" height="300" transform="translate(230.84 -136.29) rotate(16.71)" style="fill:#3aaa35"/></svg>