<svg id="Layer_1" data-name="Layer 1" xmlns="http://www.w3.org/2000/svg" viewBox="0 0 2069.29 1218.9">
  <defs>
    <style>
      .cls-1 {
        fill: none;
        stroke: #39b54a;
        stroke-miterlimit: 10;
        stroke-width: 3px;
      }
    </style>
  </defs>
  <title>Artboard 1</title>
  <path class="cls-1" d="M2051.41,374.53h-54.06l-13.08-75h-55.81l-13.08,75h-54.5l56.24-353.6h72.81ZM1956.8,116l-24,148.24h47.09Z"/>
  <path class="cls-1" d="M1706.54,20.94h54.06l13.08,75h55.81l13.08-75h54.5l-56.24,353.6H1768Zm94.61,258.55,24-148.24H1778Z"/>
  <path class="cls-1" d="M1743.74,360.76l-85,12.08q-48.34,6.87-69.54-13.68t-28.86-74.51q-3.07-21.58-2.19-35.58a63.84,63.84,0,0,1,7.3-26.14q6.43-12.14,21.5-19.13T1627,193.26q-17.69,2.51-31.29-.18t-21.94-8.77a49.12,49.12,0,0,1-14-16.29,92.65,92.65,0,0,1-8.37-20.17,189.84,189.84,0,0,1-4.64-23.34q-7-49.21,9-72.84t60-29.89L1694,10.68ZM1644.21,63.11l-22,3.13a58.37,58.37,0,0,0-12.8,2.92q-4.16,1.69-7.84,6.84t-4,15.32q-.31,10.18,2.08,27,2,14.24,3.78,21.92a111.08,111.08,0,0,0,4.55,15q2.8,7.31,7.39,10.18a29.47,29.47,0,0,0,11.56,3.86,63.13,63.13,0,0,0,17.33-.48l14.68-2.08Zm21,147.63-14.68,2.08q-26.76,3.8-33.12,16.38t-1.27,48.4q2.52,17.71,4.82,26.18a33.38,33.38,0,0,0,7.76,14.31,20,20,0,0,0,13.68,6.42q8.24.59,23.77-1.62l14.68-2.08Z"/>
  <path class="cls-1" d="M1363,122.53q0-50.57,20.71-76.08t55.59-25.51H1455q36.19,0,57.33,23.54t21.15,76.3v146.5q0,26.16-4.8,45.78t-12.21,31.17a61.08,61.08,0,0,1-18.09,18.53,67,67,0,0,1-20.49,9.37,89.07,89.07,0,0,1-21.15,2.4h-22.67a86.4,86.4,0,0,1-20.93-2.4,63.3,63.3,0,0,1-37.06-28.34q-7-11.55-10.68-31.39T1363,266l57.12-3.92v19.84q0,5.46.87,14t2.62,12.21a68.63,68.63,0,0,0,4.58,8.07,13.91,13.91,0,0,0,7.85,5.89,39.58,39.58,0,0,0,11.55,1.53q17.88,0,23.11-13.3t5.23-45.13V126.45q0-11.33-.22-16.79t-.87-14.39q-.65-8.93-2.62-13.3a86.71,86.71,0,0,0-5-9.37,16.15,16.15,0,0,0-8.28-7,34.69,34.69,0,0,0-12.21-2q-9.16,0-14.61,4.36t-8.07,14a98.18,98.18,0,0,0-3.27,19.18q-.65,9.6-.65,25.72Z"/>
  <path class="cls-1" d="M1347.71,374.53H1247a59.42,59.42,0,0,1-15.48-2.18q-8.06-2.19-18.09-9.37a74.78,74.78,0,0,1-17.66-18.09q-7.62-10.89-12.86-30.74t-5.23-45.56V123.4q0-25.72,6.54-44.91t16.13-29.87A72.12,72.12,0,0,1,1224.1,31.4a102,102,0,0,1,26.6-8.5,175.21,175.21,0,0,1,27.25-2h69.76ZM1290.59,67.59h-14.82q-17,0-29,10.9t-12,30.52V268.59q0,28.35,7.41,42.51t27.9,14.17h20.49Z"/>
  <path class="cls-1" d="M1162.36,374.53H1061.64a59.42,59.42,0,0,1-15.48-2.18q-8.06-2.19-18.09-9.37a74.78,74.78,0,0,1-17.66-18.09q-7.62-10.89-12.86-30.74t-5.23-45.56V123.4q0-25.72,6.54-44.91T1015,48.62a72.12,72.12,0,0,1,23.76-17.22,102,102,0,0,1,26.6-8.5,175.21,175.21,0,0,1,27.25-2h69.76ZM1105.24,67.59h-14.82q-17,0-29,10.9t-12,30.52V268.59q0,28.35,7.41,42.51t27.9,14.17h20.49Z"/>
  <path class="cls-1" d="M822.66,20.94H977v353.6H820l-1.31-56.68H919.46V227.17H848V171.36h71.5V77.18H822.66Z"/>
  <path class="cls-1" d="M649.52,20.94H803.86v353.6h-157l-1.31-56.68H746.31V227.17h-71.5V171.36h71.5V77.18H649.52Z"/>
  <path class="cls-1" d="M560.58,374.53H503V227.6H440.24V171.79H503V77.18h-98.1V20.94H560.58Z"/>
  <path class="cls-1" d="M963.54,1005.16v18.75q0,6.11.65,15.91t2.4,14.61a75.33,75.33,0,0,0,4.58,10,16.6,16.6,0,0,0,7.41,7.41A25.64,25.64,0,0,0,989.7,1074q18.75,0,25.29-13.73t6.54-44.69V877q0-14.82-.87-24.63a82.48,82.48,0,0,0-4.14-19.4q-3.27-9.59-10-14.17t-17.66-4.58q-8.72,0-14.61,4.36t-8.5,13.73a106.76,106.76,0,0,0-3.49,19.4q-.87,10-.87,25.29l-55.81-4.36q0-50.57,19.84-76.52t54.72-25.94h15.7q36.62,0,60,24.42t23.33,76.74v146.5q0,28.78-7.85,50.36t-20.49,33.14q-12.64,11.56-25.94,17a71.26,71.26,0,0,1-27.25,5.45h-5.67q-15.7,0-31.83-10.46T943.92,1088l-8.28,35.75H908.17V947.17h55.37v58Z"/>
  <path class="cls-1" d="M761,921h64.53V770.16h57.55v353.6H825.51V969.41H761v154.34H703V770.16h58Z"/>
  <path class="cls-1" d="M17.79,1123.75V770.16H74.47v353.6Z"/>
  <path class="cls-1" d="M1448.09,729.78l89-342.22,54.86,14.26-89,342.22Z"/>
  <path class="cls-1" d="M576.36,374.53V20.94H633v353.6Z"/>
  <path class="cls-1" d="M1932.82,754.79a51.25,51.25,0,0,1-18.53-9.16,57,57,0,0,1-15.7-18.31q-6.31-11.33-10.46-30.74T1884,651V403.37h54.94V656.69q0,12.21.22,17.44a87.73,87.73,0,0,0,1.53,12.21q1.31,7,4.14,9.59a22.24,22.24,0,0,0,7.85,4.36,39.76,39.76,0,0,0,12.86,1.74q7.85,0,12.86-2.62a23.06,23.06,0,0,0,7.85-6.32q2.84-3.7,4.36-11.34a107.91,107.91,0,0,0,2-14.39q.44-6.75.44-18.09l58-4.8q1.75,26.16-2.4,46.65T2037,723.62a68.36,68.36,0,0,1-18.31,19.84,67.42,67.42,0,0,1-21.15,10.68,79,79,0,0,1-21.15,2.83h-23.11A88.76,88.76,0,0,1,1932.82,754.79Z"/>
  <path class="cls-1" d="M1748.78,403.37l62.35,153v-153h58V757h-58V619.19h-4.8L1746.16,757h-60.6l71.5-177-68.45-176.58Z"/>
  <path class="cls-1" d="M1623.13,403.37h57.55V757H1526.34V705.09h96.79V403.37Z"/>
  <path class="cls-1" d="M1063.65,757.12h1.74l-59.3-.32L1008,403.22l59.3.32h.44l94.61.51-.28,51.88-96.79-.53L1064.74,557Z"/>
  <path class="cls-1" d="M2057.29,1131.71h-58l3.49-200.56L1949.16,1096H1906l-50.14-164.81,3.49,200.56h-60.17V779.85h74.56l54.06,218.44,55.81-218.44h73.68Z"/>
  <path class="cls-1" d="M840.89,620.5l96.36-217.56h58.42v353.6H935.94l-.44-198.38L843.94,756.53H786.39V402.94h54.5Z"/>
  <path class="cls-1" d="M647.3,753.7q-9.37-2-19.62-8.72a55.76,55.76,0,0,1-17-17.88q-6.75-11.12-11.34-30.52t-4.58-46V503.65q0-50.57,20.93-75.43t56.24-24.85h15.7q37.06,0,60.17,24t23.11,76.3V650.59q0,105.08-79.35,105.08H668A101.35,101.35,0,0,1,647.3,753.7Zm44.47-48.18a23.14,23.14,0,0,0,8.07-3.05,40.5,40.5,0,0,0,5.67-4.14q2.19-2,3.71-6.76t2.4-7.85a52.94,52.94,0,0,0,1.31-10.25q.44-7.19.44-11.34V509.32q0-63.21-31.83-63.22-9.16,0-15.26,4.58t-8.94,13.73A102.33,102.33,0,0,0,653.41,484a250.49,250.49,0,0,0-1.09,25.29V648.84q0,12.21.22,17.66t.87,13.73q.65,8.29,2.4,11.77a45.17,45.17,0,0,0,5,7.63,15.18,15.18,0,0,0,8.28,5.45,50.12,50.12,0,0,0,12.43,1.31A54.59,54.59,0,0,0,691.77,705.52Z"/>
  <path class="cls-1" d="M463,760.37q-9.37-2-19.62-8.72a55.76,55.76,0,0,1-17-17.88q-6.75-11.12-11.34-30.52t-4.58-46V510.32q0-50.57,20.93-75.43T487.59,410h15.7q37.06,0,60.17,24t23.11,76.3V657.25q0,105.08-79.35,105.08H483.67A101.35,101.35,0,0,1,463,760.37Zm44.47-48.18a23.14,23.14,0,0,0,8.07-3.05,40.5,40.5,0,0,0,5.67-4.14q2.19-2,3.71-6.76t2.4-7.85a52.94,52.94,0,0,0,1.31-10.25q.44-7.19.44-11.34V516q0-63.21-31.83-63.22-9.16,0-15.26,4.58T473,471.08a102.33,102.33,0,0,0-3.92,19.62A250.49,250.49,0,0,0,468,516V655.51q0,12.21.22,17.66t.87,13.73q.65,8.29,2.4,11.77a45.17,45.17,0,0,0,5,7.63,15.18,15.18,0,0,0,8.28,5.45,50.12,50.12,0,0,0,12.43,1.31A54.59,54.59,0,0,0,507.43,712.19Z"/>
  <path class="cls-1" d="M141.93,239.32l353.59,1.9-.31,57.12-134.72-.72-.1,18.31q-.28,51.44-29.61,73.53T240.42,411.2a118.62,118.62,0,0,1-35.94-5.64A106.78,106.78,0,0,1,173,389.26a77.11,77.11,0,0,1-23-28.46q-8.62-17.7-8.51-39.94Zm48.53,57.38-.1,18.31q-.06,11.33,2.73,18.76t6.48,11.37q3.69,3.94,11.52,5.95a83.29,83.29,0,0,0,13.72,2.47q5.88.46,17.66.53l4.8,0,14,.07a120.47,120.47,0,0,0,12.65-.8,61.72,61.72,0,0,0,11.78-2.12,59.21,59.21,0,0,0,9.18-4.09,20.65,20.65,0,0,0,7.88-6.93A39.47,39.47,0,0,0,307.13,330a52.69,52.69,0,0,0,1.82-14.38l.1-18.31Z"/>
  <path class="cls-1" d="M507.56,1042.66q-.87-.87-.44-12t.44-12.86V871.31q0-50.13,20.71-75t56-24.85H600q36.62,0,59.73,24t23.11,75.86v146.5q0,104.21-79.35,104.64h-7q-29.64,0-41.2-13.73t-5.89-34.23l-48,48-37.5-37.5Zm100.28,27.9a26.54,26.54,0,0,0,9.59-6.54q3.5-3.92,5.23-12.21a105.81,105.81,0,0,0,2.18-15.48q.44-7.19.44-20.71V877q0-62.78-31.83-62.78-9.16,0-15,4.36t-8.72,13.73a107.23,107.23,0,0,0-3.92,19.62A244.16,244.16,0,0,0,564.68,877V986.41l15.26-16.13,36.62,37.5-48,48.4q0,17,23.54,17Q601.74,1073.18,607.84,1070.56Z"/>
  <path class="cls-1" d="M284,1100.86q2.84-23.32,2.83-56.9,0-22.24,2.83-37.28t7-24a31.94,31.94,0,0,1,12.86-14.17,61,61,0,0,1,16.79-7.19,206.78,206.78,0,0,1,22-3.71q-33.57,0-47.52-20.71t-14-68.67q0-56.67,19-77.61t69.11-20.93h74.12v354.47H391.51V979H374.94q-14.39,0-21.36,15.91t-7,42.95a486.68,486.68,0,0,1-3.49,56.46q-3.48,29.87-9.16,29.87H275.54Q281.21,1124.19,284,1100.86Zm90.91-282.75a35.48,35.48,0,0,0-15.48,3.05,28.35,28.35,0,0,0-9.59,7q-3.27,3.92-5,12.43a92,92,0,0,0-2,15q-.22,6.54-.22,19.18,0,3.92-.22,12.43t-.22,12q0,3.5.65,10.25a44.8,44.8,0,0,0,1.74,9.81,53.38,53.38,0,0,0,3.49,7.41,14.08,14.08,0,0,0,5.89,6.1,52.51,52.51,0,0,0,8.72,3.27,43.61,43.61,0,0,0,12.21,1.53h19.18V818.12Z"/>
  <path class="cls-1" d="M212.49,829.12q-9.16-8.72-24.42-8.72-16.12,0-24.42,16.35t-5.23,43.82l-54.06-3.92q0-49.27,22.45-73.47T185,779h11.34a85.3,85.3,0,0,1,35.32,7.85q17.44,7.85,30.3,25.29t12.86,40.55v16.57a101.5,101.5,0,0,1-5.23,33.14,88.68,88.68,0,0,1-15.91,28.12,230.9,230.9,0,0,1-20.06,21.58q-9.37,8.73-23.76,20.06-3.92,2.62-12.64,9.16t-12.64,9.59a120.87,120.87,0,0,0-10.25,9.37,69.6,69.6,0,0,0-9.37,11.12,54,54,0,0,0-5.45,12.21,49.41,49.41,0,0,0-2.4,15.26,89.06,89.06,0,0,0,2.4,21.15,38.94,38.94,0,0,0,9.81,17.66,24.7,24.7,0,0,0,18.75,7.85q18.31,0,25.94-14.61t7.63-43.38h54.5q0,51-20.49,78t-54.94,27H175.43q-32.7,0-51.67-24.42t-19-62.78v-13.52a92,92,0,0,1,3.71-26.38,108.82,108.82,0,0,1,8.5-21.15q4.8-8.72,15.26-19.18a247.4,247.4,0,0,1,18.53-17q8.07-6.54,23.33-18.31,12.21-8.72,19-14.61a136.07,136.07,0,0,0,14.17-14.61,59.71,59.71,0,0,0,10.9-18.31,60.66,60.66,0,0,0,3.49-20.93Q221.64,837.84,212.49,829.12Z"/>
  <path class="cls-1" d="M141.73,764.78l-57.07-2.31-64.91-2.62,2-50.53,62.3,2.52L96.32,409.06l57.07,2.31L141.16,714.14l63.17,2.55-2,50.53Z"/>
  <path class="cls-1" d="M22.27,72A64.21,64.21,0,0,1,31,52.56a54.28,54.28,0,0,1,17.44-17q10.89-6.75,30.3-11.34t45.56-4.58H370.63V77.2H126.47q-28.35,0-41.86,7.63T71.1,108.59q0,17,14,26.81t41.42,9.81H370.63v57.12H124.29q-103.77,0-104.2-78.92v-31A88.77,88.77,0,0,1,22.27,72Z"/>
  <path class="cls-1" d="M1262.26,399.45h59.3l59.3,280.35,54.06-280.35h62.78L1421.41,753h-81.53Z"/>
  <path class="cls-1" d="M1646.2,818.74l81.42,183.82-4.86-220.07L1784,770.89l3.7,359.18-60.4,11.44-66.58-154.68-1.71.32-5.39,168.32-60,11.36L1463.59,831.59l57.83-11,81.11,205.62,9-200.95Z"/>
  <path class="cls-1" d="M1347.07,764.8,1380.2,893l32.7-128.18h61.91L1424.68,944l51,174.4H1412.9l-32.7-122.08-33.14,122.08h-62.78l51-174.4-48.4-179.2Z"/>
  <path class="cls-1" d="M1251,756.53l-49.7-166.12-45.78,166.12h-61.91L1152,545.95h37.5V402.5h57.55V542.89l65.4,213.64Z"/>
  <path class="cls-1" d="M1084.23,769.94h180.5v52.32H1152.68L1268.22,1066v58H1089.9V1068.6h111.62l-117.28-249Z"/>
  <path class="cls-1" d="M1076.45,1207.05H723.29v-26.6q17,0,28.12-10.25a52.85,52.85,0,0,0,15.26-24.42,114,114,0,0,0,4.14-32h41v35.75h264.65Z"/>
  <path class="cls-1" d="M1976.46,405.65l1.71,49.52,67.68-73,23.44,21.72-67.68,73,49.5-2.06,2.11,32.45-105.5,2.8-3.25-103.56Z"/>
  <path class="cls-1" d="M2016.83,539.51l-26,27.83,76.45-2.91.93,24.54-76.45,2.91,28,25.78-16.49,18.78-58.84-55.8,54.5-58Z"/>
  <path class="cls-1" d="M1342.76,1140.89q31.82-.43,126.44,0v58.42H1343.63q-42.73,0-80.44-3.05t-48.61-4.8q-10.9-1.74-16.57-3.05v-41Zm-225.85,27a28.06,28.06,0,0,1,8.28-20.27,27.2,27.2,0,0,1,20.27-8.5,28.78,28.78,0,1,1,0,57.55,27.2,27.2,0,0,1-20.27-8.5A28.06,28.06,0,0,1,1116.91,1167.92Z"/>
  <path class="cls-1" d="M77.5,623.74,9.92,555.29V200.39H65.29l68.45,69.32H78.81Z"/>
  <polygon class="cls-1" points="631.22 1197.21 655.97 1147.2 663 1147.17 690.08 1196.86 718.62 1139.94 719.61 1136.39 708.84 1136.98 373.96 1138.34 363.69 1139.06 363.69 1141.38 395.33 1198.05 420.53 1148.15 427.77 1148.12 454.96 1197.93 480.16 1147.91 486.34 1147.88 513.05 1197.69 538.19 1147.67 545.27 1147.65 572.36 1197.45 597.11 1147.43 604.14 1147.41 631.22 1197.21"/>
  <polygon class="cls-1" points="96.09 1141.02 71.33 1191.04 64.31 1191.07 37.23 1141.38 8.68 1198.82 7.45 1202.31 18.46 1202.31 352.46 1200.42 362.44 1200.32 361.84 1196.99 331.09 1140.25 306.33 1190.11 299.31 1190.13 272.23 1140.31 247.09 1190.33 240.94 1190.35 214.24 1140.54 189.1 1190.56 182.03 1190.59 154.95 1140.78 130.19 1190.8 123.17 1190.83 96.09 1141.02"/>
  <path class="cls-1" d="M1897.53,1147q31.82-.43,126.44,0v58.42H1898.4q-42.73,0-80.44-3.05t-48.61-4.8q-10.9-1.74-16.57-3.05v-41Zm-225.85,27a28.06,28.06,0,0,1,8.28-20.27,27.2,27.2,0,0,1,20.27-8.5,28.78,28.78,0,1,1,0,57.55,27.2,27.2,0,0,1-20.27-8.5A28.06,28.06,0,0,1,1671.68,1174Z"/>
  <path class="cls-1" d="M402.22,566.14l-29.06,3-2,57.62,29.93-3.07-1.29,55.79-30.36,3.12-1.9,54.1-56.38,5.78,2.33-54.15-45.11,4.63L266.93,747l-56.82,5.83,2.77-54.19-30.36,3.12L183.81,646l31.23-3.2L217.88,585l-33,3.38,1.38-54.93L220.13,530l3.3-66.08,52.91-5.43-2,65.95,46.84-4.81,2.87-66L377,448.2l-2,65.95,28.63-2.94ZM316.1,632.39l2.41-57.66-46.41,4.76-1.54,57.57Z"/>
  <path class="cls-1" d="M440.54,326.91l-26,27.83L491,351.83l.93,24.54-76.45,2.91,28,25.78L427,423.83,368.19,368l54.5-58Z"/>
</svg>
