<svg xmlns="http://www.w3.org/2000/svg" viewBox="0 0 1911.39 354.03">
  <title>Asset 1</title>
  <g id="Layer_2" data-name="Layer 2">
    <g id="Layer_1-2" data-name="Layer 1">
      <g>
        <path d="M61.48,0h72.81l56.24,353.6H136L123,278.6H67.14l-13.08,75H0Zm10,243.29h47.09L94.61,95Z"/>
        <path d="M225.84,0h78.92q44.47,0,63.66,21.15T387.6,92a189.84,189.84,0,0,1-1.31,23.76,92.65,92.65,0,0,1-5.45,21.15A49.12,49.12,0,0,1,369.29,155q-7.42,7.19-20.49,11.77t-31,4.58q25.28,0,41.2,4.8t24,15.91a63.84,63.84,0,0,1,10.9,24.85q2.83,13.73,2.83,35.53,0,54.51-18.09,77.83T311.74,353.6H225.84Zm56.68,149.55h14.82a63.13,63.13,0,0,0,17.22-2,29.47,29.47,0,0,0,10.9-5.45q4.14-3.48,5.89-11.12a111.08,111.08,0,0,0,2.4-15.48q.65-7.85.65-22.24,0-17-1.74-27t-6.1-14.61q-4.36-4.58-8.72-5.67a58.37,58.37,0,0,0-13.08-1.09H282.52Zm0,155.65h14.82q15.7,0,23.76-1.74a20,20,0,0,0,12.64-8.28,33.38,33.38,0,0,0,5.67-15.26q1.08-8.72,1.09-26.6,0-36.18-8.07-47.74T297.35,194H282.52Z"/>
        <path d="M545.43,105.95q0-16.12-.65-25.72A98.18,98.18,0,0,0,541.5,61q-2.62-9.59-8.07-14t-14.61-4.36a34.69,34.69,0,0,0-12.21,2,16.15,16.15,0,0,0-8.28,7,86.71,86.71,0,0,0-5,9.37q-2,4.36-2.62,13.3t-.87,14.39q-.23,5.46-.22,16.79V244.16q0,31.83,5.23,45.13T518,302.58a39.58,39.58,0,0,0,11.55-1.53,13.91,13.91,0,0,0,7.85-5.89,68.63,68.63,0,0,0,4.58-8.07q1.74-3.7,2.62-12.21t.87-14V241.11L602.54,245q1.31,26.6-2.4,46.43t-10.68,31.39A63.3,63.3,0,0,1,552.4,351.2a86.4,86.4,0,0,1-20.93,2.4H508.8a89.07,89.07,0,0,1-21.15-2.4,67,67,0,0,1-20.49-9.37,61.08,61.08,0,0,1-18.09-18.53q-7.42-11.55-12.21-31.17t-4.8-45.78V99.84q0-52.75,21.15-76.3T510.55,0h15.7q34.88,0,55.59,25.51t20.71,76.08Z"/>
        <path d="M637.86,0h69.76a175.21,175.21,0,0,1,27.25,2,102,102,0,0,1,26.6,8.5,72.12,72.12,0,0,1,23.76,17.22q9.59,10.69,16.13,29.87t6.54,44.91V247.65q0,25.73-5.23,45.56T789.8,323.95A74.78,74.78,0,0,1,772.15,342q-10,7.19-18.09,9.37a59.42,59.42,0,0,1-15.48,2.18H637.86ZM695,304.33h20.49q20.49,0,27.9-14.17t7.41-42.51V88.07q0-19.62-12-30.52t-29-10.9H695Z"/>
        <path d="M997.55,56.24H900.76v94.18h71.5v55.81h-71.5v90.69h100.72l-1.31,56.68h-157V0H997.55Z"/>
        <path d="M1036.35,0H1192V56.24h-98.1v94.61h62.78v55.81H1093.9V353.6h-57.55Z"/>
        <path d="M1342.85,223.67V177h55.37V353.6h-27.47l-8.28-35.75q0,14.83-16.13,25.29t-31.83,10.46h-5.67a71.26,71.26,0,0,1-27.25-5.45q-13.31-5.45-25.94-17T1235.16,298q-7.85-21.58-7.85-50.36V101.15q0-52.32,23.33-76.74t60-24.42h15.7q34.88,0,54.72,25.94t19.84,76.52L1345,106.82q0-15.26-.87-25.29a106.76,106.76,0,0,0-3.49-19.4q-2.62-9.37-8.5-13.73T1317.57,44q-10.9,0-17.66,4.58t-10,14.17a82.48,82.48,0,0,0-4.14,19.4q-.88,9.81-.87,24.63V245.47q0,31,6.54,44.69t25.29,13.73a25.64,25.64,0,0,0,11.12-2.18,16.6,16.6,0,0,0,7.41-7.41,75.33,75.33,0,0,0,4.58-10q1.74-4.79,2.4-14.61t.65-15.91V223.67Z"/>
        <path d="M1558.67,0h58V353.6h-58V199.25h-64.53V353.6h-57.55V0h57.55V150.86h64.53Z"/>
        <path d="M1652,353.6V0h56.68V353.6Z"/>
        <path d="M1842.06,354H1819a79,79,0,0,1-21.15-2.83,67.42,67.42,0,0,1-21.15-10.68,68.36,68.36,0,0,1-18.31-19.84q-7.42-12-11.55-32.48t-2.4-46.65l58,4.8q0,11.34.44,18.09a107.91,107.91,0,0,0,2,14.39q1.52,7.63,4.36,11.34a23.06,23.06,0,0,0,7.85,6.32q5,2.62,12.86,2.62a39.76,39.76,0,0,0,12.86-1.74,22.24,22.24,0,0,0,7.85-4.36q2.83-2.62,4.14-9.59a87.73,87.73,0,0,0,1.53-12.21q.21-5.23.22-17.44V.44h54.94V248.08q0,26.16-4.14,45.56t-10.46,30.74a57,57,0,0,1-15.7,18.31,51.25,51.25,0,0,1-18.53,9.16A88.76,88.76,0,0,1,1842.06,354Z"/>
      </g>
    </g>
  </g>
</svg>
