<?xml version="1.0" encoding="UTF-8" standalone="no"?>
<!-- Created with Inkscape (http://www.inkscape.org/) -->

<svg
   xmlns:dc="http://purl.org/dc/elements/1.1/"
   xmlns:cc="http://creativecommons.org/ns#"
   xmlns:rdf="http://www.w3.org/1999/02/22-rdf-syntax-ns#"
   xmlns:svg="http://www.w3.org/2000/svg"
   xmlns="http://www.w3.org/2000/svg"
   xmlns:sodipodi="http://sodipodi.sourceforge.net/DTD/sodipodi-0.dtd"
   xmlns:inkscape="http://www.inkscape.org/namespaces/inkscape"
   width="26.151291mm"
   height="30.474268mm"
   viewBox="0 0 92.662054 107.97969"
   id="svg2"
   version="1.1"
   inkscape:version="0.91 r13725"
   sodipodi:docname="logo.svg">
  <defs
     id="defs4" />
  <sodipodi:namedview
     id="base"
     pagecolor="#ffffff"
     bordercolor="#666666"
     borderopacity="1.0"
     inkscape:pageopacity="0.0"
     inkscape:pageshadow="2"
     inkscape:zoom="3.959798"
     inkscape:cx="80.607785"
     inkscape:cy="53.975965"
     inkscape:document-units="px"
     inkscape:current-layer="layer1"
     showgrid="false"
     showguides="false"
     fit-margin-top="0"
     fit-margin-left="0"
     fit-margin-right="0"
     fit-margin-bottom="0"
     inkscape:window-width="1366"
     inkscape:window-height="746"
     inkscape:window-x="-8"
     inkscape:window-y="-8"
     inkscape:window-maximized="1" />
  <metadata
     id="metadata7">
    <rdf:RDF>
      <cc:Work
         rdf:about="">
        <dc:format>image/svg+xml</dc:format>
        <dc:type
           rdf:resource="http://purl.org/dc/dcmitype/StillImage" />
        <dc:title></dc:title>
      </cc:Work>
    </rdf:RDF>
  </metadata>
  <g
     inkscape:label="Layer 1"
     inkscape:groupmode="layer"
     id="layer1"
     transform="translate(-240,-69.147919)">
    <rect
       style="opacity:0.98999999;fill:#ff0033;fill-opacity:1;stroke:none;stroke-width:10.30000019;stroke-linecap:round;stroke-linejoin:round;stroke-miterlimit:4;stroke-dasharray:none;stroke-dashoffset:0;stroke-opacity:1"
       id="rect4146"
       width="92.662056"
       height="107.97969"
       x="240"
       y="69.147919"
       ry="0"
       rx="0" />
    <g
       transform="translate(405.53548,37.759972)"
       style="font-style:italic;font-variant:normal;font-weight:bold;font-stretch:normal;font-size:40px;line-height:125%;font-family:Georgia;-inkscape-font-specification:'Georgia Bold Italic';letter-spacing:-1.52999997px;word-spacing:0px;fill:#ffffff;fill-opacity:1;stroke:none;stroke-width:1px;stroke-linecap:butt;stroke-linejoin:miter;stroke-opacity:1"
       id="flowRoot4136">
      <path
         d="m -111.91602,84.012541 -0.42968,1.757813 q -1.9336,0.761719 -3.08594,1.171875 -1.15234,0.390625 -2.67578,0.390625 -2.32422,0 -3.61328,-1.152344 -1.28907,-1.171875 -1.28907,-2.890625 0,-0.46875 0.0391,-1.191406 0.0586,-0.742188 0.33203,-1.835938 l 1.40625,-5.195312 q 0.21484,-0.839844 0.3125,-1.503906 0.11719,-0.683594 0.11719,-1.113282 0,-0.9375 -0.46875,-1.464843 -0.46875,-0.527344 -1.52344,-0.527344 -0.74219,0 -1.89453,0.664062 -1.13282,0.664063 -2.30469,1.777344 l -3.22266,14.101563 -6.46484,0 2.73437,-11.914063 q 0.21485,-0.976562 0.3125,-1.582031 0.11719,-0.605469 0.11719,-1.054688 0,-0.9375 -0.46875,-1.464843 -0.46875,-0.527344 -1.54297,-0.527344 -0.60547,0 -1.67968,0.488281 -1.07422,0.488281 -2.69532,1.953125 l -3.22265,14.101563 -6.46485,0 2.77344,-12.011719 q 0.11719,-0.546875 0.29297,-1.445313 0.19531,-0.898437 0.19531,-1.445312 0,-1.113281 -0.42969,-1.523438 -0.42968,-0.429687 -1.69921,-0.429687 -0.625,0 -1.28907,0.195312 -0.64453,0.195313 -1.11328,0.371094 l 0.42969,-1.757812 q 1.58203,-0.644532 3.02734,-1.09375 1.44532,-0.46875 2.73438,-0.46875 2.38281,0 3.4375,0.976562 1.05469,0.957031 1.48437,2.480469 l 0.13672,0 q 1.95313,-1.796875 3.76953,-2.734375 1.81641,-0.9375 4.17969,-0.9375 2.01172,0 3.30078,1.074219 1.28906,1.074218 1.42578,2.65625 l 0.13672,0 q 2.08985,-1.796875 3.88672,-2.753907 1.79688,-0.976562 4.10156,-0.976562 2.16797,0 3.39844,1.191406 1.23047,1.191406 1.23047,2.890625 0,0.449219 -0.0781,1.269531 -0.0586,0.800782 -0.3125,1.71875 l -1.48437,5.488282 q -0.19531,0.683593 -0.35156,1.5625 -0.15625,0.878906 -0.15625,1.328125 0,1.132812 0.48828,1.542968 0.50781,0.410157 1.75781,0.410157 0.58594,0 1.32813,-0.195313 0.74218,-0.214844 1.07421,-0.371094 z"
         style=""
         id="path4157" />
      <path
         d="m -87.547577,70.24301 q 0,1.386719 -1.015625,2.460938 -0.996094,1.074218 -2.480469,1.074218 -1.230468,0 -2.285156,-0.546875 -1.054687,-0.566406 -1.855469,-1.171875 -0.390625,0.253907 -0.761718,0.507813 -0.371094,0.234375 -1.542969,1.25 0.898437,2.265625 1.972656,4.980469 1.074219,2.714843 1.621094,3.75 0.644531,1.230468 1.210937,1.738281 0.585938,0.507812 2.03125,0.507812 0.507813,0 1.269532,-0.195312 0.761718,-0.195313 1.25,-0.390625 l -0.429688,1.757812 q -1.933594,0.820313 -3.378906,1.191407 -1.445313,0.371093 -2.578125,0.371093 -0.546875,0 -1.386719,-0.07813 -0.820312,-0.07813 -1.425781,-0.351562 -0.761719,-0.351563 -1.40625,-0.976563 -0.625,-0.625 -1.230469,-1.992187 -0.859378,-1.933594 -1.230468,-2.949219 -0.35156,-1.035156 -0.99609,-2.792969 l -1.28907,1.210938 -1.67968,7.402344 -6.46485,0 5.74219,-24.863282 q 0.0781,-0.332031 0.11719,-0.625 0.0391,-0.292968 0.0391,-0.488281 0,-0.703125 -0.23438,-1.113281 -0.23437,-0.410156 -0.70312,-0.664063 -0.46875,-0.253906 -1.07422,-0.351562 -0.60547,-0.09766 -1.40625,-0.175781 l 0.35156,-1.445313 10.292972,-0.507812 0.214844,0.3125 -4.687496,20.3125 0.15625,0 q 2.34375,-2.636719 3.691402,-4.023438 1.367187,-1.40625 2.949219,-2.949219 1.914062,-1.855468 3.046875,-2.539062 1.152343,-0.703125 2.539062,-0.703125 1.40625,0 2.226563,0.78125 0.820312,0.78125 0.820312,2.285156 z"
         style=""
         id="path4159" />
    </g>
    <rect
       style="opacity:0.98999999;fill:#ffffff;fill-opacity:1;stroke:none;stroke-width:10.30000019;stroke-linecap:round;stroke-linejoin:round;stroke-miterlimit:4;stroke-dasharray:none;stroke-dashoffset:0;stroke-opacity:1"
       id="rect4154"
       width="58.92857"
       height="5.0687099"
       x="256.86673"
       y="137.71935" />
  </g>
</svg>
