<svg width="246" height="100" viewBox="0 0 246 100" fill="none" xmlns="http://www.w3.org/2000/svg">
<rect width="245" height="100" transform="translate(0.0196533)" fill="white"/>
<path d="M87.5549 55.7929L87.0549 55.7929L87.0549 55.7929L87.5549 55.7929ZM112.883 26.8583L112.876 26.3584L112.869 26.3585L112.883 26.8583ZM113.555 26.8486L113.555 26.3485L113.548 26.3486L113.555 26.8486ZM230.635 26.8486L231.135 26.8486L231.135 26.3486L230.635 26.3486L230.635 26.8486ZM230.635 84.7382L230.635 85.2382L231.135 85.2382L231.135 84.7382L230.635 84.7382ZM113.555 84.7382L113.555 84.2382C99.5212 84.2382 88.0549 71.5542 88.0549 55.7929L87.5549 55.7929L87.0549 55.7929C87.0549 72.0029 98.8707 85.2382 113.555 85.2382L113.555 84.7382ZM87.5549 55.7929L88.0549 55.7929C88.0551 40.2792 99.1656 27.7457 112.897 27.3581L112.883 26.8583L112.869 26.3585C98.5035 26.764 87.0552 39.8357 87.0549 55.7929L87.5549 55.7929ZM112.883 26.8583L112.89 27.3583L113.562 27.3485L113.555 26.8486L113.548 26.3486L112.876 26.3584L112.883 26.8583ZM113.555 26.8486L113.555 27.3486L230.635 27.3486L230.635 26.8486L230.635 26.3486L113.555 26.3486L113.555 26.8486ZM230.635 26.8486L230.135 26.8486L230.135 84.7382L230.635 84.7382L231.135 84.7382L231.135 26.8486L230.635 26.8486ZM230.635 84.7382L230.635 84.2382L113.555 84.2382L113.555 84.7382L113.555 85.2382L230.635 85.2382L230.635 84.7382Z" fill="black"/>
<path d="M44.419 9.83608C43.199 9.83608 42.419 10.9061 42.419 12.7561C42.419 14.5861 43.159 15.6461 44.409 15.6461C45.469 15.6461 45.999 14.9461 46.089 14.0261H47.509C47.409 15.5961 46.249 16.6961 44.429 16.6961C42.189 16.6961 40.919 15.3061 40.919 12.7961C40.919 10.2861 42.289 8.77608 44.419 8.77608C46.089 8.77608 47.379 9.65608 47.509 11.3761H46.069C45.979 10.5261 45.399 9.83608 44.419 9.83608ZM50.395 15.7161C50.985 15.7161 51.605 15.2761 51.605 14.2361V14.0861C50.665 14.1361 50.165 14.2161 49.885 14.4161C49.695 14.5461 49.615 14.7461 49.615 14.9961C49.615 15.4361 49.905 15.7161 50.395 15.7161ZM49.805 12.7561H48.515C48.555 11.7361 49.365 11.0961 50.715 11.0961C52.295 11.0961 52.905 11.7461 52.905 13.1661V15.1261C52.905 15.4661 53.005 15.5961 53.355 15.5961V16.5661H52.975C52.185 16.5661 51.845 16.3661 51.705 15.7561H51.675C51.365 16.3061 50.805 16.6161 50.035 16.6161C48.945 16.6161 48.275 16.0361 48.275 15.0561C48.275 14.4461 48.535 13.9961 49.075 13.7161C49.635 13.4261 50.445 13.3561 51.595 13.3061V13.0361C51.595 12.3161 51.315 11.9861 50.705 11.9861C50.085 11.9861 49.825 12.3361 49.805 12.7561ZM58.2963 12.6461H57.0763C57.0463 12.2661 56.7463 11.9861 56.2063 11.9861C55.6763 11.9861 55.3663 12.2661 55.3663 12.6461C55.3663 12.9961 55.5663 13.1761 56.0463 13.2461L56.9163 13.3661C57.9463 13.5061 58.4463 13.9761 58.4463 14.9261C58.4463 16.0761 57.5163 16.6861 56.2163 16.6861C54.8163 16.6861 54.0363 16.0861 53.9663 15.0161H55.2163C55.2563 15.3961 55.4863 15.7861 56.2263 15.7861C56.8163 15.7861 57.1963 15.5261 57.1963 15.0861C57.1963 14.7261 57.0563 14.5261 56.4863 14.4561L55.6463 14.3461C54.6663 14.2161 54.1163 13.7461 54.1163 12.7961C54.1163 11.8661 54.8263 11.0861 56.2263 11.0861C57.5563 11.0861 58.2163 11.7061 58.2963 12.6461ZM62.8392 13.3661V13.3061C62.7892 12.5061 62.4792 11.9661 61.7392 11.9661C61.0492 11.9661 60.6692 12.4961 60.5792 13.3661H62.8392ZM64.1492 15.0461C63.9792 16.0661 63.1292 16.6761 61.7592 16.6761C60.0792 16.6761 59.2092 15.5561 59.2092 13.8861C59.2092 12.2661 60.1392 11.0861 61.7492 11.0861C63.4992 11.0861 64.2092 12.2861 64.2092 13.7761V14.2061H60.5692C60.6292 15.2161 61.0192 15.7461 61.8092 15.7461C62.5292 15.7461 62.7392 15.3661 62.8292 15.0461H64.1492ZM69.3407 15.7161C69.9307 15.7161 70.5507 15.2761 70.5507 14.2361V14.0861C69.6107 14.1361 69.1107 14.2161 68.8307 14.4161C68.6407 14.5461 68.5607 14.7461 68.5607 14.9961C68.5607 15.4361 68.8507 15.7161 69.3407 15.7161ZM68.7507 12.7561H67.4607C67.5007 11.7361 68.3107 11.0961 69.6607 11.0961C71.2407 11.0961 71.8507 11.7461 71.8507 13.1661V15.1261C71.8507 15.4661 71.9507 15.5961 72.3007 15.5961V16.5661H71.9207C71.1307 16.5661 70.7907 16.3661 70.6507 15.7561H70.6207C70.3107 16.3061 69.7507 16.6161 68.9807 16.6161C67.8907 16.6161 67.2207 16.0361 67.2207 15.0561C67.2207 14.4461 67.4807 13.9961 68.0207 13.7161C68.5807 13.4261 69.3907 13.3561 70.5407 13.3061V13.0361C70.5407 12.3161 70.2607 11.9861 69.6507 11.9861C69.0307 11.9861 68.7707 12.3361 68.7507 12.7561Z" fill="#242424"/>
<path d="M170.367 9.83608C169.147 9.83608 168.367 10.9061 168.367 12.7561C168.367 14.5861 169.107 15.6461 170.357 15.6461C171.417 15.6461 171.947 14.9461 172.037 14.0261H173.457C173.357 15.5961 172.197 16.6961 170.377 16.6961C168.137 16.6961 166.867 15.3061 166.867 12.7961C166.867 10.2861 168.237 8.77608 170.367 8.77608C172.037 8.77608 173.327 9.65608 173.457 11.3761H172.017C171.927 10.5261 171.347 9.83608 170.367 9.83608ZM176.343 15.7161C176.933 15.7161 177.553 15.2761 177.553 14.2361V14.0861C176.613 14.1361 176.113 14.2161 175.833 14.4161C175.643 14.5461 175.563 14.7461 175.563 14.9961C175.563 15.4361 175.853 15.7161 176.343 15.7161ZM175.753 12.7561H174.463C174.503 11.7361 175.313 11.0961 176.663 11.0961C178.243 11.0961 178.853 11.7461 178.853 13.1661V15.1261C178.853 15.4661 178.953 15.5961 179.303 15.5961V16.5661H178.923C178.133 16.5661 177.793 16.3661 177.653 15.7561H177.623C177.313 16.3061 176.753 16.6161 175.983 16.6161C174.893 16.6161 174.223 16.0361 174.223 15.0561C174.223 14.4461 174.483 13.9961 175.023 13.7161C175.583 13.4261 176.393 13.3561 177.543 13.3061V13.0361C177.543 12.3161 177.263 11.9861 176.653 11.9861C176.033 11.9861 175.773 12.3361 175.753 12.7561ZM184.244 12.6461H183.024C182.994 12.2661 182.694 11.9861 182.154 11.9861C181.624 11.9861 181.314 12.2661 181.314 12.6461C181.314 12.9961 181.514 13.1761 181.994 13.2461L182.864 13.3661C183.894 13.5061 184.394 13.9761 184.394 14.9261C184.394 16.0761 183.464 16.6861 182.164 16.6861C180.764 16.6861 179.984 16.0861 179.914 15.0161H181.164C181.204 15.3961 181.434 15.7861 182.174 15.7861C182.764 15.7861 183.144 15.5261 183.144 15.0861C183.144 14.7261 183.004 14.5261 182.434 14.4561L181.594 14.3461C180.614 14.2161 180.064 13.7461 180.064 12.7961C180.064 11.8661 180.774 11.0861 182.174 11.0861C183.504 11.0861 184.164 11.7061 184.244 12.6461ZM188.787 13.3661V13.3061C188.737 12.5061 188.427 11.9661 187.687 11.9661C186.997 11.9661 186.617 12.4961 186.527 13.3661H188.787ZM190.097 15.0461C189.927 16.0661 189.077 16.6761 187.707 16.6761C186.027 16.6761 185.157 15.5561 185.157 13.8861C185.157 12.2661 186.087 11.0861 187.697 11.0861C189.447 11.0861 190.157 12.2861 190.157 13.7761V14.2061H186.517C186.577 15.2161 186.967 15.7461 187.757 15.7461C188.477 15.7461 188.687 15.3661 188.777 15.0461H190.097ZM193.589 16.5461V8.66608H194.939V12.0461H194.959C195.229 11.5261 195.799 11.0961 196.589 11.0961C197.789 11.0961 198.729 11.8561 198.729 13.8461C198.729 15.7061 197.809 16.6761 196.499 16.6761C195.689 16.6761 195.169 16.2761 194.889 15.7761H194.869V16.5461H193.589ZM196.159 15.7361C196.939 15.7361 197.369 15.0861 197.369 13.8561C197.369 12.7261 197.029 12.0561 196.149 12.0561C195.399 12.0561 194.909 12.6761 194.909 13.5661V14.1361C194.909 15.0461 195.329 15.7361 196.159 15.7361Z" fill="#242424"/>
<rect x="117.298" y="22.4242" width="113.337" height="66.7387" stroke="#979797"/>
<rect x="11.0388" y="22.4242" width="106.26" height="66.7387" stroke="#979797"/>
<mask id="path-6-outside-1_311_16" maskUnits="userSpaceOnUse" x="165.472" y="49.5699" width="35" height="11" fill="black">
<rect fill="white" x="165.472" y="49.5699" width="35" height="11"/>
<path d="M168.732 54.5199H170.082C170.862 54.5199 171.512 54.1599 171.512 53.1899C171.512 52.2699 170.822 51.9199 170.112 51.9199H168.732V54.5199ZM171.582 58.5699L170.092 55.5399H168.732V58.5699H167.332V50.9199H170.252C170.762 50.9199 171.302 51.0099 171.762 51.2199C172.452 51.5499 172.942 52.1399 172.942 53.1299C172.942 54.4299 172.112 54.9999 171.402 55.2399V55.2599L173.112 58.5699H171.582ZM176.335 58.6999C174.685 58.6999 173.745 57.6199 173.745 55.8999C173.745 54.1899 174.735 53.1099 176.345 53.1099C177.955 53.1099 178.925 54.1799 178.925 55.8999C178.925 57.6199 177.895 58.6999 176.335 58.6999ZM176.335 54.0399C175.485 54.0399 175.135 54.8099 175.135 55.8999C175.135 57.0299 175.485 57.7599 176.345 57.7599C177.215 57.7599 177.535 56.9999 177.535 55.8999C177.535 54.7899 177.205 54.0399 176.335 54.0399ZM181.76 57.7399C182.35 57.7399 182.97 57.2999 182.97 56.2599V56.1099C182.03 56.1599 181.53 56.2399 181.25 56.4399C181.06 56.5699 180.98 56.7699 180.98 57.0199C180.98 57.4599 181.27 57.7399 181.76 57.7399ZM181.17 54.7799H179.88C179.92 53.7599 180.73 53.1199 182.08 53.1199C183.66 53.1199 184.27 53.7699 184.27 55.1899V57.1499C184.27 57.4899 184.37 57.6199 184.72 57.6199V58.5899H184.34C183.55 58.5899 183.21 58.3899 183.07 57.7799H183.04C182.73 58.3299 182.17 58.6399 181.4 58.6399C180.31 58.6399 179.64 58.0599 179.64 57.0799C179.64 56.4699 179.9 56.0199 180.44 55.7399C181 55.4499 181.81 55.3799 182.96 55.3299V55.0599C182.96 54.3399 182.68 54.0099 182.07 54.0099C181.45 54.0099 181.19 54.3599 181.17 54.7799ZM189.182 56.2899V55.6799C189.182 54.6799 188.702 54.0799 187.972 54.0799C187.162 54.0799 186.712 54.7199 186.712 55.9199C186.712 57.0399 187.052 57.7599 187.922 57.7599C188.722 57.7599 189.182 57.1299 189.182 56.2899ZM190.512 50.6899V58.5699H189.222V57.7499H189.192C188.922 58.2399 188.402 58.6999 187.572 58.6999C186.262 58.6999 185.342 57.8799 185.342 55.9599C185.342 54.0999 186.322 53.1199 187.662 53.1199C188.382 53.1199 188.902 53.4899 189.142 53.9799H189.162V50.6899H190.512ZM194.291 58.5699V50.6899H195.641V54.0699H195.661C195.931 53.5499 196.501 53.1199 197.291 53.1199C198.491 53.1199 199.431 53.8799 199.431 55.8699C199.431 57.7299 198.511 58.6999 197.201 58.6999C196.391 58.6999 195.871 58.2999 195.591 57.7999H195.571V58.5699H194.291ZM196.861 57.7599C197.641 57.7599 198.071 57.1099 198.071 55.8799C198.071 54.7499 197.731 54.0799 196.851 54.0799C196.101 54.0799 195.611 54.6999 195.611 55.5899V56.1599C195.611 57.0699 196.031 57.7599 196.861 57.7599Z"/>
</mask>
<path d="M168.732 54.5199H170.082C170.862 54.5199 171.512 54.1599 171.512 53.1899C171.512 52.2699 170.822 51.9199 170.112 51.9199H168.732V54.5199ZM171.582 58.5699L170.092 55.5399H168.732V58.5699H167.332V50.9199H170.252C170.762 50.9199 171.302 51.0099 171.762 51.2199C172.452 51.5499 172.942 52.1399 172.942 53.1299C172.942 54.4299 172.112 54.9999 171.402 55.2399V55.2599L173.112 58.5699H171.582ZM176.335 58.6999C174.685 58.6999 173.745 57.6199 173.745 55.8999C173.745 54.1899 174.735 53.1099 176.345 53.1099C177.955 53.1099 178.925 54.1799 178.925 55.8999C178.925 57.6199 177.895 58.6999 176.335 58.6999ZM176.335 54.0399C175.485 54.0399 175.135 54.8099 175.135 55.8999C175.135 57.0299 175.485 57.7599 176.345 57.7599C177.215 57.7599 177.535 56.9999 177.535 55.8999C177.535 54.7899 177.205 54.0399 176.335 54.0399ZM181.76 57.7399C182.35 57.7399 182.97 57.2999 182.97 56.2599V56.1099C182.03 56.1599 181.53 56.2399 181.25 56.4399C181.06 56.5699 180.98 56.7699 180.98 57.0199C180.98 57.4599 181.27 57.7399 181.76 57.7399ZM181.17 54.7799H179.88C179.92 53.7599 180.73 53.1199 182.08 53.1199C183.66 53.1199 184.27 53.7699 184.27 55.1899V57.1499C184.27 57.4899 184.37 57.6199 184.72 57.6199V58.5899H184.34C183.55 58.5899 183.21 58.3899 183.07 57.7799H183.04C182.73 58.3299 182.17 58.6399 181.4 58.6399C180.31 58.6399 179.64 58.0599 179.64 57.0799C179.64 56.4699 179.9 56.0199 180.44 55.7399C181 55.4499 181.81 55.3799 182.96 55.3299V55.0599C182.96 54.3399 182.68 54.0099 182.07 54.0099C181.45 54.0099 181.19 54.3599 181.17 54.7799ZM189.182 56.2899V55.6799C189.182 54.6799 188.702 54.0799 187.972 54.0799C187.162 54.0799 186.712 54.7199 186.712 55.9199C186.712 57.0399 187.052 57.7599 187.922 57.7599C188.722 57.7599 189.182 57.1299 189.182 56.2899ZM190.512 50.6899V58.5699H189.222V57.7499H189.192C188.922 58.2399 188.402 58.6999 187.572 58.6999C186.262 58.6999 185.342 57.8799 185.342 55.9599C185.342 54.0999 186.322 53.1199 187.662 53.1199C188.382 53.1199 188.902 53.4899 189.142 53.9799H189.162V50.6899H190.512ZM194.291 58.5699V50.6899H195.641V54.0699H195.661C195.931 53.5499 196.501 53.1199 197.291 53.1199C198.491 53.1199 199.431 53.8799 199.431 55.8699C199.431 57.7299 198.511 58.6999 197.201 58.6999C196.391 58.6999 195.871 58.2999 195.591 57.7999H195.571V58.5699H194.291ZM196.861 57.7599C197.641 57.7599 198.071 57.1099 198.071 55.8799C198.071 54.7499 197.731 54.0799 196.851 54.0799C196.101 54.0799 195.611 54.6999 195.611 55.5899V56.1599C195.611 57.0699 196.031 57.7599 196.861 57.7599Z" fill="black"/>
<path d="M168.732 54.5199H167.732V55.5199H168.732V54.5199ZM168.732 51.9199V50.9199H167.732V51.9199H168.732ZM171.582 58.5699L170.685 59.0112L170.96 59.5699H171.582V58.5699ZM170.092 55.5399L170.99 55.0986L170.715 54.5399H170.092V55.5399ZM168.732 55.5399V54.5399H167.732V55.5399H168.732ZM168.732 58.5699V59.5699H169.732V58.5699H168.732ZM167.332 58.5699H166.332V59.5699H167.332V58.5699ZM167.332 50.9199V49.9199H166.332V50.9199H167.332ZM171.762 51.2199L172.194 50.3178L172.186 50.3139L172.177 50.3102L171.762 51.2199ZM171.402 55.2399L171.082 54.2925L170.402 54.5223V55.2399H171.402ZM171.402 55.2599H170.402V55.5029L170.514 55.7189L171.402 55.2599ZM173.112 58.5699V59.5699H174.754L174.001 58.1109L173.112 58.5699ZM168.732 54.5199V55.5199H170.082V54.5199V53.5199H168.732V54.5199ZM170.082 54.5199V55.5199C170.606 55.5199 171.22 55.4013 171.72 54.9947C172.256 54.5593 172.512 53.9171 172.512 53.1899H171.512H170.512C170.512 53.321 170.49 53.3872 170.48 53.4121C170.471 53.433 170.464 53.4384 170.459 53.4425C170.439 53.4585 170.338 53.5199 170.082 53.5199V54.5199ZM171.512 53.1899H172.512C172.512 52.4489 172.218 51.828 171.691 51.4195C171.203 51.0408 170.613 50.9199 170.112 50.9199V51.9199V52.9199C170.322 52.9199 170.432 52.9739 170.466 53.0003C170.477 53.0091 170.482 53.0154 170.487 53.0266C170.493 53.0396 170.512 53.0865 170.512 53.1899H171.512ZM170.112 51.9199V50.9199H168.732V51.9199V52.9199H170.112V51.9199ZM168.732 51.9199H167.732V54.5199H168.732H169.732V51.9199H168.732ZM171.582 58.5699L172.48 58.1286L170.99 55.0986L170.092 55.5399L169.195 55.9812L170.685 59.0112L171.582 58.5699ZM170.092 55.5399V54.5399H168.732V55.5399V56.5399H170.092V55.5399ZM168.732 55.5399H167.732V58.5699H168.732H169.732V55.5399H168.732ZM168.732 58.5699V57.5699H167.332V58.5699V59.5699H168.732V58.5699ZM167.332 58.5699H168.332V50.9199H167.332H166.332V58.5699H167.332ZM167.332 50.9199V51.9199H170.252V50.9199V49.9199H167.332V50.9199ZM170.252 50.9199V51.9199C170.657 51.9199 171.048 51.993 171.347 52.1296L171.762 51.2199L172.177 50.3102C171.557 50.0268 170.868 49.9199 170.252 49.9199V50.9199ZM171.762 51.2199L171.331 52.122C171.549 52.2266 171.69 52.3496 171.779 52.4829C171.865 52.611 171.942 52.8072 171.942 53.1299H172.942H173.942C173.942 52.4625 173.774 51.8688 173.442 51.3719C173.114 50.8801 172.665 50.5431 172.194 50.3178L171.762 51.2199ZM172.942 53.1299H171.942C171.942 53.5463 171.817 53.7754 171.689 53.9199C171.544 54.084 171.331 54.2083 171.082 54.2925L171.402 55.2399L171.722 56.1872C172.183 56.0314 172.74 55.7507 173.188 55.2448C173.652 54.7193 173.942 54.0134 173.942 53.1299H172.942ZM171.402 55.2399H170.402V55.2599H171.402H172.402V55.2399H171.402ZM171.402 55.2599L170.514 55.7189L172.224 59.0289L173.112 58.5699L174.001 58.1109L172.291 54.8009L171.402 55.2599ZM173.112 58.5699V57.5699H171.582V58.5699V59.5699H173.112V58.5699ZM176.335 58.6999V57.6999C175.738 57.6999 175.379 57.5118 175.161 57.2719C174.931 57.0192 174.745 56.5848 174.745 55.8999H173.745H172.745C172.745 56.935 173.029 57.9006 173.682 58.6178C174.346 59.348 175.282 59.6999 176.335 59.6999V58.6999ZM173.745 55.8999H174.745C174.745 55.2345 174.936 54.8013 175.174 54.5437C175.405 54.295 175.773 54.1099 176.345 54.1099V53.1099V52.1099C175.307 52.1099 174.375 52.4647 173.708 53.1835C173.05 53.8935 172.745 54.8553 172.745 55.8999H173.745ZM176.345 53.1099V54.1099C176.919 54.1099 177.279 54.2937 177.503 54.5368C177.736 54.7904 177.925 55.223 177.925 55.8999H178.925H179.925C179.925 54.8568 179.629 53.8944 178.975 53.183C178.311 52.4611 177.381 52.1099 176.345 52.1099V53.1099ZM178.925 55.8999H177.925C177.925 56.5614 177.73 56.9993 177.484 57.2627C177.244 57.5194 176.875 57.6999 176.335 57.6999V58.6999V59.6999C177.355 59.6999 178.281 59.3403 178.946 58.6271C179.606 57.9204 179.925 56.9584 179.925 55.8999H178.925ZM176.335 54.0399V53.0399C175.54 53.0399 174.92 53.4339 174.555 54.0534C174.23 54.6038 174.135 55.2761 174.135 55.8999H175.135H176.135C176.135 55.4336 176.215 55.176 176.278 55.0689C176.302 55.0275 176.311 55.0303 176.294 55.0401C176.276 55.051 176.279 55.0399 176.335 55.0399V54.0399ZM175.135 55.8999H174.135C174.135 56.5371 174.228 57.2173 174.561 57.7696C174.94 58.3988 175.57 58.7599 176.345 58.7599V57.7599V56.7599C176.275 56.7599 176.265 56.7462 176.282 56.7556C176.299 56.7655 176.294 56.7714 176.274 56.7377C176.217 56.6425 176.135 56.3927 176.135 55.8999H175.135ZM176.345 57.7599V58.7599C177.141 58.7599 177.767 58.3763 178.133 57.7417C178.451 57.189 178.535 56.5146 178.535 55.8999H177.535H176.535C176.535 56.3852 176.459 56.6408 176.4 56.743C176.379 56.7794 176.375 56.7715 176.396 56.7591C176.418 56.7465 176.413 56.7599 176.345 56.7599V57.7599ZM177.535 55.8999H178.535C178.535 55.2778 178.448 54.6009 178.124 54.0479C177.753 53.4144 177.124 53.0399 176.335 53.0399V54.0399V55.0399C176.405 55.0399 176.413 55.0537 176.393 55.0425C176.373 55.0312 176.378 55.0242 176.399 55.0594C176.457 55.1588 176.535 55.412 176.535 55.8999H177.535ZM182.97 56.1099H183.97V55.0553L182.917 55.1113L182.97 56.1099ZM181.25 56.4399L181.814 57.2652L181.823 57.2595L181.831 57.2536L181.25 56.4399ZM181.17 54.7799V55.7799H182.123L182.169 54.8275L181.17 54.7799ZM179.88 54.7799L178.881 54.7407L178.84 55.7799H179.88V54.7799ZM184.72 57.6199H185.72V56.6199H184.72V57.6199ZM184.72 58.5899V59.5899H185.72V58.5899H184.72ZM183.07 57.7799L184.044 57.5562L183.866 56.7799H183.07V57.7799ZM183.04 57.7799V56.7799H182.455L182.169 57.2889L183.04 57.7799ZM180.44 55.7399L179.98 54.8519L179.979 54.8521L180.44 55.7399ZM182.96 55.3299L183.003 56.3289L183.96 56.2874V55.3299H182.96ZM181.76 57.7399V58.7399C182.302 58.7399 182.875 58.536 183.31 58.0798C183.75 57.6182 183.97 56.983 183.97 56.2599H182.97H181.97C181.97 56.5768 181.88 56.6815 181.862 56.6999C181.839 56.7237 181.807 56.7399 181.76 56.7399V57.7399ZM182.97 56.2599H183.97V56.1099H182.97H181.97V56.2599H182.97ZM182.97 56.1099L182.917 55.1113C182.438 55.1368 182.025 55.1718 181.681 55.2353C181.343 55.2977 180.981 55.4026 180.669 55.6262L181.25 56.4399L181.831 57.2536C181.798 57.2772 181.827 57.2421 182.044 57.202C182.255 57.163 182.562 57.133 183.023 57.1085L182.97 56.1099ZM181.25 56.4399L180.685 55.6146C180.148 55.9818 179.98 56.5414 179.98 57.0199H180.98H181.98C181.98 56.9986 181.983 57.0328 181.956 57.0943C181.924 57.1647 181.871 57.2262 181.814 57.2652L181.25 56.4399ZM180.98 57.0199H179.98C179.98 57.4669 180.133 57.9298 180.503 58.2755C180.866 58.6141 181.328 58.7399 181.76 58.7399V57.7399V56.7399C181.702 56.7399 181.774 56.7257 181.869 56.8143C181.914 56.8563 181.945 56.9052 181.963 56.9503C181.98 56.9934 181.98 57.0202 181.98 57.0199H180.98ZM181.17 54.7799V53.7799H179.88V54.7799V55.7799H181.17V54.7799ZM179.88 54.7799L180.879 54.8191C180.888 54.5897 180.969 54.4585 181.096 54.362C181.247 54.2462 181.551 54.1199 182.08 54.1199V53.1199V52.1199C181.259 52.1199 180.482 52.3136 179.881 52.7728C179.255 53.2512 178.912 53.9501 178.881 54.7407L179.88 54.7799ZM182.08 53.1199V54.1199C182.764 54.1199 182.995 54.2659 183.07 54.3397C183.139 54.406 183.27 54.5964 183.27 55.1899H184.27H185.27C185.27 54.3634 185.096 53.5188 184.464 52.9051C183.84 52.2989 182.975 52.1199 182.08 52.1199V53.1199ZM184.27 55.1899H183.27V57.1499H184.27H185.27V55.1899H184.27ZM184.27 57.1499H183.27C183.27 57.3565 183.285 57.8159 183.626 58.1881C183.989 58.5839 184.47 58.6199 184.72 58.6199V57.6199V56.6199C184.619 56.6199 184.875 56.5908 185.101 56.8367C185.207 56.9528 185.247 57.0693 185.262 57.1266C185.274 57.1763 185.27 57.194 185.27 57.1499H184.27ZM184.72 57.6199H183.72V58.5899H184.72H185.72V57.6199H184.72ZM184.72 58.5899V57.5899H184.34V58.5899V59.5899H184.72V58.5899ZM184.34 58.5899V57.5899C184.18 57.5899 184.079 57.5793 184.019 57.5676C183.961 57.5563 183.963 57.5484 183.992 57.5665C184.028 57.5889 184.056 57.6203 184.069 57.6422C184.078 57.6557 184.063 57.6379 184.044 57.5562L183.07 57.7799L182.095 58.0036C182.2 58.4613 182.426 58.945 182.93 59.2607C183.377 59.5416 183.897 59.5899 184.34 59.5899V58.5899ZM183.07 57.7799V56.7799H183.04V57.7799V58.7799H183.07V57.7799ZM183.04 57.7799L182.169 57.2889C182.065 57.4725 181.873 57.6399 181.4 57.6399V58.6399V59.6399C182.467 59.6399 183.394 59.1873 183.911 58.2709L183.04 57.7799ZM181.4 58.6399V57.6399C181.024 57.6399 180.844 57.5404 180.772 57.4769C180.716 57.4279 180.64 57.329 180.64 57.0799H179.64H178.64C178.64 57.8108 178.898 58.4919 179.45 58.9779C179.985 59.4494 180.686 59.6399 181.4 59.6399V58.6399ZM179.64 57.0799H180.64C180.64 56.9191 180.673 56.8375 180.698 56.7957C180.721 56.756 180.771 56.6947 180.9 56.6276L180.44 55.7399L179.979 54.8521C179.569 55.0651 179.218 55.3688 178.977 55.7766C178.737 56.1822 178.64 56.6307 178.64 57.0799H179.64ZM180.44 55.7399L180.9 56.6279C181.226 56.4587 181.796 56.3814 183.003 56.3289L182.96 55.3299L182.916 54.3308C181.824 54.3783 180.773 54.4411 179.98 54.8519L180.44 55.7399ZM182.96 55.3299H183.96V55.0599H182.96H181.96V55.3299H182.96ZM182.96 55.0599H183.96C183.96 54.6015 183.876 54.0545 183.506 53.6182C183.106 53.1457 182.552 53.0099 182.07 53.0099V54.0099V55.0099C182.136 55.0099 182.142 55.0192 182.114 55.0085C182.098 55.0028 182.076 54.9922 182.05 54.9743C182.024 54.9563 182 54.9348 181.981 54.9116C181.941 54.8641 181.936 54.8327 181.941 54.8534C181.948 54.8773 181.96 54.9406 181.96 55.0599H182.96ZM182.07 54.0099V53.0099C181.57 53.0099 181.076 53.1551 180.7 53.518C180.329 53.876 180.19 54.3336 180.171 54.7323L181.17 54.7799L182.169 54.8275C182.17 54.8061 182.17 54.8788 182.089 54.9568C182.052 54.9929 182.017 55.0092 182.002 55.0144C181.99 55.0187 182.008 55.0099 182.07 55.0099V54.0099ZM190.512 50.6899H191.512V49.6899H190.512V50.6899ZM190.512 58.5699V59.5699H191.512V58.5699H190.512ZM189.222 58.5699H188.222V59.5699H189.222V58.5699ZM189.222 57.7499H190.222V56.7499H189.222V57.7499ZM189.192 57.7499V56.7499H188.601L188.316 57.2673L189.192 57.7499ZM189.142 53.9799L188.244 54.4198L188.518 54.9799H189.142V53.9799ZM189.162 53.9799V54.9799H190.162V53.9799H189.162ZM189.162 50.6899V49.6899H188.162V50.6899H189.162ZM189.182 56.2899H190.182V55.6799H189.182H188.182V56.2899H189.182ZM189.182 55.6799H190.182C190.182 55.0327 190.028 54.3957 189.644 53.8957C189.239 53.3686 188.641 53.0799 187.972 53.0799V54.0799V55.0799C188.015 55.0799 188.031 55.0881 188.032 55.0884C188.032 55.0886 188.041 55.0922 188.058 55.1141C188.096 55.1641 188.182 55.3271 188.182 55.6799H189.182ZM187.972 54.0799V53.0799C187.263 53.0799 186.629 53.3816 186.215 53.9822C185.839 54.5274 185.712 55.2199 185.712 55.9199H186.712H187.712C187.712 55.4199 187.81 55.1924 187.862 55.1175C187.873 55.1018 187.88 55.095 187.882 55.0931C187.883 55.0925 187.883 55.0922 187.883 55.0919C187.884 55.0917 187.884 55.0917 187.884 55.0916C187.884 55.0916 187.884 55.0916 187.884 55.0916C187.884 55.0916 187.884 55.0915 187.884 55.0914C187.884 55.0914 187.889 55.0889 187.901 55.0862C187.914 55.0834 187.937 55.0799 187.972 55.0799V54.0799ZM186.712 55.9199H185.712C185.712 56.5486 185.802 57.2267 186.135 57.7778C186.518 58.4093 187.152 58.7599 187.922 58.7599V57.7599V56.7599C187.845 56.7599 187.832 56.745 187.849 56.7541C187.867 56.7641 187.864 56.7717 187.846 56.742C187.793 56.6531 187.712 56.4111 187.712 55.9199H186.712ZM187.922 57.7599V58.7599C188.61 58.7599 189.213 58.4769 189.626 57.9735C190.02 57.492 190.182 56.8828 190.182 56.2899H189.182H188.182C188.182 56.537 188.114 56.6628 188.079 56.7062C188.062 56.726 188.049 56.7351 188.036 56.7412C188.022 56.7474 187.989 56.7599 187.922 56.7599V57.7599ZM190.512 50.6899H189.512V58.5699H190.512H191.512V50.6899H190.512ZM190.512 58.5699V57.5699H189.222V58.5699V59.5699H190.512V58.5699ZM189.222 58.5699H190.222V57.7499H189.222H188.222V58.5699H189.222ZM189.222 57.7499V56.7499H189.192V57.7499V58.7499H189.222V57.7499ZM189.192 57.7499L188.316 57.2673C188.247 57.3935 188.153 57.5003 188.042 57.5736C187.938 57.6418 187.792 57.6999 187.572 57.6999V58.6999V59.6999C188.839 59.6999 189.66 58.9725 190.068 58.2325L189.192 57.7499ZM187.572 58.6999V57.6999C187.131 57.6999 186.876 57.569 186.715 57.3872C186.538 57.1873 186.342 56.7742 186.342 55.9599H185.342H184.342C184.342 57.0656 184.606 58.0224 185.217 58.7125C185.844 59.4207 186.703 59.6999 187.572 59.6999V58.6999ZM185.342 55.9599H186.342C186.342 55.1984 186.542 54.7443 186.756 54.4961C186.959 54.2621 187.25 54.1199 187.662 54.1199V53.1199V52.1199C186.734 52.1199 185.866 52.4676 185.243 53.1887C184.632 53.8955 184.342 54.8614 184.342 55.9599H185.342ZM187.662 53.1199V54.1199C188.01 54.1199 188.176 54.2814 188.244 54.4198L189.142 53.9799L190.04 53.54C189.628 52.6984 188.754 52.1199 187.662 52.1199V53.1199ZM189.142 53.9799V54.9799H189.162V53.9799V52.9799H189.142V53.9799ZM189.162 53.9799H190.162V50.6899H189.162H188.162V53.9799H189.162ZM189.162 50.6899V51.6899H190.512V50.6899V49.6899H189.162V50.6899ZM194.291 58.5699H193.291V59.5699H194.291V58.5699ZM194.291 50.6899V49.6899H193.291V50.6899H194.291ZM195.641 50.6899H196.641V49.6899H195.641V50.6899ZM195.641 54.0699H194.641V55.0699H195.641V54.0699ZM195.661 54.0699V55.0699H196.269L196.548 54.5307L195.661 54.0699ZM195.591 57.7999L196.464 57.3113L196.177 56.7999H195.591V57.7999ZM195.571 57.7999V56.7999H194.571V57.7999H195.571ZM195.571 58.5699V59.5699H196.571V58.5699H195.571ZM194.291 58.5699H195.291V50.6899H194.291H193.291V58.5699H194.291ZM194.291 50.6899V51.6899H195.641V50.6899V49.6899H194.291V50.6899ZM195.641 50.6899H194.641V54.0699H195.641H196.641V50.6899H195.641ZM195.641 54.0699V55.0699H195.661V54.0699V53.0699H195.641V54.0699ZM195.661 54.0699L196.548 54.5307C196.657 54.322 196.896 54.1199 197.291 54.1199V53.1199V52.1199C196.106 52.1199 195.205 52.7778 194.774 53.6091L195.661 54.0699ZM197.291 53.1199V54.1199C197.674 54.1199 197.906 54.234 198.059 54.4082C198.229 54.6013 198.431 55.0177 198.431 55.8699H199.431H200.431C200.431 54.7321 200.163 53.7735 199.563 53.0891C198.946 52.3858 198.108 52.1199 197.291 52.1199V53.1199ZM199.431 55.8699H198.431C198.431 56.646 198.239 57.1013 198.037 57.3442C197.854 57.5659 197.591 57.6999 197.201 57.6999V58.6999V59.6999C198.121 59.6999 198.973 59.3488 199.577 58.6206C200.163 57.9134 200.431 56.9538 200.431 55.8699H199.431ZM197.201 58.6999V57.6999C196.967 57.6999 196.817 57.6441 196.718 57.5838C196.616 57.5212 196.53 57.4299 196.464 57.3113L195.591 57.7999L194.718 58.2885C195.162 59.0799 196.002 59.6999 197.201 59.6999V58.6999ZM195.591 57.7999V56.7999H195.571V57.7999V58.7999H195.591V57.7999ZM195.571 57.7999H194.571V58.5699H195.571H196.571V57.7999H195.571ZM195.571 58.5699V57.5699H194.291V58.5699V59.5699H195.571V58.5699ZM196.861 57.7599V58.7599C197.579 58.7599 198.202 58.4347 198.598 57.8251C198.952 57.2778 199.071 56.5847 199.071 55.8799H198.071H197.071C197.071 56.4051 196.975 56.652 196.919 56.7372C196.899 56.7689 196.893 56.765 196.908 56.7571C196.922 56.7498 196.914 56.7599 196.861 56.7599V57.7599ZM198.071 55.8799H199.071C199.071 55.2499 198.983 54.5704 198.636 54.0221C198.237 53.39 197.593 53.0799 196.851 53.0799V54.0799V55.0799C196.944 55.0799 196.966 55.097 196.954 55.0905C196.937 55.0818 196.934 55.0715 196.946 55.0901C196.989 55.1593 197.071 55.3799 197.071 55.8799H198.071ZM196.851 54.0799V53.0799C196.175 53.0799 195.58 53.3703 195.174 53.8707C194.782 54.353 194.611 54.9692 194.611 55.5899H195.611H196.611C196.611 55.3205 196.685 55.1818 196.726 55.1316C196.745 55.1079 196.76 55.0985 196.77 55.0937C196.78 55.089 196.804 55.0799 196.851 55.0799V54.0799ZM195.611 55.5899H194.611V56.1599H195.611H196.611V55.5899H195.611ZM195.611 56.1599H194.611C194.611 56.7516 194.745 57.3809 195.117 57.8904C195.516 58.4375 196.13 58.7599 196.861 58.7599V57.7599V56.7599C196.795 56.7599 196.77 56.7471 196.767 56.7454C196.763 56.7437 196.752 56.7379 196.733 56.7119C196.687 56.6488 196.611 56.4782 196.611 56.1599H195.611Z" fill="white" mask="url(#path-6-outside-1_311_16)"/>
<path d="M119.085 26.8489C134.082 26.8489 146.239 39.8078 146.24 55.7932C146.24 71.5291 134.459 84.3325 119.786 84.7288L119.085 84.7385H11.0393V26.8489H119.085Z" fill="#D3D3D3" fill-opacity="0.67"/>
<path d="M146.24 55.7932L146.74 55.7932L146.74 55.7932L146.24 55.7932ZM119.786 84.7288L119.793 85.2288L119.8 85.2286L119.786 84.7288ZM119.085 84.7385V85.2386L119.092 85.2385L119.085 84.7385ZM11.0393 84.7385H10.5393V85.2385H11.0393V84.7385ZM11.0393 26.8489V26.3489H10.5393V26.8489H11.0393ZM119.085 26.8489V27.3489C133.776 27.3489 145.739 40.0534 145.74 55.7932L146.24 55.7932L146.74 55.7932C146.739 39.5622 134.388 26.3489 119.085 26.3489V26.8489ZM146.24 55.7932H145.74C145.74 71.2868 134.147 83.8407 119.773 84.2289L119.786 84.7288L119.8 85.2286C134.771 84.8243 146.74 71.7713 146.74 55.7932H146.24ZM119.786 84.7288L119.779 84.2288L119.078 84.2386L119.085 84.7385L119.092 85.2385L119.793 85.2287L119.786 84.7288ZM119.085 84.7385V84.2385H11.0393V84.7385V85.2385H119.085V84.7385ZM11.0393 84.7385H11.5393V26.8489H11.0393H10.5393V84.7385H11.0393ZM11.0393 26.8489V27.3489H119.085V26.8489V26.3489H11.0393V26.8489Z" fill="black"/>
<mask id="path-10-outside-2_311_16" maskUnits="userSpaceOnUse" x="39.3589" y="49.5699" width="35" height="11" fill="black">
<rect fill="white" x="39.3589" y="49.5699" width="35" height="11"/>
<path d="M42.6189 54.5199H43.9689C44.7489 54.5199 45.3989 54.1599 45.3989 53.1899C45.3989 52.2699 44.7089 51.9199 43.9989 51.9199H42.6189V54.5199ZM45.4689 58.5699L43.9789 55.5399H42.6189V58.5699H41.2189V50.9199H44.1389C44.6489 50.9199 45.1889 51.0099 45.6489 51.2199C46.3389 51.5499 46.8289 52.1399 46.8289 53.1299C46.8289 54.4299 45.9989 54.9999 45.2889 55.2399V55.2599L46.9989 58.5699H45.4689ZM50.2218 58.6999C48.5718 58.6999 47.6318 57.6199 47.6318 55.8999C47.6318 54.1899 48.6218 53.1099 50.2318 53.1099C51.8418 53.1099 52.8118 54.1799 52.8118 55.8999C52.8118 57.6199 51.7818 58.6999 50.2218 58.6999ZM50.2218 54.0399C49.3718 54.0399 49.0218 54.8099 49.0218 55.8999C49.0218 57.0299 49.3718 57.7599 50.2318 57.7599C51.1018 57.7599 51.4218 56.9999 51.4218 55.8999C51.4218 54.7899 51.0918 54.0399 50.2218 54.0399ZM55.6465 57.7399C56.2365 57.7399 56.8565 57.2999 56.8565 56.2599V56.1099C55.9165 56.1599 55.4165 56.2399 55.1365 56.4399C54.9465 56.5699 54.8665 56.7699 54.8665 57.0199C54.8665 57.4599 55.1565 57.7399 55.6465 57.7399ZM55.0565 54.7799H53.7665C53.8065 53.7599 54.6165 53.1199 55.9665 53.1199C57.5465 53.1199 58.1565 53.7699 58.1565 55.1899V57.1499C58.1565 57.4899 58.2565 57.6199 58.6065 57.6199V58.5899H58.2265C57.4365 58.5899 57.0965 58.3899 56.9565 57.7799H56.9265C56.6165 58.3299 56.0565 58.6399 55.2865 58.6399C54.1965 58.6399 53.5265 58.0599 53.5265 57.0799C53.5265 56.4699 53.7865 56.0199 54.3265 55.7399C54.8865 55.4499 55.6965 55.3799 56.8465 55.3299V55.0599C56.8465 54.3399 56.5665 54.0099 55.9565 54.0099C55.3365 54.0099 55.0765 54.3599 55.0565 54.7799ZM63.0689 56.2899V55.6799C63.0689 54.6799 62.5889 54.0799 61.8589 54.0799C61.0489 54.0799 60.5989 54.7199 60.5989 55.9199C60.5989 57.0399 60.9389 57.7599 61.8089 57.7599C62.6089 57.7599 63.0689 57.1299 63.0689 56.2899ZM64.3989 50.6899V58.5699H63.1089V57.7499H63.0789C62.8089 58.2399 62.2889 58.6999 61.4589 58.6999C60.1489 58.6999 59.2289 57.8799 59.2289 55.9599C59.2289 54.0999 60.2089 53.1199 61.5489 53.1199C62.2689 53.1199 62.7889 53.4899 63.0289 53.9799H63.0489V50.6899H64.3989ZM69.8777 57.7399C70.4677 57.7399 71.0877 57.2999 71.0877 56.2599V56.1099C70.1477 56.1599 69.6477 56.2399 69.3677 56.4399C69.1777 56.5699 69.0977 56.7699 69.0977 57.0199C69.0977 57.4599 69.3877 57.7399 69.8777 57.7399ZM69.2877 54.7799H67.9977C68.0377 53.7599 68.8477 53.1199 70.1977 53.1199C71.7777 53.1199 72.3877 53.7699 72.3877 55.1899V57.1499C72.3877 57.4899 72.4877 57.6199 72.8377 57.6199V58.5899H72.4577C71.6677 58.5899 71.3277 58.3899 71.1877 57.7799H71.1577C70.8477 58.3299 70.2877 58.6399 69.5177 58.6399C68.4277 58.6399 67.7577 58.0599 67.7577 57.0799C67.7577 56.4699 68.0177 56.0199 68.5577 55.7399C69.1177 55.4499 69.9277 55.3799 71.0777 55.3299V55.0599C71.0777 54.3399 70.7977 54.0099 70.1877 54.0099C69.5677 54.0099 69.3077 54.3599 69.2877 54.7799Z"/>
</mask>
<path d="M42.6189 54.5199H43.9689C44.7489 54.5199 45.3989 54.1599 45.3989 53.1899C45.3989 52.2699 44.7089 51.9199 43.9989 51.9199H42.6189V54.5199ZM45.4689 58.5699L43.9789 55.5399H42.6189V58.5699H41.2189V50.9199H44.1389C44.6489 50.9199 45.1889 51.0099 45.6489 51.2199C46.3389 51.5499 46.8289 52.1399 46.8289 53.1299C46.8289 54.4299 45.9989 54.9999 45.2889 55.2399V55.2599L46.9989 58.5699H45.4689ZM50.2218 58.6999C48.5718 58.6999 47.6318 57.6199 47.6318 55.8999C47.6318 54.1899 48.6218 53.1099 50.2318 53.1099C51.8418 53.1099 52.8118 54.1799 52.8118 55.8999C52.8118 57.6199 51.7818 58.6999 50.2218 58.6999ZM50.2218 54.0399C49.3718 54.0399 49.0218 54.8099 49.0218 55.8999C49.0218 57.0299 49.3718 57.7599 50.2318 57.7599C51.1018 57.7599 51.4218 56.9999 51.4218 55.8999C51.4218 54.7899 51.0918 54.0399 50.2218 54.0399ZM55.6465 57.7399C56.2365 57.7399 56.8565 57.2999 56.8565 56.2599V56.1099C55.9165 56.1599 55.4165 56.2399 55.1365 56.4399C54.9465 56.5699 54.8665 56.7699 54.8665 57.0199C54.8665 57.4599 55.1565 57.7399 55.6465 57.7399ZM55.0565 54.7799H53.7665C53.8065 53.7599 54.6165 53.1199 55.9665 53.1199C57.5465 53.1199 58.1565 53.7699 58.1565 55.1899V57.1499C58.1565 57.4899 58.2565 57.6199 58.6065 57.6199V58.5899H58.2265C57.4365 58.5899 57.0965 58.3899 56.9565 57.7799H56.9265C56.6165 58.3299 56.0565 58.6399 55.2865 58.6399C54.1965 58.6399 53.5265 58.0599 53.5265 57.0799C53.5265 56.4699 53.7865 56.0199 54.3265 55.7399C54.8865 55.4499 55.6965 55.3799 56.8465 55.3299V55.0599C56.8465 54.3399 56.5665 54.0099 55.9565 54.0099C55.3365 54.0099 55.0765 54.3599 55.0565 54.7799ZM63.0689 56.2899V55.6799C63.0689 54.6799 62.5889 54.0799 61.8589 54.0799C61.0489 54.0799 60.5989 54.7199 60.5989 55.9199C60.5989 57.0399 60.9389 57.7599 61.8089 57.7599C62.6089 57.7599 63.0689 57.1299 63.0689 56.2899ZM64.3989 50.6899V58.5699H63.1089V57.7499H63.0789C62.8089 58.2399 62.2889 58.6999 61.4589 58.6999C60.1489 58.6999 59.2289 57.8799 59.2289 55.9599C59.2289 54.0999 60.2089 53.1199 61.5489 53.1199C62.2689 53.1199 62.7889 53.4899 63.0289 53.9799H63.0489V50.6899H64.3989ZM69.8777 57.7399C70.4677 57.7399 71.0877 57.2999 71.0877 56.2599V56.1099C70.1477 56.1599 69.6477 56.2399 69.3677 56.4399C69.1777 56.5699 69.0977 56.7699 69.0977 57.0199C69.0977 57.4599 69.3877 57.7399 69.8777 57.7399ZM69.2877 54.7799H67.9977C68.0377 53.7599 68.8477 53.1199 70.1977 53.1199C71.7777 53.1199 72.3877 53.7699 72.3877 55.1899V57.1499C72.3877 57.4899 72.4877 57.6199 72.8377 57.6199V58.5899H72.4577C71.6677 58.5899 71.3277 58.3899 71.1877 57.7799H71.1577C70.8477 58.3299 70.2877 58.6399 69.5177 58.6399C68.4277 58.6399 67.7577 58.0599 67.7577 57.0799C67.7577 56.4699 68.0177 56.0199 68.5577 55.7399C69.1177 55.4499 69.9277 55.3799 71.0777 55.3299V55.0599C71.0777 54.3399 70.7977 54.0099 70.1877 54.0099C69.5677 54.0099 69.3077 54.3599 69.2877 54.7799Z" fill="black"/>
<path d="M42.6189 54.5199H41.6189V55.5199H42.6189V54.5199ZM42.6189 51.9199V50.9199H41.6189V51.9199H42.6189ZM45.4689 58.5699L44.5715 59.0112L44.8463 59.5699H45.4689V58.5699ZM43.9789 55.5399L44.8763 55.0986L44.6015 54.5399H43.9789V55.5399ZM42.6189 55.5399V54.5399H41.6189V55.5399H42.6189ZM42.6189 58.5699V59.5699H43.6189V58.5699H42.6189ZM41.2189 58.5699H40.2189V59.5699H41.2189V58.5699ZM41.2189 50.9199V49.9199H40.2189V50.9199H41.2189ZM45.6489 51.2199L46.0803 50.3178L46.0723 50.3139L46.0642 50.3102L45.6489 51.2199ZM45.2889 55.2399L44.9687 54.2925L44.2889 54.5223V55.2399H45.2889ZM45.2889 55.2599H44.2889V55.5029L44.4004 55.7189L45.2889 55.2599ZM46.9989 58.5699V59.5699H48.6411L47.8873 58.1109L46.9989 58.5699ZM42.6189 54.5199V55.5199H43.9689V54.5199V53.5199H42.6189V54.5199ZM43.9689 54.5199V55.5199C44.4932 55.5199 45.1066 55.4013 45.607 54.9947C46.1429 54.5593 46.3989 53.9171 46.3989 53.1899H45.3989H44.3989C44.3989 53.321 44.3771 53.3872 44.3664 53.4121C44.3574 53.433 44.3509 53.4384 44.3458 53.4425C44.3262 53.4585 44.2246 53.5199 43.9689 53.5199V54.5199ZM45.3989 53.1899H46.3989C46.3989 52.4489 46.1048 51.828 45.5778 51.4195C45.0892 51.0408 44.4995 50.9199 43.9989 50.9199V51.9199V52.9199C44.2083 52.9199 44.3185 52.9739 44.3525 53.0003C44.3639 53.0091 44.3688 53.0154 44.374 53.0266C44.38 53.0396 44.3989 53.0865 44.3989 53.1899H45.3989ZM43.9989 51.9199V50.9199H42.6189V51.9199V52.9199H43.9989V51.9199ZM42.6189 51.9199H41.6189V54.5199H42.6189H43.6189V51.9199H42.6189ZM45.4689 58.5699L46.3663 58.1286L44.8763 55.0986L43.9789 55.5399L43.0815 55.9812L44.5715 59.0112L45.4689 58.5699ZM43.9789 55.5399V54.5399H42.6189V55.5399V56.5399H43.9789V55.5399ZM42.6189 55.5399H41.6189V58.5699H42.6189H43.6189V55.5399H42.6189ZM42.6189 58.5699V57.5699H41.2189V58.5699V59.5699H42.6189V58.5699ZM41.2189 58.5699H42.2189V50.9199H41.2189H40.2189V58.5699H41.2189ZM41.2189 50.9199V51.9199H44.1389V50.9199V49.9199H41.2189V50.9199ZM44.1389 50.9199V51.9199C44.5434 51.9199 44.9344 51.993 45.2336 52.1296L45.6489 51.2199L46.0642 50.3102C45.4433 50.0268 44.7544 49.9199 44.1389 49.9199V50.9199ZM45.6489 51.2199L45.2174 52.122C45.4362 52.2266 45.5771 52.3496 45.6661 52.4829C45.7517 52.611 45.8289 52.8072 45.8289 53.1299H46.8289H47.8289C47.8289 52.4625 47.6611 51.8688 47.3292 51.3719C47.0007 50.8801 46.5516 50.5431 46.0803 50.3178L45.6489 51.2199ZM46.8289 53.1299H45.8289C45.8289 53.5463 45.7038 53.7754 45.576 53.9199C45.4309 54.084 45.2178 54.2083 44.9687 54.2925L45.2889 55.2399L45.6091 56.1872C46.07 56.0314 46.6269 55.7507 47.0742 55.2448C47.539 54.7193 47.8289 54.0134 47.8289 53.1299H46.8289ZM45.2889 55.2399H44.2889V55.2599H45.2889H46.2889V55.2399H45.2889ZM45.2889 55.2599L44.4004 55.7189L46.1104 59.0289L46.9989 58.5699L47.8873 58.1109L46.1773 54.8009L45.2889 55.2599ZM46.9989 58.5699V57.5699H45.4689V58.5699V59.5699H46.9989V58.5699ZM50.2218 58.6999V57.6999C49.6244 57.6999 49.2659 57.5118 49.0477 57.2719C48.8177 57.0192 48.6318 56.5848 48.6318 55.8999H47.6318H46.6318C46.6318 56.935 46.9158 57.9006 47.5683 58.6178C48.2326 59.348 49.1692 59.6999 50.2218 59.6999V58.6999ZM47.6318 55.8999H48.6318C48.6318 55.2345 48.8223 54.8013 49.0612 54.5437C49.2918 54.295 49.6596 54.1099 50.2318 54.1099V53.1099V52.1099C49.194 52.1099 48.2617 52.4647 47.5949 53.1835C46.9363 53.8935 46.6318 54.8553 46.6318 55.8999H47.6318ZM50.2318 53.1099V54.1099C50.806 54.1099 51.1659 54.2937 51.3895 54.5368C51.6227 54.7904 51.8118 55.223 51.8118 55.8999H52.8118H53.8118C53.8118 54.8568 53.5159 53.8944 52.8616 53.183C52.1977 52.4611 51.2676 52.1099 50.2318 52.1099V53.1099ZM52.8118 55.8999H51.8118C51.8118 56.5614 51.6163 56.9993 51.3706 57.2627C51.1311 57.5194 50.7615 57.6999 50.2218 57.6999V58.6999V59.6999C51.242 59.6999 52.1675 59.3403 52.833 58.6271C53.4922 57.9204 53.8118 56.9584 53.8118 55.8999H52.8118ZM50.2218 54.0399V53.0399C49.4265 53.0399 48.8066 53.4339 48.4415 54.0534C48.1172 54.6038 48.0218 55.2761 48.0218 55.8999H49.0218H50.0218C50.0218 55.4336 50.1014 55.176 50.1645 55.0689C50.1889 55.0275 50.1978 55.0303 50.181 55.0401C50.1625 55.051 50.1653 55.0399 50.2218 55.0399V54.0399ZM49.0218 55.8999H48.0218C48.0218 56.5371 48.115 57.2173 48.4477 57.7696C48.8266 58.3988 49.4571 58.7599 50.2318 58.7599V57.7599V56.7599C50.1615 56.7599 50.1515 56.7462 50.1685 56.7556C50.186 56.7655 50.1812 56.7714 50.1609 56.7377C50.1035 56.6425 50.0218 56.3927 50.0218 55.8999H49.0218ZM50.2318 57.7599V58.7599C51.0274 58.7599 51.6537 58.3763 52.0194 57.7417C52.338 57.189 52.4218 56.5146 52.4218 55.8999H51.4218H50.4218C50.4218 56.3852 50.3455 56.6408 50.2866 56.743C50.2657 56.7794 50.2613 56.7715 50.2827 56.7591C50.3045 56.7465 50.2997 56.7599 50.2318 56.7599V57.7599ZM51.4218 55.8999H52.4218C52.4218 55.2778 52.3349 54.6009 52.0107 54.0479C51.6394 53.4144 51.0104 53.0399 50.2218 53.0399V54.0399V55.0399C50.292 55.0399 50.2995 55.0537 50.2799 55.0425C50.2602 55.0312 50.2647 55.0242 50.2853 55.0594C50.3436 55.1588 50.4218 55.412 50.4218 55.8999H51.4218ZM56.8565 56.1099H57.8565V55.0553L56.8033 55.1113L56.8565 56.1099ZM55.1365 56.4399L55.7011 57.2652L55.7095 57.2595L55.7177 57.2536L55.1365 56.4399ZM55.0565 54.7799V55.7799H56.01L56.0553 54.8275L55.0565 54.7799ZM53.7665 54.7799L52.7672 54.7407L52.7265 55.7799H53.7665V54.7799ZM58.6065 57.6199H59.6065V56.6199H58.6065V57.6199ZM58.6065 58.5899V59.5899H59.6065V58.5899H58.6065ZM56.9565 57.7799L57.9311 57.5562L57.753 56.7799H56.9565V57.7799ZM56.9265 57.7799V56.7799H56.3422L56.0553 57.2889L56.9265 57.7799ZM54.3265 55.7399L53.8666 54.8519L53.8661 54.8521L54.3265 55.7399ZM56.8465 55.3299L56.8899 56.3289L57.8465 56.2874V55.3299H56.8465ZM55.6465 57.7399V58.7399C56.1888 58.7399 56.7617 58.536 57.1966 58.0798C57.6365 57.6182 57.8565 56.983 57.8565 56.2599H56.8565H55.8565C55.8565 56.5768 55.7664 56.6815 55.7488 56.6999C55.7262 56.7237 55.6942 56.7399 55.6465 56.7399V57.7399ZM56.8565 56.2599H57.8565V56.1099H56.8565H55.8565V56.2599H56.8565ZM56.8565 56.1099L56.8033 55.1113C56.3244 55.1368 55.9112 55.1718 55.5674 55.2353C55.2293 55.2977 54.8682 55.4026 54.5552 55.6262L55.1365 56.4399L55.7177 57.2536C55.6847 57.2772 55.7137 57.2421 55.9306 57.202C56.1417 57.163 56.4485 57.133 56.9096 57.1085L56.8565 56.1099ZM55.1365 56.4399L54.5718 55.6146C54.0351 55.9818 53.8665 56.5414 53.8665 57.0199H54.8665H55.8665C55.8665 56.9986 55.8702 57.0328 55.8426 57.0943C55.811 57.1647 55.7582 57.2262 55.7011 57.2652L55.1365 56.4399ZM54.8665 57.0199H53.8665C53.8665 57.4669 54.02 57.9298 54.3899 58.2755C54.7522 58.6141 55.2142 58.7399 55.6465 58.7399V57.7399V56.7399C55.5887 56.7399 55.6607 56.7257 55.7555 56.8143C55.8004 56.8563 55.8316 56.9052 55.8494 56.9503C55.8664 56.9934 55.8665 57.0202 55.8665 57.0199H54.8665ZM55.0565 54.7799V53.7799H53.7665V54.7799V55.7799H55.0565V54.7799ZM53.7665 54.7799L54.7657 54.8191C54.7747 54.5897 54.856 54.4585 54.9824 54.362C55.1339 54.2462 55.4377 54.1199 55.9665 54.1199V53.1199V52.1199C55.1453 52.1199 54.3691 52.3136 53.7681 52.7728C53.1419 53.2512 52.7982 53.9501 52.7672 54.7407L53.7665 54.7799ZM55.9665 53.1199V54.1199C56.651 54.1199 56.8812 54.2659 56.9572 54.3397C57.0255 54.406 57.1565 54.5964 57.1565 55.1899H58.1565H59.1565C59.1565 54.3634 58.9825 53.5188 58.3508 52.9051C57.7267 52.2989 56.862 52.1199 55.9665 52.1199V53.1199ZM58.1565 55.1899H57.1565V57.1499H58.1565H59.1565V55.1899H58.1565ZM58.1565 57.1499H57.1565C57.1565 57.3565 57.1719 57.8159 57.5131 58.1881C57.8759 58.5839 58.3571 58.6199 58.6065 58.6199V57.6199V56.6199C58.5058 56.6199 58.762 56.5908 58.9874 56.8367C59.0938 56.9528 59.1341 57.0693 59.1483 57.1266C59.1606 57.1763 59.1565 57.194 59.1565 57.1499H58.1565ZM58.6065 57.6199H57.6065V58.5899H58.6065H59.6065V57.6199H58.6065ZM58.6065 58.5899V57.5899H58.2265V58.5899V59.5899H58.6065V58.5899ZM58.2265 58.5899V57.5899C58.0665 57.5899 57.9662 57.5793 57.9057 57.5676C57.8478 57.5563 57.8502 57.5484 57.8791 57.5665C57.9149 57.5889 57.9427 57.6203 57.9561 57.6422C57.9643 57.6557 57.9499 57.6379 57.9311 57.5562L56.9565 57.7799L55.9818 58.0036C56.0869 58.4613 56.3129 58.945 56.8163 59.2607C57.264 59.5416 57.7836 59.5899 58.2265 59.5899V58.5899ZM56.9565 57.7799V56.7799H56.9265V57.7799V58.7799H56.9565V57.7799ZM56.9265 57.7799L56.0553 57.2889C55.9518 57.4725 55.7594 57.6399 55.2865 57.6399V58.6399V59.6399C56.3536 59.6399 57.2811 59.1873 57.7976 58.2709L56.9265 57.7799ZM55.2865 58.6399V57.6399C54.9104 57.6399 54.7307 57.5404 54.6586 57.4769C54.6029 57.4279 54.5265 57.329 54.5265 57.0799H53.5265H52.5265C52.5265 57.8108 52.785 58.4919 53.3368 58.9779C53.8722 59.4494 54.5726 59.6399 55.2865 59.6399V58.6399ZM53.5265 57.0799H54.5265C54.5265 56.9191 54.5596 56.8375 54.5844 56.7957C54.6079 56.756 54.6575 56.6947 54.7868 56.6276L54.3265 55.7399L53.8661 54.8521C53.4555 55.0651 53.105 55.3688 52.8635 55.7766C52.6233 56.1822 52.5265 56.6307 52.5265 57.0799H53.5265ZM54.3265 55.7399L54.7863 56.6279C55.113 56.4587 55.6826 56.3814 56.8899 56.3289L56.8465 55.3299L56.803 54.3308C55.7103 54.3783 54.6599 54.4411 53.8666 54.8519L54.3265 55.7399ZM56.8465 55.3299H57.8465V55.0599H56.8465H55.8465V55.3299H56.8465ZM56.8465 55.0599H57.8465C57.8465 54.6015 57.7629 54.0545 57.393 53.6182C56.9924 53.1457 56.4386 53.0099 55.9565 53.0099V54.0099V55.0099C56.0224 55.0099 56.0289 55.0192 56.0005 55.0085C55.9851 55.0028 55.9625 54.9922 55.9368 54.9743C55.9108 54.9563 55.8871 54.9348 55.8675 54.9116C55.8272 54.8641 55.8223 54.8327 55.8279 54.8534C55.8344 54.8773 55.8465 54.9406 55.8465 55.0599H56.8465ZM55.9565 54.0099V53.0099C55.4564 53.0099 54.9627 53.1551 54.5869 53.518C54.2161 53.876 54.0766 54.3336 54.0576 54.7323L55.0565 54.7799L56.0553 54.8275C56.0563 54.8061 56.0569 54.8788 55.9761 54.9568C55.9387 54.9929 55.904 55.0092 55.8891 55.0144C55.877 55.0187 55.8946 55.0099 55.9565 55.0099V54.0099ZM64.3989 50.6899H65.3989V49.6899H64.3989V50.6899ZM64.3989 58.5699V59.5699H65.3989V58.5699H64.3989ZM63.1089 58.5699H62.1089V59.5699H63.1089V58.5699ZM63.1089 57.7499H64.1089V56.7499H63.1089V57.7499ZM63.0789 57.7499V56.7499H62.4881L62.203 57.2673L63.0789 57.7499ZM63.0289 53.9799L62.1308 54.4198L62.4052 54.9799H63.0289V53.9799ZM63.0489 53.9799V54.9799H64.0489V53.9799H63.0489ZM63.0489 50.6899V49.6899H62.0489V50.6899H63.0489ZM63.0689 56.2899H64.0689V55.6799H63.0689H62.0689V56.2899H63.0689ZM63.0689 55.6799H64.0689C64.0689 55.0327 63.9147 54.3957 63.5307 53.8957C63.1257 53.3686 62.5273 53.0799 61.8589 53.0799V54.0799V55.0799C61.902 55.0799 61.9175 55.0881 61.9182 55.0884C61.9186 55.0886 61.9278 55.0922 61.9446 55.1141C61.983 55.1641 62.0689 55.3271 62.0689 55.6799H63.0689ZM61.8589 54.0799V53.0799C61.15 53.0799 60.516 53.3816 60.1019 53.9822C59.726 54.5274 59.5989 55.2199 59.5989 55.9199H60.5989H61.5989C61.5989 55.4199 61.6968 55.1924 61.7484 55.1175C61.7593 55.1018 61.7665 55.095 61.7686 55.0931C61.7693 55.0925 61.7697 55.0922 61.77 55.0919C61.7702 55.0917 61.7704 55.0917 61.7704 55.0916C61.7704 55.0916 61.7704 55.0916 61.7704 55.0916C61.7704 55.0916 61.7705 55.0915 61.7707 55.0914C61.7708 55.0914 61.7756 55.0889 61.7879 55.0862C61.8007 55.0834 61.8235 55.0799 61.8589 55.0799V54.0799ZM60.5989 55.9199H59.5989C59.5989 56.5486 59.6885 57.2267 60.0222 57.7778C60.4046 58.4093 61.0386 58.7599 61.8089 58.7599V57.7599V56.7599C61.7319 56.7599 61.7189 56.745 61.7355 56.7541C61.7536 56.7641 61.751 56.7717 61.7331 56.742C61.6792 56.6531 61.5989 56.4111 61.5989 55.9199H60.5989ZM61.8089 57.7599V58.7599C62.4968 58.7599 63.1002 58.4769 63.5125 57.9735C63.9069 57.492 64.0689 56.8828 64.0689 56.2899H63.0689H62.0689C62.0689 56.537 62.0009 56.6628 61.9653 56.7062C61.9491 56.726 61.9355 56.7351 61.9225 56.7412C61.9091 56.7474 61.8755 56.7599 61.8089 56.7599V57.7599ZM64.3989 50.6899H63.3989V58.5699H64.3989H65.3989V50.6899H64.3989ZM64.3989 58.5699V57.5699H63.1089V58.5699V59.5699H64.3989V58.5699ZM63.1089 58.5699H64.1089V57.7499H63.1089H62.1089V58.5699H63.1089ZM63.1089 57.7499V56.7499H63.0789V57.7499V58.7499H63.1089V57.7499ZM63.0789 57.7499L62.203 57.2673C62.1335 57.3935 62.04 57.5003 61.9287 57.5736C61.8251 57.6418 61.679 57.6999 61.4589 57.6999V58.6999V59.6999C62.726 59.6999 63.547 58.9725 63.9547 58.2325L63.0789 57.7499ZM61.4589 58.6999V57.6999C61.0182 57.6999 60.7624 57.569 60.6016 57.3872C60.4247 57.1873 60.2289 56.7742 60.2289 55.9599H59.2289H58.2289C58.2289 57.0656 58.4931 58.0224 59.1037 58.7125C59.7303 59.4207 60.5896 59.6999 61.4589 59.6999V58.6999ZM59.2289 55.9599H60.2289C60.2289 55.1984 60.4287 54.7443 60.6431 54.4961C60.8452 54.2621 61.1367 54.1199 61.5489 54.1199V53.1199V52.1199C60.6211 52.1199 59.7525 52.4676 59.1297 53.1887C58.5191 53.8955 58.2289 54.8614 58.2289 55.9599H59.2289ZM61.5489 53.1199V54.1199C61.8971 54.1199 62.0631 54.2814 62.1308 54.4198L63.0289 53.9799L63.927 53.54C63.5147 52.6984 62.6407 52.1199 61.5489 52.1199V53.1199ZM63.0289 53.9799V54.9799H63.0489V53.9799V52.9799H63.0289V53.9799ZM63.0489 53.9799H64.0489V50.6899H63.0489H62.0489V53.9799H63.0489ZM63.0489 50.6899V51.6899H64.3989V50.6899V49.6899H63.0489V50.6899ZM71.0877 56.1099H72.0877V55.0553L71.0346 55.1113L71.0877 56.1099ZM69.3677 56.4399L69.9324 57.2652L69.9407 57.2595L69.949 57.2536L69.3677 56.4399ZM69.2877 54.7799V55.7799H70.2412L70.2866 54.8275L69.2877 54.7799ZM67.9977 54.7799L66.9985 54.7407L66.9577 55.7799H67.9977V54.7799ZM72.8377 57.6199H73.8377V56.6199H72.8377V57.6199ZM72.8377 58.5899V59.5899H73.8377V58.5899H72.8377ZM71.1877 57.7799L72.1624 57.5562L71.9842 56.7799H71.1877V57.7799ZM71.1577 57.7799V56.7799H70.5734L70.2866 57.2889L71.1577 57.7799ZM68.5577 55.7399L68.0979 54.8519L68.0974 54.8521L68.5577 55.7399ZM71.0777 55.3299L71.1212 56.3289L72.0777 56.2874V55.3299H71.0777ZM69.8777 57.7399V58.7399C70.42 58.7399 70.993 58.536 71.4278 58.0798C71.8678 57.6182 72.0877 56.983 72.0877 56.2599H71.0877H70.0877C70.0877 56.5768 69.9976 56.6815 69.9801 56.6999C69.9574 56.7237 69.9254 56.7399 69.8777 56.7399V57.7399ZM71.0877 56.2599H72.0877V56.1099H71.0877H70.0877V56.2599H71.0877ZM71.0877 56.1099L71.0346 55.1113C70.5557 55.1368 70.1425 55.1718 69.7986 55.2353C69.4605 55.2977 69.0994 55.4026 68.7865 55.6262L69.3677 56.4399L69.949 57.2536C69.916 57.2772 69.9449 57.2421 70.1618 57.202C70.3729 57.163 70.6797 57.133 71.1408 57.1085L71.0877 56.1099ZM69.3677 56.4399L68.803 55.6146C68.2663 55.9818 68.0977 56.5414 68.0977 57.0199H69.0977H70.0977C70.0977 56.9986 70.1014 57.0328 70.0738 57.0943C70.0422 57.1647 69.9894 57.2262 69.9324 57.2652L69.3677 56.4399ZM69.0977 57.0199H68.0977C68.0977 57.4669 68.2513 57.9298 68.6212 58.2755C68.9835 58.6141 69.4455 58.7399 69.8777 58.7399V57.7399V56.7399C69.8199 56.7399 69.892 56.7257 69.9868 56.8143C70.0317 56.8563 70.0628 56.9052 70.0806 56.9503C70.0977 56.9934 70.0977 57.0202 70.0977 57.0199H69.0977ZM69.2877 54.7799V53.7799H67.9977V54.7799V55.7799H69.2877V54.7799ZM67.9977 54.7799L68.9969 54.8191C69.0059 54.5897 69.0873 54.4585 69.2136 54.362C69.3651 54.2462 69.6689 54.1199 70.1977 54.1199V53.1199V52.1199C69.3765 52.1199 68.6003 52.3136 67.9993 52.7728C67.3732 53.2512 67.0295 53.9501 66.9985 54.7407L67.9977 54.7799ZM70.1977 53.1199V54.1199C70.8822 54.1199 71.1125 54.2659 71.1884 54.3397C71.2567 54.406 71.3877 54.5964 71.3877 55.1899H72.3877H73.3877C73.3877 54.3634 73.2137 53.5188 72.582 52.9051C71.9579 52.2989 71.0932 52.1199 70.1977 52.1199V53.1199ZM72.3877 55.1899H71.3877V57.1499H72.3877H73.3877V55.1899H72.3877ZM72.3877 57.1499H71.3877C71.3877 57.3565 71.4031 57.8159 71.7443 58.1881C72.1072 58.5839 72.5883 58.6199 72.8377 58.6199V57.6199V56.6199C72.7371 56.6199 72.9933 56.5908 73.2186 56.8367C73.3251 56.9528 73.3654 57.0693 73.3795 57.1266C73.3918 57.1763 73.3877 57.194 73.3877 57.1499H72.3877ZM72.8377 57.6199H71.8377V58.5899H72.8377H73.8377V57.6199H72.8377ZM72.8377 58.5899V57.5899H72.4577V58.5899V59.5899H72.8377V58.5899ZM72.4577 58.5899V57.5899C72.2978 57.5899 72.1974 57.5793 72.1369 57.5676C72.0791 57.5563 72.0815 57.5484 72.1104 57.5665C72.1461 57.5889 72.1739 57.6203 72.1873 57.6422C72.1956 57.6557 72.1811 57.6379 72.1624 57.5562L71.1877 57.7799L70.2131 58.0036C70.3181 58.4613 70.5442 58.945 71.0475 59.2607C71.4953 59.5416 72.0148 59.5899 72.4577 59.5899V58.5899ZM71.1877 57.7799V56.7799H71.1577V57.7799V58.7799H71.1877V57.7799ZM71.1577 57.7799L70.2866 57.2889C70.1831 57.4725 69.9906 57.6399 69.5177 57.6399V58.6399V59.6399C70.5848 59.6399 71.5123 59.1873 72.0289 58.2709L71.1577 57.7799ZM69.5177 58.6399V57.6399C69.1416 57.6399 68.962 57.5404 68.8899 57.4769C68.8342 57.4279 68.7577 57.329 68.7577 57.0799H67.7577H66.7577C66.7577 57.8108 67.0162 58.4919 67.5681 58.9779C68.1035 59.4494 68.8038 59.6399 69.5177 59.6399V58.6399ZM67.7577 57.0799H68.7577C68.7577 56.9191 68.7909 56.8375 68.8157 56.7957C68.8392 56.756 68.8887 56.6947 69.018 56.6276L68.5577 55.7399L68.0974 54.8521C67.6867 55.0651 67.3363 55.3688 67.0948 55.7766C66.8546 56.1822 66.7577 56.6307 66.7577 57.0799H67.7577ZM68.5577 55.7399L69.0176 56.6279C69.3442 56.4587 69.9139 56.3814 71.1212 56.3289L71.0777 55.3299L71.0343 54.3308C69.9416 54.3783 68.8912 54.4411 68.0979 54.8519L68.5577 55.7399ZM71.0777 55.3299H72.0777V55.0599H71.0777H70.0777V55.3299H71.0777ZM71.0777 55.0599H72.0777C72.0777 54.6015 71.9942 54.0545 71.6242 53.6182C71.2236 53.1457 70.6698 53.0099 70.1877 53.0099V54.0099V55.0099C70.2536 55.0099 70.2601 55.0192 70.2317 55.0085C70.2163 55.0028 70.1937 54.9922 70.168 54.9743C70.142 54.9563 70.1184 54.9348 70.0987 54.9116C70.0585 54.8641 70.0536 54.8327 70.0592 54.8534C70.0657 54.8773 70.0777 54.9406 70.0777 55.0599H71.0777ZM70.1877 54.0099V53.0099C69.6877 53.0099 69.194 53.1551 68.8181 53.518C68.4473 53.876 68.3078 54.3336 68.2888 54.7323L69.2877 54.7799L70.2866 54.8275C70.2876 54.8061 70.2881 54.8788 70.2073 54.9568C70.1699 54.9929 70.1352 55.0092 70.1203 55.0144C70.1082 55.0187 70.1258 55.0099 70.1877 55.0099V54.0099Z" fill="#E1E1E1" mask="url(#path-10-outside-2_311_16)"/>
<rect x="9.30408" y="17.979" width="6.41003" height="73.4483" fill="white"/>
<rect x="226.637" y="17.979" width="16.9622" height="73.4483" fill="white"/>
</svg>
