<?xml version="1.0" encoding="utf-8"?>
<!-- Generator: Adobe Illustrator 15.0.2, SVG Export Plug-In . SVG Version: 6.00 Build 0)  -->
<!DOCTYPE svg PUBLIC "-//W3C//DTD SVG 1.1//EN" "http://www.w3.org/Graphics/SVG/1.1/DTD/svg11.dtd">
<svg version="1.1" id="Layer_1" xmlns="http://www.w3.org/2000/svg" xmlns:xlink="http://www.w3.org/1999/xlink" x="0px" y="0px"
	 width="720px" height="576px" viewBox="0 0 720 576" enable-background="new 0 0 720 576" xml:space="preserve">
<rect fill="none" width="720" height="576"/>
<rect x="270" y="72" fill="#F8ABA6" stroke="#FFFFFF" stroke-width="3" stroke-miterlimit="10" width="36" height="36"/>
<rect x="306" y="72" fill="#F8ABA6" stroke="#FFFFFF" stroke-width="3" stroke-miterlimit="10" width="36" height="36"/>
<rect x="342" y="72" fill="#94BDE5" stroke="#FFFFFF" stroke-width="3" stroke-miterlimit="10" width="36" height="36"/>
<rect x="378" y="72" fill="#94BDE5" stroke="#FFFFFF" stroke-width="3" stroke-miterlimit="10" width="36" height="36"/>
<rect x="414" y="72" fill="#94BDE5" stroke="#FFFFFF" stroke-width="3" stroke-miterlimit="10" width="36" height="36"/>
<rect x="270" y="108" fill="#F8ABA6" stroke="#FFFFFF" stroke-width="3" stroke-miterlimit="10" width="36" height="36"/>
<rect x="306" y="108" fill="#F8ABA6" stroke="#FFFFFF" stroke-width="3" stroke-miterlimit="10" width="36" height="36"/>
<rect x="342" y="108" fill="#94BDE5" stroke="#FFFFFF" stroke-width="3" stroke-miterlimit="10" width="36" height="36"/>
<rect x="378" y="108" fill="#94BDE5" stroke="#FFFFFF" stroke-width="3" stroke-miterlimit="10" width="36" height="36"/>
<rect x="414" y="108" fill="#94BDE5" stroke="#FFFFFF" stroke-width="3" stroke-miterlimit="10" width="36" height="36"/>
<rect x="270" y="144" fill="#F8ABA6" stroke="#FFFFFF" stroke-width="3" stroke-miterlimit="10" width="36" height="36"/>
<rect x="306" y="144" fill="#F8ABA6" stroke="#FFFFFF" stroke-width="3" stroke-miterlimit="10" width="36" height="36"/>
<rect x="342" y="144" fill="#94BDE5" stroke="#FFFFFF" stroke-width="3" stroke-miterlimit="10" width="36" height="36"/>
<rect x="378" y="144" fill="#94BDE5" stroke="#FFFFFF" stroke-width="3" stroke-miterlimit="10" width="36" height="36"/>
<rect x="414" y="144" fill="#94BDE5" stroke="#FFFFFF" stroke-width="3" stroke-miterlimit="10" width="36" height="36"/>
<rect x="270" y="180" fill="#F8ABA6" stroke="#FFFFFF" stroke-width="3" stroke-miterlimit="10" width="36" height="36"/>
<rect x="306" y="180" fill="#F8ABA6" stroke="#FFFFFF" stroke-width="3" stroke-miterlimit="10" width="36" height="36"/>
<rect x="342" y="180" fill="#94BDE5" stroke="#FFFFFF" stroke-width="3" stroke-miterlimit="10" width="36" height="36"/>
<rect x="378" y="180" fill="#94BDE5" stroke="#FFFFFF" stroke-width="3" stroke-miterlimit="10" width="36" height="36"/>
<rect x="414" y="180" fill="#94BDE5" stroke="#FFFFFF" stroke-width="3" stroke-miterlimit="10" width="36" height="36"/>
<rect x="270" y="216" fill="#F8ABA6" stroke="#FFFFFF" stroke-width="3" stroke-miterlimit="10" width="36" height="36"/>
<rect x="306" y="216" fill="#F8ABA6" stroke="#FFFFFF" stroke-width="3" stroke-miterlimit="10" width="36" height="36"/>
<rect x="342" y="216" fill="#94BDE5" stroke="#FFFFFF" stroke-width="3" stroke-miterlimit="10" width="36" height="36"/>
<rect x="378" y="216" fill="#94BDE5" stroke="#FFFFFF" stroke-width="3" stroke-miterlimit="10" width="36" height="36"/>
<rect x="414" y="216" fill="#94BDE5" stroke="#FFFFFF" stroke-width="3" stroke-miterlimit="10" width="36" height="36"/>
<rect x="270" y="252" fill="#F8ABA6" stroke="#FFFFFF" stroke-width="3" stroke-miterlimit="10" width="36" height="36"/>
<rect x="306" y="252" fill="#F8ABA6" stroke="#FFFFFF" stroke-width="3" stroke-miterlimit="10" width="36" height="36"/>
<rect x="342" y="252" fill="#94BDE5" stroke="#FFFFFF" stroke-width="3" stroke-miterlimit="10" width="36" height="36"/>
<rect x="378" y="252" fill="#94BDE5" stroke="#FFFFFF" stroke-width="3" stroke-miterlimit="10" width="36" height="36"/>
<rect x="414" y="252" fill="#94BDE5" stroke="#FFFFFF" stroke-width="3" stroke-miterlimit="10" width="36" height="36"/>
<rect x="270" y="288" fill="#F8ABA6" stroke="#FFFFFF" stroke-width="3" stroke-miterlimit="10" width="36" height="36"/>
<rect x="306" y="288" fill="#F8ABA6" stroke="#FFFFFF" stroke-width="3" stroke-miterlimit="10" width="36" height="36"/>
<rect x="342" y="288" fill="#94BDE5" stroke="#FFFFFF" stroke-width="3" stroke-miterlimit="10" width="36" height="36"/>
<rect x="378" y="288" fill="#94BDE5" stroke="#FFFFFF" stroke-width="3" stroke-miterlimit="10" width="36" height="36"/>
<rect x="414" y="288" fill="#94BDE5" stroke="#FFFFFF" stroke-width="3" stroke-miterlimit="10" width="36" height="36"/>
<rect x="270" y="324" fill="#F8ABA6" stroke="#FFFFFF" stroke-width="3" stroke-miterlimit="10" width="36" height="36"/>
<rect x="306" y="324" fill="#F8ABA6" stroke="#FFFFFF" stroke-width="3" stroke-miterlimit="10" width="36" height="36"/>
<rect x="342" y="324" fill="#94BDE5" stroke="#FFFFFF" stroke-width="3" stroke-miterlimit="10" width="36" height="36"/>
<rect x="378" y="324" fill="#94BDE5" stroke="#FFFFFF" stroke-width="3" stroke-miterlimit="10" width="36" height="36"/>
<rect x="414" y="324" fill="#94BDE5" stroke="#FFFFFF" stroke-width="3" stroke-miterlimit="10" width="36" height="36"/>
<rect x="270" y="360" fill="#F8ABA6" stroke="#FFFFFF" stroke-width="3" stroke-miterlimit="10" width="36" height="36"/>
<rect x="306" y="360" fill="#F8ABA6" stroke="#FFFFFF" stroke-width="3" stroke-miterlimit="10" width="36" height="36"/>
<rect x="342" y="360" fill="#94BDE5" stroke="#FFFFFF" stroke-width="3" stroke-miterlimit="10" width="36" height="36"/>
<rect x="378" y="360" fill="#94BDE5" stroke="#FFFFFF" stroke-width="3" stroke-miterlimit="10" width="36" height="36"/>
<rect x="414" y="360" fill="#94BDE5" stroke="#FFFFFF" stroke-width="3" stroke-miterlimit="10" width="36" height="36"/>
<rect x="270" y="396" fill="#F8ABA6" stroke="#FFFFFF" stroke-width="3" stroke-miterlimit="10" width="36" height="36"/>
<rect x="306" y="396" fill="#F8ABA6" stroke="#FFFFFF" stroke-width="3" stroke-miterlimit="10" width="36" height="36"/>
<rect x="342" y="396" fill="#94BDE5" stroke="#FFFFFF" stroke-width="3" stroke-miterlimit="10" width="36" height="36"/>
<rect x="378" y="396" fill="#94BDE5" stroke="#FFFFFF" stroke-width="3" stroke-miterlimit="10" width="36" height="36"/>
<rect x="414" y="396" fill="#94BDE5" stroke="#FFFFFF" stroke-width="3" stroke-miterlimit="10" width="36" height="36"/>
<rect x="36" y="72" fill="#ED1A3B" stroke="#FFFFFF" stroke-width="3" stroke-miterlimit="10" width="36" height="36"/>
<rect x="72" y="72" fill="#ED1A3B" stroke="#FFFFFF" stroke-width="3" stroke-miterlimit="10" width="36" height="36"/>
<rect x="108" y="72" fill="#0072BC" stroke="#FFFFFF" stroke-width="3" stroke-miterlimit="10" width="36" height="36"/>
<rect x="144" y="72" fill="#0072BC" stroke="#FFFFFF" stroke-width="3" stroke-miterlimit="10" width="36" height="36"/>
<rect x="180" y="72" fill="#0072BC" stroke="#FFFFFF" stroke-width="3" stroke-miterlimit="10" width="36" height="36"/>
<rect x="36" y="108" fill="#ED1A3B" stroke="#FFFFFF" stroke-width="3" stroke-miterlimit="10" width="36" height="36"/>
<rect x="72" y="108" fill="#ED1A3B" stroke="#FFFFFF" stroke-width="3" stroke-miterlimit="10" width="36" height="36"/>
<rect x="108" y="108" fill="#0072BC" stroke="#FFFFFF" stroke-width="3" stroke-miterlimit="10" width="36" height="36"/>
<rect x="144" y="108" fill="#0072BC" stroke="#FFFFFF" stroke-width="3" stroke-miterlimit="10" width="36" height="36"/>
<rect x="180" y="108" fill="#0072BC" stroke="#FFFFFF" stroke-width="3" stroke-miterlimit="10" width="36" height="36"/>
<rect x="36" y="144" fill="#ED1A3B" stroke="#FFFFFF" stroke-width="3" stroke-miterlimit="10" width="36" height="36"/>
<rect x="72" y="144" fill="#ED1A3B" stroke="#FFFFFF" stroke-width="3" stroke-miterlimit="10" width="36" height="36"/>
<rect x="108" y="144" fill="#0072BC" stroke="#FFFFFF" stroke-width="3" stroke-miterlimit="10" width="36" height="36"/>
<rect x="144" y="144" fill="#0072BC" stroke="#FFFFFF" stroke-width="3" stroke-miterlimit="10" width="36" height="36"/>
<rect x="180" y="144" fill="#0072BC" stroke="#FFFFFF" stroke-width="3" stroke-miterlimit="10" width="36" height="36"/>
<rect x="36" y="180" fill="#ED1A3B" stroke="#FFFFFF" stroke-width="3" stroke-miterlimit="10" width="36" height="36"/>
<rect x="72" y="180" fill="#ED1A3B" stroke="#FFFFFF" stroke-width="3" stroke-miterlimit="10" width="36" height="36"/>
<rect x="108" y="180" fill="#0072BC" stroke="#FFFFFF" stroke-width="3" stroke-miterlimit="10" width="36" height="36"/>
<rect x="144" y="180" fill="#0072BC" stroke="#FFFFFF" stroke-width="3" stroke-miterlimit="10" width="36" height="36"/>
<rect x="180" y="180" fill="#0072BC" stroke="#FFFFFF" stroke-width="3" stroke-miterlimit="10" width="36" height="36"/>
<rect x="36" y="216" fill="#ED1A3B" stroke="#FFFFFF" stroke-width="3" stroke-miterlimit="10" width="36" height="36"/>
<rect x="72" y="216" fill="#ED1A3B" stroke="#FFFFFF" stroke-width="3" stroke-miterlimit="10" width="36" height="36"/>
<rect x="108" y="216" fill="#0072BC" stroke="#FFFFFF" stroke-width="3" stroke-miterlimit="10" width="36" height="36"/>
<rect x="144" y="216" fill="#0072BC" stroke="#FFFFFF" stroke-width="3" stroke-miterlimit="10" width="36" height="36"/>
<rect x="180" y="216" fill="#0072BC" stroke="#FFFFFF" stroke-width="3" stroke-miterlimit="10" width="36" height="36"/>
<rect x="36" y="252" fill="#ED1A3B" stroke="#FFFFFF" stroke-width="3" stroke-miterlimit="10" width="36" height="36"/>
<rect x="72" y="252" fill="#ED1A3B" stroke="#FFFFFF" stroke-width="3" stroke-miterlimit="10" width="36" height="36"/>
<rect x="108" y="252" fill="#0072BC" stroke="#FFFFFF" stroke-width="3" stroke-miterlimit="10" width="36" height="36"/>
<rect x="144" y="252" fill="#0072BC" stroke="#FFFFFF" stroke-width="3" stroke-miterlimit="10" width="36" height="36"/>
<rect x="180" y="252" fill="#0072BC" stroke="#FFFFFF" stroke-width="3" stroke-miterlimit="10" width="36" height="36"/>
<rect x="36" y="288" fill="#ED1A3B" stroke="#FFFFFF" stroke-width="3" stroke-miterlimit="10" width="36" height="36"/>
<rect x="72" y="288" fill="#ED1A3B" stroke="#FFFFFF" stroke-width="3" stroke-miterlimit="10" width="36" height="36"/>
<rect x="108" y="288" fill="#0072BC" stroke="#FFFFFF" stroke-width="3" stroke-miterlimit="10" width="36" height="36"/>
<rect x="144" y="288" fill="#0072BC" stroke="#FFFFFF" stroke-width="3" stroke-miterlimit="10" width="36" height="36"/>
<rect x="180" y="288" fill="#0072BC" stroke="#FFFFFF" stroke-width="3" stroke-miterlimit="10" width="36" height="36"/>
<rect x="36" y="324" fill="#ED1A3B" stroke="#FFFFFF" stroke-width="3" stroke-miterlimit="10" width="36" height="36"/>
<rect x="72" y="324" fill="#ED1A3B" stroke="#FFFFFF" stroke-width="3" stroke-miterlimit="10" width="36" height="36"/>
<rect x="108" y="324" fill="#0072BC" stroke="#FFFFFF" stroke-width="3" stroke-miterlimit="10" width="36" height="36"/>
<rect x="144" y="324" fill="#0072BC" stroke="#FFFFFF" stroke-width="3" stroke-miterlimit="10" width="36" height="36"/>
<rect x="180" y="324" fill="#0072BC" stroke="#FFFFFF" stroke-width="3" stroke-miterlimit="10" width="36" height="36"/>
<rect x="36" y="360" fill="#ED1A3B" stroke="#FFFFFF" stroke-width="3" stroke-miterlimit="10" width="36" height="36"/>
<rect x="72" y="360" fill="#ED1A3B" stroke="#FFFFFF" stroke-width="3" stroke-miterlimit="10" width="36" height="36"/>
<rect x="108" y="360" fill="#0072BC" stroke="#FFFFFF" stroke-width="3" stroke-miterlimit="10" width="36" height="36"/>
<rect x="144" y="360" fill="#0072BC" stroke="#FFFFFF" stroke-width="3" stroke-miterlimit="10" width="36" height="36"/>
<rect x="180" y="360" fill="#0072BC" stroke="#FFFFFF" stroke-width="3" stroke-miterlimit="10" width="36" height="36"/>
<rect x="36" y="396" fill="#ED1A3B" stroke="#FFFFFF" stroke-width="3" stroke-miterlimit="10" width="36" height="36"/>
<rect x="72" y="396" fill="#ED1A3B" stroke="#FFFFFF" stroke-width="3" stroke-miterlimit="10" width="36" height="36"/>
<rect x="108" y="396" fill="#0072BC" stroke="#FFFFFF" stroke-width="3" stroke-miterlimit="10" width="36" height="36"/>
<rect x="144" y="396" fill="#0072BC" stroke="#FFFFFF" stroke-width="3" stroke-miterlimit="10" width="36" height="36"/>
<rect x="180" y="396" fill="#0072BC" stroke="#FFFFFF" stroke-width="3" stroke-miterlimit="10" width="36" height="36"/>
<rect x="504" y="72" fill="#F8ABA6" stroke="#FFFFFF" stroke-width="3" stroke-miterlimit="10" width="36" height="36"/>
<rect x="540" y="72" fill="#F8ABA6" stroke="#FFFFFF" stroke-width="3" stroke-miterlimit="10" width="36" height="36"/>
<rect x="576" y="72" fill="#94BDE5" stroke="#FFFFFF" stroke-width="3" stroke-miterlimit="10" width="36" height="36"/>
<rect x="612" y="72" fill="#94BDE5" stroke="#FFFFFF" stroke-width="3" stroke-miterlimit="10" width="36" height="36"/>
<rect x="648" y="72" fill="#94BDE5" stroke="#FFFFFF" stroke-width="3" stroke-miterlimit="10" width="36" height="36"/>
<rect x="504" y="108" fill="#F8ABA6" stroke="#FFFFFF" stroke-width="3" stroke-miterlimit="10" width="36" height="36"/>
<rect x="540" y="108" fill="#F8ABA6" stroke="#FFFFFF" stroke-width="3" stroke-miterlimit="10" width="36" height="36"/>
<rect x="576" y="108" fill="#94BDE5" stroke="#FFFFFF" stroke-width="3" stroke-miterlimit="10" width="36" height="36"/>
<rect x="612" y="108" fill="#94BDE5" stroke="#FFFFFF" stroke-width="3" stroke-miterlimit="10" width="36" height="36"/>
<rect x="648" y="108" fill="#94BDE5" stroke="#FFFFFF" stroke-width="3" stroke-miterlimit="10" width="36" height="36"/>
<rect x="504" y="144" fill="#F8ABA6" stroke="#FFFFFF" stroke-width="3" stroke-miterlimit="10" width="36" height="36"/>
<rect x="540" y="144" fill="#F8ABA6" stroke="#FFFFFF" stroke-width="3" stroke-miterlimit="10" width="36" height="36"/>
<rect x="576" y="144" fill="#94BDE5" stroke="#FFFFFF" stroke-width="3" stroke-miterlimit="10" width="36" height="36"/>
<rect x="612" y="144" fill="#94BDE5" stroke="#FFFFFF" stroke-width="3" stroke-miterlimit="10" width="36" height="36"/>
<rect x="648" y="144" fill="#94BDE5" stroke="#FFFFFF" stroke-width="3" stroke-miterlimit="10" width="36" height="36"/>
<rect x="504" y="180" fill="#F8ABA6" stroke="#FFFFFF" stroke-width="3" stroke-miterlimit="10" width="36" height="36"/>
<rect x="540" y="180" fill="#F8ABA6" stroke="#FFFFFF" stroke-width="3" stroke-miterlimit="10" width="36" height="36"/>
<rect x="576" y="180" fill="#94BDE5" stroke="#FFFFFF" stroke-width="3" stroke-miterlimit="10" width="36" height="36"/>
<rect x="612" y="180" fill="#94BDE5" stroke="#FFFFFF" stroke-width="3" stroke-miterlimit="10" width="36" height="36"/>
<rect x="648" y="180" fill="#94BDE5" stroke="#FFFFFF" stroke-width="3" stroke-miterlimit="10" width="36" height="36"/>
<rect x="504" y="216" fill="#F8ABA6" stroke="#FFFFFF" stroke-width="3" stroke-miterlimit="10" width="36" height="36"/>
<rect x="540" y="216" fill="#F8ABA6" stroke="#FFFFFF" stroke-width="3" stroke-miterlimit="10" width="36" height="36"/>
<rect x="576" y="216" fill="#94BDE5" stroke="#FFFFFF" stroke-width="3" stroke-miterlimit="10" width="36" height="36"/>
<rect x="612" y="216" fill="#94BDE5" stroke="#FFFFFF" stroke-width="3" stroke-miterlimit="10" width="36" height="36"/>
<rect x="648" y="216" fill="#94BDE5" stroke="#FFFFFF" stroke-width="3" stroke-miterlimit="10" width="36" height="36"/>
<rect x="504" y="252" fill="#F8ABA6" stroke="#FFFFFF" stroke-width="3" stroke-miterlimit="10" width="36" height="36"/>
<rect x="540" y="252" fill="#F8ABA6" stroke="#FFFFFF" stroke-width="3" stroke-miterlimit="10" width="36" height="36"/>
<rect x="576" y="252" fill="#94BDE5" stroke="#FFFFFF" stroke-width="3" stroke-miterlimit="10" width="36" height="36"/>
<rect x="612" y="252" fill="#94BDE5" stroke="#FFFFFF" stroke-width="3" stroke-miterlimit="10" width="36" height="36"/>
<rect x="648" y="252" fill="#94BDE5" stroke="#FFFFFF" stroke-width="3" stroke-miterlimit="10" width="36" height="36"/>
<rect x="504" y="288" fill="#F8ABA6" stroke="#FFFFFF" stroke-width="3" stroke-miterlimit="10" width="36" height="36"/>
<rect x="540" y="288" fill="#F8ABA6" stroke="#FFFFFF" stroke-width="3" stroke-miterlimit="10" width="36" height="36"/>
<rect x="576" y="288" fill="#94BDE5" stroke="#FFFFFF" stroke-width="3" stroke-miterlimit="10" width="36" height="36"/>
<rect x="612" y="288" fill="#94BDE5" stroke="#FFFFFF" stroke-width="3" stroke-miterlimit="10" width="36" height="36"/>
<rect x="648" y="288" fill="#94BDE5" stroke="#FFFFFF" stroke-width="3" stroke-miterlimit="10" width="36" height="36"/>
<rect x="504" y="324" fill="#F8ABA6" stroke="#FFFFFF" stroke-width="3" stroke-miterlimit="10" width="36" height="36"/>
<rect x="540" y="324" fill="#F8ABA6" stroke="#FFFFFF" stroke-width="3" stroke-miterlimit="10" width="36" height="36"/>
<rect x="576" y="324" fill="#94BDE5" stroke="#FFFFFF" stroke-width="3" stroke-miterlimit="10" width="36" height="36"/>
<rect x="612" y="324" fill="#94BDE5" stroke="#FFFFFF" stroke-width="3" stroke-miterlimit="10" width="36" height="36"/>
<rect x="648" y="324" fill="#94BDE5" stroke="#FFFFFF" stroke-width="3" stroke-miterlimit="10" width="36" height="36"/>
<rect x="504" y="360" fill="#F8ABA6" stroke="#FFFFFF" stroke-width="3" stroke-miterlimit="10" width="36" height="36"/>
<rect x="540" y="360" fill="#F8ABA6" stroke="#FFFFFF" stroke-width="3" stroke-miterlimit="10" width="36" height="36"/>
<rect x="576" y="360" fill="#94BDE5" stroke="#FFFFFF" stroke-width="3" stroke-miterlimit="10" width="36" height="36"/>
<rect x="612" y="360" fill="#94BDE5" stroke="#FFFFFF" stroke-width="3" stroke-miterlimit="10" width="36" height="36"/>
<rect x="648" y="360" fill="#94BDE5" stroke="#FFFFFF" stroke-width="3" stroke-miterlimit="10" width="36" height="36"/>
<rect x="504" y="396" fill="#F8ABA6" stroke="#FFFFFF" stroke-width="3" stroke-miterlimit="10" width="36" height="36"/>
<rect x="540" y="396" fill="#F8ABA6" stroke="#FFFFFF" stroke-width="3" stroke-miterlimit="10" width="36" height="36"/>
<rect x="576" y="396" fill="#94BDE5" stroke="#FFFFFF" stroke-width="3" stroke-miterlimit="10" width="36" height="36"/>
<rect x="612" y="396" fill="#94BDE5" stroke="#FFFFFF" stroke-width="3" stroke-miterlimit="10" width="36" height="36"/>
<rect x="648" y="396" fill="#94BDE5" stroke="#FFFFFF" stroke-width="3" stroke-miterlimit="10" width="36" height="36"/>
<rect x="270" y="72" fill="none" stroke="#000000" stroke-width="4.5" stroke-miterlimit="10" width="180" height="72"/>
<rect x="270" y="144" fill="none" stroke="#000000" stroke-width="4.5" stroke-miterlimit="10" width="180" height="72"/>
<rect x="270" y="216" fill="none" stroke="#000000" stroke-width="4.5" stroke-miterlimit="10" width="180" height="72"/>
<rect x="270" y="288" fill="none" stroke="#000000" stroke-width="4.5" stroke-miterlimit="10" width="180" height="72"/>
<rect x="270" y="360" fill="none" stroke="#000000" stroke-width="4.5" stroke-miterlimit="10" width="180" height="72"/>
<g>
	<path d="M129.575,28.299v9.323h9.035v-9.323h5.471V52.56h-5.471V42.409h-9.035V52.56h-5.471V28.299H129.575z"/>
	<path d="M171.081,40.177c0,7.991-4.788,12.778-11.915,12.778c-7.163,0-11.411-5.436-11.411-12.382
		c0-7.271,4.68-12.707,11.807-12.707C167.013,27.867,171.081,33.446,171.081,40.177z M153.551,40.465
		c0,4.788,2.231,8.135,5.903,8.135c3.708,0,5.831-3.528,5.831-8.243c0-4.391-2.052-8.135-5.831-8.135
		C155.71,32.222,153.551,35.75,153.551,40.465z"/>
	<path d="M178.355,52.56l-5.759-24.261h5.867l1.836,9.971c0.54,2.916,1.043,6.047,1.439,8.495h0.072
		c0.396-2.627,0.972-5.543,1.583-8.567l2.052-9.898h5.832l1.944,10.223c0.54,2.843,0.936,5.435,1.296,8.135h0.072
		c0.36-2.7,0.9-5.543,1.404-8.459l1.979-9.898h5.58l-6.263,24.261h-5.939l-2.052-10.438c-0.468-2.448-0.864-4.716-1.152-7.487
		h-0.072c-0.432,2.736-0.828,5.04-1.404,7.487l-2.304,10.438H178.355z"/>
	<path d="M219.917,32.906h-6.551v-4.607h18.646v4.607h-6.624V52.56h-5.471V32.906z"/>
	<path d="M256.095,40.177c0,7.991-4.787,12.778-11.915,12.778c-7.163,0-11.41-5.436-11.41-12.382c0-7.271,4.68-12.707,11.807-12.707
		C252.027,27.867,256.095,33.446,256.095,40.177z M238.564,40.465c0,4.788,2.232,8.135,5.903,8.135c3.708,0,5.832-3.528,5.832-8.243
		c0-4.391-2.052-8.135-5.832-8.135C240.725,32.222,238.564,35.75,238.564,40.465z"/>
	<path d="M270.784,46.908c1.439,0.756,3.743,1.512,6.083,1.512c2.52,0,3.852-1.044,3.852-2.627c0-1.512-1.151-2.376-4.067-3.384
		c-4.031-1.439-6.695-3.671-6.695-7.199c0-4.14,3.492-7.271,9.179-7.271c2.772,0,4.752,0.54,6.191,1.224l-1.224,4.391
		c-0.936-0.468-2.699-1.151-5.039-1.151c-2.376,0-3.528,1.116-3.528,2.339c0,1.548,1.332,2.232,4.5,3.419
		c4.283,1.584,6.263,3.816,6.263,7.235c0,4.067-3.095,7.523-9.754,7.523c-2.772,0-5.508-0.756-6.876-1.512L270.784,46.908z"/>
	<path d="M294.759,32.906h-6.551v-4.607h18.646v4.607h-6.623V52.56h-5.472V32.906z"/>
	<path d="M324.204,42.301h-8.927v5.759h9.971v4.5h-15.441V28.299h14.938v4.499h-9.467v5.04h8.927V42.301z"/>
	<path d="M334.646,46.333l-1.729,6.227h-5.651l7.38-24.261h7.199l7.559,24.261h-5.939l-1.871-6.227H334.646z M340.802,42.229
		l-1.513-5.147c-0.432-1.44-0.863-3.24-1.224-4.679h-0.071c-0.36,1.439-0.721,3.275-1.116,4.679l-1.439,5.147H340.802z"/>
	<path d="M352.646,28.299h5.471v19.653h9.647v4.607h-15.118V28.299z"/>
	<path d="M387.564,46.333l-1.729,6.227h-5.651l7.38-24.261h7.199l7.559,24.261h-5.939l-1.871-6.227H387.564z M393.72,42.229
		l-1.513-5.147c-0.432-1.44-0.863-3.24-1.224-4.679h-0.071c-0.36,1.439-0.721,3.275-1.116,4.679l-1.439,5.147H393.72z"/>
	<path d="M405.528,52.56V28.299h6.407l5.039,8.891c1.439,2.556,2.844,5.579,3.96,8.315h0.071c-0.323-3.204-0.432-6.479-0.432-10.151
		v-7.055h5.039V52.56h-5.759l-5.184-9.359c-1.439-2.592-3.06-5.723-4.212-8.567h-0.144c0.18,3.24,0.252,6.659,0.252,10.619v7.307
		H405.528z"/>
	<path d="M455.708,42.301h-8.927v5.759h9.971v4.5h-15.441V28.299h14.938v4.499h-9.467v5.04h8.927V42.301z"/>
	<path d="M460.535,28.299h5.471v19.653h9.647v4.607h-15.118V28.299z"/>
	<path d="M493.327,42.301H484.4v5.759h9.971v4.5H478.93V28.299h14.938v4.499H484.4v5.04h8.927V42.301z"/>
	<path d="M515.899,51.912c-0.972,0.468-3.275,1.044-6.191,1.044c-8.387,0-12.706-5.255-12.706-12.167
		c0-8.279,5.903-12.851,13.246-12.851c2.844,0,5.004,0.54,5.976,1.08l-1.152,4.319c-1.079-0.468-2.627-0.9-4.607-0.9
		c-4.319,0-7.702,2.628-7.702,8.027c0,4.86,2.879,7.919,7.738,7.919c1.692,0,3.492-0.324,4.607-0.792L515.899,51.912z"/>
	<path d="M524.757,32.906h-6.551v-4.607h18.646v4.607h-6.623V52.56h-5.472V32.906z"/>
	<path d="M545.275,28.299V52.56h-5.471V28.299H545.275z"/>
	<path d="M572.237,40.177c0,7.991-4.787,12.778-11.915,12.778c-7.163,0-11.41-5.436-11.41-12.382c0-7.271,4.68-12.707,11.807-12.707
		C568.17,27.867,572.237,33.446,572.237,40.177z M554.707,40.465c0,4.788,2.232,8.135,5.903,8.135c3.708,0,5.832-3.528,5.832-8.243
		c0-4.391-2.052-8.135-5.832-8.135C556.867,32.222,554.707,35.75,554.707,40.465z"/>
	<path d="M575.841,52.56V28.299h6.407l5.039,8.891c1.439,2.556,2.844,5.579,3.96,8.315h0.071c-0.323-3.204-0.432-6.479-0.432-10.151
		v-7.055h5.039V52.56h-5.759l-5.184-9.359c-1.439-2.592-3.06-5.723-4.212-8.567h-0.144c0.18,3.24,0.252,6.659,0.252,10.619v7.307
		H575.841z"/>
	<path d="M70.061,449.537H64.77l-0.294,2.1c0.294-0.043,0.546-0.043,0.882-0.043c1.302,0,2.646,0.295,3.59,0.987
		c1.029,0.692,1.659,1.827,1.659,3.423c0,2.54-2.184,4.787-5.858,4.787c-1.659,0-3.044-0.379-3.8-0.777l0.588-2.394
		c0.588,0.294,1.827,0.672,3.065,0.672c1.323,0,2.729-0.63,2.729-2.079c0-1.406-1.113-2.268-3.842-2.268
		c-0.756,0-1.281,0.043-1.827,0.127l0.882-7.16h7.517V449.537z"/>
	<path d="M82.681,453.673c0,4.199-1.701,7.118-5.165,7.118c-3.527,0-5.081-3.171-5.102-7.034c0-3.968,1.659-7.075,5.186-7.075
		C81.232,446.682,82.681,449.936,82.681,453.673z M75.605,453.757c0,3.128,0.756,4.619,1.974,4.619c1.239,0,1.911-1.554,1.911-4.661
		c0-3.023-0.651-4.619-1.932-4.619C76.403,449.096,75.605,450.565,75.605,453.757z"/>
	<path d="M89.003,446.598c0.987-0.168,2.373-0.295,4.325-0.295c1.974,0,3.38,0.379,4.325,1.135c0.924,0.713,1.512,1.889,1.512,3.275
		c0,1.385-0.441,2.582-1.302,3.359c-1.092,1.008-2.708,1.49-4.598,1.49c-0.42,0-0.798-0.021-1.092-0.084v5.081h-3.17V446.598z
		 M92.174,453.021c0.273,0.063,0.588,0.084,1.071,0.084c1.701,0,2.75-0.86,2.75-2.288c0-1.302-0.903-2.079-2.52-2.079
		c-0.63,0-1.071,0.043-1.302,0.105V453.021z"/>
	<path d="M101.204,446.598c1.029-0.168,2.541-0.295,4.262-0.295c2.1,0,3.569,0.315,4.577,1.113c0.861,0.672,1.323,1.68,1.323,2.981
		c0,1.784-1.281,3.023-2.499,3.464v0.063c0.987,0.399,1.533,1.323,1.89,2.624c0.441,1.617,0.861,3.465,1.134,4.011h-3.275
		c-0.21-0.42-0.567-1.554-0.966-3.296c-0.399-1.785-1.008-2.247-2.331-2.268h-0.945v5.563h-3.17V446.598z M104.375,452.686h1.26
		c1.596,0,2.541-0.797,2.541-2.036c0-1.28-0.882-1.952-2.352-1.952c-0.777,0-1.218,0.041-1.449,0.104V452.686z"/>
	<path d="M122.076,454.576h-5.207v3.359h5.816v2.624h-9.007v-14.151h8.713v2.625h-5.522v2.939h5.207V454.576z"/>
	<path d="M135.243,460.182c-0.567,0.273-1.911,0.609-3.611,0.609c-4.892,0-7.412-3.066-7.412-7.098c0-4.828,3.443-7.495,7.727-7.495
		c1.659,0,2.918,0.315,3.485,0.63l-0.672,2.52c-0.63-0.273-1.533-0.525-2.688-0.525c-2.52,0-4.493,1.533-4.493,4.683
		c0,2.835,1.68,4.619,4.514,4.619c0.987,0,2.037-0.188,2.688-0.462L135.243,460.182z"/>
	<path d="M140.578,446.408v14.151h-3.191v-14.151H140.578z"/>
	<path d="M143.35,460.56v-14.151h3.737l2.939,5.186c0.84,1.491,1.659,3.255,2.31,4.851h0.042c-0.189-1.868-0.252-3.779-0.252-5.921
		v-4.115h2.939v14.151h-3.359l-3.023-5.459c-0.84-1.512-1.785-3.339-2.457-4.997h-0.084c0.105,1.89,0.147,3.885,0.147,6.193v4.263
		H143.35z"/>
	<path d="M168.212,460.182c-0.567,0.273-1.911,0.609-3.611,0.609c-4.892,0-7.412-3.066-7.412-7.098c0-4.828,3.443-7.495,7.727-7.495
		c1.659,0,2.918,0.315,3.485,0.63l-0.672,2.52c-0.63-0.273-1.533-0.525-2.688-0.525c-2.52,0-4.493,1.533-4.493,4.683
		c0,2.835,1.68,4.619,4.514,4.619c0.987,0,2.037-0.188,2.688-0.462L168.212,460.182z"/>
	<path d="M173.379,449.096h-3.821v-2.688h10.876v2.688h-3.863v11.464h-3.191V449.096z"/>
	<path d="M182.052,457.264c0.84,0.44,2.184,0.881,3.548,0.881c1.47,0,2.247-0.608,2.247-1.532c0-0.882-0.672-1.386-2.373-1.974
		c-2.352-0.84-3.905-2.142-3.905-4.199c0-2.414,2.037-4.241,5.354-4.241c1.617,0,2.771,0.315,3.611,0.714l-0.714,2.562
		c-0.546-0.272-1.575-0.672-2.939-0.672c-1.386,0-2.058,0.651-2.058,1.364c0,0.903,0.777,1.303,2.625,1.995
		c2.499,0.924,3.653,2.226,3.653,4.22c0,2.373-1.806,4.389-5.69,4.389c-1.617,0-3.212-0.441-4.01-0.882L182.052,457.264z"/>
	<path d="M306.563,447.958h-6.048l-0.337,2.4c0.337-0.048,0.624-0.048,1.009-0.048c1.488,0,3.024,0.336,4.104,1.128
		c1.176,0.792,1.896,2.089,1.896,3.913c0,2.904-2.496,5.472-6.696,5.472c-1.896,0-3.48-0.432-4.345-0.888l0.672-2.736
		c0.673,0.336,2.089,0.769,3.505,0.769c1.512,0,3.12-0.721,3.12-2.377c0-1.607-1.272-2.592-4.393-2.592
		c-0.864,0-1.464,0.048-2.088,0.144l1.008-8.185h8.593V447.958z"/>
	<path d="M314.891,444.622c1.345-0.216,3.097-0.36,4.921-0.36c3.096,0,5.112,0.576,6.648,1.729c1.68,1.248,2.736,3.24,2.736,6.097
		c0,3.097-1.128,5.232-2.664,6.553c-1.704,1.416-4.321,2.088-7.489,2.088c-1.896,0-3.264-0.12-4.152-0.24V444.622z M318.539,457.8
		c0.312,0.071,0.84,0.071,1.272,0.071c3.336,0.024,5.521-1.8,5.521-5.664c0-3.36-1.969-5.137-5.137-5.137
		c-0.792,0-1.344,0.072-1.656,0.145V457.8z"/>
	<path d="M335.268,444.382v16.178h-3.648v-16.178H335.268z"/>
	<path d="M338.555,456.791c0.96,0.504,2.496,1.009,4.057,1.009c1.68,0,2.568-0.696,2.568-1.753c0-1.008-0.769-1.584-2.713-2.256
		c-2.688-0.96-4.464-2.448-4.464-4.801c0-2.76,2.328-4.848,6.12-4.848c1.849,0,3.168,0.359,4.129,0.815l-0.816,2.929
		c-0.624-0.312-1.8-0.769-3.36-0.769c-1.584,0-2.353,0.744-2.353,1.561c0,1.032,0.889,1.488,3.001,2.28
		c2.855,1.056,4.176,2.544,4.176,4.824c0,2.712-2.063,5.017-6.504,5.017c-1.849,0-3.673-0.504-4.585-1.009L338.555,456.791z"/>
	<path d="M354.539,447.454h-4.368v-3.072h12.433v3.072h-4.416v13.105h-3.648V447.454z"/>
	<path d="M364.546,444.599c1.176-0.192,2.904-0.337,4.873-0.337c2.399,0,4.08,0.36,5.232,1.272c0.983,0.769,1.512,1.92,1.512,3.408
		c0,2.04-1.464,3.456-2.856,3.961v0.071c1.128,0.456,1.752,1.513,2.16,3.001c0.504,1.848,0.984,3.96,1.296,4.584h-3.744
		c-0.24-0.48-0.647-1.776-1.104-3.769c-0.456-2.04-1.152-2.568-2.665-2.592h-1.08v6.36h-3.624V444.599z M368.17,451.559h1.44
		c1.824,0,2.904-0.912,2.904-2.328c0-1.464-1.008-2.232-2.688-2.232c-0.888,0-1.392,0.049-1.656,0.12V451.559z"/>
	<path d="M382.45,444.382v16.178h-3.648v-16.178H382.45z"/>
	<path d="M397.475,460.128c-0.648,0.312-2.185,0.695-4.129,0.695c-5.592,0-8.473-3.504-8.473-8.112c0-5.521,3.937-8.568,8.833-8.568
		c1.896,0,3.336,0.359,3.984,0.72l-0.769,2.88c-0.72-0.312-1.752-0.6-3.072-0.6c-2.88,0-5.136,1.752-5.136,5.353
		c0,3.24,1.92,5.28,5.16,5.28c1.128,0,2.328-0.216,3.072-0.528L397.475,460.128z"/>
	<path d="M403.377,447.454h-4.368v-3.072h12.433v3.072h-4.416v13.105h-3.648V447.454z"/>
	<path d="M413.288,456.791c0.96,0.504,2.496,1.009,4.057,1.009c1.68,0,2.568-0.696,2.568-1.753c0-1.008-0.769-1.584-2.713-2.256
		c-2.688-0.96-4.464-2.448-4.464-4.801c0-2.76,2.328-4.848,6.12-4.848c1.849,0,3.168,0.359,4.129,0.815l-0.816,2.929
		c-0.624-0.312-1.8-0.769-3.36-0.769c-1.584,0-2.353,0.744-2.353,1.561c0,1.032,0.889,1.488,3.001,2.28
		c2.855,1.056,4.176,2.544,4.176,4.824c0,2.712-2.064,5.017-6.504,5.017c-1.849,0-3.673-0.504-4.585-1.009L413.288,456.791z"/>
	<path d="M540.421,447.958h-6.048l-0.337,2.4c0.337-0.048,0.624-0.048,1.009-0.048c1.488,0,3.024,0.336,4.104,1.128
		c1.176,0.792,1.896,2.089,1.896,3.913c0,2.904-2.496,5.472-6.696,5.472c-1.896,0-3.48-0.432-4.345-0.888l0.672-2.736
		c0.673,0.336,2.089,0.769,3.505,0.769c1.512,0,3.12-0.721,3.12-2.377c0-1.607-1.272-2.592-4.393-2.592
		c-0.864,0-1.464,0.048-2.088,0.144l1.008-8.185h8.593V447.958z"/>
	<path d="M548.748,444.622c1.345-0.216,3.097-0.36,4.921-0.36c3.096,0,5.112,0.576,6.648,1.729c1.68,1.248,2.736,3.24,2.736,6.097
		c0,3.097-1.128,5.232-2.664,6.553c-1.704,1.416-4.321,2.088-7.489,2.088c-1.896,0-3.264-0.12-4.152-0.24V444.622z M552.396,457.8
		c0.312,0.071,0.84,0.071,1.272,0.071c3.336,0.024,5.521-1.8,5.521-5.664c0-3.36-1.969-5.137-5.137-5.137
		c-0.792,0-1.344,0.072-1.656,0.145V457.8z"/>
	<path d="M569.125,444.382v16.178h-3.648v-16.178H569.125z"/>
	<path d="M572.412,456.791c0.96,0.504,2.496,1.009,4.057,1.009c1.68,0,2.568-0.696,2.568-1.753c0-1.008-0.769-1.584-2.713-2.256
		c-2.688-0.96-4.464-2.448-4.464-4.801c0-2.76,2.328-4.848,6.12-4.848c1.849,0,3.168,0.359,4.129,0.815l-0.816,2.929
		c-0.624-0.312-1.8-0.769-3.36-0.769c-1.584,0-2.353,0.744-2.353,1.561c0,1.032,0.889,1.488,3.001,2.28
		c2.855,1.056,4.176,2.544,4.176,4.824c0,2.712-2.063,5.017-6.504,5.017c-1.849,0-3.673-0.504-4.585-1.009L572.412,456.791z"/>
	<path d="M588.396,447.454h-4.368v-3.072h12.433v3.072h-4.416v13.105h-3.648V447.454z"/>
	<path d="M598.403,444.599c1.176-0.192,2.904-0.337,4.873-0.337c2.399,0,4.08,0.36,5.232,1.272c0.983,0.769,1.512,1.92,1.512,3.408
		c0,2.04-1.464,3.456-2.856,3.961v0.071c1.128,0.456,1.752,1.513,2.16,3.001c0.504,1.848,0.984,3.96,1.296,4.584h-3.744
		c-0.24-0.48-0.647-1.776-1.104-3.769c-0.456-2.04-1.152-2.568-2.665-2.592h-1.08v6.36h-3.624V444.599z M602.027,451.559h1.44
		c1.824,0,2.904-0.912,2.904-2.328c0-1.464-1.008-2.232-2.688-2.232c-0.888,0-1.392,0.049-1.656,0.12V451.559z"/>
	<path d="M616.308,444.382v16.178h-3.648v-16.178H616.308z"/>
	<path d="M631.332,460.128c-0.648,0.312-2.185,0.695-4.129,0.695c-5.592,0-8.473-3.504-8.473-8.112c0-5.521,3.937-8.568,8.833-8.568
		c1.896,0,3.336,0.359,3.984,0.72l-0.769,2.88c-0.72-0.312-1.752-0.6-3.072-0.6c-2.88,0-5.136,1.752-5.136,5.353
		c0,3.24,1.92,5.28,5.16,5.28c1.128,0,2.328-0.216,3.072-0.528L631.332,460.128z"/>
	<path d="M637.234,447.454h-4.368v-3.072h12.433v3.072h-4.416v13.105h-3.648V447.454z"/>
	<path d="M647.146,456.791c0.96,0.504,2.496,1.009,4.057,1.009c1.68,0,2.568-0.696,2.568-1.753c0-1.008-0.769-1.584-2.713-2.256
		c-2.688-0.96-4.464-2.448-4.464-4.801c0-2.76,2.328-4.848,6.12-4.848c1.849,0,3.168,0.359,4.129,0.815l-0.816,2.929
		c-0.624-0.312-1.8-0.769-3.36-0.769c-1.584,0-2.353,0.744-2.353,1.561c0,1.032,0.889,1.488,3.001,2.28
		c2.855,1.056,4.176,2.544,4.176,4.824c0,2.712-2.064,5.017-6.504,5.017c-1.849,0-3.673-0.504-4.585-1.009L647.146,456.791z"/>
	<path d="M72.314,474.3c-0.51-0.029-1.05,0-1.77,0.061c-4.05,0.33-5.85,2.399-6.36,4.649h0.09c0.96-0.96,2.34-1.529,4.14-1.529
		c3.27,0,6.03,2.31,6.03,6.359c0,3.87-2.97,7.05-7.17,7.05c-5.22,0-7.77-3.87-7.77-8.52c0-3.66,1.35-6.72,3.48-8.7
		c1.92-1.77,4.47-2.699,7.5-2.85c0.84-0.09,1.41-0.06,1.83-0.03V474.3z M69.825,484.08c0-1.8-0.96-3.36-2.91-3.36
		c-1.23,0-2.25,0.75-2.67,1.71c-0.15,0.271-0.21,0.63-0.21,1.17c0.09,2.07,1.08,3.93,3.18,3.93
		C68.805,487.529,69.825,486.06,69.825,484.08z"/>
	<path d="M90.914,480.72c0,6-2.43,10.17-7.379,10.17c-5.04,0-7.26-4.53-7.29-10.05c0-5.67,2.37-10.109,7.41-10.109
		C88.844,470.73,90.914,475.38,90.914,480.72z M80.805,480.84c0,4.47,1.08,6.6,2.82,6.6c1.77,0,2.73-2.22,2.73-6.659
		c0-4.32-0.93-6.6-2.76-6.6C81.945,474.181,80.805,476.28,80.805,480.84z"/>
	<path d="M103.424,476.521c0,4.079-2.58,6.239-5.4,6.239c-2.97,0-5.31-2.22-5.31-5.909c0-3.48,2.13-6.12,5.49-6.12
		C101.534,470.73,103.424,473.19,103.424,476.521z M96.104,476.76c-0.03,2.04,0.69,3.51,2.01,3.51c1.29,0,1.92-1.319,1.92-3.539
		c0-1.98-0.54-3.51-1.98-3.51C96.705,473.221,96.104,474.78,96.104,476.76z M98.234,490.89l11.22-20.129h2.43l-11.189,20.129H98.234
		z M117.464,484.62c0,4.05-2.58,6.209-5.4,6.209c-2.94,0-5.28-2.22-5.28-5.879c0-3.48,2.13-6.12,5.46-6.12
		C115.574,478.83,117.464,481.29,117.464,484.62z M110.174,484.83c-0.03,2.04,0.69,3.51,1.98,3.51c1.29,0,1.92-1.32,1.92-3.51
		c0-1.98-0.54-3.51-1.95-3.51C110.774,481.32,110.174,482.88,110.174,484.83z"/>
	<path d="M126.345,470.61c1.2-0.21,3.6-0.42,5.91-0.42c2.79,0,4.5,0.27,6,1.14c1.41,0.75,2.4,2.13,2.4,3.99
		c0,1.77-1.05,3.42-3.33,4.29v0.06c2.31,0.6,4.02,2.37,4.02,4.95c0,1.859-0.84,3.3-2.1,4.319c-1.47,1.17-3.93,1.83-7.95,1.83
		c-2.25,0-3.93-0.15-4.95-0.3V470.61z M130.875,478.35h1.5c2.43,0,3.69-0.989,3.69-2.489c0-1.53-1.17-2.34-3.24-2.34
		c-1.02,0-1.59,0.06-1.95,0.12V478.35z M130.875,487.319c0.45,0.061,0.99,0.061,1.77,0.061c2.07,0,3.9-0.811,3.9-2.94
		c0-2.01-1.83-2.819-4.11-2.819h-1.56V487.319z"/>
	<path d="M144.494,470.341h4.56v16.379h8.04v3.84h-12.6V470.341z"/>
	<path d="M163.424,470.341v11.609c0,3.51,1.35,5.279,3.66,5.279c2.4,0,3.72-1.68,3.72-5.279v-11.609h4.56v11.339
		c0,6.24-3.149,9.21-8.429,9.21c-5.1,0-8.07-2.85-8.07-9.27v-11.279H163.424z"/>
	<path d="M191.354,482.01h-7.439v4.8h8.31v3.75h-12.87v-20.219h12.45v3.749h-7.89v4.2h7.439V482.01z"/>
	<path d="M337.739,473.537h-5.291l-0.294,2.1c0.294-0.043,0.546-0.043,0.882-0.043c1.302,0,2.646,0.295,3.591,0.987
		c1.028,0.692,1.658,1.827,1.658,3.423c0,2.54-2.184,4.787-5.857,4.787c-1.659,0-3.045-0.379-3.801-0.777l0.588-2.394
		c0.588,0.294,1.826,0.672,3.065,0.672c1.323,0,2.729-0.63,2.729-2.079c0-1.406-1.113-2.268-3.842-2.268
		c-0.756,0-1.281,0.043-1.827,0.127l0.882-7.16h7.517V473.537z"/>
	<path d="M345.027,470.598c0.84-0.147,2.52-0.295,4.137-0.295c1.952,0,3.148,0.189,4.199,0.799c0.986,0.524,1.68,1.49,1.68,2.792
		c0,1.239-0.735,2.394-2.331,3.003v0.041c1.616,0.42,2.813,1.659,2.813,3.465c0,1.302-0.588,2.31-1.47,3.023
		c-1.028,0.818-2.751,1.281-5.563,1.281c-1.575,0-2.751-0.105-3.465-0.211V470.598z M348.197,476.014h1.051
		c1.7,0,2.582-0.692,2.582-1.742c0-1.07-0.818-1.638-2.268-1.638c-0.714,0-1.113,0.042-1.365,0.084V476.014z M348.197,482.292
		c0.315,0.042,0.693,0.042,1.239,0.042c1.448,0,2.729-0.566,2.729-2.058c0-1.407-1.281-1.974-2.877-1.974h-1.092V482.292z"/>
	<path d="M357.732,470.408h3.191v11.464h5.627v2.688h-8.818V470.408z"/>
	<path d="M370.983,470.408v8.125c0,2.457,0.944,3.695,2.562,3.695c1.68,0,2.604-1.176,2.604-3.695v-8.125h3.191v7.937
		c0,4.367-2.205,6.446-5.9,6.446c-3.568,0-5.647-1.995-5.647-6.488v-7.895H370.983z"/>
	<path d="M390.533,478.576h-5.207v3.359h5.816v2.624h-9.008v-14.151h8.714v2.625h-5.522v2.939h5.207V478.576z"/>
	<path d="M568.061,481.432c0.567,0.314,1.869,0.84,3.171,0.84c1.659,0,2.499-0.799,2.499-1.807c0-1.364-1.344-1.973-2.751-1.973
		h-1.302v-2.289h1.26c1.07,0,2.414-0.42,2.414-1.574c0-0.819-0.65-1.428-2.016-1.428c-1.112,0-2.288,0.482-2.834,0.818l-0.65-2.31
		c0.818-0.524,2.436-1.028,4.22-1.028c2.897,0,4.515,1.532,4.515,3.4c0,1.449-0.819,2.604-2.499,3.171v0.042
		c1.638,0.294,2.96,1.533,2.96,3.338c0,2.395-2.12,4.158-5.584,4.158c-1.764,0-3.255-0.463-4.053-0.945L568.061,481.432z"/>
	<path d="M583.896,470.598c1.028-0.168,2.54-0.295,4.263-0.295c2.1,0,3.568,0.315,4.576,1.113c0.861,0.672,1.323,1.68,1.323,2.981
		c0,1.784-1.28,3.023-2.499,3.464v0.063c0.987,0.399,1.533,1.323,1.891,2.624c0.44,1.617,0.86,3.465,1.133,4.011h-3.275
		c-0.209-0.42-0.566-1.554-0.965-3.296c-0.399-1.785-1.008-2.247-2.331-2.268h-0.944v5.563h-3.171V470.598z M587.066,476.686h1.26
		c1.596,0,2.54-0.797,2.54-2.036c0-1.28-0.882-1.952-2.352-1.952c-0.776,0-1.218,0.041-1.448,0.104V476.686z"/>
	<path d="M604.768,478.576h-5.207v3.359h5.816v2.624h-9.008v-14.151h8.714v2.625h-5.522v2.939h5.207V478.576z"/>
	<path d="M607.562,470.618c1.176-0.188,2.709-0.315,4.305-0.315c2.708,0,4.472,0.504,5.815,1.512
		c1.47,1.092,2.394,2.835,2.394,5.334c0,2.708-0.986,4.576-2.33,5.731c-1.491,1.239-3.779,1.827-6.551,1.827
		c-1.659,0-2.855-0.105-3.633-0.211V470.618z M610.754,482.145c0.273,0.063,0.734,0.063,1.113,0.063
		c2.918,0.021,4.828-1.575,4.828-4.955c0-2.939-1.721-4.493-4.492-4.493c-0.693,0-1.176,0.062-1.449,0.126V482.145z"/>
	<path d="M75.089,520.56v-4.649h-8.64v-2.971l7.35-11.879h5.61v11.43h2.31v3.42h-2.31v4.649H75.089z M75.089,512.49v-4.32
		c0-1.17,0.06-2.37,0.12-3.63h-0.09c-0.63,1.26-1.17,2.4-1.83,3.63l-2.58,4.26l-0.03,0.061H75.089z"/>
	<path d="M98.069,510.72c0,6-2.43,10.17-7.379,10.17c-5.04,0-7.26-4.53-7.29-10.05c0-5.67,2.37-10.109,7.41-10.109
		C95.999,500.73,98.069,505.38,98.069,510.72z M87.959,510.84c0,4.47,1.08,6.6,2.82,6.6c1.77,0,2.73-2.22,2.73-6.659
		c0-4.32-0.93-6.6-2.76-6.6C89.1,504.181,87.959,506.28,87.959,510.84z"/>
	<path d="M110.579,506.521c0,4.079-2.58,6.239-5.4,6.239c-2.97,0-5.31-2.22-5.31-5.909c0-3.48,2.13-6.12,5.49-6.12
		C108.689,500.73,110.579,503.19,110.579,506.521z M103.259,506.76c-0.03,2.04,0.69,3.51,2.01,3.51c1.29,0,1.92-1.319,1.92-3.539
		c0-1.98-0.54-3.51-1.98-3.51C103.859,503.221,103.259,504.78,103.259,506.76z M105.389,520.89l11.22-20.129h2.43l-11.189,20.129
		H105.389z M124.619,514.62c0,4.05-2.58,6.209-5.4,6.209c-2.94,0-5.28-2.22-5.28-5.879c0-3.48,2.13-6.12,5.46-6.12
		C122.729,508.83,124.619,511.29,124.619,514.62z M117.329,514.83c-0.03,2.04,0.69,3.51,1.98,3.51s1.92-1.32,1.92-3.51
		c0-1.98-0.54-3.51-1.95-3.51C117.929,511.32,117.329,512.88,117.329,514.83z"/>
	<path d="M133.5,500.61c1.47-0.24,3.63-0.42,6.09-0.42c3,0,5.1,0.45,6.54,1.59c1.23,0.96,1.89,2.4,1.89,4.26
		c0,2.55-1.83,4.32-3.57,4.95v0.09c1.41,0.57,2.189,1.89,2.7,3.75c0.63,2.31,1.23,4.949,1.62,5.729h-4.68
		c-0.3-0.6-0.81-2.22-1.38-4.71c-0.57-2.55-1.44-3.21-3.33-3.239h-1.35v7.949h-4.53V500.61z M138.029,509.31h1.8
		c2.28,0,3.63-1.14,3.63-2.909c0-1.83-1.26-2.79-3.36-2.79c-1.11,0-1.74,0.06-2.07,0.149V509.31z"/>
	<path d="M163.318,512.01h-7.439v4.8h8.31v3.75h-12.87v-20.219h12.45v3.749h-7.89v4.2h7.439V512.01z"/>
	<path d="M167.309,500.641c1.68-0.271,3.87-0.45,6.15-0.45c3.87,0,6.39,0.72,8.31,2.16c2.1,1.56,3.42,4.05,3.42,7.619
		c0,3.87-1.41,6.54-3.33,8.19c-2.13,1.77-5.4,2.609-9.359,2.609c-2.37,0-4.08-0.15-5.19-0.3V500.641z M171.869,517.109
		c0.39,0.09,1.05,0.09,1.59,0.09c4.169,0.03,6.899-2.249,6.899-7.079c0-4.2-2.46-6.42-6.419-6.42c-0.99,0-1.68,0.09-2.07,0.18
		V517.109z"/>
	<path d="M343.713,501.673c0,4.199-1.701,7.118-5.165,7.118c-3.527,0-5.081-3.171-5.103-7.034c0-3.968,1.659-7.075,5.187-7.075
		C342.264,494.682,343.713,497.936,343.713,501.673z M336.637,501.757c0,3.128,0.756,4.619,1.975,4.619
		c1.238,0,1.91-1.554,1.91-4.661c0-3.023-0.65-4.619-1.932-4.619C337.436,497.096,336.637,498.565,336.637,501.757z"/>
	<path d="M350.035,494.598c1.029-0.168,2.541-0.295,4.262-0.295c2.1,0,3.57,0.315,4.578,1.113c0.86,0.672,1.322,1.68,1.322,2.981
		c0,1.784-1.281,3.023-2.498,3.464v0.063c0.986,0.399,1.532,1.323,1.889,2.624c0.441,1.617,0.861,3.465,1.135,4.011h-3.275
		c-0.211-0.42-0.567-1.554-0.967-3.296c-0.398-1.785-1.008-2.247-2.33-2.268h-0.945v5.563h-3.17V494.598z M353.205,500.686h1.26
		c1.596,0,2.541-0.797,2.541-2.036c0-1.28-0.882-1.952-2.352-1.952c-0.777,0-1.218,0.041-1.449,0.104V500.686z"/>
	<path d="M370.908,502.576h-5.207v3.359h5.815v2.624h-9.007v-14.151h8.713v2.625h-5.521v2.939h5.207V502.576z"/>
	<path d="M373.702,494.618c1.176-0.188,2.708-0.315,4.304-0.315c2.709,0,4.473,0.504,5.816,1.512
		c1.47,1.092,2.394,2.835,2.394,5.334c0,2.708-0.987,4.576-2.331,5.731c-1.49,1.239-3.779,1.827-6.551,1.827
		c-1.658,0-2.855-0.105-3.632-0.211V494.618z M376.894,506.145c0.272,0.063,0.735,0.063,1.112,0.063
		c2.919,0.021,4.83-1.575,4.83-4.955c0-2.939-1.723-4.493-4.494-4.493c-0.692,0-1.176,0.062-1.448,0.126V506.145z"/>
	<path d="M562.506,508.56v-1.932l1.742-1.575c3.002-2.688,4.451-4.22,4.473-5.815c0-1.112-0.651-1.995-2.227-1.995
		c-1.176,0-2.204,0.588-2.918,1.113l-0.902-2.268c1.008-0.777,2.624-1.406,4.451-1.406c3.107,0,4.787,1.805,4.787,4.262
		c0,2.31-1.639,4.137-3.633,5.9l-1.26,1.049v0.043h5.165v2.624H562.506z"/>
	<path d="M578.886,494.598c0.84-0.147,2.52-0.295,4.136-0.295c1.953,0,3.15,0.189,4.199,0.799c0.987,0.524,1.68,1.49,1.68,2.792
		c0,1.239-0.734,2.394-2.33,3.003v0.041c1.617,0.42,2.813,1.659,2.813,3.465c0,1.302-0.588,2.31-1.47,3.023
		c-1.029,0.818-2.75,1.281-5.564,1.281c-1.574,0-2.75-0.105-3.464-0.211V494.598z M582.057,500.014h1.049
		c1.701,0,2.583-0.692,2.583-1.742c0-1.07-0.819-1.638-2.268-1.638c-0.714,0-1.112,0.042-1.364,0.084V500.014z M582.057,506.292
		c0.314,0.042,0.692,0.042,1.238,0.042c1.449,0,2.729-0.566,2.729-2.058c0-1.407-1.28-1.974-2.876-1.974h-1.092V506.292z"/>
	<path d="M591.59,494.408h3.191v11.464h5.627v2.688h-8.818V494.408z"/>
	<path d="M604.841,494.408v8.125c0,2.457,0.944,3.695,2.562,3.695c1.68,0,2.604-1.176,2.604-3.695v-8.125h3.191v7.937
		c0,4.367-2.205,6.446-5.9,6.446c-3.568,0-5.647-1.995-5.647-6.488v-7.895H604.841z"/>
	<path d="M624.391,502.576h-5.207v3.359H625v2.624h-9.008v-14.151h8.714v2.625h-5.522v2.939h5.207V502.576z"/>
	<path d="M288.803,518.61c1.2-0.21,3.601-0.42,5.91-0.42c2.79,0,4.5,0.27,6,1.14c1.41,0.75,2.399,2.13,2.399,3.99
		c0,1.77-1.05,3.42-3.329,4.29v0.06c2.31,0.6,4.02,2.37,4.02,4.95c0,1.859-0.84,3.3-2.1,4.319c-1.471,1.17-3.931,1.83-7.95,1.83
		c-2.25,0-3.93-0.15-4.95-0.3V518.61z M293.333,526.35h1.5c2.43,0,3.689-0.989,3.689-2.489c0-1.53-1.17-2.34-3.239-2.34
		c-1.021,0-1.59,0.06-1.95,0.12V526.35z M293.333,535.319c0.45,0.061,0.99,0.061,1.77,0.061c2.07,0,3.9-0.811,3.9-2.94
		c0-2.01-1.83-2.819-4.11-2.819h-1.56V535.319z"/>
	<path d="M306.953,518.341h4.56v16.379h8.04v3.84h-12.6V518.341z"/>
	<path d="M325.883,518.341v11.609c0,3.51,1.35,5.279,3.659,5.279c2.4,0,3.72-1.68,3.72-5.279v-11.609h4.561v11.339
		c0,6.24-3.15,9.21-8.43,9.21c-5.1,0-8.07-2.85-8.07-9.27v-11.279H325.883z"/>
	<path d="M353.812,530.01h-7.44v4.8h8.31v3.75h-12.869v-20.219h12.449v3.749h-7.89v4.2h7.44V530.01z"/>
	<path d="M366.023,538.56l-4.8-20.219h4.89l1.53,8.31c0.449,2.43,0.869,5.039,1.199,7.079h0.061c0.33-2.189,0.81-4.619,1.319-7.14
		l1.71-8.249h4.86l1.62,8.52c0.449,2.369,0.779,4.529,1.079,6.779h0.061c0.3-2.25,0.75-4.62,1.17-7.05l1.65-8.249h4.649
		l-5.22,20.219h-4.95l-1.71-8.699c-0.39-2.04-0.72-3.931-0.96-6.24h-0.06c-0.36,2.28-0.69,4.2-1.17,6.24l-1.92,8.699H366.023z"/>
	<path d="M393.982,518.341v20.219h-4.56v-20.219H393.982z"/>
	<path d="M397.942,538.56v-20.219h5.34l4.2,7.409c1.2,2.13,2.37,4.65,3.3,6.93h0.06c-0.27-2.67-0.359-5.399-0.359-8.46v-5.879h4.199
		v20.219h-4.799l-4.32-7.8c-1.2-2.16-2.55-4.77-3.51-7.14h-0.12c0.15,2.7,0.21,5.55,0.21,8.85v6.09H397.942z"/>
	<path d="M418.792,533.85c1.2,0.63,3.12,1.26,5.069,1.26c2.101,0,3.21-0.869,3.21-2.189c0-1.26-0.96-1.98-3.39-2.82
		c-3.359-1.199-5.58-3.06-5.58-5.999c0-3.45,2.91-6.061,7.65-6.061c2.31,0,3.96,0.45,5.159,1.021l-1.02,3.66
		c-0.78-0.391-2.25-0.961-4.2-0.961c-1.979,0-2.939,0.931-2.939,1.95c0,1.29,1.109,1.86,3.75,2.851
		c3.569,1.319,5.22,3.18,5.22,6.029c0,3.39-2.58,6.27-8.13,6.27c-2.31,0-4.59-0.63-5.729-1.26L418.792,533.85z"/>
	<path d="M529.816,518.61c1.471-0.24,3.63-0.42,6.09-0.42c3,0,5.101,0.45,6.54,1.59c1.229,0.96,1.89,2.4,1.89,4.26
		c0,2.55-1.83,4.32-3.569,4.95v0.09c1.41,0.57,2.189,1.89,2.699,3.75c0.631,2.31,1.23,4.949,1.62,5.729h-4.68
		c-0.3-0.6-0.81-2.22-1.38-4.71c-0.57-2.55-1.439-3.21-3.33-3.239h-1.35v7.949h-4.53V518.61z M534.347,527.31h1.8
		c2.28,0,3.63-1.14,3.63-2.909c0-1.83-1.26-2.79-3.359-2.79c-1.11,0-1.74,0.06-2.07,0.149V527.31z"/>
	<path d="M559.637,530.01h-7.44v4.8h8.31v3.75h-12.869v-20.219h12.449v3.749h-7.89v4.2h7.44V530.01z"/>
	<path d="M563.626,518.641c1.681-0.271,3.87-0.45,6.15-0.45c3.87,0,6.39,0.72,8.31,2.16c2.1,1.56,3.42,4.05,3.42,7.619
		c0,3.87-1.41,6.54-3.33,8.19c-2.13,1.77-5.399,2.609-9.359,2.609c-2.37,0-4.08-0.15-5.19-0.3V518.641z M568.187,535.109
		c0.39,0.09,1.05,0.09,1.59,0.09c4.17,0.03,6.899-2.249,6.899-7.079c0-4.2-2.46-6.42-6.42-6.42c-0.989,0-1.68,0.09-2.069,0.18
		V535.109z"/>
	<path d="M592.727,538.56l-4.8-20.219h4.89l1.53,8.31c0.449,2.43,0.869,5.039,1.199,7.079h0.061c0.33-2.189,0.81-4.619,1.319-7.14
		l1.71-8.249h4.86l1.62,8.52c0.449,2.369,0.779,4.529,1.079,6.779h0.061c0.3-2.25,0.75-4.62,1.17-7.05l1.65-8.249h4.649
		l-5.22,20.219h-4.95l-1.71-8.699c-0.39-2.04-0.72-3.931-0.96-6.24h-0.06c-0.36,2.28-0.69,4.2-1.17,6.24l-1.92,8.699H592.727z"/>
	<path d="M620.686,518.341v20.219h-4.56v-20.219H620.686z"/>
	<path d="M624.646,538.56v-20.219h5.34l4.2,7.409c1.2,2.13,2.37,4.65,3.3,6.93h0.06c-0.27-2.67-0.359-5.399-0.359-8.46v-5.879h4.199
		v20.219h-4.799l-4.32-7.8c-1.2-2.16-2.55-4.77-3.51-7.14h-0.12c0.15,2.7,0.21,5.55,0.21,8.85v6.09H624.646z"/>
	<path d="M645.495,533.85c1.2,0.63,3.12,1.26,5.069,1.26c2.101,0,3.21-0.869,3.21-2.189c0-1.26-0.96-1.98-3.39-2.82
		c-3.359-1.199-5.58-3.06-5.58-5.999c0-3.45,2.91-6.061,7.65-6.061c2.31,0,3.96,0.45,5.159,1.021l-1.02,3.66
		c-0.78-0.391-2.25-0.961-4.2-0.961c-1.979,0-2.939,0.931-2.939,1.95c0,1.29,1.109,1.86,3.75,2.851
		c3.569,1.319,5.22,3.18,5.22,6.029c0,3.39-2.58,6.27-8.13,6.27c-2.31,0-4.59-0.63-5.729-1.26L645.495,533.85z"/>
</g>
<polygon fill="none" stroke="#000000" stroke-width="4.5" stroke-miterlimit="10" points="540,72 540,108 648,108 648,180 540,180 
	540,216 504,216 504,72 "/>
<polygon fill="none" stroke="#000000" stroke-width="4.5" stroke-miterlimit="10" points="576,216 576,252 684,252 684,72 540,72 
	540,108 648,108 648,216 "/>
<polygon fill="none" stroke="#000000" stroke-width="4.5" stroke-miterlimit="10" points="504,288 540,288 540,324 648,324 648,288 
	576,288 576,216 648,216 648,180 540,180 540,216 504,216 "/>
<polygon fill="none" stroke="#000000" stroke-width="4.5" stroke-miterlimit="10" points="504,432 540,432 540,396 648,396 648,324 
	540,324 540,288 504,288 "/>
<polygon fill="none" stroke="#000000" stroke-width="4.5" stroke-miterlimit="10" points="684,432 684,252 576,252 576,288 648,288 
	648,396 540,396 540,432 "/>
</svg>
