<svg width="326" height="167" viewBox="0 0 326 167" fill="none" xmlns="http://www.w3.org/2000/svg">
<g clip-path="url(#clip0)">
<rect width="326" height="167" fill="white"/>
<path d="M2.42725 2.43744H9.49365V54.082H2.42725V2.43744ZM20.2163 2.43744H26.5444V54.082H20.2163V2.43744ZM36.2476 2.43744H42.5757V54.082H36.2476V2.43744ZM52.103 16.6054H58.5366V54.082H52.103V16.6054ZM52.103 2.43744H58.5366V9.60931H52.103V2.43744ZM82.6538 15.3398C86.896 15.3398 90.3413 16.371 92.9897 18.4335C95.6616 20.496 97.2671 24.0468 97.8062 29.0859H91.6538C91.2788 26.7656 90.4233 24.8437 89.0874 23.3203C87.7515 21.7734 85.6069 20.9999 82.6538 20.9999C78.6226 20.9999 75.7397 22.9687 74.0054 26.9062C72.8804 29.4609 72.3179 32.6132 72.3179 36.3632C72.3179 40.1367 73.1147 43.3124 74.7085 45.8906C76.3022 48.4687 78.8101 49.7578 82.2319 49.7578C84.8569 49.7578 86.9312 48.9609 88.4546 47.3671C90.0015 45.7499 91.0679 43.5468 91.6538 40.7578H97.8062C97.103 45.7499 95.3452 49.4062 92.5327 51.7265C89.7202 54.0234 86.1226 55.1718 81.7397 55.1718C76.8179 55.1718 72.8921 53.3788 69.9624 49.7929C67.0327 46.1835 65.5679 41.6835 65.5679 36.2929C65.5679 29.6835 67.1733 24.539 70.3843 20.8593C73.5952 17.1796 77.6851 15.3398 82.6538 15.3398ZM104.134 16.6054H110.568V54.082H104.134V16.6054ZM104.134 2.43744H110.568V9.60931H104.134V2.43744ZM121.431 5.91791H127.83V16.4296H133.841V21.5976H127.83V46.1718C127.83 47.4843 128.275 48.3632 129.166 48.8085C129.658 49.0663 130.478 49.1953 131.626 49.1953C131.931 49.1953 132.259 49.1953 132.611 49.1953C132.962 49.1718 133.373 49.1367 133.841 49.0898V54.082C133.115 54.2929 132.353 54.4453 131.556 54.539C130.783 54.6328 129.939 54.6796 129.025 54.6796C126.072 54.6796 124.068 53.9296 123.013 52.4296C121.958 50.9062 121.431 48.9374 121.431 46.5234V21.5976H116.333V16.4296H121.431V5.91791Z" fill="black"/>
<path d="M178.619 54.082H171.869V2.89447H178.619V54.082ZM197.041 54.082H190.537V0.0819702H197.041V54.082ZM214.549 54.082H208.045V0.0819702H214.549V54.082ZM232.057 54.082H225.553V16.0429H232.057V54.082ZM225.026 5.95306C225.026 4.89838 225.342 4.00775 225.975 3.28119C226.631 2.55463 227.592 2.19135 228.858 2.19135C230.123 2.19135 231.084 2.55463 231.74 3.28119C232.397 4.00775 232.725 4.89838 232.725 5.95306C232.725 7.00775 232.397 7.88666 231.74 8.58978C231.084 9.29291 230.123 9.64447 228.858 9.64447C227.592 9.64447 226.631 9.29291 225.975 8.58978C225.342 7.88666 225.026 7.00775 225.026 5.95306ZM257.756 49.4765C260.076 49.4765 262.104 48.7734 263.838 47.3671C265.573 45.9609 266.533 44.2031 266.721 42.0937H272.873C272.756 44.2734 272.006 46.3476 270.623 48.3163C269.24 50.2851 267.389 51.8554 265.069 53.0273C262.772 54.1992 260.334 54.7851 257.756 54.7851C252.576 54.7851 248.451 53.0624 245.381 49.6171C242.334 46.1484 240.811 41.414 240.811 35.414V34.3242C240.811 30.621 241.49 27.3281 242.85 24.4453C244.209 21.5624 246.155 19.3242 248.686 17.7304C251.24 16.1367 254.252 15.3398 257.721 15.3398C261.987 15.3398 265.526 16.6171 268.338 19.1718C271.174 21.7265 272.686 25.0429 272.873 29.121H266.721C266.533 26.6601 265.596 24.6445 263.908 23.0742C262.244 21.4804 260.182 20.6835 257.721 20.6835C254.416 20.6835 251.85 21.8788 250.022 24.2695C248.217 26.6367 247.315 30.0703 247.315 34.5703V35.8007C247.315 40.1835 248.217 43.5585 250.022 45.9257C251.826 48.2929 254.405 49.4765 257.756 49.4765ZM287.252 54.082H280.748V16.0429H287.252V54.082ZM280.221 5.95306C280.221 4.89838 280.537 4.00775 281.17 3.28119C281.826 2.55463 282.787 2.19135 284.053 2.19135C285.319 2.19135 286.28 2.55463 286.936 3.28119C287.592 4.00775 287.92 4.89838 287.92 5.95306C287.92 7.00775 287.592 7.88666 286.936 8.58978C286.28 9.29291 285.319 9.64447 284.053 9.64447C282.787 9.64447 281.826 9.29291 281.17 8.58978C280.537 7.88666 280.221 7.00775 280.221 5.95306ZM306.518 6.83197V16.0429H313.619V21.0703H306.518V44.6601C306.518 46.1835 306.834 47.332 307.467 48.1054C308.1 48.8554 309.178 49.2304 310.701 49.2304C311.451 49.2304 312.483 49.0898 313.795 48.8085V54.082C312.084 54.5507 310.42 54.7851 308.803 54.7851C305.897 54.7851 303.705 53.9062 302.229 52.1484C300.752 50.3906 300.014 47.8945 300.014 44.6601V21.0703H293.088V16.0429H300.014V6.83197H306.518Z" fill="black"/>
<path d="M2.20084 92.358H8.17684V143.55H2.20084V92.358ZM20.0883 89.262H26.0643V143.55H20.0883V89.262ZM37.5624 89.262H43.5384V143.55H37.5624V89.262ZM53.7405 89.262H62.3805V98.118H53.7405V89.262ZM55.0365 105.606H61.0125V143.55H55.0365V105.606ZM76.3985 140.67L71.5025 134.046L69.9905 128.934V120.366L71.5025 115.11L76.3985 108.486L83.5985 105.03H89.7185L95.3345 106.83L100.087 111.582L95.8385 115.542L92.2385 111.942L88.9985 110.934H84.5345L80.2145 113.166L76.8305 117.774L75.9665 121.158V128.07L76.9025 131.382L80.3585 136.062L84.7505 138.222H88.9985L92.0945 137.142L95.8385 133.614L100.015 137.718L95.3345 142.326L89.7185 144.126H83.5985L76.3985 140.67ZM105.282 89.262H113.922V98.118H105.282V89.262ZM106.578 105.606H112.554V143.55H106.578V105.606ZM130.172 142.254L126.212 136.566V112.446H119.372V106.542H126.212V93.294H132.188V106.542H142.124V112.446H132.188V134.622L133.988 137.214L136.58 138.222H138.596L143.708 136.926L145.22 142.614L138.524 144.126H135.212L130.172 142.254Z" fill="black"/>
<path d="M169.756 144.55V139.51H176.812V99.334H169.756V94.294H189.916V99.334H182.86V139.51H189.916V144.55H169.756ZM205.784 144.55C203.768 144.55 202.232 143.998 201.176 142.894C200.168 141.742 199.664 140.302 199.664 138.574V91.27H205.424V139.51H210.896V144.55H205.784ZM224.33 144.55C222.314 144.55 220.778 143.998 219.722 142.894C218.714 141.742 218.21 140.302 218.21 138.574V91.27H223.97V139.51H229.442V144.55H224.33ZM239.987 98.686C238.739 98.686 237.827 98.398 237.251 97.822C236.723 97.198 236.459 96.406 236.459 95.446V94.51C236.459 93.55 236.723 92.782 237.251 92.206C237.827 91.582 238.739 91.27 239.987 91.27C241.235 91.27 242.123 91.582 242.651 92.206C243.227 92.782 243.515 93.55 243.515 94.51V95.446C243.515 96.406 243.227 97.198 242.651 97.822C242.123 98.398 241.235 98.686 239.987 98.686ZM237.107 107.398H242.867V144.55H237.107V107.398ZM268.211 145.414C265.619 145.414 263.291 144.958 261.227 144.046C259.163 143.134 257.411 141.838 255.971 140.158C254.579 138.478 253.499 136.438 252.731 134.038C252.011 131.638 251.651 128.95 251.651 125.974C251.651 122.998 252.011 120.31 252.731 117.91C253.499 115.51 254.579 113.47 255.971 111.79C257.411 110.11 259.163 108.814 261.227 107.902C263.291 106.99 265.619 106.534 268.211 106.534C271.907 106.534 274.859 107.35 277.067 108.982C279.323 110.566 281.003 112.654 282.107 115.246L277.283 117.694C276.611 115.774 275.507 114.286 273.971 113.23C272.435 112.174 270.515 111.646 268.211 111.646C266.483 111.646 264.971 111.934 263.675 112.51C262.379 113.038 261.299 113.806 260.435 114.814C259.571 115.774 258.923 116.95 258.491 118.342C258.059 119.686 257.843 121.174 257.843 122.806V129.142C257.843 132.406 258.707 135.094 260.435 137.206C262.211 139.27 264.803 140.302 268.211 140.302C272.867 140.302 276.227 138.142 278.291 133.822L282.467 136.63C281.267 139.318 279.467 141.454 277.067 143.038C274.715 144.622 271.763 145.414 268.211 145.414ZM292.758 98.686C291.51 98.686 290.598 98.398 290.022 97.822C289.494 97.198 289.23 96.406 289.23 95.446V94.51C289.23 93.55 289.494 92.782 290.022 92.206C290.598 91.582 291.51 91.27 292.758 91.27C294.006 91.27 294.894 91.582 295.422 92.206C295.998 92.782 296.286 93.55 296.286 94.51V95.446C296.286 96.406 295.998 97.198 295.422 97.822C294.894 98.398 294.006 98.686 292.758 98.686ZM289.878 107.398H295.638V144.55H289.878V107.398ZM315.366 144.55C313.35 144.55 311.814 143.998 310.758 142.894C309.75 141.742 309.246 140.254 309.246 138.43V112.438H303.126V107.398H306.582C307.83 107.398 308.67 107.158 309.102 106.678C309.582 106.15 309.822 105.262 309.822 104.014V97.102H315.006V107.398H323.142V112.438H315.006V139.51H322.566V144.55H315.366Z" fill="black"/>
<path d="M0.720703 66.6769V60.2346H1.57324V62.8801H4.92188V60.2346H5.77441V66.6769H4.92188V63.6403H1.57324V66.6769H0.720703ZM10.292 65.174L11.1094 65.2751C10.9805 65.7526 10.7417 66.1232 10.3931 66.3869C10.0444 66.6506 9.59912 66.7824 9.05713 66.7824C8.37451 66.7824 7.83252 66.5729 7.43115 66.154C7.03271 65.7321 6.8335 65.1418 6.8335 64.383C6.8335 63.5978 7.03564 62.9885 7.43994 62.5549C7.84424 62.1213 8.36865 61.9045 9.01318 61.9045C9.63721 61.9045 10.147 62.1169 10.5425 62.5417C10.938 62.9665 11.1357 63.5641 11.1357 64.3347C11.1357 64.3815 11.1343 64.4518 11.1313 64.5456H7.65088C7.68018 65.0583 7.8252 65.4509 8.08594 65.7233C8.34668 65.9958 8.67188 66.132 9.06152 66.132C9.35156 66.132 9.59912 66.0558 9.8042 65.9035C10.0093 65.7512 10.1719 65.508 10.292 65.174ZM7.69482 63.8952H10.3008C10.2656 63.5026 10.166 63.2082 10.002 63.0119C9.75 62.7072 9.42334 62.5549 9.02197 62.5549C8.65869 62.5549 8.35254 62.6765 8.10352 62.9196C7.85742 63.1628 7.72119 63.488 7.69482 63.8952ZM12.0894 66.6769V60.2346H12.8804V66.6769H12.0894ZM15.4072 66.6769L13.6318 62.0099H14.4668L15.4688 64.8049C15.5771 65.1066 15.6768 65.4201 15.7676 65.7453C15.8379 65.4992 15.936 65.2033 16.062 64.8576L17.0991 62.0099H17.9121L16.1455 66.6769H15.4072ZM21.8057 65.174L22.623 65.2751C22.4941 65.7526 22.2554 66.1232 21.9067 66.3869C21.5581 66.6506 21.1128 66.7824 20.5708 66.7824C19.8882 66.7824 19.3462 66.5729 18.9448 66.154C18.5464 65.7321 18.3472 65.1418 18.3472 64.383C18.3472 63.5978 18.5493 62.9885 18.9536 62.5549C19.3579 62.1213 19.8823 61.9045 20.5269 61.9045C21.1509 61.9045 21.6606 62.1169 22.0562 62.5417C22.4517 62.9665 22.6494 63.5641 22.6494 64.3347C22.6494 64.3815 22.6479 64.4518 22.645 64.5456H19.1646C19.1938 65.0583 19.3389 65.4509 19.5996 65.7233C19.8604 65.9958 20.1855 66.132 20.5752 66.132C20.8652 66.132 21.1128 66.0558 21.3179 65.9035C21.5229 65.7512 21.6855 65.508 21.8057 65.174ZM19.2085 63.8952H21.8145C21.7793 63.5026 21.6797 63.2082 21.5156 63.0119C21.2637 62.7072 20.937 62.5549 20.5356 62.5549C20.1724 62.5549 19.8662 62.6765 19.6172 62.9196C19.3711 63.1628 19.2349 63.488 19.2085 63.8952ZM25.3477 65.9694L25.4619 66.6682C25.2393 66.715 25.04 66.7385 24.8643 66.7385C24.5771 66.7385 24.3545 66.6931 24.1963 66.6022C24.0381 66.5114 23.9268 66.3928 23.8623 66.2463C23.7979 66.0969 23.7656 65.7849 23.7656 65.3102V62.6252H23.1855V62.0099H23.7656V60.8542L24.5522 60.3796V62.0099H25.3477V62.6252H24.5522V65.3542C24.5522 65.5798 24.5654 65.7248 24.5918 65.7892C24.6211 65.8537 24.6665 65.905 24.728 65.9431C24.7925 65.9811 24.8833 66.0002 25.0005 66.0002C25.0884 66.0002 25.2041 65.9899 25.3477 65.9694ZM26.1299 61.1442V60.2346H26.9209V61.1442H26.1299ZM26.1299 66.6769V62.0099H26.9209V66.6769H26.1299ZM31.1748 64.9675L31.9526 65.0685C31.8677 65.6047 31.6494 66.0251 31.2979 66.3298C30.9492 66.6315 30.52 66.7824 30.0103 66.7824C29.3716 66.7824 28.8574 66.5744 28.4678 66.1584C28.0811 65.7394 27.8877 65.1403 27.8877 64.361C27.8877 63.8571 27.9712 63.4162 28.1382 63.0383C28.3052 62.6603 28.5586 62.3776 28.8984 62.1901C29.2412 61.9997 29.6133 61.9045 30.0146 61.9045C30.5215 61.9045 30.936 62.0334 31.2583 62.2912C31.5806 62.5461 31.7871 62.9094 31.8779 63.381L31.1089 63.4997C31.0356 63.1862 30.9053 62.9504 30.7178 62.7922C30.5332 62.634 30.3091 62.5549 30.0454 62.5549C29.647 62.5549 29.3232 62.6984 29.0742 62.9855C28.8252 63.2697 28.7007 63.7209 28.7007 64.3391C28.7007 64.966 28.8208 65.4216 29.061 65.7057C29.3013 65.9899 29.6147 66.132 30.0015 66.132C30.312 66.132 30.5713 66.0368 30.7793 65.8464C30.9873 65.6559 31.1191 65.363 31.1748 64.9675ZM35.6748 66.1013C35.3818 66.3503 35.0991 66.5261 34.8267 66.6286C34.5571 66.7311 34.2671 66.7824 33.9565 66.7824C33.4438 66.7824 33.0498 66.6579 32.7744 66.4089C32.499 66.1569 32.3613 65.8361 32.3613 65.4465C32.3613 65.218 32.4126 65.0099 32.5151 64.8224C32.6206 64.632 32.7568 64.4797 32.9238 64.3654C33.0938 64.2512 33.2842 64.1647 33.4951 64.1061C33.6504 64.0651 33.8848 64.0256 34.1982 63.9875C34.8369 63.9113 35.3071 63.8205 35.6089 63.715C35.6118 63.6066 35.6133 63.5378 35.6133 63.5085C35.6133 63.1862 35.5386 62.9592 35.3892 62.8273C35.187 62.6486 34.8867 62.5593 34.4883 62.5593C34.1162 62.5593 33.8408 62.6252 33.6621 62.757C33.4863 62.8859 33.356 63.1159 33.271 63.447L32.4976 63.3415C32.5679 63.0104 32.6836 62.7438 32.8447 62.5417C33.0059 62.3366 33.2388 62.1799 33.5435 62.0715C33.8481 61.9601 34.2012 61.9045 34.6025 61.9045C35.001 61.9045 35.3247 61.9514 35.5737 62.0451C35.8228 62.1389 36.0059 62.2575 36.123 62.4011C36.2402 62.5417 36.3223 62.7204 36.3691 62.9372C36.3955 63.072 36.4087 63.3151 36.4087 63.6667V64.7214C36.4087 65.4567 36.4248 65.9225 36.457 66.1188C36.4922 66.3122 36.5596 66.4982 36.6592 66.6769H35.833C35.751 66.5129 35.6982 66.321 35.6748 66.1013ZM35.6089 64.3347C35.3218 64.4518 34.8911 64.5515 34.3169 64.6335C33.9917 64.6804 33.7617 64.7331 33.627 64.7917C33.4922 64.8503 33.3882 64.9367 33.3149 65.051C33.2417 65.1623 33.2051 65.2868 33.2051 65.4245C33.2051 65.6354 33.2842 65.8112 33.4424 65.9518C33.6035 66.0925 33.8379 66.1628 34.1455 66.1628C34.4502 66.1628 34.7212 66.0969 34.9585 65.965C35.1958 65.8303 35.3701 65.6472 35.4814 65.4157C35.5664 65.237 35.6089 64.9733 35.6089 64.6247V64.3347Z" fill="black"/>
<path d="M3.70898 155.662V154.906L6.43799 154.902V157.292C6.01904 157.626 5.58691 157.878 5.1416 158.048C4.69629 158.215 4.23926 158.299 3.77051 158.299C3.1377 158.299 2.56201 158.164 2.04346 157.895C1.52783 157.622 1.13818 157.229 0.874512 156.717C0.61084 156.204 0.479004 155.631 0.479004 154.999C0.479004 154.372 0.609375 153.787 0.870117 153.245C1.13379 152.7 1.51172 152.296 2.00391 152.032C2.49609 151.769 3.06299 151.637 3.70459 151.637C4.17041 151.637 4.59082 151.713 4.96582 151.865C5.34375 152.015 5.63965 152.224 5.85352 152.494C6.06738 152.763 6.22998 153.115 6.34131 153.548L5.57227 153.759C5.47559 153.431 5.35547 153.173 5.21191 152.986C5.06836 152.798 4.86328 152.649 4.59668 152.538C4.33008 152.423 4.03418 152.366 3.70898 152.366C3.31934 152.366 2.98242 152.426 2.69824 152.546C2.41406 152.664 2.18408 152.819 2.0083 153.012C1.83545 153.206 1.70068 153.418 1.604 153.649C1.43994 154.048 1.35791 154.48 1.35791 154.946C1.35791 155.52 1.45605 156 1.65234 156.387C1.85156 156.774 2.14014 157.061 2.51807 157.249C2.896 157.436 3.29736 157.53 3.72217 157.53C4.09131 157.53 4.45166 157.459 4.80322 157.319C5.15479 157.175 5.42139 157.023 5.60303 156.862V155.662H3.70898ZM9.33838 158.189V152.507H7.21582V151.747H12.3223V152.507H10.1909V158.189H9.33838ZM20.1357 155.93L20.9883 156.146C20.8096 156.846 20.4873 157.38 20.0215 157.75C19.5586 158.116 18.9917 158.299 18.3208 158.299C17.6265 158.299 17.061 158.158 16.6245 157.877C16.1909 157.593 15.8599 157.183 15.6313 156.646C15.4058 156.11 15.293 155.535 15.293 154.919C15.293 154.249 15.4204 153.664 15.6753 153.166C15.9331 152.665 16.2979 152.286 16.7695 152.028C17.2441 151.767 17.7656 151.637 18.334 151.637C18.9785 151.637 19.5205 151.801 19.96 152.129C20.3994 152.457 20.7056 152.918 20.8784 153.513L20.0391 153.711C19.8896 153.242 19.6729 152.901 19.3887 152.687C19.1045 152.473 18.7471 152.366 18.3164 152.366C17.8213 152.366 17.4067 152.485 17.0728 152.722C16.7417 152.959 16.5088 153.279 16.374 153.68C16.2393 154.079 16.1719 154.49 16.1719 154.915C16.1719 155.463 16.251 155.942 16.4092 156.352C16.5703 156.759 16.8193 157.064 17.1562 157.266C17.4932 157.468 17.8579 157.569 18.2505 157.569C18.728 157.569 19.1323 157.432 19.4634 157.156C19.7944 156.881 20.0186 156.472 20.1357 155.93ZM21.9463 152.656V151.747H22.7373V152.656H21.9463ZM21.9463 158.189V153.522H22.7373V158.189H21.9463ZM23.9458 158.189V153.522H24.6577V154.186C25.0005 153.673 25.4956 153.417 26.1431 153.417C26.4243 153.417 26.6821 153.468 26.9165 153.57C27.1538 153.67 27.3311 153.802 27.4482 153.966C27.5654 154.13 27.6475 154.325 27.6943 154.55C27.7236 154.697 27.7383 154.953 27.7383 155.319V158.189H26.9473V155.35C26.9473 155.028 26.9165 154.788 26.855 154.629C26.7935 154.468 26.6836 154.341 26.5254 154.247C26.3701 154.15 26.187 154.102 25.9761 154.102C25.6392 154.102 25.3477 154.209 25.1016 154.423C24.8584 154.637 24.7368 155.042 24.7368 155.64V158.189H23.9458ZM32.1504 156.686L32.9678 156.787C32.8389 157.265 32.6001 157.635 32.2515 157.899C31.9028 158.163 31.4575 158.294 30.9155 158.294C30.2329 158.294 29.6909 158.085 29.2896 157.666C28.8911 157.244 28.6919 156.654 28.6919 155.895C28.6919 155.11 28.894 154.5 29.2983 154.067C29.7026 153.633 30.2271 153.417 30.8716 153.417C31.4956 153.417 32.0054 153.629 32.4009 154.054C32.7964 154.479 32.9941 155.076 32.9941 155.847C32.9941 155.894 32.9927 155.964 32.9897 156.058H29.5093C29.5386 156.57 29.6836 156.963 29.9443 157.235C30.2051 157.508 30.5303 157.644 30.9199 157.644C31.21 157.644 31.4575 157.568 31.6626 157.416C31.8677 157.263 32.0303 157.02 32.1504 156.686ZM29.5532 155.407H32.1592C32.124 155.015 32.0244 154.72 31.8604 154.524C31.6084 154.219 31.2817 154.067 30.8804 154.067C30.5171 154.067 30.2109 154.188 29.9619 154.432C29.7158 154.675 29.5796 155 29.5532 155.407ZM35.6924 157.481L35.8066 158.18C35.584 158.227 35.3848 158.25 35.209 158.25C34.9219 158.25 34.6992 158.205 34.541 158.114C34.3828 158.023 34.2715 157.905 34.207 157.758C34.1426 157.609 34.1104 157.297 34.1104 156.822V154.137H33.5303V153.522H34.1104V152.366L34.897 151.892V153.522H35.6924V154.137H34.897V156.866C34.897 157.092 34.9102 157.237 34.9365 157.301C34.9658 157.366 35.0112 157.417 35.0728 157.455C35.1372 157.493 35.228 157.512 35.3452 157.512C35.4331 157.512 35.5488 157.502 35.6924 157.481ZM36.4351 159.986L36.3472 159.244C36.52 159.291 36.6709 159.314 36.7998 159.314C36.9756 159.314 37.1162 159.285 37.2217 159.226C37.3271 159.167 37.4136 159.085 37.481 158.98C37.5308 158.901 37.6113 158.705 37.7227 158.391C37.7373 158.347 37.7607 158.283 37.793 158.198L36.022 153.522H36.8745L37.8457 156.225C37.9717 156.567 38.0845 156.928 38.1841 157.306C38.2749 156.942 38.3833 156.588 38.5093 156.242L39.5068 153.522H40.2979L38.5225 158.268C38.332 158.781 38.1841 159.134 38.0786 159.327C37.938 159.588 37.7769 159.778 37.5952 159.898C37.4136 160.021 37.1968 160.083 36.9448 160.083C36.7925 160.083 36.6226 160.051 36.4351 159.986ZM40.9702 159.978V153.522H41.6909V154.128C41.8608 153.891 42.0527 153.714 42.2666 153.597C42.4805 153.477 42.7397 153.417 43.0444 153.417C43.4429 153.417 43.7944 153.519 44.0991 153.724C44.4038 153.929 44.6338 154.219 44.7891 154.594C44.9443 154.966 45.022 155.375 45.022 155.82C45.022 156.298 44.9355 156.729 44.7627 157.112C44.5928 157.493 44.3438 157.786 44.0156 157.991C43.6904 158.193 43.3477 158.294 42.9873 158.294C42.7236 158.294 42.4863 158.239 42.2754 158.127C42.0674 158.016 41.896 157.875 41.7612 157.706V159.978H40.9702ZM41.6865 155.882C41.6865 156.482 41.8081 156.926 42.0513 157.213C42.2944 157.5 42.5889 157.644 42.9346 157.644C43.2861 157.644 43.5864 157.496 43.8354 157.2C44.0874 156.901 44.2134 156.44 44.2134 155.816C44.2134 155.221 44.0903 154.776 43.8442 154.48C43.6011 154.184 43.3096 154.036 42.9697 154.036C42.6328 154.036 42.334 154.194 42.0732 154.511C41.8154 154.824 41.6865 155.281 41.6865 155.882ZM49.1748 156.686L49.9922 156.787C49.8633 157.265 49.6245 157.635 49.2759 157.899C48.9272 158.163 48.4819 158.294 47.9399 158.294C47.2573 158.294 46.7153 158.085 46.314 157.666C45.9155 157.244 45.7163 156.654 45.7163 155.895C45.7163 155.11 45.9185 154.5 46.3228 154.067C46.7271 153.633 47.2515 153.417 47.896 153.417C48.52 153.417 49.0298 153.629 49.4253 154.054C49.8208 154.479 50.0186 155.076 50.0186 155.847C50.0186 155.894 50.0171 155.964 50.0142 156.058H46.5337C46.563 156.57 46.708 156.963 46.9688 157.235C47.2295 157.508 47.5547 157.644 47.9443 157.644C48.2344 157.644 48.4819 157.568 48.687 157.416C48.8921 157.263 49.0547 157.02 49.1748 156.686ZM46.5776 155.407H49.1836C49.1484 155.015 49.0488 154.72 48.8848 154.524C48.6328 154.219 48.3062 154.067 47.9048 154.067C47.5415 154.067 47.2354 154.188 46.9863 154.432C46.7402 154.675 46.604 155 46.5776 155.407Z" fill="black"/>
<path d="M170.69 66.6769V60.2346H173.547C174.121 60.2346 174.557 60.2932 174.856 60.4103C175.155 60.5246 175.394 60.7282 175.573 61.0212C175.751 61.3141 175.841 61.6379 175.841 61.9924C175.841 62.4494 175.693 62.8347 175.397 63.1481C175.101 63.4616 174.644 63.6608 174.026 63.7458C174.251 63.8542 174.423 63.9611 174.54 64.0666C174.789 64.2951 175.025 64.5807 175.247 64.9235L176.368 66.6769H175.296L174.443 65.3366C174.194 64.9499 173.989 64.654 173.828 64.4489C173.667 64.2438 173.522 64.1003 173.393 64.0182C173.267 63.9362 173.138 63.8791 173.006 63.8469C172.909 63.8264 172.751 63.8161 172.531 63.8161H171.543V66.6769H170.69ZM171.543 63.0778H173.375C173.765 63.0778 174.07 63.0383 174.289 62.9592C174.509 62.8771 174.676 62.7482 174.79 62.5724C174.905 62.3937 174.962 62.2004 174.962 61.9924C174.962 61.6877 174.85 61.4372 174.628 61.2409C174.408 61.0446 174.059 60.9465 173.582 60.9465H171.543V63.0778ZM176.785 64.3434C176.785 63.4792 177.026 62.8391 177.506 62.423C177.907 62.0773 178.397 61.9045 178.974 61.9045C179.615 61.9045 180.14 62.1154 180.547 62.5373C180.954 62.9562 181.158 63.5363 181.158 64.2775C181.158 64.8781 181.067 65.3513 180.885 65.697C180.707 66.0397 180.445 66.3063 180.099 66.4968C179.756 66.6872 179.381 66.7824 178.974 66.7824C178.321 66.7824 177.792 66.5729 177.387 66.154C176.986 65.735 176.785 65.1315 176.785 64.3434ZM177.598 64.3434C177.598 64.9411 177.729 65.3893 177.99 65.6882C178.25 65.9841 178.578 66.132 178.974 66.132C179.366 66.132 179.693 65.9826 179.954 65.6838C180.215 65.3849 180.345 64.9294 180.345 64.3171C180.345 63.7399 180.213 63.3034 179.949 63.0075C179.689 62.7087 179.364 62.5593 178.974 62.5593C178.578 62.5593 178.25 62.7072 177.99 63.0031C177.729 63.299 177.598 63.7458 177.598 64.3434ZM182.819 66.6769H182.085V60.2346H182.876V62.5329C183.21 62.114 183.636 61.9045 184.155 61.9045C184.442 61.9045 184.713 61.9631 184.968 62.0803C185.226 62.1945 185.437 62.3571 185.601 62.5681C185.768 62.7761 185.898 63.028 185.992 63.3239C186.086 63.6198 186.133 63.9362 186.133 64.2731C186.133 65.0729 185.935 65.6911 185.539 66.1276C185.144 66.5641 184.669 66.7824 184.115 66.7824C183.565 66.7824 183.133 66.5524 182.819 66.0925V66.6769ZM182.81 64.3083C182.81 64.8679 182.886 65.2722 183.039 65.5212C183.288 65.9284 183.625 66.132 184.05 66.132C184.395 66.132 184.694 65.9826 184.946 65.6838C185.198 65.382 185.324 64.9338 185.324 64.3391C185.324 63.7297 185.202 63.28 184.959 62.9899C184.719 62.6999 184.427 62.5549 184.085 62.5549C183.739 62.5549 183.44 62.7057 183.188 63.0075C182.936 63.3063 182.81 63.7399 182.81 64.3083ZM186.805 64.3434C186.805 63.4792 187.045 62.8391 187.526 62.423C187.927 62.0773 188.416 61.9045 188.993 61.9045C189.635 61.9045 190.159 62.1154 190.567 62.5373C190.974 62.9562 191.177 63.5363 191.177 64.2775C191.177 64.8781 191.087 65.3513 190.905 65.697C190.726 66.0397 190.464 66.3063 190.118 66.4968C189.776 66.6872 189.401 66.7824 188.993 66.7824C188.34 66.7824 187.811 66.5729 187.407 66.154C187.006 65.735 186.805 65.1315 186.805 64.3434ZM187.618 64.3434C187.618 64.9411 187.748 65.3893 188.009 65.6882C188.27 65.9841 188.598 66.132 188.993 66.132C189.386 66.132 189.713 65.9826 189.973 65.6838C190.234 65.3849 190.365 64.9294 190.365 64.3171C190.365 63.7399 190.233 63.3034 189.969 63.0075C189.708 62.7087 189.383 62.5593 188.993 62.5593C188.598 62.5593 188.27 62.7072 188.009 63.0031C187.748 63.299 187.618 63.7458 187.618 64.3434ZM193.836 65.9694L193.95 66.6682C193.728 66.715 193.529 66.7385 193.353 66.7385C193.066 66.7385 192.843 66.6931 192.685 66.6022C192.527 66.5114 192.415 66.3928 192.351 66.2463C192.286 66.0969 192.254 65.7849 192.254 65.3102V62.6252H191.674V62.0099H192.254V60.8542L193.041 60.3796V62.0099H193.836V62.6252H193.041V65.3542C193.041 65.5798 193.054 65.7248 193.08 65.7892C193.11 65.8537 193.155 65.905 193.217 65.9431C193.281 65.9811 193.372 66.0002 193.489 66.0002C193.577 66.0002 193.693 65.9899 193.836 65.9694ZM194.32 64.3434C194.32 63.4792 194.56 62.8391 195.04 62.423C195.442 62.0773 195.931 61.9045 196.508 61.9045C197.15 61.9045 197.674 62.1154 198.081 62.5373C198.489 62.9562 198.692 63.5363 198.692 64.2775C198.692 64.8781 198.601 65.3513 198.42 65.697C198.241 66.0397 197.979 66.3063 197.633 66.4968C197.29 66.6872 196.915 66.7824 196.508 66.7824C195.855 66.7824 195.326 66.5729 194.922 66.154C194.52 65.735 194.32 65.1315 194.32 64.3434ZM195.133 64.3434C195.133 64.9411 195.263 65.3893 195.524 65.6882C195.784 65.9841 196.113 66.132 196.508 66.132C196.901 66.132 197.227 65.9826 197.488 65.6838C197.749 65.3849 197.879 64.9294 197.879 64.3171C197.879 63.7399 197.747 63.3034 197.484 63.0075C197.223 62.7087 196.898 62.5593 196.508 62.5593C196.113 62.5593 195.784 62.7072 195.524 63.0031C195.263 63.299 195.133 63.7458 195.133 64.3434Z" fill="black"/>
<path d="M170.822 158.189V151.747H171.675V158.189H170.822ZM173.147 158.189V151.747H175.564C176.056 151.747 176.45 151.812 176.746 151.944C177.045 152.073 177.278 152.274 177.445 152.546C177.615 152.816 177.699 153.099 177.699 153.395C177.699 153.67 177.625 153.929 177.475 154.172C177.326 154.416 177.1 154.612 176.799 154.761C177.188 154.875 177.487 155.07 177.695 155.346C177.906 155.621 178.011 155.946 178.011 156.321C178.011 156.623 177.947 156.904 177.818 157.165C177.692 157.423 177.535 157.622 177.348 157.763C177.16 157.903 176.925 158.01 176.64 158.083C176.359 158.154 176.013 158.189 175.603 158.189H173.147ZM173.999 154.454H175.392C175.77 154.454 176.041 154.429 176.205 154.379C176.422 154.314 176.585 154.208 176.693 154.058C176.804 153.909 176.86 153.721 176.86 153.496C176.86 153.282 176.809 153.094 176.706 152.933C176.604 152.769 176.457 152.658 176.267 152.599C176.076 152.538 175.75 152.507 175.287 152.507H173.999V154.454ZM173.999 157.429H175.603C175.879 157.429 176.072 157.418 176.183 157.398C176.38 157.363 176.544 157.304 176.676 157.222C176.807 157.14 176.916 157.021 177.001 156.866C177.086 156.708 177.128 156.526 177.128 156.321C177.128 156.081 177.067 155.873 176.944 155.697C176.821 155.519 176.649 155.394 176.429 155.324C176.213 155.25 175.899 155.214 175.489 155.214H173.999V157.429ZM179.158 158.189V151.747H180.442L181.967 156.308C182.107 156.733 182.21 157.051 182.274 157.262C182.347 157.027 182.462 156.683 182.617 156.229L184.159 151.747H185.306V158.189H184.485V152.797L182.613 158.189H181.844L179.98 152.705V158.189H179.158ZM189.187 158.189V151.747H191.617C192.045 151.747 192.371 151.767 192.597 151.808C192.913 151.861 193.178 151.962 193.392 152.111C193.606 152.258 193.778 152.464 193.906 152.731C194.038 152.998 194.104 153.291 194.104 153.61C194.104 154.158 193.93 154.622 193.581 155.003C193.233 155.381 192.603 155.57 191.692 155.57H190.039V158.189H189.187ZM190.039 154.81H191.705C192.256 154.81 192.647 154.707 192.878 154.502C193.11 154.297 193.225 154.008 193.225 153.636C193.225 153.367 193.156 153.137 193.019 152.946C192.884 152.753 192.705 152.625 192.483 152.564C192.339 152.526 192.074 152.507 191.687 152.507H190.039V154.81ZM195.071 158.189V151.747H195.862V158.189H195.071ZM200.287 156.686L201.105 156.787C200.976 157.265 200.737 157.635 200.388 157.899C200.04 158.163 199.594 158.294 199.052 158.294C198.37 158.294 197.828 158.085 197.427 157.666C197.028 157.244 196.829 156.654 196.829 155.895C196.829 155.11 197.031 154.5 197.435 154.067C197.84 153.633 198.364 153.417 199.009 153.417C199.633 153.417 200.142 153.629 200.538 154.054C200.933 154.479 201.131 155.076 201.131 155.847C201.131 155.894 201.13 155.964 201.127 156.058H197.646C197.676 156.57 197.821 156.963 198.081 157.235C198.342 157.508 198.667 157.644 199.057 157.644C199.347 157.644 199.594 157.568 199.8 157.416C200.005 157.263 200.167 157.02 200.287 156.686ZM197.69 155.407H200.296C200.261 155.015 200.161 154.72 199.997 154.524C199.745 154.219 199.419 154.067 199.017 154.067C198.654 154.067 198.348 154.188 198.099 154.432C197.853 154.675 197.717 155 197.69 155.407ZM201.575 158.189L203.28 155.763L201.702 153.522H202.691L203.407 154.616C203.542 154.824 203.651 154.999 203.733 155.139C203.862 154.946 203.98 154.774 204.089 154.625L204.875 153.522H205.82L204.207 155.719L205.943 158.189H204.972L204.014 156.739L203.759 156.348L202.533 158.189H201.575Z" fill="black"/>
</g>
<defs>
<clipPath id="clip0">
<rect width="326" height="167" fill="white"/>
</clipPath>
</defs>
</svg>
